%TF.GenerationSoftware,KiCad,Pcbnew,9.0.1*%
%TF.CreationDate,2025-11-16T15:10:03+03:00*%
%TF.ProjectId,MCU Datalogger wirh 512KB EEPROM,4d435520-4461-4746-916c-6f6767657220,1*%
%TF.SameCoordinates,Original*%
%TF.FileFunction,Copper,L2,Bot*%
%TF.FilePolarity,Positive*%
%FSLAX46Y46*%
G04 Gerber Fmt 4.6, Leading zero omitted, Abs format (unit mm)*
G04 Created by KiCad (PCBNEW 9.0.1) date 2025-11-16 15:10:03*
%MOMM*%
%LPD*%
G01*
G04 APERTURE LIST*
%TA.AperFunction,ComponentPad*%
%ADD10C,1.700000*%
%TD*%
%TA.AperFunction,ComponentPad*%
%ADD11R,1.700000X1.700000*%
%TD*%
%TA.AperFunction,ViaPad*%
%ADD12C,0.700000*%
%TD*%
%TA.AperFunction,ViaPad*%
%ADD13C,0.600000*%
%TD*%
%TA.AperFunction,Conductor*%
%ADD14C,0.200000*%
%TD*%
%TA.AperFunction,Conductor*%
%ADD15C,0.250000*%
%TD*%
%TA.AperFunction,Conductor*%
%ADD16C,0.300000*%
%TD*%
G04 APERTURE END LIST*
D10*
%TO.P,J3,9,Pin_9*%
%TO.N,/Vcc*%
X157268500Y-107502100D03*
%TO.P,J3,8,Pin_8*%
%TO.N,GND*%
X157268500Y-104962100D03*
%TO.P,J3,7,Pin_7*%
%TO.N,/D8*%
X157268500Y-102422100D03*
%TO.P,J3,6,Pin_6*%
%TO.N,/D7*%
X157268500Y-99882100D03*
%TO.P,J3,5,Pin_5*%
%TO.N,/D6*%
X157268500Y-97342100D03*
%TO.P,J3,4,Pin_4*%
%TO.N,/D5*%
X157268500Y-94802100D03*
%TO.P,J3,3,Pin_3*%
%TO.N,/D4*%
X157268500Y-92262100D03*
%TO.P,J3,2,Pin_2*%
%TO.N,/D3*%
X157268500Y-89722100D03*
D11*
%TO.P,J3,1,Pin_1*%
%TO.N,/D2*%
X157268500Y-87182100D03*
%TD*%
D10*
%TO.P,BT1,2,-*%
%TO.N,GND*%
X137368500Y-80162100D03*
D11*
%TO.P,BT1,1,+*%
%TO.N,/Vcc*%
X134828500Y-80162100D03*
%TD*%
D10*
%TO.P,J1,4,Pin_4*%
%TO.N,/SCL*%
X119293500Y-101112100D03*
%TO.P,J1,3,Pin_3*%
%TO.N,/SDA*%
X119293500Y-98572100D03*
%TO.P,J1,2,Pin_2*%
%TO.N,/Vcc*%
X119293500Y-96032100D03*
D11*
%TO.P,J1,1,Pin_1*%
%TO.N,GND*%
X119293500Y-93492100D03*
%TD*%
D10*
%TO.P,J4,6,Pin_6*%
%TO.N,GND*%
X115053500Y-83207100D03*
%TO.P,J4,5,Pin_5*%
%TO.N,/RESET*%
X117593500Y-83207100D03*
%TO.P,J4,4,Pin_4*%
%TO.N,/MOSI*%
X115053500Y-85747100D03*
%TO.P,J4,3,Pin_3*%
%TO.N,/SCL*%
X117593500Y-85747100D03*
%TO.P,J4,2,Pin_2*%
%TO.N,/Vcc*%
X115053500Y-88287100D03*
D11*
%TO.P,J4,1,Pin_1*%
%TO.N,/MISO*%
X117593500Y-88287100D03*
%TD*%
D10*
%TO.P,J2,4,Pin_4*%
%TO.N,/TX*%
X119293500Y-113247100D03*
%TO.P,J2,3,Pin_3*%
%TO.N,/RX*%
X119293500Y-110707100D03*
%TO.P,J2,2,Pin_2*%
%TO.N,/Vcc*%
X119293500Y-108167100D03*
D11*
%TO.P,J2,1,Pin_1*%
%TO.N,GND*%
X119293500Y-105627100D03*
%TD*%
D12*
%TO.N,GND*%
X134725100Y-109462100D03*
X150092100Y-94863900D03*
X153063900Y-104363500D03*
X125377900Y-101442500D03*
X141278300Y-104084100D03*
X147196500Y-91512100D03*
X138093500Y-106687100D03*
X133543500Y-104058700D03*
X145253400Y-88399600D03*
X135944300Y-86050100D03*
X140008300Y-100832900D03*
X117478500Y-90212100D03*
X121567900Y-105277900D03*
X130838900Y-100223300D03*
X132108900Y-82849700D03*
X153800500Y-100350300D03*
X121821900Y-89733100D03*
X144427900Y-90393500D03*
X132032700Y-87040700D03*
X136655500Y-95778300D03*
%TO.N,/Vcc*%
X140744900Y-80360500D03*
X147320725Y-84554275D03*
D13*
%TO.N,/SDA*%
X132489900Y-91104700D03*
X122380700Y-96210100D03*
X136274500Y-90291900D03*
X134064700Y-90266500D03*
X124666700Y-92749600D03*
X150142900Y-90291900D03*
%TO.N,/RX*%
X129543500Y-94737100D03*
%TO.N,/D2*%
X145068500Y-87387100D03*
X136118500Y-93062100D03*
X132616900Y-95803700D03*
X136368500Y-91612100D03*
X148268500Y-82062100D03*
%TO.N,/D7*%
X143693500Y-92212100D03*
%TO.N,/TX*%
X137868500Y-93762100D03*
%TO.N,/MOSI*%
X142468500Y-92737100D03*
%TO.N,/D5*%
X139793500Y-96812100D03*
X139818500Y-98312100D03*
X142718500Y-106802100D03*
X142469973Y-98362100D03*
X142268500Y-103762100D03*
%TO.N,/D6*%
X143843500Y-97018431D03*
%TO.N,/D4*%
X154018500Y-93337100D03*
X128868500Y-97462100D03*
X144743500Y-105987100D03*
%TO.N,/SCL*%
X153063900Y-84754700D03*
X150447700Y-81274900D03*
X129493500Y-92841100D03*
X130051500Y-82087700D03*
X130330900Y-87396300D03*
X130393500Y-115737100D03*
X131118500Y-85562100D03*
%TO.N,/D3*%
X140668500Y-82362100D03*
X145793500Y-82037100D03*
X134743500Y-91187100D03*
X133941500Y-95762100D03*
X136593500Y-94162100D03*
%TO.N,/D8*%
X142643500Y-94312100D03*
%TO.N,/MISO*%
X139443500Y-83612100D03*
%TD*%
D14*
%TO.N,/D5*%
X142718500Y-107837100D02*
X142718500Y-106802100D01*
X148393500Y-113512100D02*
X142718500Y-107837100D01*
X159057900Y-113512100D02*
X148393500Y-113512100D01*
X160616400Y-93860000D02*
X161618500Y-94862100D01*
X161618500Y-94862100D02*
X161618500Y-110951500D01*
X161618500Y-110951500D02*
X159057900Y-113512100D01*
X158210600Y-93860000D02*
X160616400Y-93860000D01*
X157268500Y-94802100D02*
X158210600Y-93860000D01*
%TO.N,/D6*%
X143862169Y-97037100D02*
X143843500Y-97018431D01*
X143918500Y-104237100D02*
X143918500Y-97037100D01*
X160180000Y-109380000D02*
X158820000Y-110740000D01*
X158820000Y-110740000D02*
X150421400Y-110740000D01*
X150421400Y-110740000D02*
X143918500Y-104237100D01*
X160180000Y-98773600D02*
X160180000Y-109380000D01*
X158748500Y-97342100D02*
X160180000Y-98773600D01*
X143918500Y-97037100D02*
X143862169Y-97037100D01*
X157268500Y-97342100D02*
X158748500Y-97342100D01*
%TO.N,/D4*%
X127818500Y-97462100D02*
X128868500Y-97462100D01*
X126493500Y-98787100D02*
X127818500Y-97462100D01*
X123443500Y-98787100D02*
X126493500Y-98787100D01*
X115918500Y-114448500D02*
X115918500Y-106312100D01*
X116857100Y-115387100D02*
X115918500Y-114448500D01*
X135718500Y-105987100D02*
X126318500Y-115387100D01*
X115918500Y-106312100D02*
X123443500Y-98787100D01*
X144743500Y-105987100D02*
X135718500Y-105987100D01*
X126318500Y-115387100D02*
X116857100Y-115387100D01*
%TO.N,/SCL*%
X115557100Y-116837100D02*
X129293500Y-116837100D01*
X129293500Y-116837100D02*
X130393500Y-115737100D01*
X114368500Y-106037100D02*
X114368500Y-115648500D01*
X119293500Y-101112100D02*
X114368500Y-106037100D01*
X114368500Y-115648500D02*
X115557100Y-116837100D01*
%TO.N,/MOSI*%
X111760000Y-90030000D02*
X112680000Y-90950000D01*
X111760000Y-89040600D02*
X111760000Y-90030000D01*
X112717900Y-90912100D02*
X112680000Y-90950000D01*
X120623100Y-91866700D02*
X119668500Y-90912100D01*
X135773157Y-91866700D02*
X120623100Y-91866700D01*
X136617443Y-92213100D02*
X136119557Y-92213100D01*
X136119557Y-92213100D02*
X135773157Y-91866700D01*
X141009600Y-92013100D02*
X136817443Y-92013100D01*
X141156000Y-91866700D02*
X141009600Y-92013100D01*
X136817443Y-92013100D02*
X136617443Y-92213100D01*
X141273100Y-91866700D02*
X141156000Y-91866700D01*
X142143500Y-92737100D02*
X141273100Y-91866700D01*
X119668500Y-90912100D02*
X112717900Y-90912100D01*
X142468500Y-92737100D02*
X142143500Y-92737100D01*
X111760000Y-89040600D02*
X115053500Y-85747100D01*
D15*
%TO.N,GND*%
X141278300Y-104084100D02*
X141278300Y-102102900D01*
X150818900Y-88897734D02*
X150818900Y-90571909D01*
X121342900Y-90212100D02*
X121821900Y-89733100D01*
X138093500Y-106687100D02*
X137500100Y-106687100D01*
X125377900Y-101467900D02*
X125377900Y-101442500D01*
X153800500Y-98572300D02*
X150092100Y-94863900D01*
X141278300Y-102102900D02*
X140008300Y-100832900D01*
X144427900Y-89225100D02*
X145253400Y-88399600D01*
X145166709Y-85904300D02*
X147825466Y-85904300D01*
X140308300Y-81686100D02*
X140948509Y-81686100D01*
X147196500Y-91512100D02*
X146714900Y-91512100D01*
X140948509Y-81686100D02*
X145166709Y-85904300D01*
X145291500Y-88361500D02*
X145253400Y-88399600D01*
X146170700Y-90967900D02*
X144427900Y-89225100D01*
X147825466Y-85904300D02*
X150818900Y-88897734D01*
X132032700Y-82925900D02*
X132032700Y-87040700D01*
X117478500Y-90212100D02*
X121342900Y-90212100D01*
X135944300Y-86050100D02*
X140308300Y-81686100D01*
X153662500Y-104962100D02*
X157268500Y-104962100D01*
X137500100Y-106687100D02*
X134725100Y-109462100D01*
X132108900Y-82849700D02*
X132032700Y-82925900D01*
X144427900Y-90393500D02*
X144427900Y-89225100D01*
X130838900Y-100223300D02*
X132210500Y-100223300D01*
X150422909Y-90967900D02*
X146170700Y-90967900D01*
X153063900Y-104363500D02*
X153662500Y-104962100D01*
X132210500Y-100223300D02*
X136655500Y-95778300D01*
X150818900Y-90571909D02*
X150422909Y-90967900D01*
X146714900Y-91512100D02*
X146170700Y-90967900D01*
X121567900Y-105277900D02*
X125377900Y-101467900D01*
X153800500Y-100350300D02*
X153800500Y-98572300D01*
D16*
%TO.N,/Vcc*%
X143361100Y-82875100D02*
X142091100Y-81605100D01*
X141583100Y-81198700D02*
X140744900Y-80360500D01*
X147320725Y-84554275D02*
X145040275Y-84554275D01*
X142091100Y-81605100D02*
X142091100Y-81198700D01*
X145040275Y-84554275D02*
X143361100Y-82875100D01*
X142091100Y-81198700D02*
X141583100Y-81198700D01*
D14*
%TO.N,/SDA*%
X148364900Y-87116900D02*
X147628300Y-86380300D01*
X140135300Y-86380300D02*
X136274500Y-90241100D01*
X134064700Y-90266500D02*
X133328100Y-90266500D01*
X147628300Y-86380300D02*
X140135300Y-86380300D01*
X148364900Y-88513900D02*
X148364900Y-87116900D01*
X150142900Y-90291900D02*
X148364900Y-88513900D01*
X136274500Y-90241100D02*
X136274500Y-90291900D01*
X133328100Y-90266500D02*
X132489900Y-91104700D01*
X122380700Y-96210100D02*
X124666700Y-93924100D01*
X124666700Y-93924100D02*
X124666700Y-92749600D01*
%TO.N,/RX*%
X119293500Y-110707100D02*
X129543500Y-100457100D01*
X129543500Y-100457100D02*
X129543500Y-94737100D01*
%TO.N,/D2*%
X157268500Y-87182100D02*
X155468500Y-85382100D01*
X153818500Y-80412100D02*
X152068500Y-80412100D01*
X152068500Y-80412100D02*
X149918500Y-80412100D01*
X149918500Y-80412100D02*
X148268500Y-82062100D01*
X145068500Y-87387100D02*
X140843500Y-91612100D01*
X132616900Y-95803700D02*
X132868500Y-95552100D01*
X136043500Y-92987100D02*
X136118500Y-93062100D01*
X132868500Y-94012100D02*
X132843500Y-93987100D01*
X140843500Y-91612100D02*
X136368500Y-91612100D01*
X132843500Y-92987100D02*
X136043500Y-92987100D01*
X132843500Y-93987100D02*
X132843500Y-92987100D01*
X155468500Y-85382100D02*
X155468500Y-82062100D01*
X132868500Y-95552100D02*
X132868500Y-94012100D01*
X155468500Y-82062100D02*
X153818500Y-80412100D01*
%TO.N,/D7*%
X149598500Y-92212100D02*
X143693500Y-92212100D01*
X157268500Y-99882100D02*
X149598500Y-92212100D01*
%TO.N,/TX*%
X138168500Y-93762100D02*
X141306843Y-96900443D01*
X141306843Y-96900443D02*
X142661828Y-96900443D01*
X142661828Y-96900443D02*
X126315171Y-113247100D01*
X126315171Y-113247100D02*
X119293500Y-113247100D01*
X137868500Y-93762100D02*
X138168500Y-93762100D01*
%TO.N,/D5*%
X142518500Y-98410627D02*
X142469973Y-98362100D01*
X139818500Y-98312100D02*
X139818500Y-96837100D01*
X139818500Y-96837100D02*
X139793500Y-96812100D01*
X142268500Y-103762100D02*
X142518500Y-103512100D01*
X142518500Y-103512100D02*
X142518500Y-98410627D01*
%TO.N,/D4*%
X157268500Y-92262100D02*
X156193500Y-93337100D01*
X156193500Y-93337100D02*
X154018500Y-93337100D01*
%TO.N,/SCL*%
X130051500Y-82087700D02*
X130051500Y-87116900D01*
X130051500Y-87116900D02*
X130330900Y-87396300D01*
X153063900Y-83891100D02*
X150447700Y-81274900D01*
X124678500Y-78662100D02*
X131043500Y-78662100D01*
X131043500Y-85487100D02*
X131118500Y-85562100D01*
X153063900Y-84754700D02*
X153063900Y-83891100D01*
X127564500Y-92841100D02*
X119293500Y-101112100D01*
X131043500Y-78662100D02*
X131043500Y-85487100D01*
X117593500Y-85747100D02*
X124678500Y-78662100D01*
X129493500Y-92841100D02*
X127564500Y-92841100D01*
%TO.N,/D3*%
X134743500Y-89737100D02*
X134743500Y-91187100D01*
X139318500Y-85162100D02*
X134743500Y-89737100D01*
X134877500Y-95600500D02*
X136315900Y-94162100D01*
X140668500Y-82362100D02*
X140668500Y-83812100D01*
X134103100Y-95600500D02*
X134877500Y-95600500D01*
X136315900Y-94162100D02*
X136593500Y-94162100D01*
X153478500Y-89722100D02*
X145793500Y-82037100D01*
X140668500Y-83812100D02*
X139318500Y-85162100D01*
X157268500Y-89722100D02*
X153478500Y-89722100D01*
X133941500Y-95762100D02*
X134103100Y-95600500D01*
%TO.N,/D8*%
X150753500Y-102422100D02*
X142643500Y-94312100D01*
X157268500Y-102422100D02*
X150753500Y-102422100D01*
%TO.N,/MISO*%
X117593500Y-88287100D02*
X134768500Y-88287100D01*
X134768500Y-88287100D02*
X139443500Y-83612100D01*
%TD*%
%TA.AperFunction,Conductor*%
%TO.N,GND*%
G36*
X117866451Y-105315897D02*
G01*
X117910798Y-105344398D01*
X117943500Y-105377100D01*
X118860488Y-105377100D01*
X118827575Y-105434107D01*
X118793500Y-105561274D01*
X118793500Y-105692926D01*
X118827575Y-105820093D01*
X118860488Y-105877100D01*
X117943500Y-105877100D01*
X117943500Y-106524944D01*
X117949901Y-106584472D01*
X117949903Y-106584479D01*
X118000145Y-106719186D01*
X118000149Y-106719193D01*
X118086309Y-106834287D01*
X118086312Y-106834290D01*
X118201406Y-106920450D01*
X118201413Y-106920454D01*
X118332970Y-106969522D01*
X118388904Y-107011393D01*
X118413321Y-107076858D01*
X118398469Y-107145131D01*
X118377319Y-107173385D01*
X118263389Y-107287315D01*
X118138451Y-107459279D01*
X118041944Y-107648685D01*
X117976253Y-107850860D01*
X117965912Y-107916154D01*
X117943000Y-108060813D01*
X117943000Y-108273387D01*
X117976254Y-108483343D01*
X118003821Y-108568186D01*
X118041944Y-108685514D01*
X118138451Y-108874920D01*
X118263390Y-109046886D01*
X118413713Y-109197209D01*
X118585682Y-109322150D01*
X118594446Y-109326616D01*
X118645242Y-109374591D01*
X118662036Y-109442412D01*
X118639498Y-109508547D01*
X118594446Y-109547584D01*
X118585682Y-109552049D01*
X118413713Y-109676990D01*
X118263390Y-109827313D01*
X118138451Y-109999279D01*
X118041944Y-110188685D01*
X117976253Y-110390860D01*
X117976253Y-110390862D01*
X117943000Y-110600813D01*
X117943000Y-110813387D01*
X117976254Y-111023343D01*
X118040322Y-111220524D01*
X118041944Y-111225514D01*
X118138451Y-111414920D01*
X118263390Y-111586886D01*
X118413713Y-111737209D01*
X118585682Y-111862150D01*
X118594446Y-111866616D01*
X118645242Y-111914591D01*
X118662036Y-111982412D01*
X118639498Y-112048547D01*
X118594446Y-112087584D01*
X118585682Y-112092049D01*
X118413713Y-112216990D01*
X118263390Y-112367313D01*
X118138451Y-112539279D01*
X118041944Y-112728685D01*
X117976253Y-112930860D01*
X117943000Y-113140813D01*
X117943000Y-113353387D01*
X117976254Y-113563343D01*
X117989986Y-113605607D01*
X118041944Y-113765514D01*
X118138451Y-113954920D01*
X118263390Y-114126886D01*
X118413713Y-114277209D01*
X118585679Y-114402148D01*
X118585681Y-114402149D01*
X118585684Y-114402151D01*
X118775088Y-114498657D01*
X118916700Y-114544669D01*
X118974375Y-114584107D01*
X119001573Y-114648465D01*
X118989658Y-114717311D01*
X118942414Y-114768787D01*
X118878381Y-114786600D01*
X117157197Y-114786600D01*
X117090158Y-114766915D01*
X117069516Y-114750281D01*
X116555319Y-114236084D01*
X116521834Y-114174761D01*
X116519000Y-114148403D01*
X116519000Y-106612197D01*
X116538685Y-106545158D01*
X116555319Y-106524516D01*
X117136451Y-105943384D01*
X117735438Y-105344396D01*
X117796759Y-105310913D01*
X117866451Y-105315897D01*
G37*
%TD.AperFunction*%
%TA.AperFunction,Conductor*%
G36*
X141729092Y-98764062D02*
G01*
X141748563Y-98765455D01*
X141761475Y-98775121D01*
X141776740Y-98780334D01*
X141802383Y-98804585D01*
X141805530Y-98808553D01*
X141848184Y-98872389D01*
X141886722Y-98910927D01*
X141891154Y-98916515D01*
X141901701Y-98942549D01*
X141915166Y-98967207D01*
X141914644Y-98974497D01*
X141917389Y-98981272D01*
X141918000Y-98993567D01*
X141918000Y-102967264D01*
X141898315Y-103034303D01*
X141862891Y-103070366D01*
X141758210Y-103140310D01*
X141646713Y-103251807D01*
X141646710Y-103251811D01*
X141559109Y-103382914D01*
X141559102Y-103382927D01*
X141498764Y-103528598D01*
X141498761Y-103528610D01*
X141468000Y-103683253D01*
X141468000Y-103840946D01*
X141498761Y-103995589D01*
X141498764Y-103995601D01*
X141559102Y-104141272D01*
X141559109Y-104141285D01*
X141646710Y-104272388D01*
X141646713Y-104272392D01*
X141758207Y-104383886D01*
X141758211Y-104383889D01*
X141889314Y-104471490D01*
X141889327Y-104471497D01*
X142004021Y-104519004D01*
X142035003Y-104531837D01*
X142186647Y-104562001D01*
X142189653Y-104562599D01*
X142189656Y-104562600D01*
X142189658Y-104562600D01*
X142347344Y-104562600D01*
X142347345Y-104562599D01*
X142501997Y-104531837D01*
X142647679Y-104471494D01*
X142778789Y-104383889D01*
X142890289Y-104272389D01*
X142977894Y-104141279D01*
X143038237Y-103995597D01*
X143069000Y-103840942D01*
X143069000Y-103790462D01*
X143070627Y-103782282D01*
X143069711Y-103777203D01*
X143078440Y-103743006D01*
X143079440Y-103740592D01*
X143123283Y-103686190D01*
X143189578Y-103664127D01*
X143257277Y-103681408D01*
X143304886Y-103732547D01*
X143318000Y-103788048D01*
X143318000Y-104150430D01*
X143317999Y-104150448D01*
X143317999Y-104316154D01*
X143317998Y-104316154D01*
X143358923Y-104468885D01*
X143387858Y-104519000D01*
X143387859Y-104519004D01*
X143387860Y-104519004D01*
X143437979Y-104605814D01*
X143437981Y-104605817D01*
X143556849Y-104724685D01*
X143556855Y-104724690D01*
X144007084Y-105174919D01*
X144040569Y-105236242D01*
X144035585Y-105305934D01*
X143993713Y-105361867D01*
X143928249Y-105386284D01*
X143919403Y-105386600D01*
X135639440Y-105386600D01*
X135598519Y-105397564D01*
X135598519Y-105397565D01*
X135561251Y-105407551D01*
X135486714Y-105427523D01*
X135486709Y-105427526D01*
X135349790Y-105506575D01*
X135349782Y-105506581D01*
X135237980Y-105618384D01*
X135237978Y-105618386D01*
X130667677Y-110188688D01*
X126106084Y-114750281D01*
X126044761Y-114783766D01*
X126018403Y-114786600D01*
X119708619Y-114786600D01*
X119641580Y-114766915D01*
X119595825Y-114714111D01*
X119585881Y-114644953D01*
X119614906Y-114581397D01*
X119670299Y-114544669D01*
X119811912Y-114498657D01*
X120001316Y-114402151D01*
X120056789Y-114361848D01*
X120173286Y-114277209D01*
X120173288Y-114277206D01*
X120173292Y-114277204D01*
X120323604Y-114126892D01*
X120323606Y-114126888D01*
X120323609Y-114126886D01*
X120384744Y-114042739D01*
X120448551Y-113954916D01*
X120448849Y-113954330D01*
X120468735Y-113915305D01*
X120516709Y-113864509D01*
X120579219Y-113847600D01*
X126228502Y-113847600D01*
X126228518Y-113847601D01*
X126236114Y-113847601D01*
X126394225Y-113847601D01*
X126394228Y-113847601D01*
X126546956Y-113806677D01*
X126597075Y-113777739D01*
X126683887Y-113727620D01*
X126795691Y-113615816D01*
X126795691Y-113615814D01*
X126805899Y-113605607D01*
X126805901Y-113605604D01*
X141617550Y-98793954D01*
X141631703Y-98786226D01*
X141642787Y-98774506D01*
X141661739Y-98769825D01*
X141678871Y-98760471D01*
X141694958Y-98761621D01*
X141710619Y-98757754D01*
X141729092Y-98764062D01*
G37*
%TD.AperFunction*%
%TA.AperFunction,Conductor*%
G36*
X132302531Y-92486885D02*
G01*
X132348286Y-92539689D01*
X132358230Y-92608847D01*
X132342879Y-92653200D01*
X132283924Y-92755313D01*
X132283923Y-92755316D01*
X132243000Y-92908043D01*
X132243000Y-93900430D01*
X132242999Y-93900448D01*
X132242999Y-93908043D01*
X132242999Y-94066157D01*
X132262142Y-94137599D01*
X132263775Y-94143692D01*
X132268000Y-94175786D01*
X132268000Y-95007794D01*
X132248315Y-95074833D01*
X132212891Y-95110896D01*
X132106611Y-95181910D01*
X132106607Y-95181913D01*
X131995113Y-95293407D01*
X131995110Y-95293411D01*
X131907509Y-95424514D01*
X131907502Y-95424527D01*
X131847164Y-95570198D01*
X131847161Y-95570210D01*
X131816400Y-95724853D01*
X131816400Y-95882546D01*
X131847161Y-96037189D01*
X131847164Y-96037201D01*
X131907502Y-96182872D01*
X131907509Y-96182885D01*
X131995110Y-96313988D01*
X131995113Y-96313992D01*
X132106607Y-96425486D01*
X132106611Y-96425489D01*
X132237714Y-96513090D01*
X132237727Y-96513097D01*
X132357240Y-96562600D01*
X132383403Y-96573437D01*
X132538053Y-96604199D01*
X132538056Y-96604200D01*
X132538058Y-96604200D01*
X132695744Y-96604200D01*
X132695745Y-96604199D01*
X132850397Y-96573437D01*
X132996079Y-96513094D01*
X133127189Y-96425489D01*
X133168792Y-96383886D01*
X133212319Y-96340360D01*
X133273642Y-96306875D01*
X133343334Y-96311859D01*
X133387681Y-96340360D01*
X133431207Y-96383886D01*
X133431211Y-96383889D01*
X133562314Y-96471490D01*
X133562327Y-96471497D01*
X133662743Y-96513090D01*
X133708003Y-96531837D01*
X133862653Y-96562599D01*
X133862656Y-96562600D01*
X133862658Y-96562600D01*
X134020344Y-96562600D01*
X134020345Y-96562599D01*
X134174997Y-96531837D01*
X134290366Y-96484050D01*
X134320672Y-96471497D01*
X134320672Y-96471496D01*
X134320679Y-96471494D01*
X134451789Y-96383889D01*
X134563289Y-96272389D01*
X134574166Y-96256109D01*
X134580257Y-96251018D01*
X134583556Y-96243797D01*
X134606684Y-96228933D01*
X134627778Y-96211305D01*
X134637152Y-96209353D01*
X134642334Y-96206023D01*
X134677269Y-96201000D01*
X134790831Y-96201000D01*
X134790847Y-96201001D01*
X134798443Y-96201001D01*
X134956554Y-96201001D01*
X134956557Y-96201001D01*
X135109285Y-96160077D01*
X135160269Y-96130641D01*
X135246216Y-96081020D01*
X135358020Y-95969216D01*
X135358020Y-95969214D01*
X135368224Y-95959011D01*
X135368227Y-95959006D01*
X136342660Y-94984574D01*
X136403981Y-94951091D01*
X136454531Y-94950640D01*
X136514655Y-94962600D01*
X136514658Y-94962600D01*
X136672344Y-94962600D01*
X136672345Y-94962599D01*
X136826997Y-94931837D01*
X136972679Y-94871494D01*
X137103789Y-94783889D01*
X137215289Y-94672389D01*
X137302894Y-94541279D01*
X137308124Y-94528651D01*
X137351965Y-94474248D01*
X137418258Y-94452182D01*
X137483801Y-94468909D01*
X137483954Y-94468625D01*
X137485112Y-94469244D01*
X137485958Y-94469460D01*
X137488430Y-94471018D01*
X137489325Y-94471496D01*
X137634998Y-94531835D01*
X137635003Y-94531837D01*
X137789653Y-94562599D01*
X137789656Y-94562600D01*
X137789658Y-94562600D01*
X137947343Y-94562600D01*
X137960482Y-94559986D01*
X138026153Y-94546923D01*
X138095742Y-94553149D01*
X138138024Y-94580859D01*
X139456726Y-95899561D01*
X139490211Y-95960884D01*
X139485227Y-96030576D01*
X139443355Y-96086509D01*
X139416511Y-96101798D01*
X139414327Y-96102702D01*
X139414314Y-96102709D01*
X139283211Y-96190310D01*
X139283207Y-96190313D01*
X139171713Y-96301807D01*
X139171710Y-96301811D01*
X139084109Y-96432914D01*
X139084102Y-96432927D01*
X139023764Y-96578598D01*
X139023761Y-96578610D01*
X138993000Y-96733253D01*
X138993000Y-96890946D01*
X139023761Y-97045589D01*
X139023764Y-97045601D01*
X139084102Y-97191272D01*
X139084109Y-97191285D01*
X139171710Y-97322388D01*
X139171712Y-97322391D01*
X139181678Y-97332356D01*
X139215165Y-97393678D01*
X139218000Y-97420040D01*
X139218000Y-97732334D01*
X139198315Y-97799373D01*
X139197102Y-97801225D01*
X139109109Y-97932914D01*
X139109102Y-97932927D01*
X139048764Y-98078598D01*
X139048761Y-98078610D01*
X139018000Y-98233253D01*
X139018000Y-98390946D01*
X139048761Y-98545589D01*
X139048764Y-98545601D01*
X139109102Y-98691272D01*
X139109109Y-98691285D01*
X139196710Y-98822388D01*
X139196713Y-98822392D01*
X139308207Y-98933886D01*
X139308211Y-98933889D01*
X139439314Y-99021490D01*
X139439316Y-99021491D01*
X139439317Y-99021491D01*
X139439321Y-99021494D01*
X139446211Y-99024348D01*
X139500614Y-99068185D01*
X139522683Y-99134478D01*
X139505407Y-99202178D01*
X139486443Y-99226591D01*
X126102755Y-112610281D01*
X126041432Y-112643766D01*
X126015074Y-112646600D01*
X120579219Y-112646600D01*
X120512180Y-112626915D01*
X120468735Y-112578895D01*
X120448552Y-112539285D01*
X120448551Y-112539284D01*
X120323609Y-112367313D01*
X120173286Y-112216990D01*
X120001320Y-112092051D01*
X120000615Y-112091691D01*
X119992554Y-112087585D01*
X119941759Y-112039612D01*
X119924963Y-111971792D01*
X119947499Y-111905656D01*
X119992554Y-111866615D01*
X120001316Y-111862151D01*
X120023289Y-111846186D01*
X120173286Y-111737209D01*
X120173288Y-111737206D01*
X120173292Y-111737204D01*
X120323604Y-111586892D01*
X120323606Y-111586888D01*
X120323609Y-111586886D01*
X120448548Y-111414920D01*
X120448547Y-111414920D01*
X120448551Y-111414916D01*
X120545057Y-111225512D01*
X120610746Y-111023343D01*
X120644000Y-110813387D01*
X120644000Y-110600813D01*
X120610746Y-110390857D01*
X120597006Y-110348573D01*
X120595012Y-110278735D01*
X120627255Y-110222578D01*
X129912213Y-100937621D01*
X129912216Y-100937620D01*
X130024020Y-100825816D01*
X130074139Y-100739004D01*
X130103077Y-100688885D01*
X130144001Y-100536157D01*
X130144001Y-100378043D01*
X130144001Y-100370448D01*
X130144000Y-100370430D01*
X130144000Y-95316865D01*
X130163685Y-95249826D01*
X130164898Y-95247974D01*
X130252890Y-95116285D01*
X130252890Y-95116284D01*
X130252894Y-95116279D01*
X130313237Y-94970597D01*
X130344000Y-94815942D01*
X130344000Y-94658258D01*
X130344000Y-94658255D01*
X130343999Y-94658253D01*
X130338442Y-94630316D01*
X130313237Y-94503603D01*
X130305888Y-94485860D01*
X130252897Y-94357927D01*
X130252890Y-94357914D01*
X130165289Y-94226811D01*
X130165286Y-94226807D01*
X130053792Y-94115313D01*
X130053788Y-94115310D01*
X129922685Y-94027709D01*
X129922672Y-94027702D01*
X129777001Y-93967364D01*
X129776989Y-93967361D01*
X129622345Y-93936600D01*
X129622342Y-93936600D01*
X129464658Y-93936600D01*
X129464655Y-93936600D01*
X129310010Y-93967361D01*
X129309998Y-93967364D01*
X129164327Y-94027702D01*
X129164314Y-94027709D01*
X129033211Y-94115310D01*
X129033207Y-94115313D01*
X128921713Y-94226807D01*
X128921710Y-94226811D01*
X128834109Y-94357914D01*
X128834102Y-94357927D01*
X128773764Y-94503598D01*
X128773761Y-94503610D01*
X128743000Y-94658253D01*
X128743000Y-94815946D01*
X128773761Y-94970589D01*
X128773764Y-94970601D01*
X128834102Y-95116272D01*
X128834109Y-95116285D01*
X128922102Y-95247974D01*
X128942980Y-95314651D01*
X128943000Y-95316865D01*
X128943000Y-96537600D01*
X128923315Y-96604639D01*
X128870511Y-96650394D01*
X128819000Y-96661600D01*
X128789655Y-96661600D01*
X128635010Y-96692361D01*
X128634998Y-96692364D01*
X128489327Y-96752702D01*
X128489314Y-96752709D01*
X128357625Y-96840702D01*
X128290947Y-96861580D01*
X128288734Y-96861600D01*
X127905169Y-96861600D01*
X127905153Y-96861599D01*
X127897557Y-96861599D01*
X127739443Y-96861599D01*
X127659510Y-96883017D01*
X127586716Y-96902522D01*
X127557319Y-96919495D01*
X127557318Y-96919494D01*
X127449787Y-96981577D01*
X127449782Y-96981581D01*
X127393171Y-97038193D01*
X127337980Y-97093384D01*
X127337978Y-97093386D01*
X126791940Y-97639425D01*
X126281084Y-98150281D01*
X126219761Y-98183766D01*
X126193403Y-98186600D01*
X123367596Y-98186600D01*
X123300557Y-98166915D01*
X123254802Y-98114111D01*
X123244858Y-98044953D01*
X123273883Y-97981397D01*
X123279915Y-97974919D01*
X124209234Y-97045601D01*
X127776916Y-93477919D01*
X127838239Y-93444434D01*
X127864597Y-93441600D01*
X128913734Y-93441600D01*
X128980773Y-93461285D01*
X128982625Y-93462498D01*
X129114314Y-93550490D01*
X129114327Y-93550497D01*
X129259998Y-93610835D01*
X129260003Y-93610837D01*
X129414653Y-93641599D01*
X129414656Y-93641600D01*
X129414658Y-93641600D01*
X129572344Y-93641600D01*
X129572345Y-93641599D01*
X129726997Y-93610837D01*
X129839666Y-93564167D01*
X129872672Y-93550497D01*
X129872672Y-93550496D01*
X129872679Y-93550494D01*
X130003789Y-93462889D01*
X130115289Y-93351389D01*
X130202894Y-93220279D01*
X130263237Y-93074597D01*
X130294000Y-92919942D01*
X130294000Y-92762258D01*
X130294000Y-92762255D01*
X130293999Y-92762253D01*
X130264787Y-92615391D01*
X130271014Y-92545800D01*
X130313877Y-92490622D01*
X130379767Y-92467378D01*
X130386404Y-92467200D01*
X132235492Y-92467200D01*
X132302531Y-92486885D01*
G37*
%TD.AperFunction*%
%TA.AperFunction,Conductor*%
G36*
X144725187Y-97271009D02*
G01*
X144755450Y-97278733D01*
X144759931Y-97282214D01*
X144761946Y-97282864D01*
X144764022Y-97285392D01*
X144779859Y-97297694D01*
X150268639Y-102786474D01*
X150268649Y-102786485D01*
X150272979Y-102790815D01*
X150272980Y-102790816D01*
X150384784Y-102902620D01*
X150471221Y-102952524D01*
X150471222Y-102952525D01*
X150521709Y-102981674D01*
X150521710Y-102981675D01*
X150521712Y-102981675D01*
X150521715Y-102981677D01*
X150674443Y-103022601D01*
X150674446Y-103022601D01*
X150840153Y-103022601D01*
X150840169Y-103022600D01*
X155982781Y-103022600D01*
X156049820Y-103042285D01*
X156093265Y-103090305D01*
X156113447Y-103129914D01*
X156113448Y-103129915D01*
X156238390Y-103301886D01*
X156388713Y-103452209D01*
X156560679Y-103577148D01*
X156560681Y-103577149D01*
X156560684Y-103577151D01*
X156569993Y-103581894D01*
X156620790Y-103629866D01*
X156637587Y-103697687D01*
X156615052Y-103763822D01*
X156570005Y-103802860D01*
X156560946Y-103807476D01*
X156560940Y-103807480D01*
X156506782Y-103846827D01*
X156506782Y-103846828D01*
X157139091Y-104479137D01*
X157075507Y-104496175D01*
X156961493Y-104562001D01*
X156868401Y-104655093D01*
X156802575Y-104769107D01*
X156785537Y-104832691D01*
X156153228Y-104200382D01*
X156153227Y-104200382D01*
X156113880Y-104254539D01*
X156017404Y-104443882D01*
X155951742Y-104645969D01*
X155951742Y-104645972D01*
X155918500Y-104855853D01*
X155918500Y-105068346D01*
X155951742Y-105278227D01*
X155951742Y-105278230D01*
X156017404Y-105480317D01*
X156113875Y-105669650D01*
X156153228Y-105723816D01*
X156785537Y-105091508D01*
X156802575Y-105155093D01*
X156868401Y-105269107D01*
X156961493Y-105362199D01*
X157075507Y-105428025D01*
X157139090Y-105445062D01*
X156506782Y-106077369D01*
X156506782Y-106077370D01*
X156560952Y-106116726D01*
X156560951Y-106116726D01*
X156569995Y-106121334D01*
X156620792Y-106169308D01*
X156637587Y-106237129D01*
X156615050Y-106303264D01*
X156569999Y-106342302D01*
X156560682Y-106347049D01*
X156388713Y-106471990D01*
X156238390Y-106622313D01*
X156113451Y-106794279D01*
X156016944Y-106983685D01*
X155951253Y-107185860D01*
X155918000Y-107395813D01*
X155918000Y-107608386D01*
X155940497Y-107750430D01*
X155951254Y-107818343D01*
X155961819Y-107850860D01*
X156016944Y-108020514D01*
X156113451Y-108209920D01*
X156238390Y-108381886D01*
X156388713Y-108532209D01*
X156560679Y-108657148D01*
X156560681Y-108657149D01*
X156560684Y-108657151D01*
X156750088Y-108753657D01*
X156952257Y-108819346D01*
X157162213Y-108852600D01*
X157162214Y-108852600D01*
X157374786Y-108852600D01*
X157374787Y-108852600D01*
X157584743Y-108819346D01*
X157786912Y-108753657D01*
X157976316Y-108657151D01*
X158098767Y-108568186D01*
X158148286Y-108532209D01*
X158148288Y-108532206D01*
X158148292Y-108532204D01*
X158298604Y-108381892D01*
X158298606Y-108381888D01*
X158298609Y-108381886D01*
X158423548Y-108209920D01*
X158423547Y-108209920D01*
X158423551Y-108209916D01*
X158520057Y-108020512D01*
X158585746Y-107818343D01*
X158619000Y-107608387D01*
X158619000Y-107395813D01*
X158585746Y-107185857D01*
X158520057Y-106983688D01*
X158423551Y-106794284D01*
X158423549Y-106794281D01*
X158423548Y-106794279D01*
X158298609Y-106622313D01*
X158148286Y-106471990D01*
X157976317Y-106347049D01*
X157967004Y-106342304D01*
X157916207Y-106294330D01*
X157899412Y-106226509D01*
X157921949Y-106160374D01*
X157967007Y-106121332D01*
X157976055Y-106116722D01*
X158030216Y-106077370D01*
X158030217Y-106077370D01*
X157397908Y-105445062D01*
X157461493Y-105428025D01*
X157575507Y-105362199D01*
X157668599Y-105269107D01*
X157734425Y-105155093D01*
X157751462Y-105091509D01*
X158383770Y-105723817D01*
X158383770Y-105723816D01*
X158423122Y-105669654D01*
X158519595Y-105480317D01*
X158585257Y-105278230D01*
X158585257Y-105278227D01*
X158618500Y-105068346D01*
X158618500Y-104855853D01*
X158585257Y-104645972D01*
X158585257Y-104645969D01*
X158519595Y-104443882D01*
X158423124Y-104254549D01*
X158383770Y-104200382D01*
X158383769Y-104200382D01*
X157751462Y-104832690D01*
X157734425Y-104769107D01*
X157668599Y-104655093D01*
X157575507Y-104562001D01*
X157461493Y-104496175D01*
X157397909Y-104479137D01*
X158030216Y-103846828D01*
X157976047Y-103807473D01*
X157976047Y-103807472D01*
X157967000Y-103802863D01*
X157916206Y-103754888D01*
X157899412Y-103687066D01*
X157921951Y-103620932D01*
X157967008Y-103581893D01*
X157976316Y-103577151D01*
X158055507Y-103519615D01*
X158148286Y-103452209D01*
X158148288Y-103452206D01*
X158148292Y-103452204D01*
X158298604Y-103301892D01*
X158298606Y-103301888D01*
X158298609Y-103301886D01*
X158423548Y-103129920D01*
X158423547Y-103129920D01*
X158423551Y-103129916D01*
X158520057Y-102940512D01*
X158585746Y-102738343D01*
X158619000Y-102528387D01*
X158619000Y-102315813D01*
X158585746Y-102105857D01*
X158520057Y-101903688D01*
X158423551Y-101714284D01*
X158423549Y-101714281D01*
X158423548Y-101714279D01*
X158298609Y-101542313D01*
X158148286Y-101391990D01*
X157976320Y-101267051D01*
X157975615Y-101266691D01*
X157967554Y-101262585D01*
X157916759Y-101214612D01*
X157899963Y-101146792D01*
X157922499Y-101080656D01*
X157967554Y-101041615D01*
X157976316Y-101037151D01*
X158019449Y-101005813D01*
X158148286Y-100912209D01*
X158148288Y-100912206D01*
X158148292Y-100912204D01*
X158298604Y-100761892D01*
X158298606Y-100761888D01*
X158298609Y-100761886D01*
X158407586Y-100611889D01*
X158423551Y-100589916D01*
X158520057Y-100400512D01*
X158585746Y-100198343D01*
X158619000Y-99988387D01*
X158619000Y-99775813D01*
X158585746Y-99565857D01*
X158520057Y-99363688D01*
X158423551Y-99174284D01*
X158423549Y-99174281D01*
X158423548Y-99174279D01*
X158298609Y-99002313D01*
X158148286Y-98851990D01*
X157976320Y-98727051D01*
X157975615Y-98726691D01*
X157967554Y-98722585D01*
X157916759Y-98674612D01*
X157899963Y-98606792D01*
X157922499Y-98540656D01*
X157967554Y-98501615D01*
X157976316Y-98497151D01*
X158053682Y-98440942D01*
X158148286Y-98372209D01*
X158148288Y-98372206D01*
X158148292Y-98372204D01*
X158298604Y-98221892D01*
X158415445Y-98061071D01*
X158470773Y-98018408D01*
X158540386Y-98012429D01*
X158602182Y-98045034D01*
X158603443Y-98046278D01*
X159543181Y-98986016D01*
X159576666Y-99047339D01*
X159579500Y-99073697D01*
X159579500Y-109079903D01*
X159559815Y-109146942D01*
X159543181Y-109167584D01*
X158607584Y-110103181D01*
X158546261Y-110136666D01*
X158519903Y-110139500D01*
X150721497Y-110139500D01*
X150654458Y-110119815D01*
X150633816Y-110103181D01*
X144555319Y-104024684D01*
X144521834Y-103963361D01*
X144519000Y-103937003D01*
X144519000Y-97485950D01*
X144521797Y-97473859D01*
X144520770Y-97465071D01*
X144528073Y-97446739D01*
X144531604Y-97431481D01*
X144535266Y-97423991D01*
X144552894Y-97397610D01*
X144579091Y-97334363D01*
X144580782Y-97330906D01*
X144601853Y-97307846D01*
X144621457Y-97283520D01*
X144625230Y-97282264D01*
X144627914Y-97279327D01*
X144658116Y-97271317D01*
X144687751Y-97261454D01*
X144691604Y-97262437D01*
X144695449Y-97261418D01*
X144725187Y-97271009D01*
G37*
%TD.AperFunction*%
%TA.AperFunction,Conductor*%
G36*
X128355773Y-98082285D02*
G01*
X128357625Y-98083498D01*
X128489314Y-98171490D01*
X128489327Y-98171497D01*
X128610993Y-98221892D01*
X128635003Y-98231837D01*
X128755759Y-98255857D01*
X128789653Y-98262599D01*
X128789656Y-98262600D01*
X128789658Y-98262600D01*
X128819000Y-98262600D01*
X128886039Y-98282285D01*
X128931794Y-98335089D01*
X128943000Y-98386600D01*
X128943000Y-100157002D01*
X128923315Y-100224041D01*
X128906681Y-100244683D01*
X120855681Y-108295683D01*
X120794358Y-108329168D01*
X120724666Y-108324184D01*
X120668733Y-108282312D01*
X120644316Y-108216848D01*
X120644000Y-108208002D01*
X120644000Y-108060813D01*
X120637617Y-108020512D01*
X120610746Y-107850857D01*
X120545057Y-107648688D01*
X120448551Y-107459284D01*
X120448549Y-107459281D01*
X120448548Y-107459279D01*
X120323609Y-107287313D01*
X120209681Y-107173385D01*
X120176196Y-107112062D01*
X120181180Y-107042370D01*
X120223052Y-106986437D01*
X120254029Y-106969522D01*
X120385586Y-106920454D01*
X120385593Y-106920450D01*
X120500687Y-106834290D01*
X120500690Y-106834287D01*
X120586850Y-106719193D01*
X120586854Y-106719186D01*
X120637096Y-106584479D01*
X120637098Y-106584472D01*
X120643499Y-106524944D01*
X120643500Y-106524927D01*
X120643500Y-105877100D01*
X119726512Y-105877100D01*
X119759425Y-105820093D01*
X119793500Y-105692926D01*
X119793500Y-105561274D01*
X119759425Y-105434107D01*
X119726512Y-105377100D01*
X120643500Y-105377100D01*
X120643500Y-104729272D01*
X120643499Y-104729255D01*
X120637098Y-104669727D01*
X120637096Y-104669720D01*
X120586854Y-104535013D01*
X120586850Y-104535006D01*
X120500690Y-104419912D01*
X120500687Y-104419909D01*
X120385593Y-104333749D01*
X120385586Y-104333745D01*
X120250879Y-104283503D01*
X120250872Y-104283501D01*
X120191344Y-104277100D01*
X119543500Y-104277100D01*
X119543500Y-105194088D01*
X119486493Y-105161175D01*
X119359326Y-105127100D01*
X119227674Y-105127100D01*
X119100507Y-105161175D01*
X119043500Y-105194088D01*
X119043500Y-104277100D01*
X119010798Y-104244398D01*
X118977313Y-104183075D01*
X118982297Y-104113383D01*
X119010796Y-104069038D01*
X123655916Y-99423919D01*
X123717239Y-99390434D01*
X123743597Y-99387600D01*
X126406831Y-99387600D01*
X126406847Y-99387601D01*
X126414443Y-99387601D01*
X126572554Y-99387601D01*
X126572557Y-99387601D01*
X126725285Y-99346677D01*
X126775404Y-99317739D01*
X126862216Y-99267620D01*
X126974020Y-99155816D01*
X126974020Y-99155814D01*
X126984228Y-99145607D01*
X126984229Y-99145604D01*
X128030916Y-98098919D01*
X128057843Y-98084215D01*
X128083662Y-98067623D01*
X128089862Y-98066731D01*
X128092239Y-98065434D01*
X128118597Y-98062600D01*
X128288734Y-98062600D01*
X128355773Y-98082285D01*
G37*
%TD.AperFunction*%
%TA.AperFunction,Conductor*%
G36*
X149365442Y-92832285D02*
G01*
X149386084Y-92848919D01*
X155934741Y-99397576D01*
X155968226Y-99458899D01*
X155964992Y-99523573D01*
X155951253Y-99565857D01*
X155925707Y-99727151D01*
X155918000Y-99775813D01*
X155918000Y-99988387D01*
X155951254Y-100198343D01*
X156009642Y-100378043D01*
X156016944Y-100400514D01*
X156113451Y-100589920D01*
X156238390Y-100761886D01*
X156388713Y-100912209D01*
X156560682Y-101037150D01*
X156569446Y-101041616D01*
X156620242Y-101089591D01*
X156637036Y-101157412D01*
X156614498Y-101223547D01*
X156569446Y-101262584D01*
X156560682Y-101267049D01*
X156388713Y-101391990D01*
X156238390Y-101542313D01*
X156113448Y-101714284D01*
X156113447Y-101714285D01*
X156093265Y-101753895D01*
X156045291Y-101804691D01*
X155982781Y-101821600D01*
X151053597Y-101821600D01*
X150986558Y-101801915D01*
X150965916Y-101785281D01*
X143478074Y-94297439D01*
X143444589Y-94236116D01*
X143444138Y-94233949D01*
X143420539Y-94115311D01*
X143413237Y-94078603D01*
X143407235Y-94064112D01*
X143352897Y-93932927D01*
X143352890Y-93932914D01*
X143265289Y-93801811D01*
X143265286Y-93801807D01*
X143153792Y-93690313D01*
X143153788Y-93690310D01*
X143022685Y-93602709D01*
X143022675Y-93602704D01*
X142984656Y-93586956D01*
X142930253Y-93543115D01*
X142908188Y-93476820D01*
X142925467Y-93409121D01*
X142963220Y-93369292D01*
X142967187Y-93366640D01*
X142978789Y-93358889D01*
X143090289Y-93247389D01*
X143177894Y-93116279D01*
X143219288Y-93016342D01*
X143263127Y-92961943D01*
X143329421Y-92939877D01*
X143381297Y-92949236D01*
X143460003Y-92981837D01*
X143614653Y-93012599D01*
X143614656Y-93012600D01*
X143614658Y-93012600D01*
X143772344Y-93012600D01*
X143772345Y-93012599D01*
X143926997Y-92981837D01*
X144072679Y-92921494D01*
X144131216Y-92882381D01*
X144204375Y-92833498D01*
X144271053Y-92812620D01*
X144273266Y-92812600D01*
X149298403Y-92812600D01*
X149365442Y-92832285D01*
G37*
%TD.AperFunction*%
%TA.AperFunction,Conductor*%
G36*
X123822635Y-92486885D02*
G01*
X123868390Y-92539689D01*
X123878334Y-92608847D01*
X123877213Y-92615392D01*
X123866200Y-92670755D01*
X123866200Y-92828446D01*
X123896961Y-92983089D01*
X123896964Y-92983101D01*
X123957302Y-93128772D01*
X123957309Y-93128785D01*
X124016668Y-93217621D01*
X124044650Y-93259499D01*
X124045302Y-93260474D01*
X124066180Y-93327151D01*
X124066200Y-93329365D01*
X124066200Y-93624003D01*
X124046515Y-93691042D01*
X124029881Y-93711684D01*
X122366039Y-95375525D01*
X122304716Y-95409010D01*
X122302550Y-95409461D01*
X122147208Y-95440361D01*
X122147198Y-95440364D01*
X122001527Y-95500702D01*
X122001514Y-95500709D01*
X121870411Y-95588310D01*
X121870407Y-95588313D01*
X121758913Y-95699807D01*
X121758910Y-95699811D01*
X121671309Y-95830914D01*
X121671302Y-95830927D01*
X121610964Y-95976598D01*
X121610961Y-95976610D01*
X121580200Y-96131253D01*
X121580200Y-96288946D01*
X121610961Y-96443589D01*
X121610964Y-96443601D01*
X121671302Y-96589272D01*
X121671309Y-96589285D01*
X121758910Y-96720388D01*
X121758913Y-96720392D01*
X121870407Y-96831886D01*
X121870411Y-96831889D01*
X122001514Y-96919490D01*
X122001527Y-96919497D01*
X122131624Y-96973384D01*
X122147203Y-96979837D01*
X122268432Y-97003951D01*
X122277767Y-97005808D01*
X122339678Y-97038193D01*
X122374252Y-97098908D01*
X122370513Y-97168678D01*
X122341257Y-97215106D01*
X120855681Y-98700683D01*
X120794358Y-98734168D01*
X120724666Y-98729184D01*
X120668733Y-98687312D01*
X120644316Y-98621848D01*
X120644000Y-98613002D01*
X120644000Y-98465813D01*
X120632142Y-98390946D01*
X120610746Y-98255857D01*
X120545057Y-98053688D01*
X120448551Y-97864284D01*
X120448549Y-97864281D01*
X120448548Y-97864279D01*
X120323609Y-97692313D01*
X120173286Y-97541990D01*
X120001320Y-97417051D01*
X120000266Y-97416514D01*
X119992554Y-97412585D01*
X119941759Y-97364612D01*
X119924963Y-97296792D01*
X119947499Y-97230656D01*
X119992554Y-97191615D01*
X120001316Y-97187151D01*
X120103882Y-97112633D01*
X120173286Y-97062209D01*
X120173288Y-97062206D01*
X120173292Y-97062204D01*
X120323604Y-96911892D01*
X120323606Y-96911888D01*
X120323609Y-96911886D01*
X120439261Y-96752702D01*
X120448551Y-96739916D01*
X120545057Y-96550512D01*
X120610746Y-96348343D01*
X120644000Y-96138387D01*
X120644000Y-95925813D01*
X120610746Y-95715857D01*
X120545057Y-95513688D01*
X120448551Y-95324284D01*
X120448549Y-95324281D01*
X120448548Y-95324279D01*
X120323609Y-95152313D01*
X120209681Y-95038385D01*
X120176196Y-94977062D01*
X120181180Y-94907370D01*
X120223052Y-94851437D01*
X120254029Y-94834522D01*
X120385586Y-94785454D01*
X120385593Y-94785450D01*
X120500687Y-94699290D01*
X120500690Y-94699287D01*
X120586850Y-94584193D01*
X120586854Y-94584186D01*
X120637096Y-94449479D01*
X120637098Y-94449472D01*
X120643499Y-94389944D01*
X120643500Y-94389927D01*
X120643500Y-93742100D01*
X119726512Y-93742100D01*
X119759425Y-93685093D01*
X119793500Y-93557926D01*
X119793500Y-93426274D01*
X119759425Y-93299107D01*
X119726512Y-93242100D01*
X120643500Y-93242100D01*
X120643500Y-92591200D01*
X120663185Y-92524161D01*
X120715989Y-92478406D01*
X120767500Y-92467200D01*
X123755596Y-92467200D01*
X123822635Y-92486885D01*
G37*
%TD.AperFunction*%
%TA.AperFunction,Conductor*%
G36*
X141637291Y-82077486D02*
G01*
X141663613Y-82097560D01*
X142851482Y-83285427D01*
X142851503Y-83285450D01*
X144625600Y-85059547D01*
X144625607Y-85059553D01*
X144713656Y-85118385D01*
X144713658Y-85118386D01*
X144732139Y-85130735D01*
X144732150Y-85130741D01*
X144753316Y-85139508D01*
X144850531Y-85179776D01*
X144850535Y-85179776D01*
X144850536Y-85179777D01*
X144976203Y-85204775D01*
X144976206Y-85204775D01*
X146725793Y-85204775D01*
X146792832Y-85224460D01*
X146794684Y-85225673D01*
X146846930Y-85260582D01*
X146917862Y-85307978D01*
X147072643Y-85372091D01*
X147236953Y-85404774D01*
X147236957Y-85404775D01*
X147236958Y-85404775D01*
X147404493Y-85404775D01*
X147404494Y-85404774D01*
X147568807Y-85372091D01*
X147723588Y-85307978D01*
X147862887Y-85214901D01*
X147873013Y-85204775D01*
X147904796Y-85172993D01*
X147966119Y-85139508D01*
X148035811Y-85144492D01*
X148080158Y-85172993D01*
X152993639Y-90086474D01*
X152993649Y-90086485D01*
X152997979Y-90090815D01*
X152997980Y-90090816D01*
X153109784Y-90202620D01*
X153127864Y-90213058D01*
X153196595Y-90252739D01*
X153196597Y-90252741D01*
X153233692Y-90274158D01*
X153246715Y-90281677D01*
X153399442Y-90322600D01*
X153399443Y-90322600D01*
X155982781Y-90322600D01*
X156049820Y-90342285D01*
X156093265Y-90390305D01*
X156113447Y-90429914D01*
X156113448Y-90429915D01*
X156238390Y-90601886D01*
X156388713Y-90752209D01*
X156560682Y-90877150D01*
X156569446Y-90881616D01*
X156620242Y-90929591D01*
X156637036Y-90997412D01*
X156614498Y-91063547D01*
X156569446Y-91102584D01*
X156560682Y-91107049D01*
X156388713Y-91231990D01*
X156238390Y-91382313D01*
X156113451Y-91554279D01*
X156016944Y-91743685D01*
X155951253Y-91945860D01*
X155918000Y-92155813D01*
X155918000Y-92368386D01*
X155951254Y-92578344D01*
X155952393Y-92583090D01*
X155950194Y-92583617D01*
X155951936Y-92644095D01*
X155915870Y-92703937D01*
X155853176Y-92734779D01*
X155832003Y-92736600D01*
X154598266Y-92736600D01*
X154531227Y-92716915D01*
X154529375Y-92715702D01*
X154397685Y-92627709D01*
X154397672Y-92627702D01*
X154252001Y-92567364D01*
X154251989Y-92567361D01*
X154097345Y-92536600D01*
X154097342Y-92536600D01*
X153939658Y-92536600D01*
X153939655Y-92536600D01*
X153785010Y-92567361D01*
X153784998Y-92567364D01*
X153639327Y-92627702D01*
X153639314Y-92627709D01*
X153508211Y-92715310D01*
X153508207Y-92715313D01*
X153396713Y-92826807D01*
X153396710Y-92826811D01*
X153309109Y-92957914D01*
X153309102Y-92957927D01*
X153248764Y-93103598D01*
X153248761Y-93103610D01*
X153218000Y-93258253D01*
X153218000Y-93415946D01*
X153248761Y-93570589D01*
X153248764Y-93570601D01*
X153309102Y-93716272D01*
X153309109Y-93716285D01*
X153396710Y-93847388D01*
X153396713Y-93847392D01*
X153508207Y-93958886D01*
X153508211Y-93958889D01*
X153639314Y-94046490D01*
X153639327Y-94046497D01*
X153784998Y-94106835D01*
X153785003Y-94106837D01*
X153939653Y-94137599D01*
X153939656Y-94137600D01*
X153939658Y-94137600D01*
X154097344Y-94137600D01*
X154097345Y-94137599D01*
X154251997Y-94106837D01*
X154397679Y-94046494D01*
X154469286Y-93998648D01*
X154529375Y-93958498D01*
X154596053Y-93937620D01*
X154598266Y-93937600D01*
X155990934Y-93937600D01*
X156057973Y-93957285D01*
X156103728Y-94010089D01*
X156113672Y-94079247D01*
X156101419Y-94117892D01*
X156082062Y-94155885D01*
X156016944Y-94283685D01*
X155951253Y-94485860D01*
X155918000Y-94695813D01*
X155918000Y-94908386D01*
X155950074Y-95110896D01*
X155951254Y-95118343D01*
X156008137Y-95293411D01*
X156016944Y-95320514D01*
X156113451Y-95509920D01*
X156238390Y-95681886D01*
X156388713Y-95832209D01*
X156560682Y-95957150D01*
X156569446Y-95961616D01*
X156620242Y-96009591D01*
X156637036Y-96077412D01*
X156614498Y-96143547D01*
X156569446Y-96182584D01*
X156560682Y-96187049D01*
X156388713Y-96311990D01*
X156238390Y-96462313D01*
X156113451Y-96634279D01*
X156016944Y-96823685D01*
X155951253Y-97025860D01*
X155918000Y-97235813D01*
X155918000Y-97383003D01*
X155898315Y-97450042D01*
X155845511Y-97495797D01*
X155776353Y-97505741D01*
X155712797Y-97476716D01*
X155706319Y-97470684D01*
X150086090Y-91850455D01*
X150086088Y-91850452D01*
X149967217Y-91731581D01*
X149967216Y-91731580D01*
X149879894Y-91681165D01*
X149879893Y-91681164D01*
X149830290Y-91652525D01*
X149830289Y-91652524D01*
X149817763Y-91649167D01*
X149677557Y-91611599D01*
X149519443Y-91611599D01*
X149511847Y-91611599D01*
X149511831Y-91611600D01*
X144273266Y-91611600D01*
X144206227Y-91591915D01*
X144204375Y-91590702D01*
X144072685Y-91502709D01*
X144072672Y-91502702D01*
X143927001Y-91442364D01*
X143926989Y-91442361D01*
X143772345Y-91411600D01*
X143772342Y-91411600D01*
X143614658Y-91411600D01*
X143614655Y-91411600D01*
X143460010Y-91442361D01*
X143459998Y-91442364D01*
X143314327Y-91502702D01*
X143314314Y-91502709D01*
X143183211Y-91590310D01*
X143183207Y-91590313D01*
X143071713Y-91701807D01*
X143071710Y-91701811D01*
X142984109Y-91832914D01*
X142984104Y-91832924D01*
X142942712Y-91932854D01*
X142898871Y-91987257D01*
X142832577Y-92009322D01*
X142780699Y-91999962D01*
X142702001Y-91967364D01*
X142701989Y-91967361D01*
X142547345Y-91936600D01*
X142547342Y-91936600D01*
X142389658Y-91936600D01*
X142289993Y-91956424D01*
X142220402Y-91950196D01*
X142178122Y-91922487D01*
X141867916Y-91612281D01*
X141834431Y-91550958D01*
X141839415Y-91481266D01*
X141867916Y-91436919D01*
X143407051Y-89897784D01*
X145083162Y-88221672D01*
X145144483Y-88188189D01*
X145146650Y-88187738D01*
X145204585Y-88176213D01*
X145301997Y-88156837D01*
X145447679Y-88096494D01*
X145578789Y-88008889D01*
X145690289Y-87897389D01*
X145777894Y-87766279D01*
X145838237Y-87620597D01*
X145869000Y-87465942D01*
X145869000Y-87308258D01*
X145869000Y-87308255D01*
X145868999Y-87308253D01*
X145858802Y-87256990D01*
X145838237Y-87153603D01*
X145838234Y-87153595D01*
X145837676Y-87152247D01*
X145837594Y-87151484D01*
X145836469Y-87147776D01*
X145837172Y-87147562D01*
X145830210Y-87082778D01*
X145861488Y-87020300D01*
X145921579Y-86984650D01*
X145952239Y-86980800D01*
X147328203Y-86980800D01*
X147395242Y-87000485D01*
X147415884Y-87017119D01*
X147728081Y-87329316D01*
X147761566Y-87390639D01*
X147764400Y-87416997D01*
X147764400Y-88427230D01*
X147764399Y-88427248D01*
X147764399Y-88592954D01*
X147764398Y-88592954D01*
X147805323Y-88745685D01*
X147834258Y-88795800D01*
X147834259Y-88795804D01*
X147834260Y-88795804D01*
X147861111Y-88842313D01*
X147884379Y-88882614D01*
X147884381Y-88882617D01*
X148003249Y-89001485D01*
X148003255Y-89001490D01*
X149308325Y-90306560D01*
X149341810Y-90367883D01*
X149342261Y-90370049D01*
X149373161Y-90525391D01*
X149373164Y-90525401D01*
X149433502Y-90671072D01*
X149433509Y-90671085D01*
X149521110Y-90802188D01*
X149521113Y-90802192D01*
X149632607Y-90913686D01*
X149632611Y-90913689D01*
X149763714Y-91001290D01*
X149763727Y-91001297D01*
X149892221Y-91054520D01*
X149909403Y-91061637D01*
X150064053Y-91092399D01*
X150064056Y-91092400D01*
X150064058Y-91092400D01*
X150221744Y-91092400D01*
X150221745Y-91092399D01*
X150376397Y-91061637D01*
X150522079Y-91001294D01*
X150653189Y-90913689D01*
X150764689Y-90802189D01*
X150852294Y-90671079D01*
X150912637Y-90525397D01*
X150943400Y-90370742D01*
X150943400Y-90213058D01*
X150943400Y-90213055D01*
X150943399Y-90213053D01*
X150919084Y-90090816D01*
X150912637Y-90058403D01*
X150868126Y-89950943D01*
X150852297Y-89912727D01*
X150852290Y-89912714D01*
X150764689Y-89781611D01*
X150764686Y-89781607D01*
X150653192Y-89670113D01*
X150653188Y-89670110D01*
X150522085Y-89582509D01*
X150522072Y-89582502D01*
X150376401Y-89522164D01*
X150376391Y-89522161D01*
X150221051Y-89491262D01*
X150159141Y-89458877D01*
X150157562Y-89457326D01*
X149001719Y-88301483D01*
X148968234Y-88240160D01*
X148965400Y-88213802D01*
X148965400Y-87205960D01*
X148965401Y-87205947D01*
X148965401Y-87037844D01*
X148965400Y-87037839D01*
X148924477Y-86885116D01*
X148916582Y-86871441D01*
X148845424Y-86748190D01*
X148845418Y-86748182D01*
X148115890Y-86018655D01*
X148115888Y-86018652D01*
X147997017Y-85899781D01*
X147997012Y-85899777D01*
X147890025Y-85838009D01*
X147890023Y-85838008D01*
X147860087Y-85820724D01*
X147860086Y-85820723D01*
X147860085Y-85820723D01*
X147707357Y-85779799D01*
X147549243Y-85779799D01*
X147541647Y-85779799D01*
X147541631Y-85779800D01*
X140221970Y-85779800D01*
X140221954Y-85779799D01*
X140214358Y-85779799D01*
X140056243Y-85779799D01*
X139954425Y-85807081D01*
X139903515Y-85820723D01*
X139786032Y-85888551D01*
X139718131Y-85905022D01*
X139652105Y-85882170D01*
X139608915Y-85827248D01*
X139602274Y-85757695D01*
X139634291Y-85695592D01*
X139636269Y-85693565D01*
X139799019Y-85530816D01*
X141027006Y-84302827D01*
X141027011Y-84302824D01*
X141037214Y-84292620D01*
X141037216Y-84292620D01*
X141149020Y-84180816D01*
X141203247Y-84086892D01*
X141225120Y-84049007D01*
X141225123Y-84049000D01*
X141225124Y-84048999D01*
X141228077Y-84043885D01*
X141269000Y-83891158D01*
X141269000Y-83733043D01*
X141269000Y-82941865D01*
X141288685Y-82874826D01*
X141289898Y-82872974D01*
X141302880Y-82853546D01*
X141377894Y-82741279D01*
X141438237Y-82595597D01*
X141469000Y-82440942D01*
X141469000Y-82283258D01*
X141469000Y-82283255D01*
X141454315Y-82209433D01*
X141460542Y-82139842D01*
X141503404Y-82084664D01*
X141569294Y-82061419D01*
X141637291Y-82077486D01*
G37*
%TD.AperFunction*%
%TA.AperFunction,Conductor*%
G36*
X113622334Y-88130014D02*
G01*
X113678267Y-88171886D01*
X113702684Y-88237350D01*
X113703000Y-88246196D01*
X113703000Y-88393386D01*
X113734608Y-88592954D01*
X113736254Y-88603343D01*
X113798787Y-88795800D01*
X113801944Y-88805514D01*
X113898451Y-88994920D01*
X114023390Y-89166886D01*
X114173713Y-89317209D01*
X114345679Y-89442148D01*
X114345681Y-89442149D01*
X114345684Y-89442151D01*
X114535088Y-89538657D01*
X114737257Y-89604346D01*
X114947213Y-89637600D01*
X114947214Y-89637600D01*
X115159786Y-89637600D01*
X115159787Y-89637600D01*
X115369743Y-89604346D01*
X115571912Y-89538657D01*
X115761316Y-89442151D01*
X115933292Y-89317204D01*
X116046829Y-89203666D01*
X116108148Y-89170184D01*
X116177840Y-89175168D01*
X116233774Y-89217039D01*
X116250689Y-89248017D01*
X116299702Y-89379428D01*
X116299706Y-89379435D01*
X116385952Y-89494644D01*
X116385955Y-89494647D01*
X116501164Y-89580893D01*
X116501171Y-89580897D01*
X116636017Y-89631191D01*
X116636016Y-89631191D01*
X116642944Y-89631935D01*
X116695627Y-89637600D01*
X118491372Y-89637599D01*
X118550983Y-89631191D01*
X118685831Y-89580896D01*
X118801046Y-89494646D01*
X118887296Y-89379431D01*
X118937591Y-89244583D01*
X118944000Y-89184973D01*
X118944000Y-89011600D01*
X118963685Y-88944561D01*
X119016489Y-88898806D01*
X119068000Y-88887600D01*
X134444402Y-88887600D01*
X134511441Y-88907285D01*
X134557196Y-88960089D01*
X134567140Y-89029247D01*
X134538115Y-89092803D01*
X134532083Y-89099281D01*
X134262981Y-89368382D01*
X134262975Y-89368390D01*
X134242417Y-89403999D01*
X134191851Y-89452215D01*
X134135030Y-89466000D01*
X133985855Y-89466000D01*
X133831210Y-89496761D01*
X133831198Y-89496764D01*
X133685527Y-89557102D01*
X133685514Y-89557109D01*
X133553825Y-89645102D01*
X133535778Y-89650752D01*
X133519869Y-89660977D01*
X133488907Y-89665428D01*
X133487147Y-89665980D01*
X133484934Y-89666000D01*
X133414770Y-89666000D01*
X133414754Y-89665999D01*
X133407158Y-89665999D01*
X133249043Y-89665999D01*
X133141687Y-89694765D01*
X133096310Y-89706924D01*
X133096309Y-89706925D01*
X133046196Y-89735859D01*
X133046195Y-89735860D01*
X133010859Y-89756261D01*
X132959385Y-89785979D01*
X132959382Y-89785981D01*
X132475239Y-90270125D01*
X132413916Y-90303610D01*
X132411750Y-90304061D01*
X132256408Y-90334961D01*
X132256398Y-90334964D01*
X132110727Y-90395302D01*
X132110714Y-90395309D01*
X131979611Y-90482910D01*
X131979607Y-90482913D01*
X131868113Y-90594407D01*
X131868110Y-90594411D01*
X131780509Y-90725514D01*
X131780502Y-90725527D01*
X131720164Y-90871198D01*
X131720161Y-90871210D01*
X131689400Y-91025853D01*
X131689400Y-91142200D01*
X131669715Y-91209239D01*
X131616911Y-91254994D01*
X131565400Y-91266200D01*
X120923197Y-91266200D01*
X120856158Y-91246515D01*
X120835516Y-91229881D01*
X120156090Y-90550455D01*
X120156088Y-90550452D01*
X120037217Y-90431581D01*
X120037212Y-90431577D01*
X119931841Y-90370742D01*
X119931839Y-90370741D01*
X119930640Y-90370049D01*
X119900285Y-90352523D01*
X119747557Y-90311599D01*
X119589443Y-90311599D01*
X119581847Y-90311599D01*
X119581831Y-90311600D01*
X112942197Y-90311600D01*
X112875158Y-90291915D01*
X112854516Y-90275281D01*
X112396819Y-89817584D01*
X112363334Y-89756261D01*
X112360500Y-89729903D01*
X112360500Y-89340696D01*
X112380185Y-89273657D01*
X112396814Y-89253020D01*
X113491319Y-88158514D01*
X113552642Y-88125030D01*
X113622334Y-88130014D01*
G37*
%TD.AperFunction*%
%TA.AperFunction,Conductor*%
G36*
X116168770Y-83968817D02*
G01*
X116168770Y-83968816D01*
X116208122Y-83914655D01*
X116212732Y-83905607D01*
X116260705Y-83854809D01*
X116328525Y-83838012D01*
X116394661Y-83860547D01*
X116433704Y-83905604D01*
X116438449Y-83914917D01*
X116563390Y-84086886D01*
X116713713Y-84237209D01*
X116885682Y-84362150D01*
X116894446Y-84366616D01*
X116945242Y-84414591D01*
X116962036Y-84482412D01*
X116939498Y-84548547D01*
X116894446Y-84587584D01*
X116885682Y-84592049D01*
X116713713Y-84716990D01*
X116563390Y-84867313D01*
X116438449Y-85039282D01*
X116433984Y-85048046D01*
X116386009Y-85098842D01*
X116318188Y-85115636D01*
X116252053Y-85093098D01*
X116213016Y-85048046D01*
X116208550Y-85039282D01*
X116083609Y-84867313D01*
X115933286Y-84716990D01*
X115761317Y-84592049D01*
X115752004Y-84587304D01*
X115701207Y-84539330D01*
X115684412Y-84471509D01*
X115706949Y-84405374D01*
X115752007Y-84366332D01*
X115761055Y-84361722D01*
X115815216Y-84322370D01*
X115815217Y-84322370D01*
X115182908Y-83690062D01*
X115246493Y-83673025D01*
X115360507Y-83607199D01*
X115453599Y-83514107D01*
X115519425Y-83400093D01*
X115536462Y-83336508D01*
X116168770Y-83968817D01*
G37*
%TD.AperFunction*%
%TA.AperFunction,Conductor*%
G36*
X158970600Y-75212720D02*
G01*
X158983717Y-75213292D01*
X159361640Y-75229792D01*
X159372377Y-75230732D01*
X159757760Y-75281469D01*
X159768388Y-75283342D01*
X160147888Y-75367475D01*
X160158308Y-75370267D01*
X160529024Y-75487153D01*
X160539178Y-75490849D01*
X160898286Y-75639597D01*
X160908077Y-75644163D01*
X161252840Y-75823635D01*
X161262208Y-75829043D01*
X161590029Y-76037888D01*
X161598890Y-76044093D01*
X161907251Y-76280707D01*
X161915538Y-76287661D01*
X162202102Y-76550248D01*
X162209751Y-76557897D01*
X162472338Y-76844461D01*
X162479292Y-76852748D01*
X162715906Y-77161109D01*
X162722111Y-77169970D01*
X162930956Y-77497791D01*
X162936364Y-77507159D01*
X163115833Y-77851915D01*
X163120405Y-77861719D01*
X163269149Y-78220819D01*
X163272849Y-78230984D01*
X163287093Y-78276160D01*
X163383853Y-78583045D01*
X163389727Y-78601673D01*
X163392527Y-78612123D01*
X163476654Y-78991599D01*
X163478532Y-79002252D01*
X163529265Y-79387602D01*
X163530208Y-79398378D01*
X163547279Y-79789376D01*
X163547397Y-79794785D01*
X163547398Y-118262006D01*
X163547398Y-118325191D01*
X163547280Y-118330600D01*
X163530208Y-118721621D01*
X163529265Y-118732397D01*
X163478532Y-119117747D01*
X163476654Y-119128400D01*
X163392527Y-119507876D01*
X163389727Y-119518326D01*
X163272849Y-119889015D01*
X163269149Y-119899180D01*
X163120405Y-120258280D01*
X163115833Y-120268084D01*
X162936364Y-120612840D01*
X162930956Y-120622208D01*
X162722111Y-120950029D01*
X162715906Y-120958890D01*
X162479292Y-121267251D01*
X162472338Y-121275538D01*
X162209751Y-121562102D01*
X162202102Y-121569751D01*
X161915538Y-121832338D01*
X161907251Y-121839292D01*
X161598890Y-122075906D01*
X161590029Y-122082111D01*
X161262208Y-122290956D01*
X161252840Y-122296364D01*
X160908084Y-122475833D01*
X160898280Y-122480405D01*
X160539180Y-122629149D01*
X160529015Y-122632849D01*
X160158326Y-122749727D01*
X160147876Y-122752527D01*
X159768400Y-122836654D01*
X159757747Y-122838532D01*
X159372397Y-122889265D01*
X159361621Y-122890208D01*
X158970601Y-122907280D01*
X158965192Y-122907398D01*
X112814808Y-122907398D01*
X112809399Y-122907280D01*
X112418378Y-122890208D01*
X112407602Y-122889265D01*
X112022252Y-122838532D01*
X112011599Y-122836654D01*
X111632123Y-122752527D01*
X111621673Y-122749727D01*
X111250984Y-122632849D01*
X111240819Y-122629149D01*
X110881719Y-122480405D01*
X110871915Y-122475833D01*
X110527159Y-122296364D01*
X110517791Y-122290956D01*
X110189970Y-122082111D01*
X110181109Y-122075906D01*
X109872748Y-121839292D01*
X109864461Y-121832338D01*
X109577897Y-121569751D01*
X109570248Y-121562102D01*
X109307661Y-121275538D01*
X109300707Y-121267251D01*
X109064093Y-120958890D01*
X109057888Y-120950029D01*
X108849043Y-120622208D01*
X108843635Y-120612840D01*
X108664163Y-120268077D01*
X108659594Y-120258280D01*
X108654081Y-120244971D01*
X108510849Y-119899178D01*
X108507150Y-119889015D01*
X108390267Y-119518308D01*
X108387475Y-119507888D01*
X108303342Y-119128388D01*
X108301469Y-119117760D01*
X108250732Y-118732377D01*
X108249793Y-118721646D01*
X108248562Y-118693448D01*
X110357900Y-118693448D01*
X110357900Y-118898151D01*
X110389922Y-119100334D01*
X110453181Y-119295023D01*
X110546115Y-119477413D01*
X110666428Y-119643013D01*
X110811186Y-119787771D01*
X110964530Y-119899180D01*
X110976790Y-119908087D01*
X111093007Y-119967303D01*
X111159176Y-120001018D01*
X111159178Y-120001018D01*
X111159181Y-120001020D01*
X111263537Y-120034927D01*
X111353865Y-120064277D01*
X111454957Y-120080288D01*
X111556048Y-120096300D01*
X111556049Y-120096300D01*
X111760751Y-120096300D01*
X111760752Y-120096300D01*
X111962934Y-120064277D01*
X112157619Y-120001020D01*
X112340010Y-119908087D01*
X112432990Y-119840532D01*
X112505613Y-119787771D01*
X112505615Y-119787768D01*
X112505619Y-119787766D01*
X112650366Y-119643019D01*
X112650368Y-119643015D01*
X112650371Y-119643013D01*
X112748552Y-119507876D01*
X112770687Y-119477410D01*
X112863620Y-119295019D01*
X112910529Y-119150648D01*
X158414700Y-119150648D01*
X158414700Y-119355351D01*
X158446722Y-119557534D01*
X158509981Y-119752223D01*
X158556663Y-119843840D01*
X158589397Y-119908084D01*
X158602915Y-119934613D01*
X158723228Y-120100213D01*
X158867986Y-120244971D01*
X159022949Y-120357556D01*
X159033590Y-120365287D01*
X159149807Y-120424503D01*
X159215976Y-120458218D01*
X159215978Y-120458218D01*
X159215981Y-120458220D01*
X159320337Y-120492127D01*
X159410665Y-120521477D01*
X159511757Y-120537488D01*
X159612848Y-120553500D01*
X159612849Y-120553500D01*
X159817551Y-120553500D01*
X159817552Y-120553500D01*
X160019734Y-120521477D01*
X160214419Y-120458220D01*
X160396810Y-120365287D01*
X160530600Y-120268084D01*
X160562413Y-120244971D01*
X160562415Y-120244968D01*
X160562419Y-120244966D01*
X160707166Y-120100219D01*
X160707168Y-120100215D01*
X160707171Y-120100213D01*
X160759932Y-120027590D01*
X160827487Y-119934610D01*
X160920420Y-119752219D01*
X160983677Y-119557534D01*
X161015700Y-119355352D01*
X161015700Y-119150648D01*
X160983677Y-118948466D01*
X160920420Y-118753781D01*
X160920418Y-118753778D01*
X160920418Y-118753776D01*
X160886703Y-118687607D01*
X160827487Y-118571390D01*
X160809880Y-118547156D01*
X160707171Y-118405786D01*
X160562413Y-118261028D01*
X160396813Y-118140715D01*
X160396812Y-118140714D01*
X160396810Y-118140713D01*
X160339853Y-118111691D01*
X160214423Y-118047781D01*
X160019734Y-117984522D01*
X159845195Y-117956878D01*
X159817552Y-117952500D01*
X159612848Y-117952500D01*
X159588529Y-117956351D01*
X159410665Y-117984522D01*
X159215976Y-118047781D01*
X159033586Y-118140715D01*
X158867986Y-118261028D01*
X158723228Y-118405786D01*
X158602915Y-118571386D01*
X158509981Y-118753776D01*
X158446722Y-118948465D01*
X158414700Y-119150648D01*
X112910529Y-119150648D01*
X112917758Y-119128400D01*
X112924563Y-119107457D01*
X112924564Y-119107455D01*
X112926875Y-119100342D01*
X112926875Y-119100338D01*
X112926877Y-119100334D01*
X112958900Y-118898152D01*
X112958900Y-118693448D01*
X112926877Y-118491266D01*
X112863620Y-118296581D01*
X112863618Y-118296578D01*
X112863618Y-118296576D01*
X112829903Y-118230407D01*
X112770687Y-118114190D01*
X112762956Y-118103549D01*
X112650371Y-117948586D01*
X112505613Y-117803828D01*
X112340013Y-117683515D01*
X112340012Y-117683514D01*
X112340010Y-117683513D01*
X112283053Y-117654491D01*
X112157623Y-117590581D01*
X111962934Y-117527322D01*
X111788395Y-117499678D01*
X111760752Y-117495300D01*
X111556048Y-117495300D01*
X111531729Y-117499151D01*
X111353865Y-117527322D01*
X111159176Y-117590581D01*
X110976786Y-117683515D01*
X110811186Y-117803828D01*
X110666428Y-117948586D01*
X110546115Y-118114186D01*
X110453181Y-118296576D01*
X110389922Y-118491265D01*
X110357900Y-118693448D01*
X108248562Y-118693448D01*
X108232721Y-118330621D01*
X108232603Y-118325213D01*
X108232603Y-90109054D01*
X111159498Y-90109054D01*
X111200423Y-90261786D01*
X111211906Y-90281673D01*
X111211907Y-90281678D01*
X111211908Y-90281678D01*
X111279475Y-90398709D01*
X111279481Y-90398717D01*
X111398349Y-90517585D01*
X111398355Y-90517590D01*
X112199481Y-91318716D01*
X112311284Y-91430519D01*
X112448215Y-91509577D01*
X112600943Y-91550501D01*
X112600946Y-91550501D01*
X112759055Y-91550501D01*
X112759057Y-91550501D01*
X112884735Y-91516824D01*
X112916829Y-91512600D01*
X119368403Y-91512600D01*
X119435442Y-91532285D01*
X119456084Y-91548919D01*
X119837584Y-91930419D01*
X119871069Y-91991742D01*
X119866085Y-92061434D01*
X119824213Y-92117367D01*
X119758749Y-92141784D01*
X119749903Y-92142100D01*
X119543500Y-92142100D01*
X119543500Y-93059088D01*
X119486493Y-93026175D01*
X119359326Y-92992100D01*
X119227674Y-92992100D01*
X119100507Y-93026175D01*
X119043500Y-93059088D01*
X119043500Y-92142100D01*
X118395655Y-92142100D01*
X118336127Y-92148501D01*
X118336120Y-92148503D01*
X118201413Y-92198745D01*
X118201406Y-92198749D01*
X118086312Y-92284909D01*
X118086309Y-92284912D01*
X118000149Y-92400006D01*
X118000145Y-92400013D01*
X117949903Y-92534720D01*
X117949901Y-92534727D01*
X117943500Y-92594255D01*
X117943500Y-93242100D01*
X118860488Y-93242100D01*
X118827575Y-93299107D01*
X118793500Y-93426274D01*
X118793500Y-93557926D01*
X118827575Y-93685093D01*
X118860488Y-93742100D01*
X117943500Y-93742100D01*
X117943500Y-94389944D01*
X117949901Y-94449472D01*
X117949903Y-94449479D01*
X118000145Y-94584186D01*
X118000149Y-94584193D01*
X118086309Y-94699287D01*
X118086312Y-94699290D01*
X118201406Y-94785450D01*
X118201413Y-94785454D01*
X118332970Y-94834522D01*
X118388904Y-94876393D01*
X118413321Y-94941858D01*
X118398469Y-95010131D01*
X118377319Y-95038385D01*
X118263389Y-95152315D01*
X118138451Y-95324279D01*
X118041944Y-95513685D01*
X117976253Y-95715860D01*
X117949853Y-95882546D01*
X117943000Y-95925813D01*
X117943000Y-96138387D01*
X117950046Y-96182872D01*
X117975069Y-96340866D01*
X117976254Y-96348343D01*
X118035875Y-96531838D01*
X118041944Y-96550514D01*
X118138451Y-96739920D01*
X118263390Y-96911886D01*
X118413713Y-97062209D01*
X118585682Y-97187150D01*
X118594446Y-97191616D01*
X118645242Y-97239591D01*
X118662036Y-97307412D01*
X118639498Y-97373547D01*
X118594446Y-97412584D01*
X118585682Y-97417049D01*
X118413713Y-97541990D01*
X118263390Y-97692313D01*
X118138451Y-97864279D01*
X118041944Y-98053685D01*
X118041943Y-98053687D01*
X118041943Y-98053688D01*
X118022310Y-98114111D01*
X117976253Y-98255860D01*
X117952650Y-98404884D01*
X117943000Y-98465813D01*
X117943000Y-98678387D01*
X117950707Y-98727049D01*
X117967270Y-98831624D01*
X117976254Y-98888343D01*
X118039124Y-99081837D01*
X118041944Y-99090514D01*
X118138451Y-99279920D01*
X118263390Y-99451886D01*
X118413713Y-99602209D01*
X118585682Y-99727150D01*
X118594446Y-99731616D01*
X118645242Y-99779591D01*
X118662036Y-99847412D01*
X118639498Y-99913547D01*
X118594446Y-99952584D01*
X118585682Y-99957049D01*
X118413713Y-100081990D01*
X118263390Y-100232313D01*
X118138451Y-100404279D01*
X118041944Y-100593685D01*
X117976253Y-100795860D01*
X117952184Y-100947826D01*
X117943000Y-101005813D01*
X117943000Y-101218387D01*
X117950707Y-101267049D01*
X117976254Y-101428344D01*
X117976254Y-101428347D01*
X117989991Y-101470623D01*
X117991986Y-101540464D01*
X117959741Y-101596622D01*
X113999786Y-105556578D01*
X113887981Y-105668382D01*
X113887977Y-105668387D01*
X113839403Y-105752522D01*
X113839402Y-105752521D01*
X113808924Y-105805311D01*
X113808923Y-105805315D01*
X113767999Y-105958043D01*
X113767999Y-105958045D01*
X113767999Y-106126146D01*
X113768000Y-106126159D01*
X113768000Y-115561830D01*
X113767999Y-115561848D01*
X113767999Y-115727554D01*
X113767998Y-115727554D01*
X113808924Y-115880289D01*
X113808925Y-115880290D01*
X113835803Y-115926843D01*
X113835804Y-115926845D01*
X113887975Y-116017209D01*
X113887981Y-116017217D01*
X114006849Y-116136085D01*
X114006855Y-116136090D01*
X115072239Y-117201474D01*
X115072249Y-117201485D01*
X115076579Y-117205815D01*
X115076580Y-117205816D01*
X115188384Y-117317620D01*
X115275195Y-117367739D01*
X115275197Y-117367741D01*
X115325313Y-117396676D01*
X115325315Y-117396677D01*
X115478042Y-117437600D01*
X115478043Y-117437600D01*
X129206831Y-117437600D01*
X129206847Y-117437601D01*
X129214443Y-117437601D01*
X129372554Y-117437601D01*
X129372557Y-117437601D01*
X129525285Y-117396677D01*
X129575404Y-117367739D01*
X129662216Y-117317620D01*
X129774020Y-117205816D01*
X129774020Y-117205814D01*
X129784228Y-117195607D01*
X129784229Y-117195604D01*
X130408162Y-116571672D01*
X130469483Y-116538189D01*
X130471650Y-116537738D01*
X130529585Y-116526213D01*
X130626997Y-116506837D01*
X130772679Y-116446494D01*
X130903789Y-116358889D01*
X131015289Y-116247389D01*
X131102894Y-116116279D01*
X131163237Y-115970597D01*
X131194000Y-115815942D01*
X131194000Y-115658258D01*
X131194000Y-115658255D01*
X131193999Y-115658253D01*
X131176333Y-115569443D01*
X131163237Y-115503603D01*
X131135270Y-115436084D01*
X131102897Y-115357927D01*
X131102890Y-115357914D01*
X131015289Y-115226811D01*
X131015286Y-115226807D01*
X130903792Y-115115313D01*
X130903788Y-115115310D01*
X130772685Y-115027709D01*
X130772672Y-115027702D01*
X130627001Y-114967364D01*
X130626989Y-114967361D01*
X130472345Y-114936600D01*
X130472342Y-114936600D01*
X130314658Y-114936600D01*
X130314655Y-114936600D01*
X130160010Y-114967361D01*
X130159998Y-114967364D01*
X130014327Y-115027702D01*
X130014314Y-115027709D01*
X129883211Y-115115310D01*
X129883207Y-115115313D01*
X129771713Y-115226807D01*
X129771710Y-115226811D01*
X129684109Y-115357914D01*
X129684102Y-115357927D01*
X129623764Y-115503598D01*
X129623761Y-115503608D01*
X129592861Y-115658950D01*
X129560476Y-115720861D01*
X129558925Y-115722439D01*
X129081084Y-116200281D01*
X129019761Y-116233766D01*
X128993403Y-116236600D01*
X115857197Y-116236600D01*
X115790158Y-116216915D01*
X115769516Y-116200281D01*
X115005319Y-115436084D01*
X114971834Y-115374761D01*
X114969000Y-115348403D01*
X114969000Y-106337196D01*
X114971433Y-106328908D01*
X114970147Y-106320366D01*
X114981128Y-106295890D01*
X114988685Y-106270157D01*
X114995212Y-106264500D01*
X114998749Y-106256619D01*
X115005306Y-106249528D01*
X115106320Y-106148514D01*
X115167641Y-106115031D01*
X115237333Y-106120015D01*
X115293266Y-106161887D01*
X115317683Y-106227351D01*
X115317999Y-106236197D01*
X115317999Y-106401146D01*
X115318000Y-106401159D01*
X115318000Y-114361830D01*
X115317999Y-114361848D01*
X115317999Y-114527554D01*
X115317998Y-114527554D01*
X115358923Y-114680285D01*
X115387858Y-114730400D01*
X115387859Y-114730404D01*
X115387860Y-114730404D01*
X115437979Y-114817214D01*
X115437981Y-114817217D01*
X115556849Y-114936085D01*
X115556855Y-114936090D01*
X116372239Y-115751474D01*
X116372249Y-115751485D01*
X116376579Y-115755815D01*
X116376580Y-115755816D01*
X116488384Y-115867620D01*
X116510330Y-115880290D01*
X116575195Y-115917739D01*
X116575197Y-115917741D01*
X116590966Y-115926845D01*
X116625315Y-115946677D01*
X116778043Y-115987601D01*
X116778046Y-115987601D01*
X116943753Y-115987601D01*
X116943769Y-115987600D01*
X126231831Y-115987600D01*
X126231847Y-115987601D01*
X126239443Y-115987601D01*
X126397554Y-115987601D01*
X126397557Y-115987601D01*
X126550285Y-115946677D01*
X126600404Y-115917739D01*
X126687216Y-115867620D01*
X126799020Y-115755816D01*
X126799020Y-115755814D01*
X126809228Y-115745607D01*
X126809229Y-115745604D01*
X135930916Y-106623919D01*
X135992239Y-106590434D01*
X136018597Y-106587600D01*
X141794548Y-106587600D01*
X141861587Y-106607285D01*
X141907342Y-106660089D01*
X141916854Y-106717166D01*
X141918000Y-106717166D01*
X141918000Y-106880946D01*
X141948761Y-107035589D01*
X141948764Y-107035601D01*
X142009102Y-107181272D01*
X142009109Y-107181285D01*
X142097102Y-107312974D01*
X142117980Y-107379651D01*
X142118000Y-107381865D01*
X142118000Y-107750430D01*
X142117999Y-107750448D01*
X142117999Y-107916154D01*
X142117998Y-107916154D01*
X142158923Y-108068885D01*
X142187858Y-108119000D01*
X142187859Y-108119004D01*
X142187860Y-108119004D01*
X142237979Y-108205814D01*
X142237981Y-108205817D01*
X142356849Y-108324685D01*
X142356855Y-108324690D01*
X147908639Y-113876474D01*
X147908649Y-113876485D01*
X147912979Y-113880815D01*
X147912980Y-113880816D01*
X148024784Y-113992620D01*
X148111595Y-114042739D01*
X148111597Y-114042741D01*
X148149651Y-114064711D01*
X148161715Y-114071677D01*
X148314443Y-114112601D01*
X148314446Y-114112601D01*
X148480153Y-114112601D01*
X148480169Y-114112600D01*
X158971231Y-114112600D01*
X158971247Y-114112601D01*
X158978843Y-114112601D01*
X159136954Y-114112601D01*
X159136957Y-114112601D01*
X159289685Y-114071677D01*
X159339804Y-114042739D01*
X159426616Y-113992620D01*
X159538420Y-113880816D01*
X159538420Y-113880814D01*
X159548628Y-113870607D01*
X159548630Y-113870604D01*
X161977006Y-111442228D01*
X161977011Y-111442224D01*
X161987214Y-111432020D01*
X161987216Y-111432020D01*
X162099020Y-111320216D01*
X162156580Y-111220519D01*
X162178077Y-111183285D01*
X162219000Y-111030558D01*
X162219000Y-110872443D01*
X162219000Y-94783043D01*
X162178077Y-94630316D01*
X162133525Y-94553149D01*
X162099024Y-94493390D01*
X162099021Y-94493386D01*
X162099020Y-94493384D01*
X161987216Y-94381580D01*
X161987215Y-94381579D01*
X161982885Y-94377249D01*
X161982874Y-94377239D01*
X161103990Y-93498355D01*
X161103988Y-93498352D01*
X160985117Y-93379481D01*
X160985109Y-93379475D01*
X160870948Y-93313565D01*
X160870948Y-93313564D01*
X160870943Y-93313563D01*
X160863001Y-93308977D01*
X160848186Y-93300423D01*
X160797165Y-93286752D01*
X160695457Y-93259499D01*
X160537343Y-93259499D01*
X160529747Y-93259499D01*
X160529731Y-93259500D01*
X158456521Y-93259500D01*
X158389482Y-93239815D01*
X158343727Y-93187011D01*
X158333783Y-93117853D01*
X158356202Y-93062615D01*
X158392540Y-93012599D01*
X158423551Y-92969916D01*
X158520057Y-92780512D01*
X158585746Y-92578343D01*
X158619000Y-92368387D01*
X158619000Y-92155813D01*
X158585746Y-91945857D01*
X158520057Y-91743688D01*
X158423551Y-91554284D01*
X158423549Y-91554281D01*
X158423548Y-91554279D01*
X158298609Y-91382313D01*
X158148286Y-91231990D01*
X157976320Y-91107051D01*
X157975615Y-91106691D01*
X157967554Y-91102585D01*
X157916759Y-91054612D01*
X157899963Y-90986792D01*
X157922499Y-90920656D01*
X157967554Y-90881615D01*
X157976316Y-90877151D01*
X158071604Y-90807921D01*
X158148286Y-90752209D01*
X158148288Y-90752206D01*
X158148292Y-90752204D01*
X158298604Y-90601892D01*
X158298606Y-90601888D01*
X158298609Y-90601886D01*
X158423548Y-90429920D01*
X158423547Y-90429920D01*
X158423551Y-90429916D01*
X158520057Y-90240512D01*
X158585746Y-90038343D01*
X158619000Y-89828387D01*
X158619000Y-89615813D01*
X158585746Y-89405857D01*
X158520057Y-89203688D01*
X158423551Y-89014284D01*
X158423549Y-89014281D01*
X158423548Y-89014279D01*
X158298609Y-88842313D01*
X158185069Y-88728773D01*
X158151584Y-88667450D01*
X158156568Y-88597758D01*
X158198440Y-88541825D01*
X158229415Y-88524910D01*
X158360831Y-88475896D01*
X158476046Y-88389646D01*
X158562296Y-88274431D01*
X158612591Y-88139583D01*
X158619000Y-88079973D01*
X158618999Y-86284228D01*
X158612591Y-86224617D01*
X158597400Y-86183889D01*
X158562297Y-86089771D01*
X158562293Y-86089764D01*
X158476047Y-85974555D01*
X158476044Y-85974552D01*
X158360835Y-85888306D01*
X158360828Y-85888302D01*
X158225982Y-85838008D01*
X158225983Y-85838008D01*
X158166383Y-85831601D01*
X158166381Y-85831600D01*
X158166373Y-85831600D01*
X158166365Y-85831600D01*
X156818597Y-85831600D01*
X156751558Y-85811915D01*
X156730916Y-85795281D01*
X156105319Y-85169684D01*
X156071834Y-85108361D01*
X156069000Y-85082003D01*
X156069000Y-81983043D01*
X156068967Y-81982921D01*
X156046201Y-81897957D01*
X156046201Y-81897956D01*
X156028077Y-81830316D01*
X156024547Y-81824201D01*
X155949024Y-81693390D01*
X155949021Y-81693386D01*
X155949020Y-81693384D01*
X155837216Y-81581580D01*
X155837215Y-81581579D01*
X155832885Y-81577249D01*
X155832874Y-81577239D01*
X154306090Y-80050455D01*
X154306088Y-80050452D01*
X154187217Y-79931581D01*
X154187216Y-79931580D01*
X154100404Y-79881460D01*
X154100404Y-79881459D01*
X154100400Y-79881458D01*
X154050285Y-79852523D01*
X153897557Y-79811599D01*
X153739443Y-79811599D01*
X153731847Y-79811599D01*
X153731831Y-79811600D01*
X149839436Y-79811600D01*
X149821579Y-79816385D01*
X149821580Y-79816386D01*
X149686714Y-79852523D01*
X149686709Y-79852526D01*
X149549790Y-79931575D01*
X149549782Y-79931581D01*
X148253839Y-81227525D01*
X148192516Y-81261010D01*
X148190350Y-81261461D01*
X148035008Y-81292361D01*
X148034998Y-81292364D01*
X147889327Y-81352702D01*
X147889314Y-81352709D01*
X147758211Y-81440310D01*
X147758207Y-81440313D01*
X147646713Y-81551807D01*
X147646710Y-81551811D01*
X147559109Y-81682914D01*
X147559102Y-81682927D01*
X147498764Y-81828598D01*
X147498761Y-81828610D01*
X147468000Y-81983253D01*
X147468000Y-82140946D01*
X147498761Y-82295589D01*
X147498764Y-82295601D01*
X147559102Y-82441272D01*
X147559109Y-82441285D01*
X147646710Y-82572388D01*
X147646713Y-82572392D01*
X147758207Y-82683886D01*
X147758211Y-82683889D01*
X147889314Y-82771490D01*
X147889327Y-82771497D01*
X147975043Y-82807001D01*
X148035003Y-82831837D01*
X148189653Y-82862599D01*
X148189656Y-82862600D01*
X148189658Y-82862600D01*
X148347344Y-82862600D01*
X148347345Y-82862599D01*
X148501997Y-82831837D01*
X148647679Y-82771494D01*
X148778789Y-82683889D01*
X148890289Y-82572389D01*
X148977894Y-82441279D01*
X149038237Y-82295597D01*
X149063908Y-82166542D01*
X149069138Y-82140250D01*
X149101523Y-82078339D01*
X149103021Y-82076813D01*
X149546331Y-81633502D01*
X149607652Y-81600019D01*
X149677343Y-81605003D01*
X149733277Y-81646874D01*
X149737112Y-81652294D01*
X149825910Y-81785188D01*
X149825913Y-81785192D01*
X149937407Y-81896686D01*
X149937411Y-81896689D01*
X150068514Y-81984290D01*
X150068527Y-81984297D01*
X150214198Y-82044635D01*
X150214203Y-82044637D01*
X150278847Y-82057495D01*
X150369549Y-82075538D01*
X150431460Y-82107923D01*
X150433039Y-82109474D01*
X152420567Y-84097002D01*
X152454052Y-84158325D01*
X152449068Y-84228017D01*
X152435988Y-84253574D01*
X152354509Y-84375514D01*
X152354502Y-84375527D01*
X152294164Y-84521198D01*
X152294161Y-84521210D01*
X152263400Y-84675853D01*
X152263400Y-84833546D01*
X152294161Y-84988189D01*
X152294164Y-84988201D01*
X152354502Y-85133872D01*
X152354509Y-85133885D01*
X152442110Y-85264988D01*
X152442113Y-85264992D01*
X152553607Y-85376486D01*
X152553611Y-85376489D01*
X152684714Y-85464090D01*
X152684727Y-85464097D01*
X152830398Y-85524435D01*
X152830403Y-85524437D01*
X152985053Y-85555199D01*
X152985056Y-85555200D01*
X152985058Y-85555200D01*
X153142744Y-85555200D01*
X153142745Y-85555199D01*
X153297397Y-85524437D01*
X153443079Y-85464094D01*
X153574189Y-85376489D01*
X153685689Y-85264989D01*
X153773294Y-85133879D01*
X153833637Y-84988197D01*
X153864400Y-84833542D01*
X153864400Y-84675858D01*
X153864400Y-84675855D01*
X153864399Y-84675853D01*
X153839076Y-84548547D01*
X153833637Y-84521203D01*
X153833635Y-84521198D01*
X153773297Y-84375527D01*
X153773290Y-84375514D01*
X153685298Y-84243825D01*
X153679647Y-84225778D01*
X153669423Y-84209869D01*
X153664971Y-84178907D01*
X153664420Y-84177147D01*
X153664400Y-84174934D01*
X153664400Y-83980160D01*
X153664401Y-83980147D01*
X153664401Y-83812044D01*
X153648692Y-83753417D01*
X153623477Y-83659316D01*
X153623473Y-83659309D01*
X153544424Y-83522390D01*
X153544418Y-83522382D01*
X151282273Y-81260237D01*
X151273209Y-81243638D01*
X151260077Y-81230028D01*
X151249673Y-81200535D01*
X151248788Y-81198914D01*
X151248336Y-81196744D01*
X151248007Y-81195092D01*
X151244671Y-81178315D01*
X151241185Y-81160788D01*
X151247415Y-81091196D01*
X151290279Y-81036020D01*
X151356170Y-81012778D01*
X151362803Y-81012600D01*
X151989443Y-81012600D01*
X153518403Y-81012600D01*
X153585442Y-81032285D01*
X153606084Y-81048919D01*
X154831681Y-82274516D01*
X154865166Y-82335839D01*
X154868000Y-82362197D01*
X154868000Y-85295430D01*
X154867999Y-85295448D01*
X154867999Y-85461154D01*
X154867998Y-85461154D01*
X154908924Y-85613887D01*
X154924469Y-85640811D01*
X154924470Y-85640813D01*
X154987977Y-85750812D01*
X154987981Y-85750817D01*
X155106849Y-85869685D01*
X155106855Y-85869690D01*
X155881681Y-86644516D01*
X155915166Y-86705839D01*
X155918000Y-86732197D01*
X155918000Y-88079970D01*
X155918001Y-88079976D01*
X155924408Y-88139583D01*
X155974702Y-88274428D01*
X155974706Y-88274435D01*
X156060952Y-88389644D01*
X156060955Y-88389647D01*
X156176164Y-88475893D01*
X156176171Y-88475897D01*
X156307582Y-88524910D01*
X156363516Y-88566781D01*
X156387933Y-88632245D01*
X156373082Y-88700518D01*
X156351931Y-88728773D01*
X156238389Y-88842315D01*
X156113448Y-89014284D01*
X156113447Y-89014285D01*
X156093265Y-89053895D01*
X156045291Y-89104691D01*
X155982781Y-89121600D01*
X153778597Y-89121600D01*
X153711558Y-89101915D01*
X153690916Y-89085281D01*
X146628074Y-82022439D01*
X146594589Y-81961116D01*
X146594138Y-81958949D01*
X146572825Y-81851807D01*
X146563237Y-81803603D01*
X146537021Y-81740311D01*
X146502897Y-81657927D01*
X146502890Y-81657914D01*
X146415289Y-81526811D01*
X146415286Y-81526807D01*
X146303792Y-81415313D01*
X146303788Y-81415310D01*
X146172685Y-81327709D01*
X146172672Y-81327702D01*
X146027001Y-81267364D01*
X146026989Y-81267361D01*
X145872345Y-81236600D01*
X145872342Y-81236600D01*
X145714658Y-81236600D01*
X145714655Y-81236600D01*
X145560010Y-81267361D01*
X145559998Y-81267364D01*
X145414327Y-81327702D01*
X145414314Y-81327709D01*
X145283211Y-81415310D01*
X145283207Y-81415313D01*
X145171713Y-81526807D01*
X145171710Y-81526811D01*
X145084109Y-81657914D01*
X145084102Y-81657927D01*
X145023764Y-81803598D01*
X145023761Y-81803610D01*
X144993000Y-81958253D01*
X144993000Y-82115946D01*
X145023761Y-82270589D01*
X145023764Y-82270601D01*
X145084102Y-82416272D01*
X145084109Y-82416285D01*
X145171710Y-82547388D01*
X145171713Y-82547392D01*
X145283207Y-82658886D01*
X145283211Y-82658889D01*
X145414314Y-82746490D01*
X145414327Y-82746497D01*
X145536848Y-82797246D01*
X145560003Y-82806837D01*
X145624647Y-82819695D01*
X145715349Y-82837738D01*
X145777260Y-82870123D01*
X145778839Y-82871674D01*
X146599259Y-83692094D01*
X146632744Y-83753417D01*
X146627760Y-83823109D01*
X146585888Y-83879042D01*
X146520424Y-83903459D01*
X146511578Y-83903775D01*
X145361083Y-83903775D01*
X145294044Y-83884090D01*
X145273402Y-83867456D01*
X143771450Y-82365503D01*
X143771427Y-82365482D01*
X142777919Y-81371973D01*
X142744434Y-81310650D01*
X142741600Y-81284292D01*
X142741600Y-81134628D01*
X142716602Y-81008961D01*
X142716601Y-81008960D01*
X142716601Y-81008956D01*
X142678674Y-80917392D01*
X142667566Y-80890575D01*
X142667561Y-80890566D01*
X142596376Y-80784031D01*
X142596373Y-80784027D01*
X142505772Y-80693426D01*
X142505768Y-80693423D01*
X142399233Y-80622238D01*
X142399224Y-80622233D01*
X142280844Y-80573199D01*
X142280838Y-80573197D01*
X142155171Y-80548200D01*
X142155169Y-80548200D01*
X141903908Y-80548200D01*
X141836869Y-80528515D01*
X141816227Y-80511881D01*
X141625554Y-80321208D01*
X141592069Y-80259885D01*
X141591618Y-80257718D01*
X141562717Y-80112425D01*
X141562716Y-80112418D01*
X141498603Y-79957637D01*
X141447702Y-79881458D01*
X141405526Y-79818337D01*
X141287062Y-79699873D01*
X141147760Y-79606795D01*
X140992982Y-79542684D01*
X140992974Y-79542682D01*
X140828671Y-79510000D01*
X140828667Y-79510000D01*
X140661133Y-79510000D01*
X140661128Y-79510000D01*
X140496825Y-79542682D01*
X140496817Y-79542684D01*
X140342039Y-79606795D01*
X140202737Y-79699873D01*
X140084273Y-79818337D01*
X139991195Y-79957639D01*
X139927084Y-80112417D01*
X139927082Y-80112425D01*
X139894400Y-80276728D01*
X139894400Y-80444271D01*
X139927082Y-80608574D01*
X139927084Y-80608582D01*
X139991195Y-80763360D01*
X140084273Y-80902662D01*
X140202737Y-81021126D01*
X140260872Y-81059970D01*
X140342037Y-81114203D01*
X140496818Y-81178316D01*
X140580911Y-81195043D01*
X140642118Y-81207218D01*
X140658874Y-81215983D01*
X140677354Y-81220003D01*
X140702388Y-81238743D01*
X140704029Y-81239602D01*
X140705608Y-81241154D01*
X140814373Y-81349919D01*
X140847858Y-81411242D01*
X140842874Y-81480934D01*
X140801002Y-81536867D01*
X140735538Y-81561284D01*
X140726692Y-81561600D01*
X140589655Y-81561600D01*
X140435010Y-81592361D01*
X140434998Y-81592364D01*
X140289327Y-81652702D01*
X140289314Y-81652709D01*
X140158211Y-81740310D01*
X140158207Y-81740313D01*
X140046713Y-81851807D01*
X140046710Y-81851811D01*
X139959109Y-81982914D01*
X139959102Y-81982927D01*
X139898764Y-82128598D01*
X139898761Y-82128610D01*
X139868000Y-82283253D01*
X139868000Y-82440946D01*
X139898761Y-82595589D01*
X139898764Y-82595601D01*
X139953513Y-82727777D01*
X139960982Y-82797246D01*
X139929707Y-82859725D01*
X139869618Y-82895377D01*
X139799792Y-82892883D01*
X139791500Y-82889791D01*
X139750899Y-82872974D01*
X139676997Y-82842363D01*
X139676992Y-82842362D01*
X139676989Y-82842361D01*
X139522345Y-82811600D01*
X139522342Y-82811600D01*
X139364658Y-82811600D01*
X139364655Y-82811600D01*
X139210010Y-82842361D01*
X139209998Y-82842364D01*
X139064327Y-82902702D01*
X139064314Y-82902709D01*
X138933211Y-82990310D01*
X138933207Y-82990313D01*
X138821713Y-83101807D01*
X138821710Y-83101811D01*
X138734109Y-83232914D01*
X138734102Y-83232927D01*
X138673764Y-83378598D01*
X138673761Y-83378608D01*
X138642861Y-83533950D01*
X138610476Y-83595861D01*
X138608925Y-83597439D01*
X134556084Y-87650281D01*
X134494761Y-87683766D01*
X134468403Y-87686600D01*
X131240433Y-87686600D01*
X131173394Y-87666915D01*
X131127639Y-87614111D01*
X131117695Y-87544953D01*
X131118816Y-87538409D01*
X131131399Y-87475146D01*
X131131400Y-87475144D01*
X131131400Y-87317455D01*
X131131399Y-87317453D01*
X131119372Y-87256990D01*
X131100637Y-87162803D01*
X131087899Y-87132051D01*
X131040297Y-87017127D01*
X131040290Y-87017114D01*
X130952689Y-86886011D01*
X130952686Y-86886007D01*
X130841192Y-86774513D01*
X130841188Y-86774510D01*
X130707109Y-86684920D01*
X130702018Y-86678829D01*
X130694797Y-86675531D01*
X130679931Y-86652400D01*
X130662304Y-86631307D01*
X130660352Y-86621933D01*
X130657023Y-86616753D01*
X130652000Y-86581818D01*
X130652000Y-86420903D01*
X130671685Y-86353864D01*
X130724489Y-86308109D01*
X130793647Y-86298165D01*
X130823450Y-86306341D01*
X130885003Y-86331837D01*
X131039653Y-86362599D01*
X131039656Y-86362600D01*
X131039658Y-86362600D01*
X131197344Y-86362600D01*
X131197345Y-86362599D01*
X131351997Y-86331837D01*
X131497679Y-86271494D01*
X131628789Y-86183889D01*
X131740289Y-86072389D01*
X131827894Y-85941279D01*
X131888237Y-85795597D01*
X131919000Y-85640942D01*
X131919000Y-85483258D01*
X131919000Y-85483255D01*
X131918999Y-85483253D01*
X131908577Y-85430857D01*
X131888237Y-85328603D01*
X131874504Y-85295448D01*
X131827897Y-85182927D01*
X131827890Y-85182914D01*
X131740289Y-85051811D01*
X131740286Y-85051807D01*
X131680319Y-84991840D01*
X131646834Y-84930517D01*
X131644000Y-84904159D01*
X131644000Y-79264235D01*
X133478000Y-79264235D01*
X133478000Y-81059970D01*
X133478001Y-81059976D01*
X133484408Y-81119583D01*
X133534702Y-81254428D01*
X133534706Y-81254435D01*
X133620952Y-81369644D01*
X133620955Y-81369647D01*
X133736164Y-81455893D01*
X133736171Y-81455897D01*
X133871017Y-81506191D01*
X133871016Y-81506191D01*
X133877944Y-81506935D01*
X133930627Y-81512600D01*
X135726372Y-81512599D01*
X135785983Y-81506191D01*
X135920831Y-81455896D01*
X136036046Y-81369646D01*
X136122296Y-81254431D01*
X136172591Y-81119583D01*
X136179000Y-81059973D01*
X136178999Y-81036079D01*
X136181830Y-81023063D01*
X136192440Y-81003625D01*
X136198679Y-80982375D01*
X136215303Y-80961743D01*
X136215308Y-80961736D01*
X136215311Y-80961734D01*
X136215318Y-80961726D01*
X136885537Y-80291508D01*
X136902575Y-80355093D01*
X136968401Y-80469107D01*
X137061493Y-80562199D01*
X137175507Y-80628025D01*
X137239090Y-80645062D01*
X136606782Y-81277369D01*
X136606782Y-81277370D01*
X136660949Y-81316724D01*
X136850282Y-81413195D01*
X137052370Y-81478857D01*
X137262254Y-81512100D01*
X137474746Y-81512100D01*
X137684627Y-81478857D01*
X137684630Y-81478857D01*
X137886717Y-81413195D01*
X138076054Y-81316722D01*
X138130216Y-81277370D01*
X138130217Y-81277370D01*
X137497908Y-80645062D01*
X137561493Y-80628025D01*
X137675507Y-80562199D01*
X137768599Y-80469107D01*
X137834425Y-80355093D01*
X137851462Y-80291508D01*
X138483770Y-80923817D01*
X138483770Y-80923816D01*
X138523122Y-80869654D01*
X138619595Y-80680317D01*
X138685257Y-80478230D01*
X138685257Y-80478227D01*
X138718500Y-80268346D01*
X138718500Y-80055853D01*
X138685257Y-79845972D01*
X138685257Y-79845969D01*
X138619595Y-79643882D01*
X138523124Y-79454549D01*
X138483770Y-79400382D01*
X138483769Y-79400382D01*
X137851462Y-80032690D01*
X137834425Y-79969107D01*
X137768599Y-79855093D01*
X137675507Y-79762001D01*
X137561493Y-79696175D01*
X137497909Y-79679137D01*
X138130216Y-79046828D01*
X138076050Y-79007475D01*
X137886717Y-78911004D01*
X137684629Y-78845342D01*
X137474746Y-78812100D01*
X137262254Y-78812100D01*
X137052372Y-78845342D01*
X137052369Y-78845342D01*
X136850282Y-78911004D01*
X136660939Y-79007480D01*
X136606782Y-79046827D01*
X136606782Y-79046828D01*
X137239091Y-79679137D01*
X137175507Y-79696175D01*
X137061493Y-79762001D01*
X136968401Y-79855093D01*
X136902575Y-79969107D01*
X136885537Y-80032691D01*
X136215318Y-79362472D01*
X136181833Y-79301149D01*
X136181830Y-79301136D01*
X136178999Y-79288115D01*
X136178999Y-79264228D01*
X136172591Y-79204617D01*
X136144426Y-79129102D01*
X136122298Y-79069773D01*
X136122293Y-79069764D01*
X136036047Y-78954555D01*
X136036044Y-78954552D01*
X135920835Y-78868306D01*
X135920828Y-78868302D01*
X135785982Y-78818008D01*
X135785983Y-78818008D01*
X135726383Y-78811601D01*
X135726381Y-78811600D01*
X135726373Y-78811600D01*
X135726364Y-78811600D01*
X133930629Y-78811600D01*
X133930623Y-78811601D01*
X133871016Y-78818008D01*
X133736171Y-78868302D01*
X133736164Y-78868306D01*
X133620955Y-78954552D01*
X133620952Y-78954555D01*
X133534706Y-79069764D01*
X133534702Y-79069771D01*
X133484408Y-79204617D01*
X133478001Y-79264216D01*
X133478000Y-79264235D01*
X131644000Y-79264235D01*
X131644000Y-78612248D01*
X158414700Y-78612248D01*
X158414700Y-78816952D01*
X158419078Y-78844595D01*
X158446722Y-79019134D01*
X158509981Y-79213823D01*
X158554470Y-79301136D01*
X158601263Y-79392972D01*
X158602915Y-79396213D01*
X158723228Y-79561813D01*
X158867986Y-79706571D01*
X159012548Y-79811599D01*
X159033590Y-79826887D01*
X159149807Y-79886103D01*
X159215976Y-79919818D01*
X159215978Y-79919818D01*
X159215981Y-79919820D01*
X159252175Y-79931580D01*
X159410665Y-79983077D01*
X159511757Y-79999088D01*
X159612848Y-80015100D01*
X159612849Y-80015100D01*
X159817551Y-80015100D01*
X159817552Y-80015100D01*
X160019734Y-79983077D01*
X160214419Y-79919820D01*
X160396810Y-79826887D01*
X160489790Y-79759332D01*
X160562413Y-79706571D01*
X160562415Y-79706568D01*
X160562419Y-79706566D01*
X160707166Y-79561819D01*
X160707168Y-79561815D01*
X160707171Y-79561813D01*
X160759932Y-79489190D01*
X160827487Y-79396210D01*
X160920420Y-79213819D01*
X160983677Y-79019134D01*
X161015700Y-78816952D01*
X161015700Y-78612248D01*
X160983677Y-78410066D01*
X160920420Y-78215381D01*
X160920418Y-78215378D01*
X160920418Y-78215376D01*
X160886703Y-78149207D01*
X160827487Y-78032990D01*
X160819756Y-78022349D01*
X160707171Y-77867386D01*
X160562413Y-77722628D01*
X160396813Y-77602315D01*
X160396812Y-77602314D01*
X160396810Y-77602313D01*
X160339853Y-77573291D01*
X160214423Y-77509381D01*
X160019734Y-77446122D01*
X159845195Y-77418478D01*
X159817552Y-77414100D01*
X159612848Y-77414100D01*
X159588529Y-77417951D01*
X159410665Y-77446122D01*
X159215976Y-77509381D01*
X159033586Y-77602315D01*
X158867986Y-77722628D01*
X158723228Y-77867386D01*
X158602915Y-78032986D01*
X158509981Y-78215376D01*
X158446722Y-78410065D01*
X158419326Y-78583043D01*
X158414700Y-78612248D01*
X131644000Y-78612248D01*
X131644000Y-78583045D01*
X131644000Y-78583043D01*
X131603077Y-78430316D01*
X131591385Y-78410065D01*
X131524024Y-78293390D01*
X131524018Y-78293382D01*
X131412217Y-78181581D01*
X131412209Y-78181575D01*
X131275290Y-78102526D01*
X131275286Y-78102524D01*
X131275284Y-78102523D01*
X131122557Y-78061600D01*
X124757557Y-78061600D01*
X124599443Y-78061600D01*
X124446715Y-78102523D01*
X124446714Y-78102523D01*
X124446712Y-78102524D01*
X124446709Y-78102525D01*
X124396596Y-78131459D01*
X124396595Y-78131460D01*
X124353189Y-78156520D01*
X124309785Y-78181579D01*
X124309782Y-78181581D01*
X119155681Y-83335683D01*
X119094358Y-83369168D01*
X119024666Y-83364184D01*
X118968733Y-83322312D01*
X118944316Y-83256848D01*
X118944000Y-83248002D01*
X118944000Y-83100813D01*
X118912623Y-82902709D01*
X118910746Y-82890857D01*
X118845057Y-82688688D01*
X118748551Y-82499284D01*
X118748549Y-82499281D01*
X118748548Y-82499279D01*
X118623609Y-82327313D01*
X118473286Y-82176990D01*
X118301320Y-82052051D01*
X118111914Y-81955544D01*
X118111913Y-81955543D01*
X118111912Y-81955543D01*
X117909743Y-81889854D01*
X117909741Y-81889853D01*
X117909740Y-81889853D01*
X117748457Y-81864308D01*
X117699787Y-81856600D01*
X117487213Y-81856600D01*
X117438542Y-81864308D01*
X117277260Y-81889853D01*
X117075085Y-81955544D01*
X116885679Y-82052051D01*
X116713713Y-82176990D01*
X116563390Y-82327313D01*
X116438449Y-82499282D01*
X116433702Y-82508599D01*
X116385727Y-82559393D01*
X116317905Y-82576187D01*
X116251771Y-82553648D01*
X116212734Y-82508595D01*
X116208126Y-82499552D01*
X116168770Y-82445382D01*
X116168769Y-82445382D01*
X115536462Y-83077690D01*
X115519425Y-83014107D01*
X115453599Y-82900093D01*
X115360507Y-82807001D01*
X115246493Y-82741175D01*
X115182909Y-82724137D01*
X115815216Y-82091828D01*
X115761050Y-82052475D01*
X115571717Y-81956004D01*
X115369629Y-81890342D01*
X115159746Y-81857100D01*
X114947254Y-81857100D01*
X114737372Y-81890342D01*
X114737369Y-81890342D01*
X114535282Y-81956004D01*
X114345939Y-82052480D01*
X114291782Y-82091827D01*
X114291782Y-82091828D01*
X114924091Y-82724137D01*
X114860507Y-82741175D01*
X114746493Y-82807001D01*
X114653401Y-82900093D01*
X114587575Y-83014107D01*
X114570537Y-83077691D01*
X113938228Y-82445382D01*
X113938227Y-82445382D01*
X113898880Y-82499539D01*
X113802404Y-82688882D01*
X113736742Y-82890969D01*
X113736742Y-82890972D01*
X113703500Y-83100853D01*
X113703500Y-83313346D01*
X113736742Y-83523227D01*
X113736742Y-83523230D01*
X113802404Y-83725317D01*
X113898875Y-83914650D01*
X113938228Y-83968816D01*
X114570537Y-83336508D01*
X114587575Y-83400093D01*
X114653401Y-83514107D01*
X114746493Y-83607199D01*
X114860507Y-83673025D01*
X114924090Y-83690062D01*
X114291782Y-84322369D01*
X114291782Y-84322370D01*
X114345952Y-84361726D01*
X114345951Y-84361726D01*
X114354995Y-84366334D01*
X114405792Y-84414308D01*
X114422587Y-84482129D01*
X114400050Y-84548264D01*
X114354999Y-84587302D01*
X114345682Y-84592049D01*
X114173713Y-84716990D01*
X114023390Y-84867313D01*
X113898451Y-85039279D01*
X113801944Y-85228685D01*
X113736253Y-85430860D01*
X113703000Y-85640811D01*
X113703000Y-85640813D01*
X113703000Y-85853387D01*
X113710348Y-85899777D01*
X113736254Y-86063344D01*
X113736254Y-86063347D01*
X113749991Y-86105623D01*
X113751986Y-86175464D01*
X113719741Y-86231622D01*
X111391286Y-88560078D01*
X111279481Y-88671882D01*
X111279480Y-88671884D01*
X111236872Y-88745685D01*
X111229361Y-88758694D01*
X111229359Y-88758696D01*
X111200425Y-88808809D01*
X111200424Y-88808810D01*
X111184544Y-88868072D01*
X111159499Y-88961543D01*
X111159499Y-89119657D01*
X111159499Y-89119659D01*
X111159500Y-89129653D01*
X111159500Y-89943330D01*
X111159499Y-89943348D01*
X111159499Y-90109054D01*
X111159498Y-90109054D01*
X108232603Y-90109054D01*
X108232603Y-79794785D01*
X108232721Y-79789377D01*
X108236336Y-79706566D01*
X108249792Y-79398357D01*
X108250732Y-79387624D01*
X108301469Y-79002235D01*
X108303342Y-78991615D01*
X108387444Y-78612248D01*
X110357900Y-78612248D01*
X110357900Y-78816952D01*
X110362278Y-78844595D01*
X110389922Y-79019134D01*
X110453181Y-79213823D01*
X110497670Y-79301136D01*
X110544463Y-79392972D01*
X110546115Y-79396213D01*
X110666428Y-79561813D01*
X110811186Y-79706571D01*
X110955748Y-79811599D01*
X110976790Y-79826887D01*
X111093007Y-79886103D01*
X111159176Y-79919818D01*
X111159178Y-79919818D01*
X111159181Y-79919820D01*
X111195375Y-79931580D01*
X111353865Y-79983077D01*
X111454957Y-79999088D01*
X111556048Y-80015100D01*
X111556049Y-80015100D01*
X111760751Y-80015100D01*
X111760752Y-80015100D01*
X111962934Y-79983077D01*
X112157619Y-79919820D01*
X112340010Y-79826887D01*
X112432990Y-79759332D01*
X112505613Y-79706571D01*
X112505615Y-79706568D01*
X112505619Y-79706566D01*
X112650366Y-79561819D01*
X112650368Y-79561815D01*
X112650371Y-79561813D01*
X112703132Y-79489190D01*
X112770687Y-79396210D01*
X112863620Y-79213819D01*
X112926877Y-79019134D01*
X112958900Y-78816952D01*
X112958900Y-78612248D01*
X112926877Y-78410066D01*
X112863620Y-78215381D01*
X112863618Y-78215378D01*
X112863618Y-78215376D01*
X112829903Y-78149207D01*
X112770687Y-78032990D01*
X112762956Y-78022349D01*
X112650371Y-77867386D01*
X112505613Y-77722628D01*
X112340013Y-77602315D01*
X112340012Y-77602314D01*
X112340010Y-77602313D01*
X112283053Y-77573291D01*
X112157623Y-77509381D01*
X111962934Y-77446122D01*
X111788395Y-77418478D01*
X111760752Y-77414100D01*
X111556048Y-77414100D01*
X111531729Y-77417951D01*
X111353865Y-77446122D01*
X111159176Y-77509381D01*
X110976786Y-77602315D01*
X110811186Y-77722628D01*
X110666428Y-77867386D01*
X110546115Y-78032986D01*
X110453181Y-78215376D01*
X110389922Y-78410065D01*
X110362526Y-78583043D01*
X110357900Y-78612248D01*
X108387444Y-78612248D01*
X108387476Y-78612105D01*
X108390265Y-78601697D01*
X108507153Y-78230975D01*
X108510850Y-78220819D01*
X108659600Y-77861704D01*
X108664158Y-77851930D01*
X108843641Y-77507147D01*
X108849036Y-77497802D01*
X109057895Y-77169959D01*
X109064085Y-77161120D01*
X109300714Y-76852739D01*
X109307652Y-76844470D01*
X109570259Y-76557885D01*
X109577885Y-76550259D01*
X109864470Y-76287652D01*
X109872739Y-76280714D01*
X110181120Y-76044085D01*
X110189959Y-76037895D01*
X110517802Y-75829036D01*
X110527147Y-75823641D01*
X110871930Y-75644158D01*
X110881704Y-75639600D01*
X111240828Y-75490846D01*
X111250967Y-75487155D01*
X111621697Y-75370265D01*
X111632105Y-75367476D01*
X112011615Y-75283342D01*
X112022235Y-75281469D01*
X112407624Y-75230732D01*
X112418356Y-75229792D01*
X112809376Y-75212719D01*
X112814785Y-75212602D01*
X158965192Y-75212602D01*
X158970600Y-75212720D01*
G37*
%TD.AperFunction*%
%TD*%
M02*
