%TF.GenerationSoftware,KiCad,Pcbnew,9.0.1*%
%TF.CreationDate,2025-11-16T15:42:57+03:00*%
%TF.ProjectId,MCU Datalogger wirh 512KB EEPROM,4d435520-4461-4746-916c-6f6767657220,1*%
%TF.SameCoordinates,Original*%
%TF.FileFunction,Copper,L1,Top*%
%TF.FilePolarity,Positive*%
%FSLAX46Y46*%
G04 Gerber Fmt 4.6, Leading zero omitted, Abs format (unit mm)*
G04 Created by KiCad (PCBNEW 9.0.1) date 2025-11-16 15:42:57*
%MOMM*%
%LPD*%
G01*
G04 APERTURE LIST*
G04 Aperture macros list*
%AMRoundRect*
0 Rectangle with rounded corners*
0 $1 Rounding radius*
0 $2 $3 $4 $5 $6 $7 $8 $9 X,Y pos of 4 corners*
0 Add a 4 corners polygon primitive as box body*
4,1,4,$2,$3,$4,$5,$6,$7,$8,$9,$2,$3,0*
0 Add four circle primitives for the rounded corners*
1,1,$1+$1,$2,$3*
1,1,$1+$1,$4,$5*
1,1,$1+$1,$6,$7*
1,1,$1+$1,$8,$9*
0 Add four rect primitives between the rounded corners*
20,1,$1+$1,$2,$3,$4,$5,0*
20,1,$1+$1,$4,$5,$6,$7,0*
20,1,$1+$1,$6,$7,$8,$9,0*
20,1,$1+$1,$8,$9,$2,$3,0*%
G04 Aperture macros list end*
%TA.AperFunction,SMDPad,CuDef*%
%ADD10RoundRect,0.162500X-0.650000X-0.162500X0.650000X-0.162500X0.650000X0.162500X-0.650000X0.162500X0*%
%TD*%
%TA.AperFunction,SMDPad,CuDef*%
%ADD11RoundRect,0.250000X-0.325000X-0.650000X0.325000X-0.650000X0.325000X0.650000X-0.325000X0.650000X0*%
%TD*%
%TA.AperFunction,SMDPad,CuDef*%
%ADD12R,2.000000X2.400000*%
%TD*%
%TA.AperFunction,SMDPad,CuDef*%
%ADD13RoundRect,0.250000X0.625000X-0.375000X0.625000X0.375000X-0.625000X0.375000X-0.625000X-0.375000X0*%
%TD*%
%TA.AperFunction,SMDPad,CuDef*%
%ADD14RoundRect,0.250000X0.450000X-0.262500X0.450000X0.262500X-0.450000X0.262500X-0.450000X-0.262500X0*%
%TD*%
%TA.AperFunction,SMDPad,CuDef*%
%ADD15RoundRect,0.250000X-0.650000X0.325000X-0.650000X-0.325000X0.650000X-0.325000X0.650000X0.325000X0*%
%TD*%
%TA.AperFunction,ComponentPad*%
%ADD16R,1.700000X1.700000*%
%TD*%
%TA.AperFunction,ComponentPad*%
%ADD17C,1.700000*%
%TD*%
%TA.AperFunction,SMDPad,CuDef*%
%ADD18RoundRect,0.250000X-0.262500X-0.450000X0.262500X-0.450000X0.262500X0.450000X-0.262500X0.450000X0*%
%TD*%
%TA.AperFunction,SMDPad,CuDef*%
%ADD19RoundRect,0.078000X-0.182000X-0.492000X0.182000X-0.492000X0.182000X0.492000X-0.182000X0.492000X0*%
%TD*%
%TA.AperFunction,SMDPad,CuDef*%
%ADD20RoundRect,0.250000X0.375000X0.625000X-0.375000X0.625000X-0.375000X-0.625000X0.375000X-0.625000X0*%
%TD*%
%TA.AperFunction,SMDPad,CuDef*%
%ADD21R,0.550000X1.600000*%
%TD*%
%TA.AperFunction,SMDPad,CuDef*%
%ADD22R,1.600000X0.550000*%
%TD*%
%TA.AperFunction,ViaPad*%
%ADD23C,0.700000*%
%TD*%
%TA.AperFunction,ViaPad*%
%ADD24C,0.600000*%
%TD*%
%TA.AperFunction,Conductor*%
%ADD25C,0.200000*%
%TD*%
%TA.AperFunction,Conductor*%
%ADD26C,0.300000*%
%TD*%
%TA.AperFunction,Conductor*%
%ADD27C,0.250000*%
%TD*%
G04 APERTURE END LIST*
D10*
%TO.P,U2,1,A0*%
%TO.N,/Vcc*%
X146843500Y-86257100D03*
%TO.P,U2,2,A1*%
%TO.N,GND*%
X146843500Y-87527100D03*
%TO.P,U2,3,A2*%
%TO.N,/Vcc*%
X146843500Y-88797100D03*
%TO.P,U2,4,GND*%
%TO.N,GND*%
X146843500Y-90067100D03*
%TO.P,U2,5,SDA*%
%TO.N,/SDA*%
X154018500Y-90067100D03*
%TO.P,U2,6,SCL*%
%TO.N,/SCL*%
X154018500Y-88797100D03*
%TO.P,U2,7,WP*%
%TO.N,GND*%
X154018500Y-87527100D03*
%TO.P,U2,8,VCC*%
%TO.N,/Vcc*%
X154018500Y-86257100D03*
%TD*%
D11*
%TO.P,C5,1*%
%TO.N,/Vcc*%
X134443500Y-83587100D03*
%TO.P,C5,2*%
%TO.N,GND*%
X137393500Y-83587100D03*
%TD*%
D12*
%TO.P,Y1,1,1*%
%TO.N,Net-(IC1-PB7)*%
X138018500Y-101187100D03*
%TO.P,Y1,2,2*%
%TO.N,Net-(IC1-PB6)*%
X134318500Y-101187100D03*
%TD*%
D13*
%TO.P,D2,1,K*%
%TO.N,Net-(D2-K)*%
X145493500Y-96737100D03*
%TO.P,D2,2,A*%
%TO.N,/Vcc*%
X145493500Y-93937100D03*
%TD*%
D14*
%TO.P,R7,1*%
%TO.N,GND*%
X143718500Y-90899600D03*
%TO.P,R7,2*%
%TO.N,Net-(D1-K)*%
X143718500Y-89074600D03*
%TD*%
%TO.P,R4,1*%
%TO.N,/Vcc*%
X132043500Y-106137100D03*
%TO.P,R4,2*%
%TO.N,Net-(U3-!INTA)*%
X132043500Y-104312100D03*
%TD*%
D15*
%TO.P,C4,1*%
%TO.N,GND*%
X139593500Y-104012100D03*
%TO.P,C4,2*%
%TO.N,/Vcc*%
X139593500Y-106962100D03*
%TD*%
D14*
%TO.P,R6,1*%
%TO.N,/Vcc*%
X127843500Y-95174600D03*
%TO.P,R6,2*%
%TO.N,/RESET*%
X127843500Y-93349600D03*
%TD*%
D16*
%TO.P,J3,1,Pin_1*%
%TO.N,/D2*%
X157268500Y-87182100D03*
D17*
%TO.P,J3,2,Pin_2*%
%TO.N,/D3*%
X157268500Y-89722100D03*
%TO.P,J3,3,Pin_3*%
%TO.N,/D4*%
X157268500Y-92262100D03*
%TO.P,J3,4,Pin_4*%
%TO.N,/D5*%
X157268500Y-94802100D03*
%TO.P,J3,5,Pin_5*%
%TO.N,/D6*%
X157268500Y-97342100D03*
%TO.P,J3,6,Pin_6*%
%TO.N,/D7*%
X157268500Y-99882100D03*
%TO.P,J3,7,Pin_7*%
%TO.N,/D8*%
X157268500Y-102422100D03*
%TO.P,J3,8,Pin_8*%
%TO.N,GND*%
X157268500Y-104962100D03*
%TO.P,J3,9,Pin_9*%
%TO.N,/Vcc*%
X157268500Y-107502100D03*
%TD*%
D12*
%TO.P,Y2,1,1*%
%TO.N,Net-(U3-X1)*%
X134093500Y-116587100D03*
%TO.P,Y2,2,2*%
%TO.N,Net-(U3-X2)*%
X137793500Y-116587100D03*
%TD*%
D16*
%TO.P,BT1,1,+*%
%TO.N,/Vcc*%
X134828500Y-80162100D03*
D17*
%TO.P,BT1,2,-*%
%TO.N,GND*%
X137368500Y-80162100D03*
%TD*%
D16*
%TO.P,J1,1,Pin_1*%
%TO.N,GND*%
X119293500Y-93492100D03*
D17*
%TO.P,J1,2,Pin_2*%
%TO.N,/Vcc*%
X119293500Y-96032100D03*
%TO.P,J1,3,Pin_3*%
%TO.N,/SDA*%
X119293500Y-98572100D03*
%TO.P,J1,4,Pin_4*%
%TO.N,/SCL*%
X119293500Y-101112100D03*
%TD*%
D11*
%TO.P,C3,1*%
%TO.N,GND*%
X141418500Y-100812100D03*
%TO.P,C3,2*%
%TO.N,Net-(IC1-PB6)*%
X144368500Y-100812100D03*
%TD*%
%TO.P,C2,1*%
%TO.N,GND*%
X127745000Y-102140000D03*
%TO.P,C2,2*%
%TO.N,Net-(IC1-PB7)*%
X130695000Y-102140000D03*
%TD*%
D10*
%TO.P,U1,1,A0*%
%TO.N,/Vcc*%
X121768500Y-84067100D03*
%TO.P,U1,2,A1*%
X121768500Y-85337100D03*
%TO.P,U1,3,A2*%
X121768500Y-86607100D03*
%TO.P,U1,4,GND*%
%TO.N,GND*%
X121768500Y-87877100D03*
%TO.P,U1,5,SDA*%
%TO.N,/SDA*%
X128943500Y-87877100D03*
%TO.P,U1,6,SCL*%
%TO.N,/SCL*%
X128943500Y-86607100D03*
%TO.P,U1,7,WP*%
%TO.N,GND*%
X128943500Y-85337100D03*
%TO.P,U1,8,VCC*%
%TO.N,/Vcc*%
X128943500Y-84067100D03*
%TD*%
D14*
%TO.P,R5,1*%
%TO.N,/Vcc*%
X135991600Y-106347900D03*
%TO.P,R5,2*%
%TO.N,Net-(U3-SQW{slash}~INT)*%
X135991600Y-104522900D03*
%TD*%
%TO.P,R1,1*%
%TO.N,Net-(D2-K)*%
X148268500Y-95874600D03*
%TO.P,R1,2*%
%TO.N,GND*%
X148268500Y-94049600D03*
%TD*%
D18*
%TO.P,R3,1*%
%TO.N,/Vcc*%
X149743500Y-84012100D03*
%TO.P,R3,2*%
%TO.N,/SCL*%
X151568500Y-84012100D03*
%TD*%
D11*
%TO.P,C1,1*%
%TO.N,Net-(IC1-AREF)*%
X134443900Y-86431100D03*
%TO.P,C1,2*%
%TO.N,GND*%
X137393900Y-86431100D03*
%TD*%
D19*
%TO.P,U3,1,SCL*%
%TO.N,/SCL*%
X134083500Y-113449600D03*
%TO.P,U3,2,X1*%
%TO.N,Net-(U3-X1)*%
X135353500Y-113449600D03*
%TO.P,U3,3,SDA*%
%TO.N,/SDA*%
X136623500Y-113449600D03*
%TO.P,U3,4,X2*%
%TO.N,Net-(U3-X2)*%
X137893500Y-113449600D03*
%TO.P,U3,5,VCC*%
%TO.N,/Vcc*%
X137893500Y-108409600D03*
%TO.P,U3,6,!INTA*%
%TO.N,Net-(U3-!INTA)*%
X136623500Y-108409600D03*
%TO.P,U3,7,SQW/~INT*%
%TO.N,Net-(U3-SQW{slash}~INT)*%
X135353500Y-108409600D03*
%TO.P,U3,8,GND*%
%TO.N,GND*%
X134083500Y-108409600D03*
%TD*%
D16*
%TO.P,J4,1,Pin_1*%
%TO.N,/MISO*%
X117593500Y-88287100D03*
D17*
%TO.P,J4,2,Pin_2*%
%TO.N,/Vcc*%
X115053500Y-88287100D03*
%TO.P,J4,3,Pin_3*%
%TO.N,/SCL*%
X117593500Y-85747100D03*
%TO.P,J4,4,Pin_4*%
%TO.N,/MOSI*%
X115053500Y-85747100D03*
%TO.P,J4,5,Pin_5*%
%TO.N,/RESET*%
X117593500Y-83207100D03*
%TO.P,J4,6,Pin_6*%
%TO.N,GND*%
X115053500Y-83207100D03*
%TD*%
D20*
%TO.P,D1,1,K*%
%TO.N,Net-(D1-K)*%
X143693500Y-85887100D03*
%TO.P,D1,2,A*%
%TO.N,Net-(D1-A)*%
X140893500Y-85887100D03*
%TD*%
D18*
%TO.P,R2,1*%
%TO.N,/Vcc*%
X124406000Y-81437100D03*
%TO.P,R2,2*%
%TO.N,/SDA*%
X126231000Y-81437100D03*
%TD*%
D21*
%TO.P,IC1,1,PD3*%
%TO.N,/D3*%
X133143500Y-97437100D03*
%TO.P,IC1,2,PD4*%
%TO.N,/D4*%
X133943500Y-97437100D03*
%TO.P,IC1,3,GND*%
%TO.N,GND*%
X134743500Y-97437100D03*
%TO.P,IC1,4,VCC*%
%TO.N,/Vcc*%
X135543500Y-97437100D03*
%TO.P,IC1,5,GND*%
%TO.N,GND*%
X136343500Y-97437100D03*
%TO.P,IC1,6,VCC*%
%TO.N,unconnected-(IC1-VCC-Pad6)*%
X137143500Y-97437100D03*
%TO.P,IC1,7,PB6*%
%TO.N,Net-(IC1-PB6)*%
X137943500Y-97437100D03*
%TO.P,IC1,8,PB7*%
%TO.N,Net-(IC1-PB7)*%
X138743500Y-97437100D03*
D22*
%TO.P,IC1,9,PD5*%
%TO.N,/D5*%
X139668500Y-95987100D03*
%TO.P,IC1,10,PD6*%
%TO.N,/D6*%
X139668500Y-95187100D03*
%TO.P,IC1,11,PD7*%
%TO.N,/D7*%
X139668500Y-94387100D03*
%TO.P,IC1,12,PB0*%
%TO.N,/D8*%
X139668500Y-93587100D03*
%TO.P,IC1,13,PB1*%
%TO.N,unconnected-(IC1-PB1-Pad13)*%
X139668500Y-92787100D03*
%TO.P,IC1,14,PB2*%
%TO.N,unconnected-(IC1-PB2-Pad14)*%
X139668500Y-91987100D03*
%TO.P,IC1,15,PB3*%
%TO.N,/MOSI*%
X139668500Y-91187100D03*
%TO.P,IC1,16,PB4*%
%TO.N,/MISO*%
X139668500Y-90387100D03*
D21*
%TO.P,IC1,17,PB5*%
%TO.N,Net-(D1-A)*%
X138743500Y-88937100D03*
%TO.P,IC1,18,AVCC*%
%TO.N,/Vcc*%
X137943500Y-88937100D03*
%TO.P,IC1,19,ADC6*%
%TO.N,unconnected-(IC1-ADC6-Pad19)*%
X137143500Y-88937100D03*
%TO.P,IC1,20,AREF*%
%TO.N,Net-(IC1-AREF)*%
X136343500Y-88937100D03*
%TO.P,IC1,21,GND*%
%TO.N,GND*%
X135543500Y-88937100D03*
%TO.P,IC1,22,ADC7*%
%TO.N,unconnected-(IC1-ADC7-Pad22)*%
X134743500Y-88937100D03*
%TO.P,IC1,23,PC0*%
%TO.N,unconnected-(IC1-PC0-Pad23)*%
X133943500Y-88937100D03*
%TO.P,IC1,24,PC1*%
%TO.N,unconnected-(IC1-PC1-Pad24)*%
X133143500Y-88937100D03*
D22*
%TO.P,IC1,25,PC2*%
%TO.N,unconnected-(IC1-PC2-Pad25)*%
X131168500Y-90387100D03*
%TO.P,IC1,26,PC3*%
%TO.N,unconnected-(IC1-PC3-Pad26)*%
X131168500Y-91187100D03*
%TO.P,IC1,27,PC4*%
%TO.N,/SDA*%
X131168500Y-91987100D03*
%TO.P,IC1,28,PC5*%
%TO.N,/SCL*%
X131168500Y-92787100D03*
%TO.P,IC1,29,PC6*%
%TO.N,/RESET*%
X131168500Y-93587100D03*
%TO.P,IC1,30,PD0*%
%TO.N,/RX*%
X131168500Y-94387100D03*
%TO.P,IC1,31,PD1*%
%TO.N,/TX*%
X131168500Y-95187100D03*
%TO.P,IC1,32,PD2*%
%TO.N,/D2*%
X131168500Y-95987100D03*
%TD*%
D16*
%TO.P,J2,1,Pin_1*%
%TO.N,GND*%
X119293500Y-105627100D03*
D17*
%TO.P,J2,2,Pin_2*%
%TO.N,/Vcc*%
X119293500Y-108167100D03*
%TO.P,J2,3,Pin_3*%
%TO.N,/RX*%
X119293500Y-110707100D03*
%TO.P,J2,4,Pin_4*%
%TO.N,/TX*%
X119293500Y-113247100D03*
%TD*%
D23*
%TO.N,GND*%
X134725100Y-109462100D03*
X150092100Y-94863900D03*
X153063900Y-104363500D03*
X125377900Y-101442500D03*
X141278300Y-104084100D03*
X147196500Y-91512100D03*
X138093500Y-106687100D03*
X133543500Y-104058700D03*
X145253400Y-88399600D03*
X135944300Y-86050100D03*
X140008300Y-100832900D03*
X117478500Y-90212100D03*
X121567900Y-105277900D03*
X130838900Y-100223300D03*
X132108900Y-82849700D03*
X153800500Y-100350300D03*
X121821900Y-89733100D03*
X144427900Y-90393500D03*
X132032700Y-87040700D03*
X136655500Y-95778300D03*
%TO.N,/Vcc*%
X140744900Y-80360500D03*
X147320725Y-84554275D03*
D24*
%TO.N,/SDA*%
X132489900Y-91104700D03*
X122380700Y-96210100D03*
X136274500Y-90291900D03*
X134064700Y-90266500D03*
X124666700Y-92749600D03*
X150142900Y-90291900D03*
%TO.N,/RX*%
X129543500Y-94737100D03*
%TO.N,/D2*%
X145068500Y-87387100D03*
X136118500Y-93062100D03*
X132616900Y-95803700D03*
X136368500Y-91612100D03*
X148268500Y-82062100D03*
%TO.N,/D7*%
X143693500Y-92212100D03*
%TO.N,/TX*%
X137868500Y-93762100D03*
%TO.N,/MOSI*%
X142468500Y-92737100D03*
%TO.N,/D5*%
X139793500Y-96812100D03*
X139818500Y-98312100D03*
X142718500Y-106802100D03*
X142469973Y-98362100D03*
X142268500Y-103762100D03*
%TO.N,/D6*%
X143843500Y-97018431D03*
%TO.N,/D4*%
X154018500Y-93337100D03*
X128868500Y-97462100D03*
X144743500Y-105987100D03*
%TO.N,/SCL*%
X153063900Y-84754700D03*
X150447700Y-81274900D03*
X129493500Y-92841100D03*
X130051500Y-82087700D03*
X130330900Y-87396300D03*
X130393500Y-115737100D03*
X131118500Y-85562100D03*
%TO.N,/D3*%
X140668500Y-82362100D03*
X145793500Y-82037100D03*
X134743500Y-91187100D03*
X133941500Y-95762100D03*
X136593500Y-94162100D03*
%TO.N,/D8*%
X142643500Y-94312100D03*
%TO.N,/MISO*%
X139443500Y-83612100D03*
%TD*%
D25*
%TO.N,Net-(U3-SQW{slash}~INT)*%
X135353500Y-108022100D02*
X135353500Y-108409600D01*
X134243500Y-106912100D02*
X135353500Y-108022100D01*
X134243500Y-103387100D02*
X134243500Y-106912100D01*
X135991600Y-104285200D02*
X135093500Y-103387100D01*
X135093500Y-103387100D02*
X134243500Y-103387100D01*
X135991600Y-104522900D02*
X135991600Y-104285200D01*
D26*
%TO.N,/Vcc*%
X136504300Y-106347900D02*
X135991600Y-106347900D01*
X137893500Y-108409600D02*
X137893500Y-107737100D01*
X137893500Y-107737100D02*
X136504300Y-106347900D01*
D27*
%TO.N,GND*%
X137393500Y-83587100D02*
X137393500Y-85007300D01*
X134979100Y-96261100D02*
X134892500Y-96347700D01*
X154594300Y-91485700D02*
X148274900Y-91485700D01*
X137393900Y-86431100D02*
X136325300Y-86431100D01*
X139593500Y-104012100D02*
X138093500Y-105512100D01*
X134892500Y-96703100D02*
X134743500Y-96852100D01*
X134725100Y-109051200D02*
X134083500Y-108409600D01*
X136343500Y-96090300D02*
X136655500Y-95778300D01*
X155502300Y-88198401D02*
X155502300Y-90577700D01*
X129407300Y-100223300D02*
X130838900Y-100223300D01*
X129398900Y-84881700D02*
X132591500Y-84881700D01*
X119293500Y-105627100D02*
X121218700Y-105627100D01*
X148268500Y-91492100D02*
X148268500Y-94049600D01*
X155502300Y-90577700D02*
X154594300Y-91485700D01*
X135543500Y-87887100D02*
X135363500Y-87707100D01*
X140008300Y-100832900D02*
X141397700Y-100832900D01*
X127745000Y-101885600D02*
X129407300Y-100223300D01*
X149082800Y-94863900D02*
X148268500Y-94049600D01*
X148274900Y-91485700D02*
X148268500Y-91492100D01*
X121218700Y-105627100D02*
X121567900Y-105277900D01*
X154830999Y-87527100D02*
X155502300Y-88198401D01*
X138093500Y-105512100D02*
X138093500Y-106687100D01*
X134083500Y-108409600D02*
X133619500Y-107945600D01*
X125911300Y-101442500D02*
X126355900Y-101887100D01*
X119293500Y-93492100D02*
X119293500Y-92027100D01*
X132591500Y-84881700D02*
X132997900Y-85288100D01*
X136655500Y-95778300D02*
X135817300Y-95778300D01*
X136325300Y-86431100D02*
X135944300Y-86050100D01*
X132108900Y-77922100D02*
X132108900Y-82849700D01*
X153800500Y-103626900D02*
X153063900Y-104363500D01*
X135817300Y-95778300D02*
X135334500Y-96261100D01*
X119293500Y-92027100D02*
X117478500Y-90212100D01*
X135543500Y-88937100D02*
X135543500Y-87887100D01*
X137315900Y-85186500D02*
X137443500Y-85314100D01*
X137368500Y-80162100D02*
X134645900Y-77439500D01*
X133061400Y-85224600D02*
X133201100Y-85084900D01*
X132699100Y-87707100D02*
X132032700Y-87040700D01*
X134892500Y-96347700D02*
X134892500Y-96703100D01*
X153800500Y-101494100D02*
X153800500Y-100350300D01*
X148274900Y-91485700D02*
X147222900Y-91485700D01*
X137315900Y-85084900D02*
X137315900Y-85186500D01*
X141206300Y-104012100D02*
X141278300Y-104084100D01*
X139593500Y-104012100D02*
X141206300Y-104012100D01*
X121821900Y-89733100D02*
X121821900Y-87930500D01*
X135363500Y-87707100D02*
X132699100Y-87707100D01*
X146125900Y-87527100D02*
X146843500Y-87527100D01*
X137443500Y-86381500D02*
X137393900Y-86431100D01*
X132032700Y-87040700D02*
X132032700Y-86253300D01*
X137393500Y-85007300D02*
X137315900Y-85084900D01*
X133201100Y-85084900D02*
X137315900Y-85084900D01*
X134645900Y-77439500D02*
X132591500Y-77439500D01*
X132591500Y-77439500D02*
X132108900Y-77922100D01*
X132032700Y-86253300D02*
X133061400Y-85224600D01*
X153800500Y-101494100D02*
X153800500Y-103626900D01*
X134743500Y-96852100D02*
X134743500Y-97437100D01*
X136343500Y-97437100D02*
X136343500Y-96090300D01*
X150092100Y-94863900D02*
X149082800Y-94863900D01*
X127745000Y-102140000D02*
X127745000Y-101885600D01*
X154018500Y-87527100D02*
X154830999Y-87527100D01*
X146843500Y-90067100D02*
X148268500Y-91492100D01*
X128943500Y-85337100D02*
X129398900Y-84881700D01*
X126355900Y-101887100D02*
X127492100Y-101887100D01*
X133619500Y-104134700D02*
X133543500Y-104058700D01*
X135334500Y-96261100D02*
X134979100Y-96261100D01*
X125377900Y-101442500D02*
X125911300Y-101442500D01*
X121821900Y-87930500D02*
X121768500Y-87877100D01*
X134725100Y-109462100D02*
X134725100Y-109051200D01*
X141397700Y-100832900D02*
X141418500Y-100812100D01*
X143921800Y-90899600D02*
X144427900Y-90393500D01*
X137443500Y-85314100D02*
X137443500Y-86381500D01*
X145253400Y-88399600D02*
X146125900Y-87527100D01*
X147222900Y-91485700D02*
X147196500Y-91512100D01*
X133619500Y-107945600D02*
X133619500Y-104134700D01*
X132997900Y-85288100D02*
X133061400Y-85224600D01*
X127492100Y-101887100D02*
X127745000Y-102140000D01*
X143718500Y-90899600D02*
X143921800Y-90899600D01*
D26*
%TO.N,/Vcc*%
X147529475Y-84554275D02*
X147320725Y-84554275D01*
X125073100Y-95174600D02*
X127843500Y-95174600D01*
X124406000Y-80099600D02*
X124406000Y-81437100D01*
X128943500Y-79537100D02*
X128893500Y-79487100D01*
X125073100Y-95174600D02*
X125073100Y-99283500D01*
D27*
X137943500Y-88937100D02*
X137943500Y-87884900D01*
D26*
X139593500Y-106887100D02*
X139541000Y-106834600D01*
X157268500Y-107502100D02*
X140233500Y-107502100D01*
X134828500Y-80162100D02*
X134828500Y-82113100D01*
X124398500Y-81437100D02*
X121768500Y-84067100D01*
D27*
X138395700Y-87154700D02*
X139271700Y-86278700D01*
D26*
X124406000Y-81437100D02*
X124398500Y-81437100D01*
X151193500Y-81812100D02*
X149743500Y-83262100D01*
X154018500Y-81837100D02*
X153993500Y-81812100D01*
D27*
X134980900Y-82265500D02*
X134828500Y-82113100D01*
X139271700Y-86278700D02*
X139271700Y-84881700D01*
X137943500Y-87884900D02*
X138035926Y-87884900D01*
D26*
X148037900Y-85062700D02*
X147529475Y-84554275D01*
X145493500Y-93937100D02*
X145218500Y-93662100D01*
X129593500Y-99387100D02*
X134770500Y-99387100D01*
X115053500Y-89077100D02*
X115043500Y-89087100D01*
X119293500Y-96032100D02*
X120151000Y-95174600D01*
X125018500Y-79487100D02*
X124406000Y-80099600D01*
X123396700Y-100959900D02*
X130661100Y-108224300D01*
D27*
X138395700Y-87525126D02*
X138395700Y-87154700D01*
D26*
X124406000Y-84499600D02*
X124406000Y-81437100D01*
D27*
X138509700Y-84119700D02*
X138509700Y-82265500D01*
D26*
X141402900Y-119487100D02*
X143518500Y-117371500D01*
X120151000Y-95174600D02*
X125073100Y-95174600D01*
X130661100Y-108833900D02*
X132018100Y-108833900D01*
X149088500Y-84012100D02*
X148037900Y-85062700D01*
X132043500Y-106137100D02*
X132043500Y-108859300D01*
X149743500Y-84012100D02*
X149088500Y-84012100D01*
X115700500Y-79090500D02*
X116970500Y-79090500D01*
X128943500Y-84067100D02*
X128943500Y-79537100D01*
X127843500Y-97637100D02*
X129593500Y-99387100D01*
X132043500Y-110063500D02*
X132917100Y-110937100D01*
X145218500Y-93662100D02*
X145218500Y-89512100D01*
X139468500Y-106834600D02*
X137893500Y-108409600D01*
X131777100Y-119487100D02*
X141402900Y-119487100D01*
D27*
X138035926Y-87884900D02*
X138395700Y-87525126D01*
D26*
X136943500Y-110937100D02*
X137893500Y-109987100D01*
X134770500Y-99387100D02*
X135543500Y-98614100D01*
X115043500Y-89087100D02*
X115043500Y-95106500D01*
X119293500Y-108167100D02*
X120457100Y-108167100D01*
X128893500Y-79487100D02*
X125018500Y-79487100D01*
X139541000Y-106834600D02*
X139468500Y-106834600D01*
X121768500Y-86607100D02*
X124223500Y-86607100D01*
X112296900Y-82494100D02*
X115700500Y-79090500D01*
X139618500Y-106937100D02*
X139593500Y-106962100D01*
X128943500Y-84067100D02*
X133963500Y-84067100D01*
X134828500Y-82113100D02*
X134828500Y-83202100D01*
D27*
X138509700Y-82265500D02*
X134980900Y-82265500D01*
D26*
X148258500Y-88797100D02*
X149743500Y-87312100D01*
X133963500Y-84067100D02*
X134443500Y-83587100D01*
X138839900Y-82265500D02*
X138509700Y-82265500D01*
X115040000Y-95110000D02*
X115962100Y-96032100D01*
X139618500Y-106887100D02*
X139618500Y-106937100D01*
X134828500Y-83202100D02*
X134443500Y-83587100D01*
X153993500Y-81812100D02*
X151193500Y-81812100D01*
X146843500Y-88797100D02*
X148258500Y-88797100D01*
X149743500Y-87312100D02*
X149743500Y-84012100D01*
X125073100Y-99283500D02*
X123396700Y-100959900D01*
X148037900Y-85062700D02*
X146843500Y-86257100D01*
X145933500Y-88797100D02*
X146843500Y-88797100D01*
X154018500Y-86257100D02*
X154018500Y-81837100D01*
X120457100Y-108167100D02*
X131777100Y-119487100D01*
X140744900Y-80360500D02*
X138839900Y-82265500D01*
X116970500Y-79090500D02*
X119317100Y-81437100D01*
X115962100Y-96032100D02*
X119293500Y-96032100D01*
X140233500Y-107502100D02*
X139618500Y-106887100D01*
X143518500Y-110787100D02*
X139618500Y-106887100D01*
X124223500Y-86607100D02*
X124406000Y-86424600D01*
D27*
X139271700Y-84881700D02*
X138509700Y-84119700D01*
D26*
X139593500Y-106962100D02*
X139593500Y-106887100D01*
X119317100Y-81437100D02*
X124406000Y-81437100D01*
X143518500Y-117371500D02*
X143518500Y-110787100D01*
X153603878Y-86257100D02*
X154018500Y-86257100D01*
X137893500Y-109987100D02*
X137893500Y-108409600D01*
X115053500Y-88287100D02*
X113847100Y-88287100D01*
X121768500Y-85337100D02*
X123568500Y-85337100D01*
X130661100Y-108224300D02*
X130661100Y-108833900D01*
X132043500Y-108859300D02*
X132043500Y-110063500D01*
X149743500Y-83262100D02*
X149743500Y-84012100D01*
X145218500Y-89512100D02*
X145933500Y-88797100D01*
X127843500Y-95174600D02*
X127843500Y-97637100D01*
X112300000Y-86740000D02*
X112296900Y-86743100D01*
X115053500Y-88287100D02*
X115053500Y-89077100D01*
X135543500Y-98614100D02*
X135543500Y-97437100D01*
X112296900Y-86743100D02*
X112296900Y-82494100D01*
X132917100Y-110937100D02*
X136943500Y-110937100D01*
X115043500Y-95106500D02*
X115040000Y-95110000D01*
X123568500Y-85337100D02*
X124406000Y-84499600D01*
X113847100Y-88287100D02*
X112300000Y-86740000D01*
X124406000Y-86424600D02*
X124406000Y-84499600D01*
D25*
%TO.N,Net-(IC1-AREF)*%
X134443900Y-86431100D02*
X134560500Y-86431100D01*
X135043500Y-86487100D02*
X136343500Y-87787100D01*
X136343500Y-87787100D02*
X136343500Y-88937100D01*
X134560500Y-86431100D02*
X134616500Y-86487100D01*
X134616500Y-86487100D02*
X135043500Y-86487100D01*
%TO.N,Net-(IC1-PB7)*%
X130947900Y-101887100D02*
X131468500Y-101887100D01*
X143593500Y-98637100D02*
X142393500Y-97437100D01*
X138018500Y-101187100D02*
X138093500Y-101112100D01*
X146468500Y-98637100D02*
X143593500Y-98637100D01*
X137743500Y-101112100D02*
X137943500Y-101112100D01*
X137718500Y-101137100D02*
X137743500Y-101112100D01*
X132493500Y-102912100D02*
X137418500Y-102912100D01*
X138093500Y-101112100D02*
X139268500Y-101112100D01*
X146443500Y-102887100D02*
X146468500Y-102862100D01*
X137418500Y-102912100D02*
X137418500Y-101237100D01*
X146468500Y-102862100D02*
X146468500Y-98637100D01*
X131468500Y-101887100D02*
X132493500Y-102912100D01*
X138243500Y-100812100D02*
X137968500Y-101087100D01*
X137943500Y-101112100D02*
X138018500Y-101187100D01*
X130695000Y-102140000D02*
X130947900Y-101887100D01*
X137968500Y-101087100D02*
X137968500Y-101137100D01*
X137418500Y-101237100D02*
X137518500Y-101137100D01*
X137968500Y-101137100D02*
X138018500Y-101187100D01*
X137518500Y-101137100D02*
X137718500Y-101137100D01*
X139268500Y-101112100D02*
X141043500Y-102887100D01*
X142393500Y-97437100D02*
X138743500Y-97437100D01*
X141043500Y-102887100D02*
X146443500Y-102887100D01*
%TO.N,Net-(IC1-PB6)*%
X138468500Y-98962100D02*
X137943500Y-98437100D01*
X144368500Y-100812100D02*
X142518500Y-98962100D01*
X137943500Y-98410100D02*
X137943500Y-97437100D01*
X134443500Y-101287100D02*
X135066500Y-101287100D01*
X134343500Y-101187100D02*
X134443500Y-101287100D01*
X142518500Y-98962100D02*
X138468500Y-98962100D01*
X137943500Y-98437100D02*
X137943500Y-97437100D01*
X134318500Y-101187100D02*
X134343500Y-101187100D01*
X135066500Y-101287100D02*
X137943500Y-98410100D01*
%TO.N,Net-(D1-A)*%
X138743500Y-88937100D02*
X140893500Y-86787100D01*
X140893500Y-86787100D02*
X140893500Y-85887100D01*
%TO.N,Net-(D1-K)*%
X143693500Y-89049600D02*
X143718500Y-89074600D01*
X143693500Y-85887100D02*
X143693500Y-89049600D01*
%TO.N,Net-(D2-K)*%
X145493500Y-96737100D02*
X145518500Y-96712100D01*
X147193500Y-96712100D02*
X148031000Y-95874600D01*
X145518500Y-96712100D02*
X147193500Y-96712100D01*
X148031000Y-95874600D02*
X148268500Y-95874600D01*
%TO.N,/SDA*%
X128943500Y-87877100D02*
X128131001Y-87877100D01*
X136623500Y-112792100D02*
X135643500Y-111812100D01*
X132489900Y-91409500D02*
X131912300Y-91987100D01*
X119343500Y-99687100D02*
X119293500Y-99637100D01*
X119293500Y-99637100D02*
X119293500Y-98572100D01*
X132489900Y-91104700D02*
X132489900Y-91409500D01*
X134090100Y-90291900D02*
X134064700Y-90266500D01*
X131468500Y-111812100D02*
X120693500Y-101037100D01*
X153793700Y-90291900D02*
X150142900Y-90291900D01*
X128943500Y-87877100D02*
X128943500Y-91937100D01*
X120693500Y-99687100D02*
X119343500Y-99687100D01*
X136274500Y-90291900D02*
X134090100Y-90291900D01*
X120693500Y-101037100D02*
X120693500Y-99687100D01*
X128943500Y-91937100D02*
X129018500Y-92012100D01*
X135643500Y-111812100D02*
X131468500Y-111812100D01*
X131912300Y-91987100D02*
X131168500Y-91987100D01*
X120693500Y-97897300D02*
X122380700Y-96210100D01*
X154018500Y-90067100D02*
X153793700Y-90291900D01*
X129018500Y-92012100D02*
X129043500Y-91987100D01*
X120693500Y-99687100D02*
X120693500Y-97897300D01*
X131143500Y-92012100D02*
X131168500Y-91987100D01*
X128131001Y-87877100D02*
X126231000Y-85977099D01*
X129043500Y-91987100D02*
X131168500Y-91987100D01*
X136623500Y-113449600D02*
X136623500Y-112792100D01*
X126231000Y-85977099D02*
X126231000Y-81437100D01*
X124666700Y-92749600D02*
X124666700Y-92153900D01*
X124666700Y-92153900D02*
X128943500Y-87877100D01*
%TO.N,/RX*%
X129543500Y-94737100D02*
X129893500Y-94387100D01*
X129893500Y-94387100D02*
X131168500Y-94387100D01*
%TO.N,/D2*%
X136368500Y-92812100D02*
X136118500Y-93062100D01*
X136368500Y-91612100D02*
X136368500Y-92812100D01*
X132433500Y-95987100D02*
X131168500Y-95987100D01*
X132616900Y-95803700D02*
X132433500Y-95987100D01*
X148268500Y-82062100D02*
X146118500Y-84212100D01*
X146118500Y-84212100D02*
X145143500Y-84212100D01*
X145143500Y-84212100D02*
X145143500Y-87312100D01*
X145143500Y-87312100D02*
X145068500Y-87387100D01*
%TO.N,/D7*%
X143693500Y-92212100D02*
X143668500Y-92237100D01*
X141595500Y-94387100D02*
X139668500Y-94387100D01*
X142993500Y-95262100D02*
X142470500Y-95262100D01*
X143668500Y-92237100D02*
X143668500Y-94587100D01*
X143668500Y-94587100D02*
X142993500Y-95262100D01*
X142470500Y-95262100D02*
X141595500Y-94387100D01*
%TO.N,/TX*%
X137843500Y-93891100D02*
X137843500Y-94965500D01*
X131390100Y-94965500D02*
X131168500Y-95187100D01*
X137843500Y-94965500D02*
X131390100Y-94965500D01*
X137972500Y-93762100D02*
X137843500Y-93891100D01*
X137868500Y-93762100D02*
X137972500Y-93762100D01*
%TO.N,/RESET*%
X123281000Y-93349600D02*
X127843500Y-93349600D01*
X120093500Y-90237100D02*
X120168500Y-90237100D01*
X117593500Y-83207100D02*
X120093500Y-85707100D01*
X127843500Y-93349600D02*
X128081000Y-93587100D01*
X120168500Y-90237100D02*
X123281000Y-93349600D01*
X128081000Y-93587100D02*
X131168500Y-93587100D01*
X120093500Y-85707100D02*
X120093500Y-90237100D01*
X117593500Y-83207100D02*
X117628500Y-83172100D01*
%TO.N,/MOSI*%
X142468500Y-92737100D02*
X142468500Y-91937100D01*
X142468500Y-91937100D02*
X141718500Y-91187100D01*
X141718500Y-91187100D02*
X139668500Y-91187100D01*
%TO.N,/D5*%
X142268500Y-106352100D02*
X142268500Y-103762100D01*
X139793500Y-96112100D02*
X139668500Y-95987100D01*
X139793500Y-96812100D02*
X139793500Y-96112100D01*
X142718500Y-106802100D02*
X142268500Y-106352100D01*
X139818500Y-98137100D02*
X139818500Y-98312100D01*
X142469973Y-98362100D02*
X140043500Y-98362100D01*
X140043500Y-98362100D02*
X139818500Y-98137100D01*
%TO.N,/D6*%
X141443500Y-95187100D02*
X139668500Y-95187100D01*
X143843500Y-97018431D02*
X143843500Y-96712100D01*
X142293500Y-96037100D02*
X141443500Y-95187100D01*
X143843500Y-96712100D02*
X143168500Y-96037100D01*
X143168500Y-96037100D02*
X142293500Y-96037100D01*
%TO.N,/D4*%
X144743500Y-105987100D02*
X145193500Y-105987100D01*
X128868500Y-97462100D02*
X129944500Y-98538100D01*
X154018500Y-97162100D02*
X154018500Y-93337100D01*
X133842500Y-98538100D02*
X133943500Y-98437100D01*
X133943500Y-98437100D02*
X133943500Y-97437100D01*
X129944500Y-98538100D02*
X133842500Y-98538100D01*
X145193500Y-105987100D02*
X154018500Y-97162100D01*
%TO.N,/SCL*%
X131631000Y-113449600D02*
X119293500Y-101112100D01*
X145723300Y-76550500D02*
X131279500Y-76550500D01*
X131279500Y-76550500D02*
X130153100Y-77676900D01*
X151568500Y-87159599D02*
X153206001Y-88797100D01*
X130153100Y-81986100D02*
X130051500Y-82087700D01*
X131118500Y-85562100D02*
X130073500Y-86607100D01*
X134083500Y-113449600D02*
X131631000Y-113449600D01*
X130393500Y-115737100D02*
X130718500Y-115412100D01*
X131168500Y-92787100D02*
X132331500Y-92787100D01*
X151568500Y-86250100D02*
X153063900Y-84754700D01*
X132121000Y-115412100D02*
X134083500Y-113449600D01*
X132331500Y-92787100D02*
X133429700Y-91688900D01*
X130330900Y-87396300D02*
X130330900Y-86349700D01*
X131114500Y-92841100D02*
X131168500Y-92787100D01*
X130330900Y-86349700D02*
X131118500Y-85562100D01*
X130073500Y-86607100D02*
X128943500Y-86607100D01*
X151568500Y-87159599D02*
X151568500Y-86250100D01*
X151568500Y-84012100D02*
X151568500Y-87159599D01*
X153206001Y-88797100D02*
X154018500Y-88797100D01*
X131118500Y-88579610D02*
X131118500Y-85562100D01*
X133429700Y-90890810D02*
X131118500Y-88579610D01*
X150447700Y-81274900D02*
X145723300Y-76550500D01*
X133429700Y-91688900D02*
X133429700Y-90890810D01*
X130153100Y-77676900D02*
X130153100Y-81986100D01*
X129493500Y-92841100D02*
X131114500Y-92841100D01*
X130718500Y-115412100D02*
X132121000Y-115412100D01*
%TO.N,/D3*%
X133941500Y-95762100D02*
X133143500Y-96560100D01*
X134743500Y-91187100D02*
X134743500Y-94062100D01*
X136493500Y-94062100D02*
X136593500Y-94162100D01*
X133143500Y-96560100D02*
X133143500Y-97437100D01*
X140993500Y-82037100D02*
X140668500Y-82362100D01*
X134743500Y-94062100D02*
X136493500Y-94062100D01*
X145793500Y-82037100D02*
X140993500Y-82037100D01*
%TO.N,/D8*%
X142643500Y-94312100D02*
X141918500Y-93587100D01*
X141918500Y-93587100D02*
X139668500Y-93587100D01*
%TO.N,/MISO*%
X140743500Y-90387100D02*
X139668500Y-90387100D01*
X142318500Y-84837100D02*
X142318500Y-88812100D01*
X142318500Y-88812100D02*
X140743500Y-90387100D01*
X141093500Y-83612100D02*
X142318500Y-84837100D01*
X139443500Y-83612100D02*
X141093500Y-83612100D01*
%TO.N,Net-(U3-!INTA)*%
X133143500Y-105412100D02*
X132043500Y-104312100D01*
X136623500Y-108409600D02*
X136623500Y-108807100D01*
X136623500Y-108807100D02*
X135268500Y-110162100D01*
X135268500Y-110162100D02*
X133143500Y-110162100D01*
X133143500Y-110162100D02*
X133143500Y-105412100D01*
%TO.N,Net-(U3-X1)*%
X135353500Y-115327100D02*
X135353500Y-113449600D01*
X134093500Y-116587100D02*
X135353500Y-115327100D01*
%TO.N,Net-(U3-X2)*%
X137893500Y-116487100D02*
X137893500Y-113449600D01*
X137793500Y-116587100D02*
X137893500Y-116487100D01*
%TD*%
M02*
