%TF.GenerationSoftware,KiCad,Pcbnew,9.0.1*%
%TF.CreationDate,2025-11-16T15:35:54+03:00*%
%TF.ProjectId,MCU Datalogger wirh 512KB EEPROM,4d435520-4461-4746-916c-6f6767657220,1*%
%TF.SameCoordinates,Original*%
%TF.FileFunction,Drillmap*%
%TF.FilePolarity,Positive*%
%FSLAX45Y45*%
G04 Gerber Fmt 4.5, Leading zero omitted, Abs format (unit mm)*
G04 Created by KiCad (PCBNEW 9.0.1) date 2025-11-16 15:35:54*
%MOMM*%
%LPD*%
G01*
G04 APERTURE LIST*
%ADD10C,0.050000*%
%ADD11C,0.200000*%
%ADD12C,0.210000*%
G04 APERTURE END LIST*
D10*
X11281210Y-12340790D02*
G75*
G02*
X10773210Y-11832790I0J508000D01*
G01*
X11281210Y-12340790D02*
X15896790Y-12340790D01*
X10773210Y-7979210D02*
X10773210Y-11832790D01*
X15896790Y-7471210D02*
X11281210Y-7471210D01*
X16404790Y-11832790D02*
X16404790Y-7979210D01*
X10773210Y-7979210D02*
G75*
G02*
X11281210Y-7471210I508000J0D01*
G01*
X15896790Y-7471210D02*
G75*
G02*
X16404790Y-7979210I0J-508000D01*
G01*
X16404790Y-11832790D02*
G75*
G02*
X15896790Y-12340790I-508000J0D01*
G01*
D11*
D12*
X11060840Y-7766460D02*
X11270840Y-7976460D01*
X11270840Y-7766460D02*
X11060840Y-7976460D01*
X11060840Y-11774580D02*
X11270840Y-11984580D01*
X11270840Y-11774580D02*
X11060840Y-11984580D01*
X15866520Y-7766460D02*
X16076520Y-7976460D01*
X16076520Y-7766460D02*
X15866520Y-7976460D01*
X15866520Y-11820300D02*
X16076520Y-12030300D01*
X16076520Y-11820300D02*
X15866520Y-12030300D01*
D11*
X11031487Y-12654774D02*
X11031487Y-12454774D01*
X11031487Y-12454774D02*
X11079106Y-12454774D01*
X11079106Y-12454774D02*
X11107678Y-12464297D01*
X11107678Y-12464297D02*
X11126725Y-12483345D01*
X11126725Y-12483345D02*
X11136249Y-12502393D01*
X11136249Y-12502393D02*
X11145773Y-12540488D01*
X11145773Y-12540488D02*
X11145773Y-12569059D01*
X11145773Y-12569059D02*
X11136249Y-12607154D01*
X11136249Y-12607154D02*
X11126725Y-12626202D01*
X11126725Y-12626202D02*
X11107678Y-12645250D01*
X11107678Y-12645250D02*
X11079106Y-12654774D01*
X11079106Y-12654774D02*
X11031487Y-12654774D01*
X11231487Y-12654774D02*
X11231487Y-12521440D01*
X11231487Y-12559535D02*
X11241011Y-12540488D01*
X11241011Y-12540488D02*
X11250535Y-12530964D01*
X11250535Y-12530964D02*
X11269582Y-12521440D01*
X11269582Y-12521440D02*
X11288630Y-12521440D01*
X11355296Y-12654774D02*
X11355296Y-12521440D01*
X11355296Y-12454774D02*
X11345773Y-12464297D01*
X11345773Y-12464297D02*
X11355296Y-12473821D01*
X11355296Y-12473821D02*
X11364820Y-12464297D01*
X11364820Y-12464297D02*
X11355296Y-12454774D01*
X11355296Y-12454774D02*
X11355296Y-12473821D01*
X11479106Y-12654774D02*
X11460058Y-12645250D01*
X11460058Y-12645250D02*
X11450535Y-12626202D01*
X11450535Y-12626202D02*
X11450535Y-12454774D01*
X11583868Y-12654774D02*
X11564820Y-12645250D01*
X11564820Y-12645250D02*
X11555296Y-12626202D01*
X11555296Y-12626202D02*
X11555296Y-12454774D01*
X11812439Y-12654774D02*
X11812439Y-12454774D01*
X11812439Y-12454774D02*
X11879106Y-12597631D01*
X11879106Y-12597631D02*
X11945773Y-12454774D01*
X11945773Y-12454774D02*
X11945773Y-12654774D01*
X12126725Y-12654774D02*
X12126725Y-12550012D01*
X12126725Y-12550012D02*
X12117201Y-12530964D01*
X12117201Y-12530964D02*
X12098154Y-12521440D01*
X12098154Y-12521440D02*
X12060058Y-12521440D01*
X12060058Y-12521440D02*
X12041011Y-12530964D01*
X12126725Y-12645250D02*
X12107677Y-12654774D01*
X12107677Y-12654774D02*
X12060058Y-12654774D01*
X12060058Y-12654774D02*
X12041011Y-12645250D01*
X12041011Y-12645250D02*
X12031487Y-12626202D01*
X12031487Y-12626202D02*
X12031487Y-12607154D01*
X12031487Y-12607154D02*
X12041011Y-12588107D01*
X12041011Y-12588107D02*
X12060058Y-12578583D01*
X12060058Y-12578583D02*
X12107677Y-12578583D01*
X12107677Y-12578583D02*
X12126725Y-12569059D01*
X12221963Y-12521440D02*
X12221963Y-12721440D01*
X12221963Y-12530964D02*
X12241011Y-12521440D01*
X12241011Y-12521440D02*
X12279106Y-12521440D01*
X12279106Y-12521440D02*
X12298154Y-12530964D01*
X12298154Y-12530964D02*
X12307677Y-12540488D01*
X12307677Y-12540488D02*
X12317201Y-12559535D01*
X12317201Y-12559535D02*
X12317201Y-12616678D01*
X12317201Y-12616678D02*
X12307677Y-12635726D01*
X12307677Y-12635726D02*
X12298154Y-12645250D01*
X12298154Y-12645250D02*
X12279106Y-12654774D01*
X12279106Y-12654774D02*
X12241011Y-12654774D01*
X12241011Y-12654774D02*
X12221963Y-12645250D01*
X12402916Y-12635726D02*
X12412439Y-12645250D01*
X12412439Y-12645250D02*
X12402916Y-12654774D01*
X12402916Y-12654774D02*
X12393392Y-12645250D01*
X12393392Y-12645250D02*
X12402916Y-12635726D01*
X12402916Y-12635726D02*
X12402916Y-12654774D01*
X12402916Y-12530964D02*
X12412439Y-12540488D01*
X12412439Y-12540488D02*
X12402916Y-12550012D01*
X12402916Y-12550012D02*
X12393392Y-12540488D01*
X12393392Y-12540488D02*
X12402916Y-12530964D01*
X12402916Y-12530964D02*
X12402916Y-12550012D01*
X10570710Y-12883290D02*
X10770710Y-13083290D01*
X10770710Y-12883290D02*
X10570710Y-13083290D01*
X11021963Y-12893821D02*
X11031487Y-12884297D01*
X11031487Y-12884297D02*
X11050535Y-12874774D01*
X11050535Y-12874774D02*
X11098154Y-12874774D01*
X11098154Y-12874774D02*
X11117201Y-12884297D01*
X11117201Y-12884297D02*
X11126725Y-12893821D01*
X11126725Y-12893821D02*
X11136249Y-12912869D01*
X11136249Y-12912869D02*
X11136249Y-12931916D01*
X11136249Y-12931916D02*
X11126725Y-12960488D01*
X11126725Y-12960488D02*
X11012439Y-13074774D01*
X11012439Y-13074774D02*
X11136249Y-13074774D01*
X11221963Y-13055726D02*
X11231487Y-13065250D01*
X11231487Y-13065250D02*
X11221963Y-13074774D01*
X11221963Y-13074774D02*
X11212439Y-13065250D01*
X11212439Y-13065250D02*
X11221963Y-13055726D01*
X11221963Y-13055726D02*
X11221963Y-13074774D01*
X11421963Y-13074774D02*
X11307677Y-13074774D01*
X11364820Y-13074774D02*
X11364820Y-12874774D01*
X11364820Y-12874774D02*
X11345773Y-12903345D01*
X11345773Y-12903345D02*
X11326725Y-12922393D01*
X11326725Y-12922393D02*
X11307677Y-12931916D01*
X11545773Y-12874774D02*
X11564820Y-12874774D01*
X11564820Y-12874774D02*
X11583868Y-12884297D01*
X11583868Y-12884297D02*
X11593392Y-12893821D01*
X11593392Y-12893821D02*
X11602916Y-12912869D01*
X11602916Y-12912869D02*
X11612439Y-12950964D01*
X11612439Y-12950964D02*
X11612439Y-12998583D01*
X11612439Y-12998583D02*
X11602916Y-13036678D01*
X11602916Y-13036678D02*
X11593392Y-13055726D01*
X11593392Y-13055726D02*
X11583868Y-13065250D01*
X11583868Y-13065250D02*
X11564820Y-13074774D01*
X11564820Y-13074774D02*
X11545773Y-13074774D01*
X11545773Y-13074774D02*
X11526725Y-13065250D01*
X11526725Y-13065250D02*
X11517201Y-13055726D01*
X11517201Y-13055726D02*
X11507677Y-13036678D01*
X11507677Y-13036678D02*
X11498154Y-12998583D01*
X11498154Y-12998583D02*
X11498154Y-12950964D01*
X11498154Y-12950964D02*
X11507677Y-12912869D01*
X11507677Y-12912869D02*
X11517201Y-12893821D01*
X11517201Y-12893821D02*
X11526725Y-12884297D01*
X11526725Y-12884297D02*
X11545773Y-12874774D01*
X11736249Y-12874774D02*
X11755297Y-12874774D01*
X11755297Y-12874774D02*
X11774344Y-12884297D01*
X11774344Y-12884297D02*
X11783868Y-12893821D01*
X11783868Y-12893821D02*
X11793392Y-12912869D01*
X11793392Y-12912869D02*
X11802916Y-12950964D01*
X11802916Y-12950964D02*
X11802916Y-12998583D01*
X11802916Y-12998583D02*
X11793392Y-13036678D01*
X11793392Y-13036678D02*
X11783868Y-13055726D01*
X11783868Y-13055726D02*
X11774344Y-13065250D01*
X11774344Y-13065250D02*
X11755297Y-13074774D01*
X11755297Y-13074774D02*
X11736249Y-13074774D01*
X11736249Y-13074774D02*
X11717201Y-13065250D01*
X11717201Y-13065250D02*
X11707677Y-13055726D01*
X11707677Y-13055726D02*
X11698154Y-13036678D01*
X11698154Y-13036678D02*
X11688630Y-12998583D01*
X11688630Y-12998583D02*
X11688630Y-12950964D01*
X11688630Y-12950964D02*
X11698154Y-12912869D01*
X11698154Y-12912869D02*
X11707677Y-12893821D01*
X11707677Y-12893821D02*
X11717201Y-12884297D01*
X11717201Y-12884297D02*
X11736249Y-12874774D01*
X11888630Y-13074774D02*
X11888630Y-12941440D01*
X11888630Y-12960488D02*
X11898154Y-12950964D01*
X11898154Y-12950964D02*
X11917201Y-12941440D01*
X11917201Y-12941440D02*
X11945773Y-12941440D01*
X11945773Y-12941440D02*
X11964820Y-12950964D01*
X11964820Y-12950964D02*
X11974344Y-12970012D01*
X11974344Y-12970012D02*
X11974344Y-13074774D01*
X11974344Y-12970012D02*
X11983868Y-12950964D01*
X11983868Y-12950964D02*
X12002916Y-12941440D01*
X12002916Y-12941440D02*
X12031487Y-12941440D01*
X12031487Y-12941440D02*
X12050535Y-12950964D01*
X12050535Y-12950964D02*
X12060058Y-12970012D01*
X12060058Y-12970012D02*
X12060058Y-13074774D01*
X12155297Y-13074774D02*
X12155297Y-12941440D01*
X12155297Y-12960488D02*
X12164820Y-12950964D01*
X12164820Y-12950964D02*
X12183868Y-12941440D01*
X12183868Y-12941440D02*
X12212439Y-12941440D01*
X12212439Y-12941440D02*
X12231487Y-12950964D01*
X12231487Y-12950964D02*
X12241011Y-12970012D01*
X12241011Y-12970012D02*
X12241011Y-13074774D01*
X12241011Y-12970012D02*
X12250535Y-12950964D01*
X12250535Y-12950964D02*
X12269582Y-12941440D01*
X12269582Y-12941440D02*
X12298154Y-12941440D01*
X12298154Y-12941440D02*
X12317201Y-12950964D01*
X12317201Y-12950964D02*
X12326725Y-12970012D01*
X12326725Y-12970012D02*
X12326725Y-13074774D01*
X12717201Y-12865250D02*
X12545773Y-13122393D01*
X12974344Y-12874774D02*
X12993392Y-12874774D01*
X12993392Y-12874774D02*
X13012440Y-12884297D01*
X13012440Y-12884297D02*
X13021963Y-12893821D01*
X13021963Y-12893821D02*
X13031487Y-12912869D01*
X13031487Y-12912869D02*
X13041011Y-12950964D01*
X13041011Y-12950964D02*
X13041011Y-12998583D01*
X13041011Y-12998583D02*
X13031487Y-13036678D01*
X13031487Y-13036678D02*
X13021963Y-13055726D01*
X13021963Y-13055726D02*
X13012440Y-13065250D01*
X13012440Y-13065250D02*
X12993392Y-13074774D01*
X12993392Y-13074774D02*
X12974344Y-13074774D01*
X12974344Y-13074774D02*
X12955297Y-13065250D01*
X12955297Y-13065250D02*
X12945773Y-13055726D01*
X12945773Y-13055726D02*
X12936249Y-13036678D01*
X12936249Y-13036678D02*
X12926725Y-12998583D01*
X12926725Y-12998583D02*
X12926725Y-12950964D01*
X12926725Y-12950964D02*
X12936249Y-12912869D01*
X12936249Y-12912869D02*
X12945773Y-12893821D01*
X12945773Y-12893821D02*
X12955297Y-12884297D01*
X12955297Y-12884297D02*
X12974344Y-12874774D01*
X13126725Y-13055726D02*
X13136249Y-13065250D01*
X13136249Y-13065250D02*
X13126725Y-13074774D01*
X13126725Y-13074774D02*
X13117201Y-13065250D01*
X13117201Y-13065250D02*
X13126725Y-13055726D01*
X13126725Y-13055726D02*
X13126725Y-13074774D01*
X13260059Y-12874774D02*
X13279106Y-12874774D01*
X13279106Y-12874774D02*
X13298154Y-12884297D01*
X13298154Y-12884297D02*
X13307678Y-12893821D01*
X13307678Y-12893821D02*
X13317201Y-12912869D01*
X13317201Y-12912869D02*
X13326725Y-12950964D01*
X13326725Y-12950964D02*
X13326725Y-12998583D01*
X13326725Y-12998583D02*
X13317201Y-13036678D01*
X13317201Y-13036678D02*
X13307678Y-13055726D01*
X13307678Y-13055726D02*
X13298154Y-13065250D01*
X13298154Y-13065250D02*
X13279106Y-13074774D01*
X13279106Y-13074774D02*
X13260059Y-13074774D01*
X13260059Y-13074774D02*
X13241011Y-13065250D01*
X13241011Y-13065250D02*
X13231487Y-13055726D01*
X13231487Y-13055726D02*
X13221963Y-13036678D01*
X13221963Y-13036678D02*
X13212440Y-12998583D01*
X13212440Y-12998583D02*
X13212440Y-12950964D01*
X13212440Y-12950964D02*
X13221963Y-12912869D01*
X13221963Y-12912869D02*
X13231487Y-12893821D01*
X13231487Y-12893821D02*
X13241011Y-12884297D01*
X13241011Y-12884297D02*
X13260059Y-12874774D01*
X13441011Y-12960488D02*
X13421963Y-12950964D01*
X13421963Y-12950964D02*
X13412440Y-12941440D01*
X13412440Y-12941440D02*
X13402916Y-12922393D01*
X13402916Y-12922393D02*
X13402916Y-12912869D01*
X13402916Y-12912869D02*
X13412440Y-12893821D01*
X13412440Y-12893821D02*
X13421963Y-12884297D01*
X13421963Y-12884297D02*
X13441011Y-12874774D01*
X13441011Y-12874774D02*
X13479106Y-12874774D01*
X13479106Y-12874774D02*
X13498154Y-12884297D01*
X13498154Y-12884297D02*
X13507678Y-12893821D01*
X13507678Y-12893821D02*
X13517201Y-12912869D01*
X13517201Y-12912869D02*
X13517201Y-12922393D01*
X13517201Y-12922393D02*
X13507678Y-12941440D01*
X13507678Y-12941440D02*
X13498154Y-12950964D01*
X13498154Y-12950964D02*
X13479106Y-12960488D01*
X13479106Y-12960488D02*
X13441011Y-12960488D01*
X13441011Y-12960488D02*
X13421963Y-12970012D01*
X13421963Y-12970012D02*
X13412440Y-12979535D01*
X13412440Y-12979535D02*
X13402916Y-12998583D01*
X13402916Y-12998583D02*
X13402916Y-13036678D01*
X13402916Y-13036678D02*
X13412440Y-13055726D01*
X13412440Y-13055726D02*
X13421963Y-13065250D01*
X13421963Y-13065250D02*
X13441011Y-13074774D01*
X13441011Y-13074774D02*
X13479106Y-13074774D01*
X13479106Y-13074774D02*
X13498154Y-13065250D01*
X13498154Y-13065250D02*
X13507678Y-13055726D01*
X13507678Y-13055726D02*
X13517201Y-13036678D01*
X13517201Y-13036678D02*
X13517201Y-12998583D01*
X13517201Y-12998583D02*
X13507678Y-12979535D01*
X13507678Y-12979535D02*
X13498154Y-12970012D01*
X13498154Y-12970012D02*
X13479106Y-12960488D01*
X13593392Y-12893821D02*
X13602916Y-12884297D01*
X13602916Y-12884297D02*
X13621963Y-12874774D01*
X13621963Y-12874774D02*
X13669582Y-12874774D01*
X13669582Y-12874774D02*
X13688630Y-12884297D01*
X13688630Y-12884297D02*
X13698154Y-12893821D01*
X13698154Y-12893821D02*
X13707678Y-12912869D01*
X13707678Y-12912869D02*
X13707678Y-12931916D01*
X13707678Y-12931916D02*
X13698154Y-12960488D01*
X13698154Y-12960488D02*
X13583868Y-13074774D01*
X13583868Y-13074774D02*
X13707678Y-13074774D01*
X13774344Y-12874774D02*
X13907678Y-12874774D01*
X13907678Y-12874774D02*
X13821963Y-13074774D01*
X13974344Y-12874774D02*
X13974344Y-12912869D01*
X14050535Y-12874774D02*
X14050535Y-12912869D01*
X14345773Y-13150964D02*
X14336249Y-13141440D01*
X14336249Y-13141440D02*
X14317202Y-13112869D01*
X14317202Y-13112869D02*
X14307678Y-13093821D01*
X14307678Y-13093821D02*
X14298154Y-13065250D01*
X14298154Y-13065250D02*
X14288630Y-13017631D01*
X14288630Y-13017631D02*
X14288630Y-12979535D01*
X14288630Y-12979535D02*
X14298154Y-12931916D01*
X14298154Y-12931916D02*
X14307678Y-12903345D01*
X14307678Y-12903345D02*
X14317202Y-12884297D01*
X14317202Y-12884297D02*
X14336249Y-12855726D01*
X14336249Y-12855726D02*
X14345773Y-12846202D01*
X14507678Y-12941440D02*
X14507678Y-13074774D01*
X14460059Y-12865250D02*
X14412440Y-13008107D01*
X14412440Y-13008107D02*
X14536249Y-13008107D01*
X14764821Y-13074774D02*
X14764821Y-12874774D01*
X14850535Y-13074774D02*
X14850535Y-12970012D01*
X14850535Y-12970012D02*
X14841011Y-12950964D01*
X14841011Y-12950964D02*
X14821964Y-12941440D01*
X14821964Y-12941440D02*
X14793392Y-12941440D01*
X14793392Y-12941440D02*
X14774344Y-12950964D01*
X14774344Y-12950964D02*
X14764821Y-12960488D01*
X14974344Y-13074774D02*
X14955297Y-13065250D01*
X14955297Y-13065250D02*
X14945773Y-13055726D01*
X14945773Y-13055726D02*
X14936249Y-13036678D01*
X14936249Y-13036678D02*
X14936249Y-12979535D01*
X14936249Y-12979535D02*
X14945773Y-12960488D01*
X14945773Y-12960488D02*
X14955297Y-12950964D01*
X14955297Y-12950964D02*
X14974344Y-12941440D01*
X14974344Y-12941440D02*
X15002916Y-12941440D01*
X15002916Y-12941440D02*
X15021964Y-12950964D01*
X15021964Y-12950964D02*
X15031487Y-12960488D01*
X15031487Y-12960488D02*
X15041011Y-12979535D01*
X15041011Y-12979535D02*
X15041011Y-13036678D01*
X15041011Y-13036678D02*
X15031487Y-13055726D01*
X15031487Y-13055726D02*
X15021964Y-13065250D01*
X15021964Y-13065250D02*
X15002916Y-13074774D01*
X15002916Y-13074774D02*
X14974344Y-13074774D01*
X15155297Y-13074774D02*
X15136249Y-13065250D01*
X15136249Y-13065250D02*
X15126725Y-13046202D01*
X15126725Y-13046202D02*
X15126725Y-12874774D01*
X15307678Y-13065250D02*
X15288630Y-13074774D01*
X15288630Y-13074774D02*
X15250535Y-13074774D01*
X15250535Y-13074774D02*
X15231487Y-13065250D01*
X15231487Y-13065250D02*
X15221964Y-13046202D01*
X15221964Y-13046202D02*
X15221964Y-12970012D01*
X15221964Y-12970012D02*
X15231487Y-12950964D01*
X15231487Y-12950964D02*
X15250535Y-12941440D01*
X15250535Y-12941440D02*
X15288630Y-12941440D01*
X15288630Y-12941440D02*
X15307678Y-12950964D01*
X15307678Y-12950964D02*
X15317202Y-12970012D01*
X15317202Y-12970012D02*
X15317202Y-12989059D01*
X15317202Y-12989059D02*
X15221964Y-13008107D01*
X15393392Y-13065250D02*
X15412440Y-13074774D01*
X15412440Y-13074774D02*
X15450535Y-13074774D01*
X15450535Y-13074774D02*
X15469583Y-13065250D01*
X15469583Y-13065250D02*
X15479106Y-13046202D01*
X15479106Y-13046202D02*
X15479106Y-13036678D01*
X15479106Y-13036678D02*
X15469583Y-13017631D01*
X15469583Y-13017631D02*
X15450535Y-13008107D01*
X15450535Y-13008107D02*
X15421964Y-13008107D01*
X15421964Y-13008107D02*
X15402916Y-12998583D01*
X15402916Y-12998583D02*
X15393392Y-12979535D01*
X15393392Y-12979535D02*
X15393392Y-12970012D01*
X15393392Y-12970012D02*
X15402916Y-12950964D01*
X15402916Y-12950964D02*
X15421964Y-12941440D01*
X15421964Y-12941440D02*
X15450535Y-12941440D01*
X15450535Y-12941440D02*
X15469583Y-12950964D01*
X15545773Y-13150964D02*
X15555297Y-13141440D01*
X15555297Y-13141440D02*
X15574345Y-13112869D01*
X15574345Y-13112869D02*
X15583868Y-13093821D01*
X15583868Y-13093821D02*
X15593392Y-13065250D01*
X15593392Y-13065250D02*
X15602916Y-13017631D01*
X15602916Y-13017631D02*
X15602916Y-12979535D01*
X15602916Y-12979535D02*
X15593392Y-12931916D01*
X15593392Y-12931916D02*
X15583868Y-12903345D01*
X15583868Y-12903345D02*
X15574345Y-12884297D01*
X15574345Y-12884297D02*
X15555297Y-12855726D01*
X15555297Y-12855726D02*
X15545773Y-12846202D01*
X15907678Y-13150964D02*
X15898154Y-13141440D01*
X15898154Y-13141440D02*
X15879106Y-13112869D01*
X15879106Y-13112869D02*
X15869583Y-13093821D01*
X15869583Y-13093821D02*
X15860059Y-13065250D01*
X15860059Y-13065250D02*
X15850535Y-13017631D01*
X15850535Y-13017631D02*
X15850535Y-12979535D01*
X15850535Y-12979535D02*
X15860059Y-12931916D01*
X15860059Y-12931916D02*
X15869583Y-12903345D01*
X15869583Y-12903345D02*
X15879106Y-12884297D01*
X15879106Y-12884297D02*
X15898154Y-12855726D01*
X15898154Y-12855726D02*
X15907678Y-12846202D01*
X15983868Y-12941440D02*
X15983868Y-13074774D01*
X15983868Y-12960488D02*
X15993392Y-12950964D01*
X15993392Y-12950964D02*
X16012440Y-12941440D01*
X16012440Y-12941440D02*
X16041011Y-12941440D01*
X16041011Y-12941440D02*
X16060059Y-12950964D01*
X16060059Y-12950964D02*
X16069583Y-12970012D01*
X16069583Y-12970012D02*
X16069583Y-13074774D01*
X16193392Y-13074774D02*
X16174345Y-13065250D01*
X16174345Y-13065250D02*
X16164821Y-13055726D01*
X16164821Y-13055726D02*
X16155297Y-13036678D01*
X16155297Y-13036678D02*
X16155297Y-12979535D01*
X16155297Y-12979535D02*
X16164821Y-12960488D01*
X16164821Y-12960488D02*
X16174345Y-12950964D01*
X16174345Y-12950964D02*
X16193392Y-12941440D01*
X16193392Y-12941440D02*
X16221964Y-12941440D01*
X16221964Y-12941440D02*
X16241011Y-12950964D01*
X16241011Y-12950964D02*
X16250535Y-12960488D01*
X16250535Y-12960488D02*
X16260059Y-12979535D01*
X16260059Y-12979535D02*
X16260059Y-13036678D01*
X16260059Y-13036678D02*
X16250535Y-13055726D01*
X16250535Y-13055726D02*
X16241011Y-13065250D01*
X16241011Y-13065250D02*
X16221964Y-13074774D01*
X16221964Y-13074774D02*
X16193392Y-13074774D01*
X16317202Y-12941440D02*
X16393392Y-12941440D01*
X16345773Y-12874774D02*
X16345773Y-13046202D01*
X16345773Y-13046202D02*
X16355297Y-13065250D01*
X16355297Y-13065250D02*
X16374345Y-13074774D01*
X16374345Y-13074774D02*
X16393392Y-13074774D01*
X16612440Y-12941440D02*
X16612440Y-13141440D01*
X16612440Y-12950964D02*
X16631487Y-12941440D01*
X16631487Y-12941440D02*
X16669583Y-12941440D01*
X16669583Y-12941440D02*
X16688630Y-12950964D01*
X16688630Y-12950964D02*
X16698154Y-12960488D01*
X16698154Y-12960488D02*
X16707678Y-12979535D01*
X16707678Y-12979535D02*
X16707678Y-13036678D01*
X16707678Y-13036678D02*
X16698154Y-13055726D01*
X16698154Y-13055726D02*
X16688630Y-13065250D01*
X16688630Y-13065250D02*
X16669583Y-13074774D01*
X16669583Y-13074774D02*
X16631487Y-13074774D01*
X16631487Y-13074774D02*
X16612440Y-13065250D01*
X16821964Y-13074774D02*
X16802916Y-13065250D01*
X16802916Y-13065250D02*
X16793392Y-13046202D01*
X16793392Y-13046202D02*
X16793392Y-12874774D01*
X16983869Y-13074774D02*
X16983869Y-12970012D01*
X16983869Y-12970012D02*
X16974345Y-12950964D01*
X16974345Y-12950964D02*
X16955297Y-12941440D01*
X16955297Y-12941440D02*
X16917202Y-12941440D01*
X16917202Y-12941440D02*
X16898154Y-12950964D01*
X16983869Y-13065250D02*
X16964821Y-13074774D01*
X16964821Y-13074774D02*
X16917202Y-13074774D01*
X16917202Y-13074774D02*
X16898154Y-13065250D01*
X16898154Y-13065250D02*
X16888630Y-13046202D01*
X16888630Y-13046202D02*
X16888630Y-13027154D01*
X16888630Y-13027154D02*
X16898154Y-13008107D01*
X16898154Y-13008107D02*
X16917202Y-12998583D01*
X16917202Y-12998583D02*
X16964821Y-12998583D01*
X16964821Y-12998583D02*
X16983869Y-12989059D01*
X17050535Y-12941440D02*
X17126726Y-12941440D01*
X17079107Y-12874774D02*
X17079107Y-13046202D01*
X17079107Y-13046202D02*
X17088630Y-13065250D01*
X17088630Y-13065250D02*
X17107678Y-13074774D01*
X17107678Y-13074774D02*
X17126726Y-13074774D01*
X17269583Y-13065250D02*
X17250535Y-13074774D01*
X17250535Y-13074774D02*
X17212440Y-13074774D01*
X17212440Y-13074774D02*
X17193392Y-13065250D01*
X17193392Y-13065250D02*
X17183869Y-13046202D01*
X17183869Y-13046202D02*
X17183869Y-12970012D01*
X17183869Y-12970012D02*
X17193392Y-12950964D01*
X17193392Y-12950964D02*
X17212440Y-12941440D01*
X17212440Y-12941440D02*
X17250535Y-12941440D01*
X17250535Y-12941440D02*
X17269583Y-12950964D01*
X17269583Y-12950964D02*
X17279107Y-12970012D01*
X17279107Y-12970012D02*
X17279107Y-12989059D01*
X17279107Y-12989059D02*
X17183869Y-13008107D01*
X17450535Y-13074774D02*
X17450535Y-12874774D01*
X17450535Y-13065250D02*
X17431488Y-13074774D01*
X17431488Y-13074774D02*
X17393392Y-13074774D01*
X17393392Y-13074774D02*
X17374345Y-13065250D01*
X17374345Y-13065250D02*
X17364821Y-13055726D01*
X17364821Y-13055726D02*
X17355297Y-13036678D01*
X17355297Y-13036678D02*
X17355297Y-12979535D01*
X17355297Y-12979535D02*
X17364821Y-12960488D01*
X17364821Y-12960488D02*
X17374345Y-12950964D01*
X17374345Y-12950964D02*
X17393392Y-12941440D01*
X17393392Y-12941440D02*
X17431488Y-12941440D01*
X17431488Y-12941440D02*
X17450535Y-12950964D01*
X17526726Y-13150964D02*
X17536250Y-13141440D01*
X17536250Y-13141440D02*
X17555297Y-13112869D01*
X17555297Y-13112869D02*
X17564821Y-13093821D01*
X17564821Y-13093821D02*
X17574345Y-13065250D01*
X17574345Y-13065250D02*
X17583869Y-13017631D01*
X17583869Y-13017631D02*
X17583869Y-12979535D01*
X17583869Y-12979535D02*
X17574345Y-12931916D01*
X17574345Y-12931916D02*
X17564821Y-12903345D01*
X17564821Y-12903345D02*
X17555297Y-12884297D01*
X17555297Y-12884297D02*
X17536250Y-12855726D01*
X17536250Y-12855726D02*
X17526726Y-12846202D01*
M02*
