M48
; DRILL file {KiCad 9.0.1} date 2025-11-16T15:35:54+0300
; FORMAT={-:-/ absolute / metric / decimal}
; #@! TF.CreationDate,2025-11-16T15:35:54+03:00
; #@! TF.GenerationSoftware,Kicad,Pcbnew,9.0.1
; #@! TF.FileFunction,Plated,1,2,PTH
FMAT,2
METRIC
; #@! TA.AperFunction,Plated,PTH,ViaDrill
T1C0.300
; #@! TA.AperFunction,Plated,PTH,ViaDrill
T2C0.400
; #@! TA.AperFunction,Plated,PTH,ComponentDrill
T3C1.000
%
G90
G05
T1
X122.381Y-96.21
X124.667Y-92.75
X128.868Y-97.462
X129.493Y-92.841
X129.543Y-94.737
X130.052Y-82.088
X130.331Y-87.396
X130.393Y-115.737
X131.118Y-85.562
X132.49Y-91.105
X132.617Y-95.804
X133.941Y-95.762
X134.065Y-90.266
X134.743Y-91.187
X136.118Y-93.062
X136.274Y-90.292
X136.368Y-91.612
X136.594Y-94.162
X137.868Y-93.762
X139.444Y-83.612
X139.793Y-96.812
X139.819Y-98.312
X140.668Y-82.362
X142.268Y-103.762
X142.469Y-92.737
X142.47Y-98.362
X142.643Y-94.312
X142.719Y-106.802
X143.694Y-92.212
X143.844Y-97.018
X144.743Y-105.987
X145.069Y-87.387
X145.793Y-82.037
X148.268Y-82.062
X150.143Y-90.292
X150.448Y-81.275
X153.064Y-84.755
X154.018Y-93.337
T2
X117.478Y-90.212
X121.568Y-105.278
X121.822Y-89.733
X125.378Y-101.442
X130.839Y-100.223
X132.033Y-87.041
X132.109Y-82.85
X133.543Y-104.059
X134.725Y-109.462
X135.944Y-86.05
X136.655Y-95.778
X138.094Y-106.687
X140.008Y-100.833
X140.745Y-80.361
X141.278Y-104.084
X144.428Y-90.393
X145.253Y-88.4
X147.196Y-91.512
X147.321Y-84.554
X150.092Y-94.864
X153.064Y-104.364
X153.8Y-100.35
T3
X115.053Y-83.207
X115.053Y-85.747
X115.053Y-88.287
X117.593Y-83.207
X117.593Y-85.747
X117.593Y-88.287
X119.293Y-93.492
X119.293Y-96.032
X119.293Y-98.572
X119.293Y-101.112
X119.293Y-105.627
X119.293Y-108.167
X119.293Y-110.707
X119.293Y-113.247
X134.828Y-80.162
X137.368Y-80.162
X157.268Y-87.182
X157.268Y-89.722
X157.268Y-92.262
X157.268Y-94.802
X157.268Y-97.342
X157.268Y-99.882
X157.268Y-102.422
X157.268Y-104.962
X157.268Y-107.502
M30
