%TF.GenerationSoftware,KiCad,Pcbnew,9.0.1*%
%TF.CreationDate,2025-12-03T13:57:07+03:00*%
%TF.ProjectId,MCU Datalogger wirh 512KB EEPROM,4d435520-4461-4746-916c-6f6767657220,1*%
%TF.SameCoordinates,Original*%
%TF.FileFunction,Soldermask,Top*%
%TF.FilePolarity,Negative*%
%FSLAX46Y46*%
G04 Gerber Fmt 4.6, Leading zero omitted, Abs format (unit mm)*
G04 Created by KiCad (PCBNEW 9.0.1) date 2025-12-03 13:57:07*
%MOMM*%
%LPD*%
G01*
G04 APERTURE LIST*
G04 Aperture macros list*
%AMRoundRect*
0 Rectangle with rounded corners*
0 $1 Rounding radius*
0 $2 $3 $4 $5 $6 $7 $8 $9 X,Y pos of 4 corners*
0 Add a 4 corners polygon primitive as box body*
4,1,4,$2,$3,$4,$5,$6,$7,$8,$9,$2,$3,0*
0 Add four circle primitives for the rounded corners*
1,1,$1+$1,$2,$3*
1,1,$1+$1,$4,$5*
1,1,$1+$1,$6,$7*
1,1,$1+$1,$8,$9*
0 Add four rect primitives between the rounded corners*
20,1,$1+$1,$2,$3,$4,$5,0*
20,1,$1+$1,$4,$5,$6,$7,0*
20,1,$1+$1,$6,$7,$8,$9,0*
20,1,$1+$1,$8,$9,$2,$3,0*%
G04 Aperture macros list end*
%ADD10C,2.100000*%
%ADD11RoundRect,0.162500X-0.650000X-0.162500X0.650000X-0.162500X0.650000X0.162500X-0.650000X0.162500X0*%
%ADD12RoundRect,0.250000X-0.325000X-0.650000X0.325000X-0.650000X0.325000X0.650000X-0.325000X0.650000X0*%
%ADD13R,2.000000X2.400000*%
%ADD14RoundRect,0.250000X0.625000X-0.375000X0.625000X0.375000X-0.625000X0.375000X-0.625000X-0.375000X0*%
%ADD15RoundRect,0.250000X0.450000X-0.262500X0.450000X0.262500X-0.450000X0.262500X-0.450000X-0.262500X0*%
%ADD16RoundRect,0.250000X-0.650000X0.325000X-0.650000X-0.325000X0.650000X-0.325000X0.650000X0.325000X0*%
%ADD17R,1.700000X1.700000*%
%ADD18C,1.700000*%
%ADD19RoundRect,0.250000X-0.262500X-0.450000X0.262500X-0.450000X0.262500X0.450000X-0.262500X0.450000X0*%
%ADD20RoundRect,0.078000X-0.182000X-0.492000X0.182000X-0.492000X0.182000X0.492000X-0.182000X0.492000X0*%
%ADD21RoundRect,0.250000X0.375000X0.625000X-0.375000X0.625000X-0.375000X-0.625000X0.375000X-0.625000X0*%
%ADD22R,0.550000X1.600000*%
%ADD23R,1.600000X0.550000*%
G04 APERTURE END LIST*
D10*
%TO.C,H3*%
X111658400Y-118795800D03*
%TD*%
D11*
%TO.C,U2*%
X146843500Y-86257100D03*
X146843500Y-87527100D03*
X146843500Y-88797100D03*
X146843500Y-90067100D03*
X154018500Y-90067100D03*
X154018500Y-88797100D03*
X154018500Y-87527100D03*
X154018500Y-86257100D03*
%TD*%
D12*
%TO.C,C5*%
X134443500Y-83587100D03*
X137393500Y-83587100D03*
%TD*%
D13*
%TO.C,Y1*%
X138018500Y-101187100D03*
X134318500Y-101187100D03*
%TD*%
D14*
%TO.C,D2*%
X145493500Y-96737100D03*
X145493500Y-93937100D03*
%TD*%
D15*
%TO.C,R7*%
X143718500Y-90899600D03*
X143718500Y-89074600D03*
%TD*%
%TO.C,R4*%
X132043500Y-106137100D03*
X132043500Y-104312100D03*
%TD*%
D16*
%TO.C,C4*%
X139593500Y-104012100D03*
X139593500Y-106962100D03*
%TD*%
D15*
%TO.C,R6*%
X127843500Y-95174600D03*
X127843500Y-93349600D03*
%TD*%
D17*
%TO.C,J3*%
X157268500Y-87182100D03*
D18*
X157268500Y-89722100D03*
X157268500Y-92262100D03*
X157268500Y-94802100D03*
X157268500Y-97342100D03*
X157268500Y-99882100D03*
X157268500Y-102422100D03*
X157268500Y-104962100D03*
X157268500Y-107502100D03*
%TD*%
D13*
%TO.C,Y2*%
X134093500Y-116587100D03*
X137793500Y-116587100D03*
%TD*%
D17*
%TO.C,BT1*%
X134828500Y-80162100D03*
D18*
X137368500Y-80162100D03*
%TD*%
D17*
%TO.C,J1*%
X119293500Y-93492100D03*
D18*
X119293500Y-96032100D03*
X119293500Y-98572100D03*
X119293500Y-101112100D03*
%TD*%
D12*
%TO.C,C3*%
X141418500Y-100812100D03*
X144368500Y-100812100D03*
%TD*%
D10*
%TO.C,H2*%
X159715200Y-78714600D03*
%TD*%
D12*
%TO.C,C2*%
X127745000Y-102140000D03*
X130695000Y-102140000D03*
%TD*%
D11*
%TO.C,U1*%
X121768500Y-84067100D03*
X121768500Y-85337100D03*
X121768500Y-86607100D03*
X121768500Y-87877100D03*
X128943500Y-87877100D03*
X128943500Y-86607100D03*
X128943500Y-85337100D03*
X128943500Y-84067100D03*
%TD*%
D15*
%TO.C,R5*%
X135991600Y-106347900D03*
X135991600Y-104522900D03*
%TD*%
D10*
%TO.C,H4*%
X159715200Y-119253000D03*
%TD*%
D15*
%TO.C,R1*%
X148234400Y-96238700D03*
X148234400Y-94413700D03*
%TD*%
D19*
%TO.C,R3*%
X149743500Y-84012100D03*
X151568500Y-84012100D03*
%TD*%
D12*
%TO.C,C1*%
X134443900Y-86431100D03*
X137393900Y-86431100D03*
%TD*%
D20*
%TO.C,U3*%
X134083500Y-113449600D03*
X135353500Y-113449600D03*
X136623500Y-113449600D03*
X137893500Y-113449600D03*
X137893500Y-108409600D03*
X136623500Y-108409600D03*
X135353500Y-108409600D03*
X134083500Y-108409600D03*
%TD*%
D17*
%TO.C,J4*%
X117593500Y-88287100D03*
D18*
X115053500Y-88287100D03*
X117593500Y-85747100D03*
X115053500Y-85747100D03*
X117593500Y-83207100D03*
X115053500Y-83207100D03*
%TD*%
D21*
%TO.C,D1*%
X143693500Y-85887100D03*
X140893500Y-85887100D03*
%TD*%
D10*
%TO.C,H1*%
X111658400Y-78714600D03*
%TD*%
D19*
%TO.C,R2*%
X124406000Y-81437100D03*
X126231000Y-81437100D03*
%TD*%
D22*
%TO.C,IC1*%
X133143500Y-97437100D03*
X133943500Y-97437100D03*
X134743500Y-97437100D03*
X135543500Y-97437100D03*
X136343500Y-97437100D03*
X137143500Y-97437100D03*
X137943500Y-97437100D03*
X138743500Y-97437100D03*
D23*
X139668500Y-95987100D03*
X139668500Y-95187100D03*
X139668500Y-94387100D03*
X139668500Y-93587100D03*
X139668500Y-92787100D03*
X139668500Y-91987100D03*
X139668500Y-91187100D03*
X139668500Y-90387100D03*
D22*
X138743500Y-88937100D03*
X137943500Y-88937100D03*
X137143500Y-88937100D03*
X136343500Y-88937100D03*
X135543500Y-88937100D03*
X134743500Y-88937100D03*
X133943500Y-88937100D03*
X133143500Y-88937100D03*
D23*
X131168500Y-90387100D03*
X131168500Y-91187100D03*
X131168500Y-91987100D03*
X131168500Y-92787100D03*
X131168500Y-93587100D03*
X131168500Y-94387100D03*
X131168500Y-95187100D03*
X131168500Y-95987100D03*
%TD*%
D17*
%TO.C,J2*%
X119293500Y-105627100D03*
D18*
X119293500Y-108167100D03*
X119293500Y-110707100D03*
X119293500Y-113247100D03*
%TD*%
M02*
