%TF.GenerationSoftware,KiCad,Pcbnew,9.0.1*%
%TF.CreationDate,2025-12-03T13:57:07+03:00*%
%TF.ProjectId,MCU Datalogger wirh 512KB EEPROM,4d435520-4461-4746-916c-6f6767657220,1*%
%TF.SameCoordinates,Original*%
%TF.FileFunction,Copper,L1,Top*%
%TF.FilePolarity,Positive*%
%FSLAX46Y46*%
G04 Gerber Fmt 4.6, Leading zero omitted, Abs format (unit mm)*
G04 Created by KiCad (PCBNEW 9.0.1) date 2025-12-03 13:57:07*
%MOMM*%
%LPD*%
G01*
G04 APERTURE LIST*
G04 Aperture macros list*
%AMRoundRect*
0 Rectangle with rounded corners*
0 $1 Rounding radius*
0 $2 $3 $4 $5 $6 $7 $8 $9 X,Y pos of 4 corners*
0 Add a 4 corners polygon primitive as box body*
4,1,4,$2,$3,$4,$5,$6,$7,$8,$9,$2,$3,0*
0 Add four circle primitives for the rounded corners*
1,1,$1+$1,$2,$3*
1,1,$1+$1,$4,$5*
1,1,$1+$1,$6,$7*
1,1,$1+$1,$8,$9*
0 Add four rect primitives between the rounded corners*
20,1,$1+$1,$2,$3,$4,$5,0*
20,1,$1+$1,$4,$5,$6,$7,0*
20,1,$1+$1,$6,$7,$8,$9,0*
20,1,$1+$1,$8,$9,$2,$3,0*%
G04 Aperture macros list end*
%TA.AperFunction,SMDPad,CuDef*%
%ADD10RoundRect,0.162500X-0.650000X-0.162500X0.650000X-0.162500X0.650000X0.162500X-0.650000X0.162500X0*%
%TD*%
%TA.AperFunction,SMDPad,CuDef*%
%ADD11RoundRect,0.250000X-0.325000X-0.650000X0.325000X-0.650000X0.325000X0.650000X-0.325000X0.650000X0*%
%TD*%
%TA.AperFunction,SMDPad,CuDef*%
%ADD12R,2.000000X2.400000*%
%TD*%
%TA.AperFunction,SMDPad,CuDef*%
%ADD13RoundRect,0.250000X0.625000X-0.375000X0.625000X0.375000X-0.625000X0.375000X-0.625000X-0.375000X0*%
%TD*%
%TA.AperFunction,SMDPad,CuDef*%
%ADD14RoundRect,0.250000X0.450000X-0.262500X0.450000X0.262500X-0.450000X0.262500X-0.450000X-0.262500X0*%
%TD*%
%TA.AperFunction,SMDPad,CuDef*%
%ADD15RoundRect,0.250000X-0.650000X0.325000X-0.650000X-0.325000X0.650000X-0.325000X0.650000X0.325000X0*%
%TD*%
%TA.AperFunction,ComponentPad*%
%ADD16R,1.700000X1.700000*%
%TD*%
%TA.AperFunction,ComponentPad*%
%ADD17C,1.700000*%
%TD*%
%TA.AperFunction,SMDPad,CuDef*%
%ADD18RoundRect,0.250000X-0.262500X-0.450000X0.262500X-0.450000X0.262500X0.450000X-0.262500X0.450000X0*%
%TD*%
%TA.AperFunction,SMDPad,CuDef*%
%ADD19RoundRect,0.078000X-0.182000X-0.492000X0.182000X-0.492000X0.182000X0.492000X-0.182000X0.492000X0*%
%TD*%
%TA.AperFunction,SMDPad,CuDef*%
%ADD20RoundRect,0.250000X0.375000X0.625000X-0.375000X0.625000X-0.375000X-0.625000X0.375000X-0.625000X0*%
%TD*%
%TA.AperFunction,SMDPad,CuDef*%
%ADD21R,0.550000X1.600000*%
%TD*%
%TA.AperFunction,SMDPad,CuDef*%
%ADD22R,1.600000X0.550000*%
%TD*%
%TA.AperFunction,ViaPad*%
%ADD23C,0.700000*%
%TD*%
%TA.AperFunction,ViaPad*%
%ADD24C,0.600000*%
%TD*%
%TA.AperFunction,Conductor*%
%ADD25C,0.250000*%
%TD*%
%TA.AperFunction,Conductor*%
%ADD26C,0.300000*%
%TD*%
%TA.AperFunction,Conductor*%
%ADD27C,0.200000*%
%TD*%
G04 APERTURE END LIST*
D10*
%TO.P,U2,1,A0*%
%TO.N,/Vcc*%
X146843500Y-86257100D03*
%TO.P,U2,2,A1*%
%TO.N,GND*%
X146843500Y-87527100D03*
%TO.P,U2,3,A2*%
%TO.N,/Vcc*%
X146843500Y-88797100D03*
%TO.P,U2,4,GND*%
%TO.N,GND*%
X146843500Y-90067100D03*
%TO.P,U2,5,SDA*%
%TO.N,/SDA*%
X154018500Y-90067100D03*
%TO.P,U2,6,SCL*%
%TO.N,/SCL*%
X154018500Y-88797100D03*
%TO.P,U2,7,WP*%
%TO.N,GND*%
X154018500Y-87527100D03*
%TO.P,U2,8,VCC*%
%TO.N,/Vcc*%
X154018500Y-86257100D03*
%TD*%
D11*
%TO.P,C5,1*%
%TO.N,/Vcc*%
X134443500Y-83587100D03*
%TO.P,C5,2*%
%TO.N,GND*%
X137393500Y-83587100D03*
%TD*%
D12*
%TO.P,Y1,1,1*%
%TO.N,Net-(IC1-PB7)*%
X138018500Y-101187100D03*
%TO.P,Y1,2,2*%
%TO.N,Net-(IC1-PB6)*%
X134318500Y-101187100D03*
%TD*%
D13*
%TO.P,D2,1,K*%
%TO.N,Net-(D2-K)*%
X145493500Y-96737100D03*
%TO.P,D2,2,A*%
%TO.N,/Vcc*%
X145493500Y-93937100D03*
%TD*%
D14*
%TO.P,R7,1*%
%TO.N,GND*%
X143718500Y-90899600D03*
%TO.P,R7,2*%
%TO.N,Net-(D1-K)*%
X143718500Y-89074600D03*
%TD*%
%TO.P,R4,1*%
%TO.N,/Vcc*%
X132043500Y-106137100D03*
%TO.P,R4,2*%
%TO.N,Net-(U3-!INTA)*%
X132043500Y-104312100D03*
%TD*%
D15*
%TO.P,C4,1*%
%TO.N,GND*%
X139593500Y-104012100D03*
%TO.P,C4,2*%
%TO.N,/Vcc*%
X139593500Y-106962100D03*
%TD*%
D14*
%TO.P,R6,1*%
%TO.N,/Vcc*%
X127843500Y-95174600D03*
%TO.P,R6,2*%
%TO.N,/RESET*%
X127843500Y-93349600D03*
%TD*%
D16*
%TO.P,J3,1,Pin_1*%
%TO.N,/D2*%
X157268500Y-87182100D03*
D17*
%TO.P,J3,2,Pin_2*%
%TO.N,/D3*%
X157268500Y-89722100D03*
%TO.P,J3,3,Pin_3*%
%TO.N,/D4*%
X157268500Y-92262100D03*
%TO.P,J3,4,Pin_4*%
%TO.N,/D5*%
X157268500Y-94802100D03*
%TO.P,J3,5,Pin_5*%
%TO.N,/D6*%
X157268500Y-97342100D03*
%TO.P,J3,6,Pin_6*%
%TO.N,/D7*%
X157268500Y-99882100D03*
%TO.P,J3,7,Pin_7*%
%TO.N,/D8*%
X157268500Y-102422100D03*
%TO.P,J3,8,Pin_8*%
%TO.N,GND*%
X157268500Y-104962100D03*
%TO.P,J3,9,Pin_9*%
%TO.N,/Vcc*%
X157268500Y-107502100D03*
%TD*%
D12*
%TO.P,Y2,1,1*%
%TO.N,Net-(U3-X1)*%
X134093500Y-116587100D03*
%TO.P,Y2,2,2*%
%TO.N,Net-(U3-X2)*%
X137793500Y-116587100D03*
%TD*%
D16*
%TO.P,BT1,1,+*%
%TO.N,/Vcc*%
X134828500Y-80162100D03*
D17*
%TO.P,BT1,2,-*%
%TO.N,GND*%
X137368500Y-80162100D03*
%TD*%
D16*
%TO.P,J1,1,Pin_1*%
%TO.N,GND*%
X119293500Y-93492100D03*
D17*
%TO.P,J1,2,Pin_2*%
%TO.N,/Vcc*%
X119293500Y-96032100D03*
%TO.P,J1,3,Pin_3*%
%TO.N,/SDA*%
X119293500Y-98572100D03*
%TO.P,J1,4,Pin_4*%
%TO.N,/SCL*%
X119293500Y-101112100D03*
%TD*%
D11*
%TO.P,C3,1*%
%TO.N,GND*%
X141418500Y-100812100D03*
%TO.P,C3,2*%
%TO.N,Net-(IC1-PB6)*%
X144368500Y-100812100D03*
%TD*%
%TO.P,C2,1*%
%TO.N,GND*%
X127745000Y-102140000D03*
%TO.P,C2,2*%
%TO.N,Net-(IC1-PB7)*%
X130695000Y-102140000D03*
%TD*%
D10*
%TO.P,U1,1,A0*%
%TO.N,/Vcc*%
X121768500Y-84067100D03*
%TO.P,U1,2,A1*%
X121768500Y-85337100D03*
%TO.P,U1,3,A2*%
X121768500Y-86607100D03*
%TO.P,U1,4,GND*%
%TO.N,GND*%
X121768500Y-87877100D03*
%TO.P,U1,5,SDA*%
%TO.N,/SDA*%
X128943500Y-87877100D03*
%TO.P,U1,6,SCL*%
%TO.N,/SCL*%
X128943500Y-86607100D03*
%TO.P,U1,7,WP*%
%TO.N,GND*%
X128943500Y-85337100D03*
%TO.P,U1,8,VCC*%
%TO.N,/Vcc*%
X128943500Y-84067100D03*
%TD*%
D14*
%TO.P,R5,1*%
%TO.N,/Vcc*%
X135991600Y-106347900D03*
%TO.P,R5,2*%
%TO.N,Net-(U3-SQW{slash}~INT)*%
X135991600Y-104522900D03*
%TD*%
%TO.P,R1,1*%
%TO.N,Net-(D2-K)*%
X148234400Y-96238700D03*
%TO.P,R1,2*%
%TO.N,GND*%
X148234400Y-94413700D03*
%TD*%
D18*
%TO.P,R3,1*%
%TO.N,/Vcc*%
X149743500Y-84012100D03*
%TO.P,R3,2*%
%TO.N,/SCL*%
X151568500Y-84012100D03*
%TD*%
D11*
%TO.P,C1,1*%
%TO.N,Net-(IC1-AREF)*%
X134443900Y-86431100D03*
%TO.P,C1,2*%
%TO.N,GND*%
X137393900Y-86431100D03*
%TD*%
D19*
%TO.P,U3,1,SCL*%
%TO.N,/SCL*%
X134083500Y-113449600D03*
%TO.P,U3,2,X1*%
%TO.N,Net-(U3-X1)*%
X135353500Y-113449600D03*
%TO.P,U3,3,SDA*%
%TO.N,/SDA*%
X136623500Y-113449600D03*
%TO.P,U3,4,X2*%
%TO.N,Net-(U3-X2)*%
X137893500Y-113449600D03*
%TO.P,U3,5,VCC*%
%TO.N,/Vcc*%
X137893500Y-108409600D03*
%TO.P,U3,6,!INTA*%
%TO.N,Net-(U3-!INTA)*%
X136623500Y-108409600D03*
%TO.P,U3,7,SQW/~INT*%
%TO.N,Net-(U3-SQW{slash}~INT)*%
X135353500Y-108409600D03*
%TO.P,U3,8,GND*%
%TO.N,GND*%
X134083500Y-108409600D03*
%TD*%
D16*
%TO.P,J4,1,Pin_1*%
%TO.N,/MISO*%
X117593500Y-88287100D03*
D17*
%TO.P,J4,2,Pin_2*%
%TO.N,/Vcc*%
X115053500Y-88287100D03*
%TO.P,J4,3,Pin_3*%
%TO.N,/SCK*%
X117593500Y-85747100D03*
%TO.P,J4,4,Pin_4*%
%TO.N,/MOSI*%
X115053500Y-85747100D03*
%TO.P,J4,5,Pin_5*%
%TO.N,/RESET*%
X117593500Y-83207100D03*
%TO.P,J4,6,Pin_6*%
%TO.N,GND*%
X115053500Y-83207100D03*
%TD*%
D20*
%TO.P,D1,1,K*%
%TO.N,Net-(D1-K)*%
X143693500Y-85887100D03*
%TO.P,D1,2,A*%
%TO.N,/SCK*%
X140893500Y-85887100D03*
%TD*%
D18*
%TO.P,R2,1*%
%TO.N,/Vcc*%
X124406000Y-81437100D03*
%TO.P,R2,2*%
%TO.N,/SDA*%
X126231000Y-81437100D03*
%TD*%
D21*
%TO.P,IC1,1,PD3*%
%TO.N,/D3*%
X133143500Y-97437100D03*
%TO.P,IC1,2,PD4*%
%TO.N,/D4*%
X133943500Y-97437100D03*
%TO.P,IC1,3,GND*%
%TO.N,GND*%
X134743500Y-97437100D03*
%TO.P,IC1,4,VCC*%
%TO.N,/Vcc*%
X135543500Y-97437100D03*
%TO.P,IC1,5,GND*%
%TO.N,GND*%
X136343500Y-97437100D03*
%TO.P,IC1,6,VCC*%
%TO.N,unconnected-(IC1-VCC-Pad6)*%
X137143500Y-97437100D03*
%TO.P,IC1,7,PB6*%
%TO.N,Net-(IC1-PB6)*%
X137943500Y-97437100D03*
%TO.P,IC1,8,PB7*%
%TO.N,Net-(IC1-PB7)*%
X138743500Y-97437100D03*
D22*
%TO.P,IC1,9,PD5*%
%TO.N,/D5*%
X139668500Y-95987100D03*
%TO.P,IC1,10,PD6*%
%TO.N,/D6*%
X139668500Y-95187100D03*
%TO.P,IC1,11,PD7*%
%TO.N,/D7*%
X139668500Y-94387100D03*
%TO.P,IC1,12,PB0*%
%TO.N,/D8*%
X139668500Y-93587100D03*
%TO.P,IC1,13,PB1*%
%TO.N,unconnected-(IC1-PB1-Pad13)*%
X139668500Y-92787100D03*
%TO.P,IC1,14,PB2*%
%TO.N,unconnected-(IC1-PB2-Pad14)*%
X139668500Y-91987100D03*
%TO.P,IC1,15,PB3*%
%TO.N,/MOSI*%
X139668500Y-91187100D03*
%TO.P,IC1,16,PB4*%
%TO.N,/MISO*%
X139668500Y-90387100D03*
D21*
%TO.P,IC1,17,PB5*%
%TO.N,/SCK*%
X138743500Y-88937100D03*
%TO.P,IC1,18,AVCC*%
%TO.N,/Vcc*%
X137943500Y-88937100D03*
%TO.P,IC1,19,ADC6*%
%TO.N,unconnected-(IC1-ADC6-Pad19)*%
X137143500Y-88937100D03*
%TO.P,IC1,20,AREF*%
%TO.N,Net-(IC1-AREF)*%
X136343500Y-88937100D03*
%TO.P,IC1,21,GND*%
%TO.N,GND*%
X135543500Y-88937100D03*
%TO.P,IC1,22,ADC7*%
%TO.N,unconnected-(IC1-ADC7-Pad22)*%
X134743500Y-88937100D03*
%TO.P,IC1,23,PC0*%
%TO.N,unconnected-(IC1-PC0-Pad23)*%
X133943500Y-88937100D03*
%TO.P,IC1,24,PC1*%
%TO.N,unconnected-(IC1-PC1-Pad24)*%
X133143500Y-88937100D03*
D22*
%TO.P,IC1,25,PC2*%
%TO.N,unconnected-(IC1-PC2-Pad25)*%
X131168500Y-90387100D03*
%TO.P,IC1,26,PC3*%
%TO.N,unconnected-(IC1-PC3-Pad26)*%
X131168500Y-91187100D03*
%TO.P,IC1,27,PC4*%
%TO.N,/SDA*%
X131168500Y-91987100D03*
%TO.P,IC1,28,PC5*%
%TO.N,/SCL*%
X131168500Y-92787100D03*
%TO.P,IC1,29,PC6*%
%TO.N,/RESET*%
X131168500Y-93587100D03*
%TO.P,IC1,30,PD0*%
%TO.N,/RX*%
X131168500Y-94387100D03*
%TO.P,IC1,31,PD1*%
%TO.N,/TX*%
X131168500Y-95187100D03*
%TO.P,IC1,32,PD2*%
%TO.N,/D2*%
X131168500Y-95987100D03*
%TD*%
D16*
%TO.P,J2,1,Pin_1*%
%TO.N,GND*%
X119293500Y-105627100D03*
D17*
%TO.P,J2,2,Pin_2*%
%TO.N,/Vcc*%
X119293500Y-108167100D03*
%TO.P,J2,3,Pin_3*%
%TO.N,/RX*%
X119293500Y-110707100D03*
%TO.P,J2,4,Pin_4*%
%TO.N,/TX*%
X119293500Y-113247100D03*
%TD*%
D23*
%TO.N,GND*%
X134725100Y-109462100D03*
X150092100Y-94863900D03*
X153063900Y-104363500D03*
X125377900Y-101442500D03*
X141278300Y-104084100D03*
X147196500Y-91512100D03*
X138093500Y-106687100D03*
X133543500Y-104058700D03*
X145253400Y-88399600D03*
X135944300Y-86050100D03*
X140008300Y-100832900D03*
X117478500Y-90212100D03*
X121567900Y-105277900D03*
X130838900Y-100223300D03*
X132108900Y-82849700D03*
X153800500Y-100350300D03*
X121821900Y-89733100D03*
X144427900Y-90393500D03*
X132032700Y-87040700D03*
X136655500Y-95778300D03*
%TO.N,/Vcc*%
X140744900Y-80360500D03*
X147320725Y-84554275D03*
D24*
%TO.N,/SCK*%
X137520000Y-92820000D03*
X140050000Y-88910000D03*
X126390000Y-96580000D03*
X128020000Y-99690000D03*
X138030000Y-90580000D03*
X120280000Y-103530000D03*
X115310000Y-102340000D03*
%TO.N,/SDA*%
X132489900Y-91104700D03*
X122380700Y-96210100D03*
X136274500Y-90291900D03*
X134064700Y-90266500D03*
X124666700Y-92749600D03*
X150142900Y-90291900D03*
%TO.N,/RX*%
X129543500Y-94737100D03*
%TO.N,/D2*%
X145068500Y-87387100D03*
X136118500Y-93062100D03*
X132616900Y-95803700D03*
X136368500Y-91612100D03*
X148268500Y-82062100D03*
%TO.N,/D7*%
X143693500Y-92212100D03*
%TO.N,/TX*%
X137868500Y-93762100D03*
%TO.N,/MOSI*%
X142468500Y-92737100D03*
%TO.N,/D5*%
X139793500Y-96812100D03*
X139818500Y-98312100D03*
X142718500Y-106802100D03*
X142469973Y-98362100D03*
X142268500Y-103762100D03*
%TO.N,/D6*%
X143843500Y-97018431D03*
%TO.N,/D4*%
X154018500Y-93337100D03*
X128868500Y-97462100D03*
X144743500Y-105987100D03*
%TO.N,/SCL*%
X153063900Y-84754700D03*
X150447700Y-81274900D03*
X129493500Y-92841100D03*
X130051500Y-82087700D03*
X130330900Y-87396300D03*
X130393500Y-115737100D03*
X131118500Y-85562100D03*
%TO.N,/D3*%
X140668500Y-82362100D03*
X145793500Y-82037100D03*
X134743500Y-91187100D03*
X133941500Y-95762100D03*
X136593500Y-94162100D03*
%TO.N,/D8*%
X142643500Y-94312100D03*
%TO.N,/MISO*%
X139443500Y-83612100D03*
%TD*%
D25*
%TO.N,GND*%
X137393500Y-83587100D02*
X137393500Y-85007300D01*
X134979100Y-96261100D02*
X134892500Y-96347700D01*
X154594300Y-91485700D02*
X148274900Y-91485700D01*
X137393900Y-86431100D02*
X136325300Y-86431100D01*
X139593500Y-104012100D02*
X138093500Y-105512100D01*
X134892500Y-96703100D02*
X134743500Y-96852100D01*
X149082800Y-94863900D02*
X148632600Y-94413700D01*
X134725100Y-109051200D02*
X134083500Y-108409600D01*
X136343500Y-96090300D02*
X136655500Y-95778300D01*
X155502300Y-88198401D02*
X155502300Y-90577700D01*
X129407300Y-100223300D02*
X130838900Y-100223300D01*
X129398900Y-84881700D02*
X132591500Y-84881700D01*
X119293500Y-105627100D02*
X121218700Y-105627100D01*
X155502300Y-90577700D02*
X154594300Y-91485700D01*
X135543500Y-87887100D02*
X135363500Y-87707100D01*
X140008300Y-100832900D02*
X141397700Y-100832900D01*
X127745000Y-101885600D02*
X129407300Y-100223300D01*
X148274900Y-91485700D02*
X148268500Y-91492100D01*
X121218700Y-105627100D02*
X121567900Y-105277900D01*
X154830999Y-87527100D02*
X155502300Y-88198401D01*
X138093500Y-105512100D02*
X138093500Y-106687100D01*
X134083500Y-108409600D02*
X133619500Y-107945600D01*
X125911300Y-101442500D02*
X126355900Y-101887100D01*
X119293500Y-93492100D02*
X119293500Y-92027100D01*
X132591500Y-84881700D02*
X132997900Y-85288100D01*
X136655500Y-95778300D02*
X135817300Y-95778300D01*
X136325300Y-86431100D02*
X135944300Y-86050100D01*
X132108900Y-77922100D02*
X132108900Y-82849700D01*
X153800500Y-103626900D02*
X153063900Y-104363500D01*
X135817300Y-95778300D02*
X135334500Y-96261100D01*
X119293500Y-92027100D02*
X117478500Y-90212100D01*
X135543500Y-88937100D02*
X135543500Y-87887100D01*
X148268500Y-91492100D02*
X148268500Y-94379600D01*
X137315900Y-85186500D02*
X137443500Y-85314100D01*
X137368500Y-80162100D02*
X134645900Y-77439500D01*
X133061400Y-85224600D02*
X133201100Y-85084900D01*
X132699100Y-87707100D02*
X132032700Y-87040700D01*
X134892500Y-96347700D02*
X134892500Y-96703100D01*
X153800500Y-101494100D02*
X153800500Y-100350300D01*
X148274900Y-91485700D02*
X147222900Y-91485700D01*
X137315900Y-85084900D02*
X137315900Y-85186500D01*
X141206300Y-104012100D02*
X141278300Y-104084100D01*
X139593500Y-104012100D02*
X141206300Y-104012100D01*
X121821900Y-89733100D02*
X121821900Y-87930500D01*
X135363500Y-87707100D02*
X132699100Y-87707100D01*
X146125900Y-87527100D02*
X146843500Y-87527100D01*
X137443500Y-86381500D02*
X137393900Y-86431100D01*
X132032700Y-87040700D02*
X132032700Y-86253300D01*
X137393500Y-85007300D02*
X137315900Y-85084900D01*
X133201100Y-85084900D02*
X137315900Y-85084900D01*
X148268500Y-94379600D02*
X148234400Y-94413700D01*
X134645900Y-77439500D02*
X132591500Y-77439500D01*
X132591500Y-77439500D02*
X132108900Y-77922100D01*
X132032700Y-86253300D02*
X133061400Y-85224600D01*
X153800500Y-101494100D02*
X153800500Y-103626900D01*
X134743500Y-96852100D02*
X134743500Y-97437100D01*
X136343500Y-97437100D02*
X136343500Y-96090300D01*
X127745000Y-102140000D02*
X127745000Y-101885600D01*
X154018500Y-87527100D02*
X154830999Y-87527100D01*
X146843500Y-90067100D02*
X148268500Y-91492100D01*
X128943500Y-85337100D02*
X129398900Y-84881700D01*
X126355900Y-101887100D02*
X127492100Y-101887100D01*
X133619500Y-104134700D02*
X133543500Y-104058700D01*
X135334500Y-96261100D02*
X134979100Y-96261100D01*
X125377900Y-101442500D02*
X125911300Y-101442500D01*
X121821900Y-87930500D02*
X121768500Y-87877100D01*
X134725100Y-109462100D02*
X134725100Y-109051200D01*
X141397700Y-100832900D02*
X141418500Y-100812100D01*
X143921800Y-90899600D02*
X144427900Y-90393500D01*
X137443500Y-85314100D02*
X137443500Y-86381500D01*
X148632600Y-94413700D02*
X148234400Y-94413700D01*
X145253400Y-88399600D02*
X146125900Y-87527100D01*
X147222900Y-91485700D02*
X147196500Y-91512100D01*
X150092100Y-94863900D02*
X149082800Y-94863900D01*
X133619500Y-107945600D02*
X133619500Y-104134700D01*
X132997900Y-85288100D02*
X133061400Y-85224600D01*
X127492100Y-101887100D02*
X127745000Y-102140000D01*
X143718500Y-90899600D02*
X143921800Y-90899600D01*
D26*
%TO.N,/Vcc*%
X147529475Y-84554275D02*
X147320725Y-84554275D01*
X125073100Y-95174600D02*
X127843500Y-95174600D01*
X124406000Y-80099600D02*
X124406000Y-81437100D01*
X128943500Y-79537100D02*
X128893500Y-79487100D01*
X125073100Y-95174600D02*
X125073100Y-99283500D01*
D25*
X137943500Y-88937100D02*
X137943500Y-87884900D01*
D26*
X139593500Y-106887100D02*
X139541000Y-106834600D01*
X157268500Y-107502100D02*
X140233500Y-107502100D01*
X134828500Y-80162100D02*
X134828500Y-82113100D01*
X124398500Y-81437100D02*
X121768500Y-84067100D01*
D25*
X138395700Y-87154700D02*
X139271700Y-86278700D01*
D26*
X124406000Y-81437100D02*
X124398500Y-81437100D01*
X151193500Y-81812100D02*
X149743500Y-83262100D01*
X154018500Y-81837100D02*
X153993500Y-81812100D01*
D25*
X134980900Y-82265500D02*
X134828500Y-82113100D01*
X139271700Y-86278700D02*
X139271700Y-84881700D01*
X137943500Y-87884900D02*
X138035926Y-87884900D01*
D26*
X148037900Y-85062700D02*
X147529475Y-84554275D01*
X145493500Y-93937100D02*
X145218500Y-93662100D01*
X129593500Y-99387100D02*
X134770500Y-99387100D01*
X115053500Y-89077100D02*
X115043500Y-89087100D01*
X119293500Y-96032100D02*
X120151000Y-95174600D01*
X125018500Y-79487100D02*
X124406000Y-80099600D01*
X123396700Y-100959900D02*
X130661100Y-108224300D01*
D25*
X138395700Y-87525126D02*
X138395700Y-87154700D01*
D26*
X124406000Y-84499600D02*
X124406000Y-81437100D01*
D25*
X138509700Y-84119700D02*
X138509700Y-82265500D01*
D26*
X141402900Y-119487100D02*
X143518500Y-117371500D01*
X120151000Y-95174600D02*
X125073100Y-95174600D01*
X130661100Y-108833900D02*
X132018100Y-108833900D01*
X149088500Y-84012100D02*
X148037900Y-85062700D01*
X132043500Y-106137100D02*
X132043500Y-108859300D01*
X149743500Y-84012100D02*
X149088500Y-84012100D01*
X115700500Y-79090500D02*
X116970500Y-79090500D01*
X128943500Y-84067100D02*
X128943500Y-79537100D01*
X127843500Y-97637100D02*
X129593500Y-99387100D01*
X132043500Y-110063500D02*
X132917100Y-110937100D01*
X145218500Y-93662100D02*
X145218500Y-89512100D01*
X139468500Y-106834600D02*
X137893500Y-108409600D01*
X131777100Y-119487100D02*
X141402900Y-119487100D01*
X137893500Y-107737100D02*
X136504300Y-106347900D01*
D25*
X138035926Y-87884900D02*
X138395700Y-87525126D01*
D26*
X136943500Y-110937100D02*
X137893500Y-109987100D01*
X134770500Y-99387100D02*
X135543500Y-98614100D01*
X115043500Y-89087100D02*
X115043500Y-95106500D01*
X119293500Y-108167100D02*
X120457100Y-108167100D01*
X128893500Y-79487100D02*
X125018500Y-79487100D01*
X139541000Y-106834600D02*
X139468500Y-106834600D01*
X121768500Y-86607100D02*
X124223500Y-86607100D01*
X112296900Y-82494100D02*
X115700500Y-79090500D01*
X139618500Y-106937100D02*
X139593500Y-106962100D01*
X128943500Y-84067100D02*
X133963500Y-84067100D01*
X134828500Y-82113100D02*
X134828500Y-83202100D01*
D25*
X138509700Y-82265500D02*
X134980900Y-82265500D01*
D26*
X148258500Y-88797100D02*
X149743500Y-87312100D01*
X133963500Y-84067100D02*
X134443500Y-83587100D01*
X138839900Y-82265500D02*
X138509700Y-82265500D01*
X115040000Y-95110000D02*
X115962100Y-96032100D01*
X139618500Y-106887100D02*
X139618500Y-106937100D01*
X134828500Y-83202100D02*
X134443500Y-83587100D01*
X153993500Y-81812100D02*
X151193500Y-81812100D01*
X146843500Y-88797100D02*
X148258500Y-88797100D01*
X149743500Y-87312100D02*
X149743500Y-84012100D01*
X137893500Y-108409600D02*
X137893500Y-107737100D01*
X125073100Y-99283500D02*
X123396700Y-100959900D01*
X148037900Y-85062700D02*
X146843500Y-86257100D01*
X145933500Y-88797100D02*
X146843500Y-88797100D01*
X154018500Y-86257100D02*
X154018500Y-81837100D01*
X120457100Y-108167100D02*
X131777100Y-119487100D01*
X140744900Y-80360500D02*
X138839900Y-82265500D01*
X116970500Y-79090500D02*
X119317100Y-81437100D01*
X115962100Y-96032100D02*
X119293500Y-96032100D01*
X140233500Y-107502100D02*
X139618500Y-106887100D01*
X143518500Y-110787100D02*
X139618500Y-106887100D01*
X124223500Y-86607100D02*
X124406000Y-86424600D01*
D25*
X139271700Y-84881700D02*
X138509700Y-84119700D01*
D26*
X136504300Y-106347900D02*
X135991600Y-106347900D01*
X139593500Y-106962100D02*
X139593500Y-106887100D01*
X119317100Y-81437100D02*
X124406000Y-81437100D01*
X143518500Y-117371500D02*
X143518500Y-110787100D01*
X153603878Y-86257100D02*
X154018500Y-86257100D01*
X137893500Y-109987100D02*
X137893500Y-108409600D01*
X115053500Y-88287100D02*
X113847100Y-88287100D01*
X121768500Y-85337100D02*
X123568500Y-85337100D01*
X130661100Y-108224300D02*
X130661100Y-108833900D01*
X132043500Y-108859300D02*
X132043500Y-110063500D01*
X149743500Y-83262100D02*
X149743500Y-84012100D01*
X145218500Y-89512100D02*
X145933500Y-88797100D01*
X127843500Y-95174600D02*
X127843500Y-97637100D01*
X112300000Y-86740000D02*
X112296900Y-86743100D01*
X115053500Y-88287100D02*
X115053500Y-89077100D01*
X135543500Y-98614100D02*
X135543500Y-97437100D01*
X112296900Y-86743100D02*
X112296900Y-82494100D01*
X132917100Y-110937100D02*
X136943500Y-110937100D01*
X115043500Y-95106500D02*
X115040000Y-95110000D01*
X123568500Y-85337100D02*
X124406000Y-84499600D01*
X113847100Y-88287100D02*
X112300000Y-86740000D01*
X124406000Y-86424600D02*
X124406000Y-84499600D01*
D27*
%TO.N,Net-(IC1-AREF)*%
X134443900Y-86431100D02*
X134560500Y-86431100D01*
X135043500Y-86487100D02*
X136343500Y-87787100D01*
X136343500Y-87787100D02*
X136343500Y-88937100D01*
X134560500Y-86431100D02*
X134616500Y-86487100D01*
X134616500Y-86487100D02*
X135043500Y-86487100D01*
%TO.N,Net-(IC1-PB7)*%
X130947900Y-101887100D02*
X131468500Y-101887100D01*
X143593500Y-98637100D02*
X142393500Y-97437100D01*
X138018500Y-101187100D02*
X138093500Y-101112100D01*
X146468500Y-98637100D02*
X143593500Y-98637100D01*
X137743500Y-101112100D02*
X137943500Y-101112100D01*
X137718500Y-101137100D02*
X137743500Y-101112100D01*
X132493500Y-102912100D02*
X137418500Y-102912100D01*
X138093500Y-101112100D02*
X139268500Y-101112100D01*
X146443500Y-102887100D02*
X146468500Y-102862100D01*
X137418500Y-102912100D02*
X137418500Y-101237100D01*
X146468500Y-102862100D02*
X146468500Y-98637100D01*
X131468500Y-101887100D02*
X132493500Y-102912100D01*
X138243500Y-100812100D02*
X137968500Y-101087100D01*
X137943500Y-101112100D02*
X138018500Y-101187100D01*
X130695000Y-102140000D02*
X130947900Y-101887100D01*
X137968500Y-101087100D02*
X137968500Y-101137100D01*
X137418500Y-101237100D02*
X137518500Y-101137100D01*
X137968500Y-101137100D02*
X138018500Y-101187100D01*
X137518500Y-101137100D02*
X137718500Y-101137100D01*
X139268500Y-101112100D02*
X141043500Y-102887100D01*
X142393500Y-97437100D02*
X138743500Y-97437100D01*
X141043500Y-102887100D02*
X146443500Y-102887100D01*
%TO.N,Net-(IC1-PB6)*%
X138468500Y-98962100D02*
X137943500Y-98437100D01*
X144368500Y-100812100D02*
X142518500Y-98962100D01*
X137943500Y-98410100D02*
X137943500Y-97437100D01*
X134443500Y-101287100D02*
X135066500Y-101287100D01*
X134343500Y-101187100D02*
X134443500Y-101287100D01*
X142518500Y-98962100D02*
X138468500Y-98962100D01*
X137943500Y-98437100D02*
X137943500Y-97437100D01*
X134318500Y-101187100D02*
X134343500Y-101187100D01*
X135066500Y-101287100D02*
X137943500Y-98410100D01*
%TO.N,/SCK*%
X137520000Y-90160600D02*
X137939400Y-90580000D01*
X139580300Y-88100300D02*
X140893500Y-86787100D01*
X140050000Y-88570000D02*
X139580300Y-88100300D01*
X126390000Y-98060000D02*
X126390000Y-96580000D01*
X137520000Y-92820000D02*
X137520000Y-90160600D01*
X119090000Y-102340000D02*
X120280000Y-103530000D01*
X137939400Y-90580000D02*
X138030000Y-90580000D01*
X138743500Y-88937100D02*
X139580300Y-88100300D01*
X128020000Y-99690000D02*
X126390000Y-98060000D01*
X115310000Y-102340000D02*
X119090000Y-102340000D01*
X140893500Y-86787100D02*
X140893500Y-85887100D01*
X140050000Y-88910000D02*
X140050000Y-88570000D01*
%TO.N,Net-(D1-K)*%
X143693500Y-89049600D02*
X143718500Y-89074600D01*
X143693500Y-85887100D02*
X143693500Y-89049600D01*
%TO.N,Net-(D2-K)*%
X147666900Y-96238700D02*
X148234400Y-96238700D01*
X147193500Y-96712100D02*
X147666900Y-96238700D01*
X145493500Y-96737100D02*
X145518500Y-96712100D01*
X145518500Y-96712100D02*
X147193500Y-96712100D01*
%TO.N,/SDA*%
X128943500Y-87877100D02*
X128131001Y-87877100D01*
X136623500Y-112792100D02*
X135643500Y-111812100D01*
X132489900Y-91409500D02*
X131912300Y-91987100D01*
X119343500Y-99687100D02*
X119293500Y-99637100D01*
X119293500Y-99637100D02*
X119293500Y-98572100D01*
X132489900Y-91104700D02*
X132489900Y-91409500D01*
X134090100Y-90291900D02*
X134064700Y-90266500D01*
X131468500Y-111812100D02*
X120693500Y-101037100D01*
X153793700Y-90291900D02*
X150142900Y-90291900D01*
X128943500Y-87877100D02*
X128943500Y-91937100D01*
X120693500Y-99687100D02*
X119343500Y-99687100D01*
X136274500Y-90291900D02*
X134090100Y-90291900D01*
X120693500Y-101037100D02*
X120693500Y-99687100D01*
X128943500Y-91937100D02*
X129018500Y-92012100D01*
X135643500Y-111812100D02*
X131468500Y-111812100D01*
X131912300Y-91987100D02*
X131168500Y-91987100D01*
X120693500Y-97897300D02*
X122380700Y-96210100D01*
X154018500Y-90067100D02*
X153793700Y-90291900D01*
X129018500Y-92012100D02*
X129043500Y-91987100D01*
X120693500Y-99687100D02*
X120693500Y-97897300D01*
X131143500Y-92012100D02*
X131168500Y-91987100D01*
X128131001Y-87877100D02*
X126231000Y-85977099D01*
X129043500Y-91987100D02*
X131168500Y-91987100D01*
X136623500Y-113449600D02*
X136623500Y-112792100D01*
X126231000Y-85977099D02*
X126231000Y-81437100D01*
X124666700Y-92749600D02*
X124666700Y-92153900D01*
X124666700Y-92153900D02*
X128943500Y-87877100D01*
%TO.N,/RX*%
X129543500Y-94737100D02*
X129893500Y-94387100D01*
X129893500Y-94387100D02*
X131168500Y-94387100D01*
%TO.N,/D2*%
X136368500Y-92812100D02*
X136118500Y-93062100D01*
X136368500Y-91612100D02*
X136368500Y-92812100D01*
X132433500Y-95987100D02*
X131168500Y-95987100D01*
X132616900Y-95803700D02*
X132433500Y-95987100D01*
X148268500Y-82062100D02*
X146118500Y-84212100D01*
X146118500Y-84212100D02*
X145143500Y-84212100D01*
X145143500Y-84212100D02*
X145143500Y-87312100D01*
X145143500Y-87312100D02*
X145068500Y-87387100D01*
%TO.N,/D7*%
X143693500Y-92212100D02*
X143668500Y-92237100D01*
X141595500Y-94387100D02*
X139668500Y-94387100D01*
X142993500Y-95262100D02*
X142470500Y-95262100D01*
X143668500Y-92237100D02*
X143668500Y-94587100D01*
X143668500Y-94587100D02*
X142993500Y-95262100D01*
X142470500Y-95262100D02*
X141595500Y-94387100D01*
%TO.N,/TX*%
X137843500Y-93891100D02*
X137843500Y-94965500D01*
X131390100Y-94965500D02*
X131168500Y-95187100D01*
X137843500Y-94965500D02*
X131390100Y-94965500D01*
X137972500Y-93762100D02*
X137843500Y-93891100D01*
X137868500Y-93762100D02*
X137972500Y-93762100D01*
%TO.N,/RESET*%
X123281000Y-93349600D02*
X127843500Y-93349600D01*
X120093500Y-90237100D02*
X120168500Y-90237100D01*
X117593500Y-83207100D02*
X120093500Y-85707100D01*
X127843500Y-93349600D02*
X128081000Y-93587100D01*
X120168500Y-90237100D02*
X123281000Y-93349600D01*
X128081000Y-93587100D02*
X131168500Y-93587100D01*
X120093500Y-85707100D02*
X120093500Y-90237100D01*
X117593500Y-83207100D02*
X117628500Y-83172100D01*
%TO.N,/MOSI*%
X142468500Y-92737100D02*
X142468500Y-91937100D01*
X142468500Y-91937100D02*
X141718500Y-91187100D01*
X141718500Y-91187100D02*
X139668500Y-91187100D01*
%TO.N,/D5*%
X142268500Y-106352100D02*
X142268500Y-103762100D01*
X139793500Y-96112100D02*
X139668500Y-95987100D01*
X139793500Y-96812100D02*
X139793500Y-96112100D01*
X142718500Y-106802100D02*
X142268500Y-106352100D01*
X139818500Y-98137100D02*
X139818500Y-98312100D01*
X142469973Y-98362100D02*
X140043500Y-98362100D01*
X140043500Y-98362100D02*
X139818500Y-98137100D01*
%TO.N,/D6*%
X141443500Y-95187100D02*
X139668500Y-95187100D01*
X143843500Y-97018431D02*
X143843500Y-96712100D01*
X142293500Y-96037100D02*
X141443500Y-95187100D01*
X143843500Y-96712100D02*
X143168500Y-96037100D01*
X143168500Y-96037100D02*
X142293500Y-96037100D01*
%TO.N,/D4*%
X144743500Y-105987100D02*
X145193500Y-105987100D01*
X128868500Y-97462100D02*
X129944500Y-98538100D01*
X154018500Y-97162100D02*
X154018500Y-93337100D01*
X133842500Y-98538100D02*
X133943500Y-98437100D01*
X133943500Y-98437100D02*
X133943500Y-97437100D01*
X129944500Y-98538100D02*
X133842500Y-98538100D01*
X145193500Y-105987100D02*
X154018500Y-97162100D01*
%TO.N,/SCL*%
X131631000Y-113449600D02*
X119293500Y-101112100D01*
X145723300Y-76550500D02*
X131279500Y-76550500D01*
X131279500Y-76550500D02*
X130153100Y-77676900D01*
X151568500Y-87159599D02*
X153206001Y-88797100D01*
X130153100Y-81986100D02*
X130051500Y-82087700D01*
X131118500Y-85562100D02*
X130073500Y-86607100D01*
X134083500Y-113449600D02*
X131631000Y-113449600D01*
X130393500Y-115737100D02*
X130718500Y-115412100D01*
X131168500Y-92787100D02*
X132331500Y-92787100D01*
X151568500Y-86250100D02*
X153063900Y-84754700D01*
X132121000Y-115412100D02*
X134083500Y-113449600D01*
X132331500Y-92787100D02*
X133429700Y-91688900D01*
X130330900Y-87396300D02*
X130330900Y-86349700D01*
X131114500Y-92841100D02*
X131168500Y-92787100D01*
X130330900Y-86349700D02*
X131118500Y-85562100D01*
X130073500Y-86607100D02*
X128943500Y-86607100D01*
X151568500Y-87159599D02*
X151568500Y-86250100D01*
X151568500Y-84012100D02*
X151568500Y-87159599D01*
X153206001Y-88797100D02*
X154018500Y-88797100D01*
X131118500Y-88579610D02*
X131118500Y-85562100D01*
X133429700Y-90890810D02*
X131118500Y-88579610D01*
X150447700Y-81274900D02*
X145723300Y-76550500D01*
X133429700Y-91688900D02*
X133429700Y-90890810D01*
X130153100Y-77676900D02*
X130153100Y-81986100D01*
X129493500Y-92841100D02*
X131114500Y-92841100D01*
X130718500Y-115412100D02*
X132121000Y-115412100D01*
%TO.N,/D3*%
X133941500Y-95762100D02*
X133143500Y-96560100D01*
X134743500Y-91187100D02*
X134743500Y-94062100D01*
X136493500Y-94062100D02*
X136593500Y-94162100D01*
X133143500Y-96560100D02*
X133143500Y-97437100D01*
X140993500Y-82037100D02*
X140668500Y-82362100D01*
X134743500Y-94062100D02*
X136493500Y-94062100D01*
X145793500Y-82037100D02*
X140993500Y-82037100D01*
%TO.N,/D8*%
X142643500Y-94312100D02*
X141918500Y-93587100D01*
X141918500Y-93587100D02*
X139668500Y-93587100D01*
%TO.N,/MISO*%
X140743500Y-90387100D02*
X139668500Y-90387100D01*
X142318500Y-84837100D02*
X142318500Y-88812100D01*
X142318500Y-88812100D02*
X140743500Y-90387100D01*
X141093500Y-83612100D02*
X142318500Y-84837100D01*
X139443500Y-83612100D02*
X141093500Y-83612100D01*
%TO.N,Net-(U3-!INTA)*%
X133143500Y-105412100D02*
X132043500Y-104312100D01*
X136623500Y-108409600D02*
X136623500Y-108807100D01*
X136623500Y-108807100D02*
X135268500Y-110162100D01*
X135268500Y-110162100D02*
X133143500Y-110162100D01*
X133143500Y-110162100D02*
X133143500Y-105412100D01*
%TO.N,Net-(U3-SQW{slash}~INT)*%
X135353500Y-108022100D02*
X135353500Y-108409600D01*
X134243500Y-103387100D02*
X134243500Y-106912100D01*
X135991600Y-104522900D02*
X135991600Y-104285200D01*
X134243500Y-106912100D02*
X135353500Y-108022100D01*
X135991600Y-104285200D02*
X135093500Y-103387100D01*
X135093500Y-103387100D02*
X134243500Y-103387100D01*
%TO.N,Net-(U3-X1)*%
X135353500Y-115327100D02*
X135353500Y-113449600D01*
X134093500Y-116587100D02*
X135353500Y-115327100D01*
%TO.N,Net-(U3-X2)*%
X137893500Y-116487100D02*
X137893500Y-113449600D01*
X137793500Y-116587100D02*
X137893500Y-116487100D01*
%TD*%
%TA.AperFunction,Conductor*%
%TO.N,GND*%
G36*
X137401259Y-83597321D02*
G01*
X137404576Y-83600343D01*
X137944444Y-84326685D01*
X137946629Y-84335369D01*
X137944946Y-84339912D01*
X137450953Y-85122062D01*
X137443638Y-85127227D01*
X137434813Y-85125706D01*
X137432788Y-85124087D01*
X137267120Y-84958419D01*
X137265758Y-84956784D01*
X136896020Y-84420114D01*
X136894149Y-84411357D01*
X136895654Y-84407403D01*
X137385186Y-83601247D01*
X137392409Y-83595956D01*
X137401259Y-83597321D01*
G37*
%TD.AperFunction*%
%TD*%
%TA.AperFunction,Conductor*%
%TO.N,GND*%
G36*
X136826961Y-85834754D02*
G01*
X136827132Y-85834930D01*
X137386535Y-86423317D01*
X137389752Y-86431674D01*
X137386118Y-86439858D01*
X137386107Y-86439868D01*
X136826328Y-86970762D01*
X136817967Y-86973969D01*
X136810931Y-86971380D01*
X136189487Y-86470102D01*
X136185199Y-86462240D01*
X136187726Y-86453649D01*
X136188551Y-86452731D01*
X136356129Y-86285154D01*
X136810416Y-85834683D01*
X136818702Y-85831292D01*
X136826961Y-85834754D01*
G37*
%TD.AperFunction*%
%TD*%
%TA.AperFunction,Conductor*%
%TO.N,GND*%
G36*
X139594134Y-104014842D02*
G01*
X139597516Y-104019416D01*
X139827304Y-104576510D01*
X139827291Y-104585464D01*
X139821178Y-104591690D01*
X138707618Y-105078873D01*
X138698665Y-105079050D01*
X138694655Y-105076427D01*
X138528008Y-104909780D01*
X138524581Y-104901507D01*
X138524832Y-104899100D01*
X138691729Y-104107328D01*
X138696788Y-104099940D01*
X138702042Y-104098097D01*
X139585569Y-104012232D01*
X139594134Y-104014842D01*
G37*
%TD.AperFunction*%
%TD*%
%TA.AperFunction,Conductor*%
%TO.N,GND*%
G36*
X148932365Y-94141432D02*
G01*
X148937114Y-94145207D01*
X149373917Y-94735800D01*
X149376210Y-94742756D01*
X149376210Y-94976593D01*
X149372783Y-94984866D01*
X149364510Y-94988293D01*
X149363919Y-94988278D01*
X148149500Y-94926877D01*
X148141411Y-94923037D01*
X148138406Y-94914601D01*
X148138596Y-94913010D01*
X148170922Y-94742756D01*
X148232197Y-94420031D01*
X148237107Y-94412544D01*
X148239390Y-94411335D01*
X148923414Y-94141282D01*
X148932365Y-94141432D01*
G37*
%TD.AperFunction*%
%TD*%
%TA.AperFunction,Conductor*%
%TO.N,GND*%
G36*
X134343067Y-108305785D02*
G01*
X134348641Y-108310651D01*
X134611150Y-108757256D01*
X134612388Y-108766125D01*
X134609336Y-108771458D01*
X134441371Y-108939423D01*
X134435630Y-108942573D01*
X134305256Y-108971467D01*
X134296437Y-108969911D01*
X134291774Y-108964165D01*
X134283648Y-108942573D01*
X134086794Y-108419523D01*
X134087087Y-108410575D01*
X134093301Y-108404580D01*
X134334113Y-108305756D01*
X134343067Y-108305785D01*
G37*
%TD.AperFunction*%
%TD*%
%TA.AperFunction,Conductor*%
%TO.N,GND*%
G36*
X120151717Y-104784108D02*
G01*
X120989393Y-105498597D01*
X120993463Y-105506572D01*
X120993500Y-105507498D01*
X120993500Y-105746701D01*
X120990073Y-105754974D01*
X120989393Y-105755603D01*
X120151718Y-106470090D01*
X120143199Y-106472851D01*
X120135857Y-106469466D01*
X119420524Y-105754974D01*
X119300786Y-105635376D01*
X119297355Y-105627107D01*
X119300776Y-105618833D01*
X120135858Y-104784732D01*
X120144132Y-104781311D01*
X120151717Y-104784108D01*
G37*
%TD.AperFunction*%
%TD*%
%TA.AperFunction,Conductor*%
%TO.N,GND*%
G36*
X140850906Y-100254675D02*
G01*
X141109462Y-100508152D01*
X141411130Y-100803895D01*
X141414638Y-100812134D01*
X141411294Y-100820441D01*
X141411280Y-100820455D01*
X140850743Y-101390239D01*
X140842498Y-101393734D01*
X140835295Y-101391328D01*
X140273093Y-100961412D01*
X140268603Y-100953664D01*
X140268500Y-100952118D01*
X140268500Y-100713519D01*
X140271927Y-100705246D01*
X140272880Y-100704391D01*
X140835404Y-100253898D01*
X140844002Y-100251402D01*
X140850906Y-100254675D01*
G37*
%TD.AperFunction*%
%TD*%
%TA.AperFunction,Conductor*%
%TO.N,GND*%
G36*
X128598887Y-100866205D02*
G01*
X128764851Y-101032169D01*
X128768278Y-101040442D01*
X128767636Y-101044265D01*
X128323818Y-102327800D01*
X128317875Y-102334500D01*
X128308953Y-102335040D01*
X127751973Y-102143350D01*
X127745265Y-102137418D01*
X127744084Y-102132589D01*
X127721384Y-101247882D01*
X127724597Y-101239525D01*
X127728410Y-101236854D01*
X128585948Y-100863748D01*
X128594900Y-100863591D01*
X128598887Y-100866205D01*
G37*
%TD.AperFunction*%
%TD*%
%TA.AperFunction,Conductor*%
%TO.N,GND*%
G36*
X154833965Y-87376205D02*
G01*
X154835323Y-87377288D01*
X155012764Y-87541930D01*
X155140294Y-87660260D01*
X155144028Y-87668400D01*
X155140913Y-87676795D01*
X155140609Y-87677110D01*
X154975740Y-87841979D01*
X154967729Y-87845403D01*
X154671403Y-87852035D01*
X154665905Y-87850801D01*
X154318271Y-87676795D01*
X154048834Y-87541930D01*
X154042970Y-87535162D01*
X154043608Y-87526230D01*
X154050376Y-87520366D01*
X154051892Y-87519972D01*
X154825203Y-87374368D01*
X154833965Y-87376205D01*
G37*
%TD.AperFunction*%
%TD*%
%TA.AperFunction,Conductor*%
%TO.N,GND*%
G36*
X133870562Y-107849288D02*
G01*
X133875225Y-107855034D01*
X134080205Y-108399674D01*
X134079912Y-108408624D01*
X134073697Y-108414619D01*
X133832887Y-108513443D01*
X133823932Y-108513414D01*
X133818358Y-108508548D01*
X133754363Y-108399674D01*
X133555848Y-108061940D01*
X133554611Y-108053074D01*
X133557661Y-108047743D01*
X133725630Y-107879774D01*
X133731367Y-107876626D01*
X133861745Y-107847732D01*
X133870562Y-107849288D01*
G37*
%TD.AperFunction*%
%TD*%
%TA.AperFunction,Conductor*%
%TO.N,GND*%
G36*
X119223877Y-91780929D02*
G01*
X119223985Y-91781038D01*
X119387387Y-91949006D01*
X120054003Y-92634243D01*
X120057316Y-92642562D01*
X120054304Y-92650238D01*
X119302457Y-93483661D01*
X119294371Y-93487509D01*
X119285933Y-93484511D01*
X119285497Y-93484097D01*
X118451171Y-92649771D01*
X118447744Y-92641498D01*
X118450570Y-92633873D01*
X119038666Y-91949639D01*
X119039241Y-91949019D01*
X119207332Y-91780928D01*
X119215604Y-91777502D01*
X119223877Y-91780929D01*
G37*
%TD.AperFunction*%
%TD*%
%TA.AperFunction,Conductor*%
%TO.N,GND*%
G36*
X135619625Y-87792164D02*
G01*
X135621657Y-87794898D01*
X135802704Y-88131952D01*
X135803101Y-88132691D01*
X135803997Y-88141600D01*
X135803917Y-88141856D01*
X135555031Y-88904631D01*
X135549207Y-88911433D01*
X135540279Y-88912125D01*
X135533477Y-88906301D01*
X135532847Y-88904817D01*
X135270801Y-88143782D01*
X135271348Y-88134847D01*
X135273344Y-88131958D01*
X135437351Y-87957897D01*
X135437526Y-87957717D01*
X135603080Y-87792163D01*
X135611352Y-87788737D01*
X135619625Y-87792164D01*
G37*
%TD.AperFunction*%
%TD*%
%TA.AperFunction,Conductor*%
%TO.N,GND*%
G36*
X148395686Y-93392127D02*
G01*
X148396994Y-93393685D01*
X148757909Y-93908679D01*
X148759851Y-93917421D01*
X148756343Y-93923918D01*
X148242734Y-94406862D01*
X148234359Y-94410032D01*
X148226377Y-94406542D01*
X147745555Y-93917649D01*
X147742197Y-93909348D01*
X147744655Y-93902271D01*
X148139987Y-93393224D01*
X148147768Y-93388791D01*
X148149228Y-93388700D01*
X148387413Y-93388700D01*
X148395686Y-93392127D01*
G37*
%TD.AperFunction*%
%TD*%
%TA.AperFunction,Conductor*%
%TO.N,GND*%
G36*
X136273297Y-78885616D02*
G01*
X137524757Y-79325072D01*
X137531428Y-79331046D01*
X137532358Y-79338382D01*
X137370727Y-80155121D01*
X137365760Y-80162572D01*
X137361521Y-80164327D01*
X136544782Y-80325958D01*
X136536001Y-80324203D01*
X136531472Y-80318357D01*
X136476767Y-80162572D01*
X136092017Y-79066898D01*
X136092509Y-79057959D01*
X136094780Y-79054754D01*
X136261152Y-78888382D01*
X136269424Y-78884956D01*
X136273297Y-78885616D01*
G37*
%TD.AperFunction*%
%TD*%
%TA.AperFunction,Conductor*%
%TO.N,GND*%
G36*
X135014115Y-96365527D02*
G01*
X135017542Y-96373758D01*
X135018397Y-96609230D01*
X135018174Y-96611545D01*
X135018000Y-96612423D01*
X135018000Y-96636603D01*
X135017366Y-96640402D01*
X134757337Y-97397793D01*
X134751409Y-97404505D01*
X134742472Y-97405060D01*
X134735760Y-97399132D01*
X134734817Y-97396383D01*
X134577818Y-96642017D01*
X134579488Y-96633221D01*
X134579604Y-96633049D01*
X134736730Y-96406470D01*
X134764010Y-96367133D01*
X134771540Y-96362287D01*
X134773624Y-96362100D01*
X135005842Y-96362100D01*
X135014115Y-96365527D01*
G37*
%TD.AperFunction*%
%TD*%
%TA.AperFunction,Conductor*%
%TO.N,GND*%
G36*
X140345869Y-103460088D02*
G01*
X141062752Y-103883703D01*
X141068131Y-103890862D01*
X141068500Y-103893776D01*
X141068500Y-104130423D01*
X141065073Y-104138696D01*
X141062752Y-104140496D01*
X140345869Y-104564111D01*
X140337003Y-104565369D01*
X140332929Y-104563422D01*
X140132590Y-104414250D01*
X139605101Y-104021482D01*
X139600513Y-104013795D01*
X139602706Y-104005112D01*
X139605099Y-104002718D01*
X140332930Y-103460776D01*
X140341612Y-103458584D01*
X140345869Y-103460088D01*
G37*
%TD.AperFunction*%
%TD*%
%TA.AperFunction,Conductor*%
%TO.N,GND*%
G36*
X121777092Y-87884038D02*
G01*
X122114680Y-88195954D01*
X122118431Y-88204084D01*
X122117049Y-88210079D01*
X121950210Y-88520933D01*
X121943278Y-88526602D01*
X121939901Y-88527100D01*
X121702988Y-88527100D01*
X121694715Y-88523673D01*
X121693406Y-88522114D01*
X121474546Y-88209800D01*
X121472605Y-88201059D01*
X121475509Y-88195174D01*
X121760563Y-87884743D01*
X121768682Y-87880968D01*
X121777092Y-87884038D01*
G37*
%TD.AperFunction*%
%TD*%
%TA.AperFunction,Conductor*%
%TO.N,GND*%
G36*
X136469828Y-96365527D02*
G01*
X136471826Y-96368197D01*
X136616031Y-96632573D01*
X136616985Y-96641477D01*
X136616826Y-96641975D01*
X136354566Y-97405867D01*
X136348638Y-97412579D01*
X136339701Y-97413134D01*
X136332989Y-97407206D01*
X136332434Y-97405867D01*
X136260406Y-97196072D01*
X136070173Y-96641973D01*
X136070728Y-96633038D01*
X136070945Y-96632616D01*
X136215174Y-96368196D01*
X136222144Y-96362575D01*
X136225445Y-96362100D01*
X136461555Y-96362100D01*
X136469828Y-96365527D01*
G37*
%TD.AperFunction*%
%TD*%
%TA.AperFunction,Conductor*%
%TO.N,GND*%
G36*
X147578814Y-90350697D02*
G01*
X147585295Y-90356875D01*
X147585511Y-90365827D01*
X147584672Y-90367559D01*
X147487451Y-90532244D01*
X147485649Y-90534569D01*
X147316031Y-90704187D01*
X147307758Y-90707614D01*
X147302284Y-90706254D01*
X146718265Y-90397068D01*
X146712556Y-90390169D01*
X146712917Y-90382281D01*
X146838439Y-90076982D01*
X146844753Y-90070635D01*
X146853475Y-90070519D01*
X147578814Y-90350697D01*
G37*
%TD.AperFunction*%
%TD*%
%TA.AperFunction,Conductor*%
%TO.N,GND*%
G36*
X129532756Y-84762776D02*
G01*
X129538791Y-84769392D01*
X129539487Y-84773368D01*
X129539487Y-85006700D01*
X129714849Y-85125378D01*
X129719779Y-85132853D01*
X129717981Y-85141626D01*
X129711108Y-85146424D01*
X128952953Y-85334506D01*
X128944098Y-85333172D01*
X128939052Y-85326895D01*
X128938623Y-85325626D01*
X128836358Y-85022953D01*
X128836956Y-85014020D01*
X128843465Y-85008206D01*
X129523812Y-84762364D01*
X129532756Y-84762776D01*
G37*
%TD.AperFunction*%
%TD*%
%TA.AperFunction,Conductor*%
%TO.N,GND*%
G36*
X127188674Y-101435339D02*
G01*
X127738792Y-102130887D01*
X127741236Y-102139502D01*
X127736937Y-102147271D01*
X127178286Y-102595507D01*
X127169689Y-102598011D01*
X127162585Y-102594547D01*
X126598321Y-102015507D01*
X126595000Y-102007341D01*
X126595000Y-101768899D01*
X126598427Y-101760626D01*
X126600904Y-101758736D01*
X127173709Y-101432430D01*
X127182590Y-101431313D01*
X127188674Y-101435339D01*
G37*
%TD.AperFunction*%
%TD*%
%TA.AperFunction,Conductor*%
%TO.N,GND*%
G36*
X144342551Y-90308240D02*
G01*
X144343455Y-90309055D01*
X144511970Y-90477570D01*
X144515397Y-90485843D01*
X144515215Y-90487898D01*
X144420568Y-91018258D01*
X144415741Y-91025801D01*
X144406995Y-91027721D01*
X144406923Y-91027708D01*
X143724690Y-90901582D01*
X143717178Y-90896708D01*
X143715668Y-90893624D01*
X143559005Y-90400787D01*
X143559764Y-90391866D01*
X143566611Y-90386094D01*
X143568931Y-90385608D01*
X144333966Y-90305691D01*
X144342551Y-90308240D01*
G37*
%TD.AperFunction*%
%TD*%
%TA.AperFunction,Conductor*%
%TO.N,GND*%
G36*
X137412438Y-85106509D02*
G01*
X137412560Y-85106633D01*
X137889384Y-85597841D01*
X137892688Y-85606164D01*
X137890997Y-85612050D01*
X137404601Y-86415301D01*
X137397385Y-86420603D01*
X137388533Y-86419249D01*
X137384592Y-86415314D01*
X136896934Y-85612246D01*
X136895569Y-85603396D01*
X136898734Y-85597829D01*
X137227513Y-85274889D01*
X137395893Y-85106508D01*
X137404165Y-85103082D01*
X137412438Y-85106509D01*
G37*
%TD.AperFunction*%
%TD*%
%TA.AperFunction,Conductor*%
%TO.N,GND*%
G36*
X146036611Y-87440257D02*
G01*
X146835174Y-87525429D01*
X146843036Y-87529714D01*
X146845511Y-87535383D01*
X146889684Y-87839849D01*
X146887480Y-87848529D01*
X146879785Y-87853108D01*
X146879130Y-87853184D01*
X145895016Y-87939719D01*
X145886474Y-87937030D01*
X145885718Y-87936337D01*
X145721003Y-87771622D01*
X145717576Y-87763349D01*
X145720929Y-87755151D01*
X146027038Y-87443690D01*
X146035280Y-87440192D01*
X146036611Y-87440257D01*
G37*
%TD.AperFunction*%
%TD*%
%TA.AperFunction,Conductor*%
%TO.N,/Vcc*%
G36*
X127303832Y-94686548D02*
G01*
X127569285Y-94926169D01*
X127834878Y-95165915D01*
X127838723Y-95174002D01*
X127835723Y-95182440D01*
X127834878Y-95183285D01*
X127303834Y-95662649D01*
X127295396Y-95665649D01*
X127290636Y-95664365D01*
X126637342Y-95327866D01*
X126631557Y-95321032D01*
X126631000Y-95317465D01*
X126631000Y-95031734D01*
X126634427Y-95023461D01*
X126637340Y-95021334D01*
X127290638Y-94684833D01*
X127299561Y-94684092D01*
X127303832Y-94686548D01*
G37*
%TD.AperFunction*%
%TD*%
%TA.AperFunction,Conductor*%
%TO.N,/Vcc*%
G36*
X124557139Y-80228027D02*
G01*
X124559267Y-80230943D01*
X124895765Y-80884237D01*
X124896507Y-80893161D01*
X124894049Y-80897434D01*
X124414685Y-81428478D01*
X124406598Y-81432323D01*
X124398160Y-81429323D01*
X124397315Y-81428478D01*
X124157569Y-81162885D01*
X123917949Y-80897432D01*
X123914950Y-80888996D01*
X123916234Y-80884237D01*
X124252733Y-80230941D01*
X124259567Y-80225157D01*
X124263134Y-80224600D01*
X124548866Y-80224600D01*
X124557139Y-80228027D01*
G37*
%TD.AperFunction*%
%TD*%
%TA.AperFunction,Conductor*%
%TO.N,/Vcc*%
G36*
X137961586Y-87785827D02*
G01*
X137966176Y-87793516D01*
X137966300Y-87795212D01*
X137966300Y-88009900D01*
X138209377Y-88132499D01*
X138215219Y-88139283D01*
X138215167Y-88146760D01*
X137953956Y-88903893D01*
X137948019Y-88910596D01*
X137939080Y-88911137D01*
X137932377Y-88905200D01*
X137931757Y-88903655D01*
X137876164Y-88730588D01*
X137687366Y-88142831D01*
X137688098Y-88133908D01*
X137689114Y-88132277D01*
X137945215Y-87788225D01*
X137952904Y-87783636D01*
X137961586Y-87785827D01*
G37*
%TD.AperFunction*%
%TD*%
%TA.AperFunction,Conductor*%
%TO.N,/Vcc*%
G36*
X156801812Y-106803635D02*
G01*
X157265140Y-107495590D01*
X157266895Y-107504371D01*
X157265140Y-107508610D01*
X156801812Y-108200564D01*
X156794361Y-108205531D01*
X156787204Y-108204685D01*
X156426539Y-108038930D01*
X155591647Y-107655231D01*
X155585561Y-107648662D01*
X155584833Y-107644600D01*
X155584833Y-107359599D01*
X155588260Y-107351326D01*
X155591645Y-107348969D01*
X156787206Y-106799513D01*
X156796152Y-106799173D01*
X156801812Y-106803635D01*
G37*
%TD.AperFunction*%
%TD*%
%TA.AperFunction,Conductor*%
%TO.N,/Vcc*%
G36*
X140494295Y-106707446D02*
G01*
X140498267Y-106711058D01*
X140936020Y-107349109D01*
X140938072Y-107355728D01*
X140938072Y-107639439D01*
X140934645Y-107647712D01*
X140926372Y-107651139D01*
X140925451Y-107651103D01*
X139494475Y-107538130D01*
X139486497Y-107534062D01*
X139483732Y-107525545D01*
X139483906Y-107524261D01*
X139591138Y-106969148D01*
X139596071Y-106961678D01*
X139599397Y-106960124D01*
X140485400Y-106706429D01*
X140494295Y-106707446D01*
G37*
%TD.AperFunction*%
%TD*%
%TA.AperFunction,Conductor*%
%TO.N,/Vcc*%
G36*
X134836766Y-80169376D02*
G01*
X135670997Y-81004588D01*
X135674419Y-81012863D01*
X135671751Y-81020294D01*
X134982010Y-81857838D01*
X134974105Y-81862046D01*
X134972978Y-81862100D01*
X134684022Y-81862100D01*
X134675749Y-81858673D01*
X134674990Y-81857838D01*
X133985248Y-81020294D01*
X133982634Y-81011729D01*
X133986000Y-81004590D01*
X134820223Y-80169386D01*
X134828493Y-80165955D01*
X134836766Y-80169376D01*
G37*
%TD.AperFunction*%
%TD*%
%TA.AperFunction,Conductor*%
%TO.N,/Vcc*%
G36*
X122223583Y-83412565D02*
G01*
X122428181Y-83617163D01*
X122430181Y-83619836D01*
X122510308Y-83766818D01*
X122511259Y-83775722D01*
X122505635Y-83782691D01*
X122504251Y-83783332D01*
X121778475Y-84063680D01*
X121769523Y-84063464D01*
X121763438Y-84057215D01*
X121650832Y-83783332D01*
X121637775Y-83751573D01*
X121637798Y-83742620D01*
X121642755Y-83736989D01*
X122209472Y-83410698D01*
X122218352Y-83409540D01*
X122223583Y-83412565D01*
G37*
%TD.AperFunction*%
%TD*%
%TA.AperFunction,Conductor*%
%TO.N,/Vcc*%
G36*
X123903771Y-81227763D02*
G01*
X124399722Y-81433495D01*
X124406051Y-81439830D01*
X124406934Y-81443949D01*
X124427576Y-82128439D01*
X124424400Y-82136812D01*
X124419630Y-82139875D01*
X123653182Y-82399104D01*
X123644247Y-82398509D01*
X123641160Y-82396294D01*
X123440007Y-82195141D01*
X123436580Y-82186868D01*
X123437714Y-82181843D01*
X123790615Y-81439830D01*
X123888723Y-81233545D01*
X123895371Y-81227546D01*
X123903771Y-81227763D01*
G37*
%TD.AperFunction*%
%TD*%
%TA.AperFunction,Conductor*%
%TO.N,/Vcc*%
G36*
X120617541Y-95028566D02*
G01*
X120621901Y-95036388D01*
X120621979Y-95037740D01*
X120621979Y-95321704D01*
X120620630Y-95327159D01*
X120006298Y-96492855D01*
X119999409Y-96498576D01*
X119990492Y-96497751D01*
X119989459Y-96497135D01*
X119296541Y-96034796D01*
X119291561Y-96027355D01*
X119130130Y-95210860D01*
X119131887Y-95202080D01*
X119139339Y-95197113D01*
X119140250Y-95196969D01*
X120608927Y-95026118D01*
X120617541Y-95028566D01*
G37*
%TD.AperFunction*%
%TD*%
%TA.AperFunction,Conductor*%
%TO.N,/Vcc*%
G36*
X124413840Y-81444876D02*
G01*
X124414681Y-81445717D01*
X124894049Y-81976765D01*
X124897049Y-81985203D01*
X124895765Y-81989962D01*
X124559267Y-82643257D01*
X124552433Y-82649043D01*
X124548866Y-82649600D01*
X124263134Y-82649600D01*
X124254861Y-82646173D01*
X124252733Y-82643258D01*
X123916233Y-81989961D01*
X123915492Y-81981038D01*
X123917947Y-81976769D01*
X124397315Y-81445720D01*
X124405402Y-81441876D01*
X124413840Y-81444876D01*
G37*
%TD.AperFunction*%
%TD*%
%TA.AperFunction,Conductor*%
%TO.N,/Vcc*%
G36*
X132051678Y-106144095D02*
G01*
X132548946Y-106630271D01*
X132552466Y-106638505D01*
X132550394Y-106645285D01*
X132196989Y-107157048D01*
X132189469Y-107161909D01*
X132187362Y-107162100D01*
X131899638Y-107162100D01*
X131891365Y-107158673D01*
X131890011Y-107157048D01*
X131536605Y-106645285D01*
X131534723Y-106636530D01*
X131538051Y-106630273D01*
X132035321Y-106144095D01*
X132043632Y-106140763D01*
X132051678Y-106144095D01*
G37*
%TD.AperFunction*%
%TD*%
%TA.AperFunction,Conductor*%
%TO.N,/Vcc*%
G36*
X149239374Y-83631415D02*
G01*
X149735168Y-84004589D01*
X149739717Y-84012302D01*
X149737712Y-84020654D01*
X149310924Y-84629318D01*
X149303368Y-84634125D01*
X149294649Y-84632196D01*
X148933784Y-84380386D01*
X148932206Y-84379064D01*
X148728827Y-84175685D01*
X148725400Y-84167412D01*
X148728576Y-84159398D01*
X149223819Y-83632747D01*
X149231981Y-83629070D01*
X149239374Y-83631415D01*
G37*
%TD.AperFunction*%
%TD*%
%TA.AperFunction,Conductor*%
%TO.N,/Vcc*%
G36*
X129094784Y-83420527D02*
G01*
X129096813Y-83423253D01*
X129264379Y-83734448D01*
X129265284Y-83743357D01*
X129262363Y-83748255D01*
X128951786Y-84059788D01*
X128943518Y-84063228D01*
X128935240Y-84059814D01*
X128935214Y-84059788D01*
X128624636Y-83748255D01*
X128621222Y-83739977D01*
X128622620Y-83734448D01*
X128790187Y-83423253D01*
X128797127Y-83417593D01*
X128800489Y-83417100D01*
X129086511Y-83417100D01*
X129094784Y-83420527D01*
G37*
%TD.AperFunction*%
%TD*%
%TA.AperFunction,Conductor*%
%TO.N,/Vcc*%
G36*
X145371925Y-92690512D02*
G01*
X145988369Y-93304684D01*
X145991811Y-93312950D01*
X145989236Y-93320294D01*
X145500594Y-93929258D01*
X145492744Y-93933566D01*
X145484439Y-93931288D01*
X144734733Y-93367710D01*
X144730179Y-93360000D01*
X144731324Y-93353074D01*
X145065252Y-92693514D01*
X145072046Y-92687682D01*
X145075690Y-92687100D01*
X145363667Y-92687100D01*
X145371925Y-92690512D01*
G37*
%TD.AperFunction*%
%TD*%
%TA.AperFunction,Conductor*%
%TO.N,/Vcc*%
G36*
X139586083Y-106961191D02*
G01*
X139594269Y-106964822D01*
X139596854Y-106969075D01*
X139788876Y-107526238D01*
X139788332Y-107535176D01*
X139781828Y-107541040D01*
X138516673Y-108003008D01*
X138507726Y-108002627D01*
X138504387Y-108000291D01*
X138303310Y-107799214D01*
X138299883Y-107790941D01*
X138300968Y-107786021D01*
X138416330Y-107537100D01*
X138690272Y-106946003D01*
X138696859Y-106939940D01*
X138701173Y-106939229D01*
X139586083Y-106961191D01*
G37*
%TD.AperFunction*%
%TD*%
%TA.AperFunction,Conductor*%
%TO.N,/Vcc*%
G36*
X138227267Y-107859203D02*
G01*
X138234140Y-107862546D01*
X138436706Y-108065112D01*
X138440133Y-108073385D01*
X138438239Y-108079767D01*
X138158784Y-108509175D01*
X138151399Y-108514240D01*
X138144536Y-108513617D01*
X137903078Y-108414527D01*
X137896725Y-108408216D01*
X137896483Y-108399820D01*
X138089319Y-107851821D01*
X138095298Y-107845156D01*
X138101754Y-107844090D01*
X138227267Y-107859203D01*
G37*
%TD.AperFunction*%
%TD*%
%TA.AperFunction,Conductor*%
%TO.N,/Vcc*%
G36*
X136692446Y-106136181D02*
G01*
X136696489Y-106139731D01*
X137154325Y-106783465D01*
X137156328Y-106792193D01*
X137153064Y-106798519D01*
X136952010Y-106999573D01*
X136943737Y-107003000D01*
X136942199Y-107002898D01*
X135880331Y-106862107D01*
X135872580Y-106857623D01*
X135870271Y-106848971D01*
X135870493Y-106847773D01*
X135885960Y-106783465D01*
X135989330Y-106353687D01*
X135994597Y-106346447D01*
X135997276Y-106345240D01*
X136683534Y-106135324D01*
X136692446Y-106136181D01*
G37*
%TD.AperFunction*%
%TD*%
%TA.AperFunction,Conductor*%
%TO.N,/Vcc*%
G36*
X115060009Y-88290458D02*
G01*
X115751906Y-88753749D01*
X115756873Y-88761199D01*
X115755994Y-88768428D01*
X115196654Y-89964025D01*
X115190044Y-89970066D01*
X115186056Y-89970767D01*
X114901056Y-89970767D01*
X114892783Y-89967340D01*
X114890392Y-89963880D01*
X114350824Y-88768360D01*
X114350544Y-88759410D01*
X114354975Y-88753827D01*
X115046990Y-88290458D01*
X115055771Y-88288704D01*
X115060009Y-88290458D01*
G37*
%TD.AperFunction*%
%TD*%
%TA.AperFunction,Conductor*%
%TO.N,/Vcc*%
G36*
X119774745Y-107467921D02*
G01*
X119775713Y-107468644D01*
X120921042Y-108420576D01*
X120925214Y-108428500D01*
X120922561Y-108437053D01*
X120921836Y-108437847D01*
X120720920Y-108638763D01*
X120715861Y-108641740D01*
X119471530Y-108997280D01*
X119462634Y-108996258D01*
X119457066Y-108989244D01*
X119456845Y-108988335D01*
X119293743Y-108171154D01*
X119295484Y-108162374D01*
X119758514Y-107471129D01*
X119765965Y-107466164D01*
X119774745Y-107467921D01*
G37*
%TD.AperFunction*%
%TD*%
%TA.AperFunction,Conductor*%
%TO.N,/Vcc*%
G36*
X122898479Y-86454224D02*
G01*
X122904982Y-86460379D01*
X122906000Y-86465152D01*
X122906000Y-86749047D01*
X122902573Y-86757320D01*
X122898479Y-86759975D01*
X122485168Y-86918016D01*
X122476292Y-86917804D01*
X121791944Y-86617815D01*
X121785743Y-86611356D01*
X121785926Y-86602403D01*
X121791944Y-86596384D01*
X122476294Y-86296394D01*
X122485166Y-86296183D01*
X122898479Y-86454224D01*
G37*
%TD.AperFunction*%
%TD*%
%TA.AperFunction,Conductor*%
%TO.N,/Vcc*%
G36*
X133877384Y-83210215D02*
G01*
X134435202Y-83580921D01*
X134440195Y-83588354D01*
X134438763Y-83596677D01*
X133951859Y-84409645D01*
X133944669Y-84414981D01*
X133938392Y-84414819D01*
X133301770Y-84219635D01*
X133294865Y-84213934D01*
X133293500Y-84208449D01*
X133293500Y-83921230D01*
X133296094Y-83913884D01*
X133558696Y-83588354D01*
X133861803Y-83212612D01*
X133869663Y-83208325D01*
X133877384Y-83210215D01*
G37*
%TD.AperFunction*%
%TD*%
%TA.AperFunction,Conductor*%
%TO.N,/Vcc*%
G36*
X130073479Y-83914224D02*
G01*
X130079982Y-83920379D01*
X130081000Y-83925152D01*
X130081000Y-84209047D01*
X130077573Y-84217320D01*
X130073479Y-84219975D01*
X129660168Y-84378016D01*
X129651292Y-84377804D01*
X128966944Y-84077815D01*
X128960743Y-84071356D01*
X128960926Y-84062403D01*
X128966944Y-84056384D01*
X129651294Y-83756394D01*
X129660166Y-83756183D01*
X130073479Y-83914224D01*
G37*
%TD.AperFunction*%
%TD*%
%TA.AperFunction,Conductor*%
%TO.N,/Vcc*%
G36*
X134975634Y-82127462D02*
G01*
X134979047Y-82135160D01*
X135018266Y-82932347D01*
X135015349Y-82940667D01*
X134456053Y-83573887D01*
X134448008Y-83577820D01*
X134439539Y-83574911D01*
X134436428Y-83570506D01*
X134181822Y-82937100D01*
X134087031Y-82701279D01*
X134087125Y-82692326D01*
X134089787Y-82688475D01*
X134675105Y-82127289D01*
X134683202Y-82124035D01*
X134967361Y-82124035D01*
X134975634Y-82127462D01*
G37*
%TD.AperFunction*%
%TD*%
%TA.AperFunction,Conductor*%
%TO.N,/Vcc*%
G36*
X147973479Y-88644224D02*
G01*
X147979982Y-88650379D01*
X147981000Y-88655152D01*
X147981000Y-88939047D01*
X147977573Y-88947320D01*
X147973479Y-88949975D01*
X147560168Y-89108016D01*
X147551292Y-89107804D01*
X146866944Y-88807815D01*
X146860743Y-88801356D01*
X146860926Y-88792403D01*
X146866944Y-88786384D01*
X147551294Y-88486394D01*
X147560166Y-88486183D01*
X147973479Y-88644224D01*
G37*
%TD.AperFunction*%
%TD*%
%TA.AperFunction,Conductor*%
%TO.N,/Vcc*%
G36*
X149751340Y-84019876D02*
G01*
X149752181Y-84020717D01*
X150231549Y-84551765D01*
X150234549Y-84560203D01*
X150233265Y-84564962D01*
X149896767Y-85218257D01*
X149889933Y-85224043D01*
X149886366Y-85224600D01*
X149600634Y-85224600D01*
X149592361Y-85221173D01*
X149590233Y-85218258D01*
X149253733Y-84564961D01*
X149252992Y-84556038D01*
X149255447Y-84551769D01*
X149734815Y-84020720D01*
X149742902Y-84016876D01*
X149751340Y-84019876D01*
G37*
%TD.AperFunction*%
%TD*%
%TA.AperFunction,Conductor*%
%TO.N,/Vcc*%
G36*
X137894024Y-107530383D02*
G01*
X137895850Y-107532749D01*
X138072695Y-107835110D01*
X138073914Y-107843982D01*
X138073748Y-107844556D01*
X137903055Y-108382423D01*
X137897286Y-108389272D01*
X137888364Y-108390036D01*
X137881515Y-108384267D01*
X137881386Y-108384011D01*
X137641262Y-107891495D01*
X137640389Y-107883696D01*
X137675303Y-107735037D01*
X137678418Y-107729443D01*
X137877479Y-107530382D01*
X137885751Y-107526956D01*
X137894024Y-107530383D01*
G37*
%TD.AperFunction*%
%TD*%
%TA.AperFunction,Conductor*%
%TO.N,/Vcc*%
G36*
X147298583Y-85602565D02*
G01*
X147503181Y-85807163D01*
X147505181Y-85809836D01*
X147585308Y-85956818D01*
X147586259Y-85965722D01*
X147580635Y-85972691D01*
X147579251Y-85973332D01*
X146853475Y-86253680D01*
X146844523Y-86253464D01*
X146838438Y-86247215D01*
X146725832Y-85973332D01*
X146712775Y-85941573D01*
X146712798Y-85932620D01*
X146717755Y-85926989D01*
X147284472Y-85600698D01*
X147293352Y-85599540D01*
X147298583Y-85602565D01*
G37*
%TD.AperFunction*%
%TD*%
%TA.AperFunction,Conductor*%
%TO.N,/Vcc*%
G36*
X146045303Y-88590315D02*
G01*
X146813949Y-88788588D01*
X146821103Y-88793971D01*
X146822355Y-88802838D01*
X146816971Y-88809993D01*
X146816263Y-88810379D01*
X146197004Y-89120345D01*
X146189645Y-89121388D01*
X145882277Y-89064691D01*
X145876126Y-89061458D01*
X145676402Y-88861734D01*
X145672975Y-88853461D01*
X145676402Y-88845188D01*
X145677935Y-88843897D01*
X146035656Y-88592078D01*
X146044393Y-88590119D01*
X146045303Y-88590315D01*
G37*
%TD.AperFunction*%
%TD*%
%TA.AperFunction,Conductor*%
%TO.N,/Vcc*%
G36*
X154169784Y-85610527D02*
G01*
X154171813Y-85613253D01*
X154339379Y-85924448D01*
X154340284Y-85933357D01*
X154337363Y-85938255D01*
X154026786Y-86249788D01*
X154018518Y-86253228D01*
X154010240Y-86249814D01*
X154010214Y-86249788D01*
X153699636Y-85938255D01*
X153696222Y-85929977D01*
X153697620Y-85924448D01*
X153865187Y-85613253D01*
X153872127Y-85607593D01*
X153875489Y-85607100D01*
X154161511Y-85607100D01*
X154169784Y-85610527D01*
G37*
%TD.AperFunction*%
%TD*%
%TA.AperFunction,Conductor*%
%TO.N,/Vcc*%
G36*
X118826812Y-95333635D02*
G01*
X119290140Y-96025590D01*
X119291895Y-96034371D01*
X119290140Y-96038610D01*
X118826812Y-96730564D01*
X118819361Y-96735531D01*
X118812204Y-96734685D01*
X118451539Y-96568930D01*
X117616647Y-96185231D01*
X117610561Y-96178662D01*
X117609833Y-96174600D01*
X117609833Y-95889599D01*
X117613260Y-95881326D01*
X117616645Y-95878969D01*
X118812206Y-95329513D01*
X118821152Y-95329173D01*
X118826812Y-95333635D01*
G37*
%TD.AperFunction*%
%TD*%
%TA.AperFunction,Conductor*%
%TO.N,/Vcc*%
G36*
X140485529Y-107001819D02*
G01*
X140493639Y-107005617D01*
X140496074Y-107009730D01*
X140774651Y-107826575D01*
X140774078Y-107835512D01*
X140771850Y-107838625D01*
X140570460Y-108040015D01*
X140562187Y-108043442D01*
X140557600Y-108042505D01*
X139381989Y-107541524D01*
X139375722Y-107535129D01*
X139375654Y-107526566D01*
X139589769Y-106969263D01*
X139595933Y-106962772D01*
X139601215Y-106961774D01*
X140485529Y-107001819D01*
G37*
%TD.AperFunction*%
%TD*%
%TA.AperFunction,Conductor*%
%TO.N,/Vcc*%
G36*
X123912828Y-80931653D02*
G01*
X124399003Y-81428921D01*
X124402336Y-81437232D01*
X124399003Y-81445279D01*
X123912828Y-81942546D01*
X123904594Y-81946066D01*
X123897814Y-81943994D01*
X123386052Y-81590588D01*
X123381191Y-81583068D01*
X123381000Y-81580961D01*
X123381000Y-81293238D01*
X123384427Y-81284965D01*
X123386052Y-81283611D01*
X123897816Y-80930204D01*
X123906569Y-80928323D01*
X123912828Y-80931653D01*
G37*
%TD.AperFunction*%
%TD*%
%TA.AperFunction,Conductor*%
%TO.N,/Vcc*%
G36*
X137898614Y-108424846D02*
G01*
X137904023Y-108430255D01*
X138145466Y-108927135D01*
X138146028Y-108935992D01*
X138046187Y-109231643D01*
X138040293Y-109238385D01*
X138035102Y-109239600D01*
X137751898Y-109239600D01*
X137743625Y-109236173D01*
X137740813Y-109231643D01*
X137640971Y-108935992D01*
X137641533Y-108927135D01*
X137882977Y-108430255D01*
X137889675Y-108424312D01*
X137898614Y-108424846D01*
G37*
%TD.AperFunction*%
%TD*%
%TA.AperFunction,Conductor*%
%TO.N,/Vcc*%
G36*
X114884215Y-87458078D02*
G01*
X114889917Y-87464982D01*
X114890205Y-87466123D01*
X115053256Y-88283042D01*
X115051514Y-88291826D01*
X115051503Y-88291843D01*
X114588336Y-88983291D01*
X114580884Y-88988258D01*
X114572104Y-88986501D01*
X114571325Y-88985931D01*
X113413801Y-88063849D01*
X113409465Y-88056014D01*
X113411940Y-88047408D01*
X113412809Y-88046434D01*
X113613630Y-87845613D01*
X113618467Y-87842703D01*
X114875302Y-87457227D01*
X114884215Y-87458078D01*
G37*
%TD.AperFunction*%
%TD*%
%TA.AperFunction,Conductor*%
%TO.N,/Vcc*%
G36*
X122898479Y-85184224D02*
G01*
X122904982Y-85190379D01*
X122906000Y-85195152D01*
X122906000Y-85479047D01*
X122902573Y-85487320D01*
X122898479Y-85489975D01*
X122485168Y-85648016D01*
X122476292Y-85647804D01*
X121791944Y-85347815D01*
X121785743Y-85341356D01*
X121785926Y-85332403D01*
X121791944Y-85326384D01*
X122476294Y-85026394D01*
X122485166Y-85026183D01*
X122898479Y-85184224D01*
G37*
%TD.AperFunction*%
%TD*%
%TA.AperFunction,Conductor*%
%TO.N,/Vcc*%
G36*
X149972340Y-82836868D02*
G01*
X150173887Y-83038415D01*
X150177180Y-83044925D01*
X150255035Y-83555769D01*
X150252894Y-83564464D01*
X150251190Y-83566323D01*
X149754438Y-84002580D01*
X149745960Y-84005464D01*
X149737926Y-84001510D01*
X149736147Y-83998806D01*
X149530856Y-83566323D01*
X149420019Y-83332826D01*
X149419568Y-83323885D01*
X149422738Y-83319137D01*
X149956217Y-82836464D01*
X149964651Y-82833456D01*
X149972340Y-82836868D01*
G37*
%TD.AperFunction*%
%TD*%
%TA.AperFunction,Conductor*%
%TO.N,/Vcc*%
G36*
X127851678Y-95181595D02*
G01*
X128348946Y-95667771D01*
X128352466Y-95676005D01*
X128350394Y-95682785D01*
X127996989Y-96194548D01*
X127989469Y-96199409D01*
X127987362Y-96199600D01*
X127699638Y-96199600D01*
X127691365Y-96196173D01*
X127690011Y-96194548D01*
X127336605Y-95682785D01*
X127334723Y-95674030D01*
X127338051Y-95667773D01*
X127835321Y-95181595D01*
X127843632Y-95178263D01*
X127851678Y-95181595D01*
G37*
%TD.AperFunction*%
%TD*%
%TA.AperFunction,Conductor*%
%TO.N,/Vcc*%
G36*
X135554011Y-97466993D02*
G01*
X135554566Y-97468332D01*
X135816988Y-98232697D01*
X135816573Y-98241337D01*
X135696618Y-98505241D01*
X135690075Y-98511355D01*
X135685967Y-98512100D01*
X135401033Y-98512100D01*
X135392760Y-98508673D01*
X135390382Y-98505241D01*
X135270426Y-98241337D01*
X135270011Y-98232698D01*
X135532434Y-97468331D01*
X135538362Y-97461620D01*
X135547299Y-97461065D01*
X135554011Y-97466993D01*
G37*
%TD.AperFunction*%
%TD*%
%TA.AperFunction,Conductor*%
%TO.N,Net-(IC1-AREF)*%
G36*
X136445350Y-87865527D02*
G01*
X136446948Y-87867519D01*
X136615475Y-88132347D01*
X136617025Y-88141166D01*
X136616670Y-88142427D01*
X136354566Y-88905867D01*
X136348638Y-88912579D01*
X136339701Y-88913134D01*
X136332989Y-88907206D01*
X136332434Y-88905867D01*
X136070329Y-88142427D01*
X136070884Y-88133490D01*
X136071519Y-88132355D01*
X136240052Y-87867519D01*
X136247385Y-87862379D01*
X136249923Y-87862100D01*
X136437077Y-87862100D01*
X136445350Y-87865527D01*
G37*
%TD.AperFunction*%
%TD*%
%TA.AperFunction,Conductor*%
%TO.N,Net-(IC1-AREF)*%
G36*
X135025251Y-86068923D02*
G01*
X135498245Y-86797635D01*
X135499875Y-86806439D01*
X135496704Y-86812277D01*
X135362577Y-86946404D01*
X135361304Y-86947506D01*
X134955994Y-87250172D01*
X134947315Y-87252376D01*
X134939619Y-87247797D01*
X134938993Y-87246870D01*
X134671544Y-86806439D01*
X134449102Y-86440125D01*
X134447738Y-86431277D01*
X134452762Y-86424222D01*
X135009096Y-86065459D01*
X135017906Y-86063857D01*
X135025251Y-86068923D01*
G37*
%TD.AperFunction*%
%TD*%
%TA.AperFunction,Conductor*%
%TO.N,Net-(IC1-PB7)*%
G36*
X131278207Y-101579831D02*
G01*
X131796766Y-102074347D01*
X131800388Y-102082535D01*
X131797158Y-102090888D01*
X131796964Y-102091086D01*
X131664017Y-102224033D01*
X131278205Y-102711737D01*
X131270385Y-102716099D01*
X131261770Y-102713654D01*
X131260705Y-102712700D01*
X130702525Y-102147626D01*
X130699149Y-102139332D01*
X130702626Y-102131081D01*
X131261922Y-101579964D01*
X131270219Y-101576599D01*
X131278207Y-101579831D01*
G37*
%TD.AperFunction*%
%TD*%
%TA.AperFunction,Conductor*%
%TO.N,Net-(IC1-PB7)*%
G36*
X139025415Y-100419807D02*
G01*
X139025606Y-100420061D01*
X139419030Y-100956940D01*
X139420894Y-100960828D01*
X139448721Y-101064681D01*
X139448723Y-101064684D01*
X139527780Y-101201616D01*
X139639584Y-101313420D01*
X139639585Y-101313421D01*
X139639587Y-101313422D01*
X139707954Y-101352894D01*
X139711541Y-101356110D01*
X139863608Y-101563625D01*
X139865734Y-101572324D01*
X139862444Y-101578814D01*
X139728235Y-101713023D01*
X139728019Y-101713234D01*
X139027552Y-102378502D01*
X139019194Y-102381714D01*
X139011011Y-102378075D01*
X139010507Y-102377509D01*
X138123663Y-101313422D01*
X138025551Y-101195702D01*
X138022888Y-101187153D01*
X138027049Y-101179224D01*
X138027370Y-101178966D01*
X138308664Y-100960828D01*
X139009000Y-100417730D01*
X139017637Y-100415369D01*
X139025415Y-100419807D01*
G37*
%TD.AperFunction*%
%TD*%
%TA.AperFunction,Conductor*%
%TO.N,Net-(IC1-PB7)*%
G36*
X137032803Y-100906454D02*
G01*
X138013717Y-101185455D01*
X138020736Y-101191014D01*
X138021529Y-101192761D01*
X138445816Y-102376615D01*
X138445381Y-102385559D01*
X138439287Y-102391368D01*
X136959685Y-103005383D01*
X136950730Y-103005389D01*
X136944394Y-102999062D01*
X136943500Y-102994577D01*
X136943500Y-102812329D01*
X136943509Y-102811870D01*
X136960191Y-102387100D01*
X137017916Y-100917249D01*
X137021665Y-100909118D01*
X137030066Y-100906018D01*
X137032803Y-100906454D01*
G37*
%TD.AperFunction*%
%TD*%
%TA.AperFunction,Conductor*%
%TO.N,Net-(IC1-PB7)*%
G36*
X139026402Y-97167129D02*
G01*
X139028890Y-97168712D01*
X139288081Y-97333651D01*
X139293221Y-97340984D01*
X139293500Y-97343522D01*
X139293500Y-97530677D01*
X139290073Y-97538950D01*
X139288081Y-97540548D01*
X139026402Y-97707070D01*
X139017583Y-97708620D01*
X139011863Y-97705487D01*
X138750818Y-97445388D01*
X138747376Y-97437121D01*
X138750788Y-97428842D01*
X138750818Y-97428812D01*
X138836418Y-97343522D01*
X139011864Y-97168711D01*
X139020142Y-97165300D01*
X139026402Y-97167129D01*
G37*
%TD.AperFunction*%
%TD*%
%TA.AperFunction,Conductor*%
%TO.N,Net-(IC1-PB6)*%
G36*
X143463663Y-99760919D02*
G01*
X144273005Y-99910498D01*
X144280518Y-99915371D01*
X144282524Y-99920871D01*
X144368367Y-100804168D01*
X144365757Y-100812734D01*
X144361183Y-100816116D01*
X143804288Y-101045821D01*
X143795334Y-101045808D01*
X143789022Y-101039493D01*
X143319203Y-99908449D01*
X143319195Y-99899497D01*
X143321733Y-99895694D01*
X143453276Y-99764151D01*
X143461548Y-99760725D01*
X143463663Y-99760919D01*
G37*
%TD.AperFunction*%
%TD*%
%TA.AperFunction,Conductor*%
%TO.N,Net-(IC1-PB6)*%
G36*
X137953464Y-97470858D02*
G01*
X137954230Y-97472888D01*
X138162652Y-98231782D01*
X138161539Y-98240668D01*
X138160942Y-98241610D01*
X137950089Y-98541549D01*
X137942527Y-98546346D01*
X137933788Y-98544392D01*
X137932244Y-98543093D01*
X137801232Y-98412081D01*
X137800180Y-98410874D01*
X137672269Y-98242074D01*
X137670004Y-98233411D01*
X137670529Y-98231207D01*
X137931885Y-97472177D01*
X137937819Y-97465471D01*
X137946757Y-97464924D01*
X137953464Y-97470858D01*
G37*
%TD.AperFunction*%
%TD*%
%TA.AperFunction,Conductor*%
%TO.N,Net-(IC1-PB6)*%
G36*
X137953957Y-97469330D02*
G01*
X137954755Y-97471135D01*
X138216359Y-98230882D01*
X138215812Y-98239820D01*
X138214301Y-98242161D01*
X138067588Y-98419006D01*
X138066856Y-98419809D01*
X137935876Y-98550789D01*
X137927603Y-98554216D01*
X137919330Y-98550789D01*
X137917896Y-98549047D01*
X137711328Y-98241650D01*
X137709559Y-98232873D01*
X137709808Y-98231852D01*
X137932465Y-97471653D01*
X137938078Y-97464679D01*
X137946981Y-97463716D01*
X137953957Y-97469330D01*
G37*
%TD.AperFunction*%
%TD*%
%TA.AperFunction,Conductor*%
%TO.N,Net-(IC1-PB6)*%
G36*
X135326496Y-99990494D02*
G01*
X135952804Y-100256395D01*
X135956504Y-100258891D01*
X136090085Y-100392472D01*
X136093512Y-100400745D01*
X136092048Y-100406412D01*
X135324434Y-101792858D01*
X135317429Y-101798436D01*
X135308531Y-101797427D01*
X135308066Y-101797156D01*
X134329297Y-101194886D01*
X134324047Y-101187631D01*
X134325464Y-101178789D01*
X134326437Y-101177434D01*
X135312938Y-99993773D01*
X135320866Y-99989613D01*
X135326496Y-99990494D01*
G37*
%TD.AperFunction*%
%TD*%
%TA.AperFunction,Conductor*%
%TO.N,/SCK*%
G36*
X139027084Y-88283032D02*
G01*
X139030874Y-88285566D01*
X139277615Y-88532307D01*
X139281042Y-88540580D01*
X139279734Y-88545955D01*
X139023423Y-89041489D01*
X139016578Y-89047263D01*
X139008587Y-89046937D01*
X138753655Y-88942266D01*
X138747304Y-88935954D01*
X138747276Y-88927000D01*
X139011794Y-88289355D01*
X139018129Y-88283027D01*
X139027084Y-88283032D01*
G37*
%TD.AperFunction*%
%TD*%
%TA.AperFunction,Conductor*%
%TO.N,/SCK*%
G36*
X140898471Y-85899500D02*
G01*
X140901692Y-85903841D01*
X141206064Y-86613336D01*
X141266057Y-86753179D01*
X141266170Y-86762133D01*
X141262096Y-86767319D01*
X140548009Y-87276326D01*
X140539283Y-87278338D01*
X140532945Y-87275072D01*
X140400995Y-87143122D01*
X140397814Y-87137235D01*
X140319623Y-86761846D01*
X140288689Y-86613335D01*
X140290357Y-86604538D01*
X140291181Y-86603429D01*
X140881988Y-85900921D01*
X140889933Y-85896797D01*
X140898471Y-85899500D01*
G37*
%TD.AperFunction*%
%TD*%
%TA.AperFunction,Conductor*%
%TO.N,Net-(D1-K)*%
G36*
X143796211Y-88053027D02*
G01*
X143797011Y-88053913D01*
X144212235Y-88563954D01*
X144214801Y-88572534D01*
X144211461Y-88579589D01*
X143726564Y-89067485D01*
X143718301Y-89070937D01*
X143710206Y-89067719D01*
X143400147Y-88773128D01*
X143201284Y-88584186D01*
X143197648Y-88576004D01*
X143200019Y-88568639D01*
X143589989Y-88054232D01*
X143597718Y-88049709D01*
X143599313Y-88049600D01*
X143787938Y-88049600D01*
X143796211Y-88053027D01*
G37*
%TD.AperFunction*%
%TD*%
%TA.AperFunction,Conductor*%
%TO.N,Net-(D1-K)*%
G36*
X143701024Y-85895334D02*
G01*
X143702455Y-85896765D01*
X144122468Y-86396974D01*
X144293901Y-86601139D01*
X144296597Y-86609679D01*
X144294754Y-86615034D01*
X143796960Y-87381771D01*
X143789581Y-87386844D01*
X143787147Y-87387100D01*
X143599853Y-87387100D01*
X143591580Y-87383673D01*
X143590040Y-87381771D01*
X143092245Y-86615034D01*
X143090614Y-86606229D01*
X143093096Y-86601141D01*
X143684541Y-85896769D01*
X143692484Y-85892638D01*
X143701024Y-85895334D01*
G37*
%TD.AperFunction*%
%TD*%
%TA.AperFunction,Conductor*%
%TO.N,Net-(D2-K)*%
G36*
X147543468Y-95991199D02*
G01*
X148229242Y-96236497D01*
X148235877Y-96242510D01*
X148236749Y-96245098D01*
X148340671Y-96737806D01*
X148339025Y-96746609D01*
X148331638Y-96751669D01*
X148329826Y-96751905D01*
X147175408Y-96811465D01*
X147166969Y-96808469D01*
X147163121Y-96800384D01*
X147163105Y-96799781D01*
X147163105Y-96615316D01*
X147164750Y-96609334D01*
X147529475Y-95996233D01*
X147536650Y-95990876D01*
X147543468Y-95991199D01*
G37*
%TD.AperFunction*%
%TD*%
%TA.AperFunction,Conductor*%
%TO.N,Net-(D2-K)*%
G36*
X146221362Y-96135568D02*
G01*
X146987945Y-96608672D01*
X146993185Y-96615933D01*
X146993500Y-96618628D01*
X146993500Y-96805921D01*
X146990073Y-96814194D01*
X146988398Y-96815583D01*
X146301896Y-97284356D01*
X146293131Y-97286192D01*
X146288671Y-97284336D01*
X145505175Y-96745812D01*
X145500298Y-96738302D01*
X145502160Y-96729543D01*
X145504278Y-96727210D01*
X145636802Y-96615933D01*
X146207697Y-96136565D01*
X146216236Y-96133870D01*
X146221362Y-96135568D01*
G37*
%TD.AperFunction*%
%TD*%
%TA.AperFunction,Conductor*%
%TO.N,/SDA*%
G36*
X132095497Y-91669008D02*
G01*
X132095907Y-91669399D01*
X132225342Y-91798834D01*
X132228769Y-91807107D01*
X132225342Y-91815380D01*
X132225293Y-91815429D01*
X131972421Y-92065322D01*
X131964128Y-92068700D01*
X131963014Y-92068640D01*
X131177168Y-91988760D01*
X131169284Y-91984514D01*
X131166727Y-91978447D01*
X131137813Y-91724503D01*
X131140282Y-91715897D01*
X131148114Y-91711556D01*
X131148867Y-91711495D01*
X132087067Y-91665986D01*
X132095497Y-91669008D01*
G37*
%TD.AperFunction*%
%TD*%
%TA.AperFunction,Conductor*%
%TO.N,/SDA*%
G36*
X119299295Y-98581120D02*
G01*
X119299301Y-98581129D01*
X119760286Y-99270698D01*
X119762035Y-99279480D01*
X119758663Y-99285639D01*
X119414200Y-99616398D01*
X119281225Y-99749373D01*
X119272952Y-99752800D01*
X119264679Y-99749373D01*
X119264554Y-99749246D01*
X118596424Y-99054395D01*
X118593161Y-99046058D01*
X118596750Y-99037853D01*
X118598342Y-99036570D01*
X119283064Y-98577909D01*
X119291843Y-98576153D01*
X119299295Y-98581120D01*
G37*
%TD.AperFunction*%
%TD*%
%TA.AperFunction,Conductor*%
%TO.N,/SDA*%
G36*
X153213297Y-89899061D02*
G01*
X153986520Y-90060225D01*
X153993919Y-90065268D01*
X153995586Y-90074066D01*
X153990543Y-90081466D01*
X153989358Y-90082147D01*
X153370970Y-90390866D01*
X153365739Y-90392098D01*
X152905141Y-90391904D01*
X152896869Y-90388474D01*
X152893446Y-90380204D01*
X152893446Y-90196970D01*
X152896873Y-90188697D01*
X152897123Y-90188454D01*
X153202912Y-89901976D01*
X153211291Y-89898821D01*
X153213297Y-89899061D01*
G37*
%TD.AperFunction*%
%TD*%
%TA.AperFunction,Conductor*%
%TO.N,/SDA*%
G36*
X128951760Y-87884385D02*
G01*
X128951786Y-87884411D01*
X129261616Y-88195195D01*
X129265030Y-88203473D01*
X129262950Y-88210115D01*
X129046989Y-88522060D01*
X129039462Y-88526911D01*
X129037369Y-88527100D01*
X128849631Y-88527100D01*
X128841358Y-88523673D01*
X128840011Y-88522060D01*
X128624049Y-88210115D01*
X128622158Y-88201362D01*
X128625382Y-88195196D01*
X128935214Y-87884410D01*
X128943482Y-87880971D01*
X128951760Y-87884385D01*
G37*
%TD.AperFunction*%
%TD*%
%TA.AperFunction,Conductor*%
%TO.N,/SDA*%
G36*
X128296392Y-87553547D02*
G01*
X128913165Y-87862269D01*
X128919029Y-87869037D01*
X128918391Y-87877969D01*
X128911623Y-87883833D01*
X128910093Y-87884230D01*
X128137219Y-88029750D01*
X128128455Y-88027913D01*
X128126615Y-88026356D01*
X127990122Y-87884230D01*
X127838420Y-87726268D01*
X127835162Y-87717929D01*
X127838586Y-87709893D01*
X127968837Y-87579642D01*
X127976220Y-87576250D01*
X128290272Y-87552345D01*
X128296392Y-87553547D01*
G37*
%TD.AperFunction*%
%TD*%
%TA.AperFunction,Conductor*%
%TO.N,/SDA*%
G36*
X130373827Y-91713929D02*
G01*
X131137267Y-91976034D01*
X131143979Y-91981962D01*
X131144534Y-91990899D01*
X131138606Y-91997611D01*
X131137267Y-91998166D01*
X130373827Y-92260270D01*
X130364890Y-92259715D01*
X130363747Y-92259075D01*
X130098919Y-92090548D01*
X130093779Y-92083215D01*
X130093500Y-92080677D01*
X130093500Y-91893522D01*
X130096927Y-91885249D01*
X130098915Y-91883653D01*
X130363748Y-91715123D01*
X130372566Y-91713574D01*
X130373827Y-91713929D01*
G37*
%TD.AperFunction*%
%TD*%
%TA.AperFunction,Conductor*%
%TO.N,/SDA*%
G36*
X136579563Y-112608631D02*
G01*
X136580406Y-112609570D01*
X136793782Y-112874781D01*
X136796298Y-112883375D01*
X136795860Y-112885517D01*
X136632866Y-113421813D01*
X136627182Y-113428732D01*
X136618270Y-113429605D01*
X136611351Y-113423921D01*
X136611173Y-113423574D01*
X136371517Y-112932017D01*
X136370918Y-112923240D01*
X136383305Y-112885517D01*
X136429944Y-112743482D01*
X136432784Y-112738864D01*
X136563018Y-112608630D01*
X136571290Y-112605204D01*
X136579563Y-112608631D01*
G37*
%TD.AperFunction*%
%TD*%
%TA.AperFunction,Conductor*%
%TO.N,/SDA*%
G36*
X126238840Y-81444876D02*
G01*
X126239685Y-81445721D01*
X126718709Y-81976389D01*
X126721709Y-81984827D01*
X126720101Y-81990175D01*
X126334395Y-82643846D01*
X126327239Y-82649230D01*
X126324318Y-82649600D01*
X126137682Y-82649600D01*
X126129409Y-82646173D01*
X126127605Y-82643846D01*
X126047659Y-82508359D01*
X125741897Y-81990173D01*
X125740645Y-81981308D01*
X125743288Y-81976391D01*
X126222315Y-81445720D01*
X126230402Y-81441876D01*
X126238840Y-81444876D01*
G37*
%TD.AperFunction*%
%TD*%
%TA.AperFunction,Conductor*%
%TO.N,/SDA*%
G36*
X128942476Y-87880735D02*
G01*
X128948561Y-87886984D01*
X129073937Y-88191930D01*
X129073914Y-88200885D01*
X129068228Y-88206903D01*
X128466895Y-88498980D01*
X128457956Y-88499512D01*
X128453510Y-88496729D01*
X128318915Y-88362134D01*
X128317277Y-88360079D01*
X128202848Y-88177689D01*
X128201355Y-88168862D01*
X128206542Y-88161562D01*
X128208538Y-88160561D01*
X128933525Y-87880519D01*
X128942476Y-87880735D01*
G37*
%TD.AperFunction*%
%TD*%
%TA.AperFunction,Conductor*%
%TO.N,/RX*%
G36*
X130373827Y-94113929D02*
G01*
X131137267Y-94376034D01*
X131143979Y-94381962D01*
X131144534Y-94390899D01*
X131138606Y-94397611D01*
X131137267Y-94398166D01*
X130373827Y-94660270D01*
X130364890Y-94659715D01*
X130363747Y-94659075D01*
X130098919Y-94490548D01*
X130093779Y-94483215D01*
X130093500Y-94480677D01*
X130093500Y-94293522D01*
X130096927Y-94285249D01*
X130098915Y-94283653D01*
X130363748Y-94115123D01*
X130372566Y-94113574D01*
X130373827Y-94113929D01*
G37*
%TD.AperFunction*%
%TD*%
%TA.AperFunction,Conductor*%
%TO.N,/D2*%
G36*
X131972109Y-95714484D02*
G01*
X131973252Y-95715124D01*
X132238081Y-95883651D01*
X132243221Y-95890984D01*
X132243500Y-95893522D01*
X132243500Y-96080677D01*
X132240073Y-96088950D01*
X132238081Y-96090548D01*
X131973252Y-96259075D01*
X131964433Y-96260625D01*
X131963172Y-96260270D01*
X131199732Y-95998166D01*
X131193020Y-95992238D01*
X131192465Y-95983301D01*
X131198393Y-95976589D01*
X131199732Y-95976034D01*
X131440067Y-95893522D01*
X131963172Y-95713929D01*
X131972109Y-95714484D01*
G37*
%TD.AperFunction*%
%TD*%
%TA.AperFunction,Conductor*%
%TO.N,/D7*%
G36*
X140472109Y-94114484D02*
G01*
X140473252Y-94115124D01*
X140738081Y-94283651D01*
X140743221Y-94290984D01*
X140743500Y-94293522D01*
X140743500Y-94480677D01*
X140740073Y-94488950D01*
X140738081Y-94490548D01*
X140473252Y-94659075D01*
X140464433Y-94660625D01*
X140463172Y-94660270D01*
X139699732Y-94398166D01*
X139693020Y-94392238D01*
X139692465Y-94383301D01*
X139698393Y-94376589D01*
X139699732Y-94376034D01*
X139940067Y-94293522D01*
X140463172Y-94113929D01*
X140472109Y-94114484D01*
G37*
%TD.AperFunction*%
%TD*%
%TA.AperFunction,Conductor*%
%TO.N,/TX*%
G36*
X132239717Y-94869089D02*
G01*
X132243490Y-94877211D01*
X132243500Y-94877704D01*
X132243500Y-95060143D01*
X132240073Y-95068416D01*
X132239446Y-95068999D01*
X131972539Y-95299419D01*
X131964037Y-95302232D01*
X131963219Y-95302143D01*
X131176540Y-95188406D01*
X131168842Y-95183830D01*
X131166574Y-95178012D01*
X131164695Y-95159577D01*
X131140736Y-94924450D01*
X131143307Y-94915874D01*
X131151190Y-94911626D01*
X131151869Y-94911576D01*
X132231308Y-94866014D01*
X132239717Y-94869089D01*
G37*
%TD.AperFunction*%
%TD*%
%TA.AperFunction,Conductor*%
%TO.N,/RESET*%
G36*
X127304210Y-92861890D02*
G01*
X127834878Y-93340915D01*
X127838723Y-93349002D01*
X127835723Y-93357440D01*
X127834878Y-93358285D01*
X127304210Y-93837309D01*
X127295772Y-93840309D01*
X127290425Y-93838701D01*
X126636754Y-93452995D01*
X126631370Y-93445839D01*
X126631000Y-93442918D01*
X126631000Y-93256281D01*
X126634427Y-93248008D01*
X126636749Y-93246207D01*
X127290427Y-92860497D01*
X127299291Y-92859245D01*
X127304210Y-92861890D01*
G37*
%TD.AperFunction*%
%TD*%
%TA.AperFunction,Conductor*%
%TO.N,/RESET*%
G36*
X118425830Y-83045030D02*
G01*
X118430422Y-83051060D01*
X118852462Y-84320066D01*
X118851821Y-84328998D01*
X118849633Y-84332031D01*
X118718431Y-84463233D01*
X118710158Y-84466660D01*
X118706466Y-84466062D01*
X117437460Y-84044022D01*
X117430691Y-84038160D01*
X117429675Y-84030649D01*
X117591272Y-83214078D01*
X117596239Y-83206627D01*
X117600477Y-83204872D01*
X118417049Y-83043275D01*
X118425830Y-83045030D01*
G37*
%TD.AperFunction*%
%TD*%
%TA.AperFunction,Conductor*%
%TO.N,/RESET*%
G36*
X128507400Y-92962405D02*
G01*
X129052387Y-93483644D01*
X129055997Y-93491838D01*
X129056000Y-93492099D01*
X129056000Y-93677820D01*
X129052573Y-93686093D01*
X129046965Y-93689213D01*
X128395131Y-93841675D01*
X128386294Y-93840222D01*
X128384626Y-93838967D01*
X127854252Y-93360208D01*
X127850407Y-93352121D01*
X127853407Y-93343683D01*
X127856085Y-93341484D01*
X128493313Y-92960815D01*
X128502173Y-92959515D01*
X128507400Y-92962405D01*
G37*
%TD.AperFunction*%
%TD*%
%TA.AperFunction,Conductor*%
%TO.N,/RESET*%
G36*
X130373827Y-93313929D02*
G01*
X131137267Y-93576034D01*
X131143979Y-93581962D01*
X131144534Y-93590899D01*
X131138606Y-93597611D01*
X131137267Y-93598166D01*
X130373827Y-93860270D01*
X130364890Y-93859715D01*
X130363747Y-93859075D01*
X130098919Y-93690548D01*
X130093779Y-93683215D01*
X130093500Y-93680677D01*
X130093500Y-93493522D01*
X130096927Y-93485249D01*
X130098915Y-93483653D01*
X130363748Y-93315123D01*
X130372566Y-93313574D01*
X130373827Y-93313929D01*
G37*
%TD.AperFunction*%
%TD*%
%TA.AperFunction,Conductor*%
%TO.N,/MOSI*%
G36*
X140472109Y-90914484D02*
G01*
X140473252Y-90915124D01*
X140738081Y-91083651D01*
X140743221Y-91090984D01*
X140743500Y-91093522D01*
X140743500Y-91280677D01*
X140740073Y-91288950D01*
X140738081Y-91290548D01*
X140473252Y-91459075D01*
X140464433Y-91460625D01*
X140463172Y-91460270D01*
X139699732Y-91198166D01*
X139693020Y-91192238D01*
X139692465Y-91183301D01*
X139698393Y-91176589D01*
X139699732Y-91176034D01*
X139940067Y-91093522D01*
X140463172Y-90913929D01*
X140472109Y-90914484D01*
G37*
%TD.AperFunction*%
%TD*%
%TA.AperFunction,Conductor*%
%TO.N,/D5*%
G36*
X139677631Y-95993414D02*
G01*
X139677665Y-95993441D01*
X140006117Y-96256506D01*
X140010432Y-96264352D01*
X140009532Y-96270304D01*
X139896559Y-96530066D01*
X139890117Y-96536286D01*
X139885830Y-96537100D01*
X139698755Y-96537100D01*
X139690482Y-96533673D01*
X139690009Y-96533172D01*
X139455659Y-96269451D01*
X139452725Y-96260990D01*
X139455245Y-96254401D01*
X139661193Y-95995291D01*
X139669022Y-95990949D01*
X139677631Y-95993414D01*
G37*
%TD.AperFunction*%
%TD*%
%TA.AperFunction,Conductor*%
%TO.N,/D6*%
G36*
X140472109Y-94914484D02*
G01*
X140473252Y-94915124D01*
X140738081Y-95083651D01*
X140743221Y-95090984D01*
X140743500Y-95093522D01*
X140743500Y-95280677D01*
X140740073Y-95288950D01*
X140738081Y-95290548D01*
X140473252Y-95459075D01*
X140464433Y-95460625D01*
X140463172Y-95460270D01*
X139699732Y-95198166D01*
X139693020Y-95192238D01*
X139692465Y-95183301D01*
X139698393Y-95176589D01*
X139699732Y-95176034D01*
X139940067Y-95093522D01*
X140463172Y-94913929D01*
X140472109Y-94914484D01*
G37*
%TD.AperFunction*%
%TD*%
%TA.AperFunction,Conductor*%
%TO.N,/D4*%
G36*
X133953823Y-97469815D02*
G01*
X133954535Y-97471655D01*
X134177187Y-98231836D01*
X134176224Y-98240739D01*
X134175670Y-98241651D01*
X133969107Y-98549042D01*
X133961648Y-98553997D01*
X133952870Y-98552227D01*
X133951123Y-98550789D01*
X133820143Y-98419809D01*
X133819411Y-98419006D01*
X133672697Y-98242159D01*
X133670053Y-98233606D01*
X133670638Y-98230890D01*
X133932244Y-97471134D01*
X133938178Y-97464428D01*
X133947116Y-97463881D01*
X133953823Y-97469815D01*
G37*
%TD.AperFunction*%
%TD*%
%TA.AperFunction,Conductor*%
%TO.N,/SCL*%
G36*
X120125830Y-100950030D02*
G01*
X120130422Y-100956060D01*
X120552462Y-102225066D01*
X120551821Y-102233998D01*
X120549633Y-102237031D01*
X120418431Y-102368233D01*
X120410158Y-102371660D01*
X120406466Y-102371062D01*
X119137460Y-101949022D01*
X119130691Y-101943160D01*
X119129675Y-101935649D01*
X119291272Y-101119078D01*
X119296239Y-101111627D01*
X119300477Y-101109872D01*
X120117049Y-100948275D01*
X120125830Y-100950030D01*
G37*
%TD.AperFunction*%
%TD*%
%TA.AperFunction,Conductor*%
%TO.N,/SCL*%
G36*
X153371392Y-88473547D02*
G01*
X153988165Y-88782269D01*
X153994029Y-88789037D01*
X153993391Y-88797969D01*
X153986623Y-88803833D01*
X153985093Y-88804230D01*
X153212219Y-88949750D01*
X153203455Y-88947913D01*
X153201615Y-88946356D01*
X153065122Y-88804230D01*
X152913420Y-88646268D01*
X152910162Y-88637929D01*
X152913586Y-88629893D01*
X153043837Y-88499642D01*
X153051220Y-88496250D01*
X153365272Y-88472345D01*
X153371392Y-88473547D01*
G37*
%TD.AperFunction*%
%TD*%
%TA.AperFunction,Conductor*%
%TO.N,/SCL*%
G36*
X133830033Y-113196108D02*
G01*
X134076179Y-113441311D01*
X134079622Y-113449578D01*
X134076211Y-113457857D01*
X134076179Y-113457889D01*
X133830033Y-113703091D01*
X133821754Y-113706502D01*
X133815645Y-113704766D01*
X133692356Y-113628896D01*
X133569068Y-113553026D01*
X133563818Y-113545772D01*
X133563500Y-113543062D01*
X133563500Y-113356137D01*
X133566927Y-113347864D01*
X133569064Y-113346175D01*
X133815647Y-113194432D01*
X133824486Y-113193015D01*
X133830033Y-113196108D01*
G37*
%TD.AperFunction*%
%TD*%
%TA.AperFunction,Conductor*%
%TO.N,/SCL*%
G36*
X131972109Y-92514484D02*
G01*
X131973252Y-92515124D01*
X132238081Y-92683651D01*
X132243221Y-92690984D01*
X132243500Y-92693522D01*
X132243500Y-92880677D01*
X132240073Y-92888950D01*
X132238081Y-92890548D01*
X131973252Y-93059075D01*
X131964433Y-93060625D01*
X131963172Y-93060270D01*
X131199732Y-92798166D01*
X131193020Y-92792238D01*
X131192465Y-92783301D01*
X131198393Y-92776589D01*
X131199732Y-92776034D01*
X131440067Y-92693522D01*
X131963172Y-92513929D01*
X131972109Y-92514484D01*
G37*
%TD.AperFunction*%
%TD*%
%TA.AperFunction,Conductor*%
%TO.N,/SCL*%
G36*
X133833315Y-113345931D02*
G01*
X134014153Y-113420144D01*
X134073697Y-113444580D01*
X134080050Y-113450891D01*
X134080205Y-113459525D01*
X133875523Y-114003373D01*
X133869402Y-114009909D01*
X133861140Y-114010436D01*
X133823802Y-113998976D01*
X133713144Y-113965011D01*
X133708304Y-113962099D01*
X133575052Y-113828847D01*
X133571625Y-113820574D01*
X133572985Y-113815100D01*
X133818536Y-113351280D01*
X133825433Y-113345573D01*
X133833315Y-113345931D01*
G37*
%TD.AperFunction*%
%TD*%
%TA.AperFunction,Conductor*%
%TO.N,/SCL*%
G36*
X129711763Y-86332120D02*
G01*
X129713338Y-86333010D01*
X130007150Y-86530453D01*
X130008897Y-86531891D01*
X130138040Y-86661034D01*
X130141467Y-86669307D01*
X130138040Y-86677580D01*
X130135005Y-86679769D01*
X129660590Y-86917274D01*
X129651658Y-86917913D01*
X129650662Y-86917531D01*
X128969595Y-86619534D01*
X128963389Y-86613078D01*
X128963566Y-86604125D01*
X128970022Y-86597919D01*
X128970246Y-86597834D01*
X129702819Y-86331724D01*
X129711763Y-86332120D01*
G37*
%TD.AperFunction*%
%TD*%
%TA.AperFunction,Conductor*%
%TO.N,/SCL*%
G36*
X151576340Y-84019876D02*
G01*
X151577185Y-84020721D01*
X152056209Y-84551389D01*
X152059209Y-84559827D01*
X152057601Y-84565175D01*
X151671895Y-85218846D01*
X151664739Y-85224230D01*
X151661818Y-85224600D01*
X151475182Y-85224600D01*
X151466909Y-85221173D01*
X151465105Y-85218846D01*
X151385159Y-85083359D01*
X151079397Y-84565173D01*
X151078145Y-84556308D01*
X151080788Y-84551391D01*
X151559815Y-84020720D01*
X151567902Y-84016876D01*
X151576340Y-84019876D01*
G37*
%TD.AperFunction*%
%TD*%
%TA.AperFunction,Conductor*%
%TO.N,/SCL*%
G36*
X130373828Y-92553517D02*
G01*
X131005582Y-92738979D01*
X131134227Y-92776745D01*
X131141200Y-92782363D01*
X131142157Y-92791267D01*
X131136539Y-92798240D01*
X131134730Y-92799037D01*
X130372824Y-93060615D01*
X130364313Y-93060258D01*
X130290442Y-93027754D01*
X130100488Y-92944174D01*
X130094296Y-92937706D01*
X130093500Y-92933465D01*
X130093500Y-92747252D01*
X130096927Y-92738979D01*
X130098564Y-92737616D01*
X130363916Y-92555105D01*
X130372672Y-92553241D01*
X130373828Y-92553517D01*
G37*
%TD.AperFunction*%
%TD*%
%TA.AperFunction,Conductor*%
%TO.N,/D3*%
G36*
X133221072Y-96357736D02*
G01*
X133221908Y-96358495D01*
X133352661Y-96489248D01*
X133355100Y-96492814D01*
X133416659Y-96632910D01*
X133417010Y-96641426D01*
X133156634Y-97397608D01*
X133150700Y-97404315D01*
X133141762Y-97404862D01*
X133135055Y-97398928D01*
X133134117Y-97396187D01*
X132977032Y-96642593D01*
X132978699Y-96633794D01*
X132979454Y-96632768D01*
X133204606Y-96359329D01*
X133212507Y-96355122D01*
X133221072Y-96357736D01*
G37*
%TD.AperFunction*%
%TD*%
%TA.AperFunction,Conductor*%
%TO.N,/D8*%
G36*
X140472109Y-93314484D02*
G01*
X140473252Y-93315124D01*
X140738081Y-93483651D01*
X140743221Y-93490984D01*
X140743500Y-93493522D01*
X140743500Y-93680677D01*
X140740073Y-93688950D01*
X140738081Y-93690548D01*
X140473252Y-93859075D01*
X140464433Y-93860625D01*
X140463172Y-93860270D01*
X139699732Y-93598166D01*
X139693020Y-93592238D01*
X139692465Y-93583301D01*
X139698393Y-93576589D01*
X139699732Y-93576034D01*
X139940067Y-93493522D01*
X140463172Y-93313929D01*
X140472109Y-93314484D01*
G37*
%TD.AperFunction*%
%TD*%
%TA.AperFunction,Conductor*%
%TO.N,/MISO*%
G36*
X140472109Y-90114484D02*
G01*
X140473252Y-90115124D01*
X140738081Y-90283651D01*
X140743221Y-90290984D01*
X140743500Y-90293522D01*
X140743500Y-90480677D01*
X140740073Y-90488950D01*
X140738081Y-90490548D01*
X140473252Y-90659075D01*
X140464433Y-90660625D01*
X140463172Y-90660270D01*
X139699732Y-90398166D01*
X139693020Y-90392238D01*
X139692465Y-90383301D01*
X139698393Y-90376589D01*
X139699732Y-90376034D01*
X139940067Y-90293522D01*
X140463172Y-90113929D01*
X140472109Y-90114484D01*
G37*
%TD.AperFunction*%
%TD*%
%TA.AperFunction,Conductor*%
%TO.N,Net-(U3-!INTA)*%
G36*
X132742760Y-104290770D02*
G01*
X132746021Y-104296091D01*
X132976828Y-105099284D01*
X132975819Y-105108181D01*
X132973856Y-105110788D01*
X132842870Y-105241774D01*
X132834597Y-105245201D01*
X132830065Y-105244288D01*
X131841930Y-104829101D01*
X131835630Y-104822736D01*
X131835644Y-104813856D01*
X132039918Y-104318365D01*
X132046239Y-104312024D01*
X132050326Y-104311134D01*
X132734375Y-104287629D01*
X132742760Y-104290770D01*
G37*
%TD.AperFunction*%
%TD*%
%TA.AperFunction,Conductor*%
%TO.N,Net-(U3-!INTA)*%
G36*
X136615290Y-108406946D02*
G01*
X136622641Y-108412059D01*
X136624488Y-108418017D01*
X136641613Y-108973919D01*
X136638443Y-108982293D01*
X136637432Y-108983248D01*
X136346074Y-109227279D01*
X136337531Y-109229965D01*
X136330288Y-109226583D01*
X136201000Y-109097295D01*
X136197573Y-109089022D01*
X136197860Y-109086448D01*
X136221134Y-108983248D01*
X136360944Y-108363309D01*
X136366106Y-108355994D01*
X136374851Y-108354454D01*
X136615290Y-108406946D01*
G37*
%TD.AperFunction*%
%TD*%
%TA.AperFunction,Conductor*%
%TO.N,Net-(U3-SQW{slash}~INT)*%
G36*
X135066148Y-107591906D02*
G01*
X135361385Y-107835997D01*
X135365578Y-107843909D01*
X135365628Y-107845250D01*
X135354392Y-108401132D01*
X135350798Y-108409335D01*
X135345253Y-108412313D01*
X135104762Y-108466207D01*
X135095939Y-108464672D01*
X135090823Y-108457505D01*
X134918042Y-107732907D01*
X134919457Y-107724064D01*
X134921146Y-107721924D01*
X135050421Y-107592649D01*
X135058693Y-107589223D01*
X135066148Y-107591906D01*
G37*
%TD.AperFunction*%
%TD*%
%TA.AperFunction,Conductor*%
%TO.N,Net-(U3-SQW{slash}~INT)*%
G36*
X135432734Y-103581284D02*
G01*
X135704689Y-103723641D01*
X136242273Y-104005044D01*
X136248013Y-104011917D01*
X136247282Y-104020701D01*
X135996049Y-104516224D01*
X135989252Y-104522053D01*
X135984100Y-104522535D01*
X135301672Y-104433471D01*
X135293912Y-104429002D01*
X135291487Y-104421999D01*
X135283752Y-103723639D01*
X135287087Y-103715330D01*
X135419039Y-103583377D01*
X135427311Y-103579951D01*
X135432734Y-103581284D01*
G37*
%TD.AperFunction*%
%TD*%
%TA.AperFunction,Conductor*%
%TO.N,Net-(U3-X1)*%
G36*
X135358614Y-113464846D02*
G01*
X135364023Y-113470255D01*
X135605042Y-113966261D01*
X135605576Y-113975200D01*
X135604984Y-113976607D01*
X135456734Y-114273132D01*
X135449969Y-114278999D01*
X135446269Y-114279600D01*
X135260731Y-114279600D01*
X135252458Y-114276173D01*
X135250266Y-114273132D01*
X135102014Y-113976605D01*
X135101381Y-113967675D01*
X135101952Y-113966273D01*
X135342977Y-113470254D01*
X135349675Y-113464312D01*
X135358614Y-113464846D01*
G37*
%TD.AperFunction*%
%TD*%
%TA.AperFunction,Conductor*%
%TO.N,Net-(U3-X1)*%
G36*
X135447998Y-114698223D02*
G01*
X135451425Y-114706496D01*
X135451271Y-114708389D01*
X135095658Y-116877267D01*
X135090938Y-116884877D01*
X135082219Y-116886920D01*
X135080726Y-116886573D01*
X134099289Y-116589850D01*
X134092362Y-116584176D01*
X134091580Y-116582364D01*
X133694942Y-115397195D01*
X133695566Y-115388262D01*
X133701295Y-115382786D01*
X135251235Y-114695800D01*
X135255976Y-114694796D01*
X135439725Y-114694796D01*
X135447998Y-114698223D01*
G37*
%TD.AperFunction*%
%TD*%
%TA.AperFunction,Conductor*%
%TO.N,Net-(U3-X2)*%
G36*
X137996150Y-114390527D02*
G01*
X137997013Y-114391491D01*
X138787534Y-115379643D01*
X138790026Y-115388244D01*
X138787389Y-115394438D01*
X137802741Y-116577001D01*
X137794814Y-116581167D01*
X137786264Y-116578506D01*
X137784561Y-116576757D01*
X136853293Y-115395041D01*
X136850863Y-115386422D01*
X136853984Y-115379757D01*
X137790039Y-114390757D01*
X137798214Y-114387104D01*
X137798536Y-114387100D01*
X137987877Y-114387100D01*
X137996150Y-114390527D01*
G37*
%TD.AperFunction*%
%TD*%
%TA.AperFunction,Conductor*%
%TO.N,Net-(U3-X2)*%
G36*
X137898614Y-113464846D02*
G01*
X137904023Y-113470255D01*
X138145042Y-113966261D01*
X138145576Y-113975200D01*
X138144984Y-113976607D01*
X137996734Y-114273132D01*
X137989969Y-114278999D01*
X137986269Y-114279600D01*
X137800731Y-114279600D01*
X137792458Y-114276173D01*
X137790266Y-114273132D01*
X137642014Y-113976605D01*
X137641381Y-113967675D01*
X137641952Y-113966273D01*
X137882977Y-113470254D01*
X137889675Y-113464312D01*
X137898614Y-113464846D01*
G37*
%TD.AperFunction*%
%TD*%
M02*
