%TF.GenerationSoftware,KiCad,Pcbnew,9.0.1*%
%TF.CreationDate,2025-12-03T13:54:15+03:00*%
%TF.ProjectId,MCU Datalogger wirh 512KB EEPROM,4d435520-4461-4746-916c-6f6767657220,1*%
%TF.SameCoordinates,Original*%
%TF.FileFunction,Drillmap*%
%TF.FilePolarity,Positive*%
%FSLAX45Y45*%
G04 Gerber Fmt 4.5, Leading zero omitted, Abs format (unit mm)*
G04 Created by KiCad (PCBNEW 9.0.1) date 2025-12-03 13:54:15*
%MOMM*%
%LPD*%
G01*
G04 APERTURE LIST*
%ADD10C,0.050000*%
%ADD11C,0.200000*%
%ADD12C,0.100000*%
G04 APERTURE END LIST*
D10*
X11281210Y-12340790D02*
X15896790Y-12340790D01*
X15896790Y-7471210D02*
X11281210Y-7471210D01*
X16404790Y-11832790D02*
X16404790Y-7979210D01*
X10773210Y-7979210D02*
G75*
G02*
X11281210Y-7471210I508000J0D01*
G01*
X10773210Y-7979210D02*
X10773210Y-11832790D01*
X15896790Y-7471210D02*
G75*
G02*
X16404790Y-7979210I0J-508000D01*
G01*
X16404790Y-11832790D02*
G75*
G02*
X15896790Y-12340790I-508000J0D01*
G01*
X11281210Y-12340790D02*
G75*
G02*
X10773210Y-11832790I0J508000D01*
G01*
D11*
D12*
X10967000Y-10045000D02*
X10997000Y-10075000D01*
X10997000Y-10045000D02*
X10967000Y-10075000D01*
X11081000Y-8625000D02*
X11111000Y-8655000D01*
X11111000Y-8625000D02*
X11081000Y-8655000D01*
X11538000Y-9207000D02*
X11568000Y-9237000D01*
X11568000Y-9207000D02*
X11538000Y-9237000D01*
X11978000Y-8821000D02*
X12008000Y-8851000D01*
X12008000Y-8821000D02*
X11978000Y-8851000D01*
X11991000Y-9018000D02*
X12021000Y-9048000D01*
X12021000Y-9018000D02*
X11991000Y-9048000D01*
X12024000Y-8031000D02*
X12054000Y-8061000D01*
X12054000Y-8031000D02*
X12024000Y-8061000D01*
X12314000Y-11634000D02*
X12344000Y-11664000D01*
X12344000Y-11634000D02*
X12314000Y-11664000D01*
X12618000Y-9200000D02*
X12648000Y-9230000D01*
X12648000Y-9200000D02*
X12618000Y-9230000D01*
X12722000Y-8037000D02*
X12752000Y-8067000D01*
X12752000Y-8037000D02*
X12722000Y-8067000D01*
X12881000Y-11164000D02*
X12911000Y-11194000D01*
X12911000Y-11164000D02*
X12881000Y-11194000D01*
X12895000Y-9083000D02*
X12925000Y-9113000D01*
X12925000Y-9083000D02*
X12895000Y-9113000D01*
X12919000Y-9785000D02*
X12949000Y-9815000D01*
X12949000Y-9785000D02*
X12919000Y-9815000D01*
X13000000Y-11313000D02*
X13030000Y-11343000D01*
X13030000Y-11313000D02*
X13000000Y-11343000D01*
X13246000Y-9198000D02*
X13276000Y-9228000D01*
X13276000Y-9198000D02*
X13246000Y-9228000D01*
X13399000Y-9160000D02*
X13429000Y-9190000D01*
X13429000Y-9160000D02*
X13399000Y-9190000D01*
X13606000Y-8197000D02*
X13636000Y-8227000D01*
X13636000Y-8197000D02*
X13606000Y-8227000D01*
X13613000Y-10133000D02*
X13643000Y-10163000D01*
X13643000Y-10133000D02*
X13613000Y-10163000D01*
X13621000Y-9292000D02*
X13651000Y-9322000D01*
X13651000Y-9292000D02*
X13621000Y-9322000D01*
X13729000Y-9028000D02*
X13759000Y-9058000D01*
X13759000Y-9028000D02*
X13729000Y-9058000D01*
X13733000Y-9455000D02*
X13763000Y-9485000D01*
X13763000Y-9455000D02*
X13733000Y-9485000D01*
X13741000Y-10360000D02*
X13771000Y-10390000D01*
X13771000Y-10360000D02*
X13741000Y-10390000D01*
X14135000Y-8760000D02*
X14165000Y-8790000D01*
X14165000Y-8760000D02*
X14135000Y-8790000D01*
X14205000Y-9831000D02*
X14235000Y-9861000D01*
X14235000Y-9831000D02*
X14205000Y-9861000D01*
X14274000Y-9303000D02*
X14304000Y-9333000D01*
X14304000Y-9303000D02*
X14274000Y-9333000D01*
X15056000Y-10293000D02*
X15086000Y-10323000D01*
X15086000Y-10293000D02*
X15056000Y-10323000D01*
X15402000Y-9652000D02*
X15432000Y-9682000D01*
X15432000Y-9652000D02*
X15402000Y-9682000D01*
X15984000Y-9237000D02*
X16014000Y-9267000D01*
X16014000Y-9237000D02*
X15984000Y-9267000D01*
X12053000Y-8242000D02*
G75*
G02*
X12013000Y-8242000I-20000J0D01*
G01*
X12013000Y-8242000D02*
G75*
G02*
X12053000Y-8242000I20000J0D01*
G01*
X12651000Y-8607000D02*
G75*
G02*
X12611000Y-8607000I-20000J0D01*
G01*
X12611000Y-8607000D02*
G75*
G02*
X12651000Y-8607000I20000J0D01*
G01*
X13000000Y-10825000D02*
G75*
G02*
X12960000Y-10825000I-20000J0D01*
G01*
X12960000Y-10825000D02*
G75*
G02*
X13000000Y-10825000I20000J0D01*
G01*
X13055000Y-9969000D02*
G75*
G02*
X13015000Y-9969000I-20000J0D01*
G01*
X13015000Y-9969000D02*
G75*
G02*
X13055000Y-9969000I20000J0D01*
G01*
X13285000Y-10808000D02*
G75*
G02*
X13245000Y-10808000I-20000J0D01*
G01*
X13245000Y-10808000D02*
G75*
G02*
X13285000Y-10808000I20000J0D01*
G01*
X13458993Y-9033194D02*
G75*
G02*
X13418993Y-9033194I-20000J0D01*
G01*
X13418993Y-9033194D02*
G75*
G02*
X13458993Y-9033194I20000J0D01*
G01*
X13490000Y-9554000D02*
G75*
G02*
X13450000Y-9554000I-20000J0D01*
G01*
X13450000Y-9554000D02*
G75*
G02*
X13490000Y-9554000I20000J0D01*
G01*
X13550000Y-8567000D02*
G75*
G02*
X13510000Y-8567000I-20000J0D01*
G01*
X13510000Y-8567000D02*
G75*
G02*
X13550000Y-8567000I20000J0D01*
G01*
X13575000Y-9917000D02*
G75*
G02*
X13535000Y-9917000I-20000J0D01*
G01*
X13535000Y-9917000D02*
G75*
G02*
X13575000Y-9917000I20000J0D01*
G01*
X13762000Y-11042000D02*
G75*
G02*
X13722000Y-11042000I-20000J0D01*
G01*
X13722000Y-11042000D02*
G75*
G02*
X13762000Y-11042000I20000J0D01*
G01*
X13913000Y-10507000D02*
G75*
G02*
X13873000Y-10507000I-20000J0D01*
G01*
X13873000Y-10507000D02*
G75*
G02*
X13913000Y-10507000I20000J0D01*
G01*
X13919000Y-8584000D02*
G75*
G02*
X13879000Y-8584000I-20000J0D01*
G01*
X13879000Y-8584000D02*
G75*
G02*
X13919000Y-8584000I20000J0D01*
G01*
X13964350Y-9917000D02*
G75*
G02*
X13924350Y-9917000I-20000J0D01*
G01*
X13924350Y-9917000D02*
G75*
G02*
X13964350Y-9917000I20000J0D01*
G01*
X14083000Y-8049000D02*
G75*
G02*
X14043000Y-8049000I-20000J0D01*
G01*
X14043000Y-8049000D02*
G75*
G02*
X14083000Y-8049000I20000J0D01*
G01*
X14259000Y-9541000D02*
G75*
G02*
X14219000Y-9541000I-20000J0D01*
G01*
X14219000Y-9541000D02*
G75*
G02*
X14259000Y-9541000I20000J0D01*
G01*
X14399000Y-8363000D02*
G75*
G02*
X14359000Y-8363000I-20000J0D01*
G01*
X14359000Y-8363000D02*
G75*
G02*
X14399000Y-8363000I20000J0D01*
G01*
X14750000Y-9986000D02*
G75*
G02*
X14710000Y-9986000I-20000J0D01*
G01*
X14710000Y-9986000D02*
G75*
G02*
X14750000Y-9986000I20000J0D01*
G01*
X15045000Y-8757000D02*
G75*
G02*
X15005000Y-8757000I-20000J0D01*
G01*
X15005000Y-8757000D02*
G75*
G02*
X15045000Y-8757000I20000J0D01*
G01*
X15121000Y-9014000D02*
G75*
G02*
X15081000Y-9014000I-20000J0D01*
G01*
X15081000Y-9014000D02*
G75*
G02*
X15121000Y-9014000I20000J0D01*
G01*
X15292000Y-9325000D02*
G75*
G02*
X15252000Y-9325000I-20000J0D01*
G01*
X15252000Y-9325000D02*
G75*
G02*
X15292000Y-9325000I20000J0D01*
G01*
X15373000Y-8509000D02*
G75*
G02*
X15333000Y-8509000I-20000J0D01*
G01*
X15333000Y-8509000D02*
G75*
G02*
X15373000Y-8509000I20000J0D01*
G01*
X11505350Y-8270710D02*
X11505350Y-8370710D01*
X11455350Y-8320710D02*
X11555350Y-8320710D01*
X11505350Y-8524710D02*
X11505350Y-8624710D01*
X11455350Y-8574710D02*
X11555350Y-8574710D01*
X11505350Y-8778710D02*
X11505350Y-8878710D01*
X11455350Y-8828710D02*
X11555350Y-8828710D01*
X11759350Y-8270710D02*
X11759350Y-8370710D01*
X11709350Y-8320710D02*
X11809350Y-8320710D01*
X11759350Y-8524710D02*
X11759350Y-8624710D01*
X11709350Y-8574710D02*
X11809350Y-8574710D01*
X11759350Y-8778710D02*
X11759350Y-8878710D01*
X11709350Y-8828710D02*
X11809350Y-8828710D01*
X11929350Y-9299210D02*
X11929350Y-9399210D01*
X11879350Y-9349210D02*
X11979350Y-9349210D01*
X11929350Y-9553210D02*
X11929350Y-9653210D01*
X11879350Y-9603210D02*
X11979350Y-9603210D01*
X11929350Y-9807210D02*
X11929350Y-9907210D01*
X11879350Y-9857210D02*
X11979350Y-9857210D01*
X11929350Y-10061210D02*
X11929350Y-10161210D01*
X11879350Y-10111210D02*
X11979350Y-10111210D01*
X11929350Y-10512710D02*
X11929350Y-10612710D01*
X11879350Y-10562710D02*
X11979350Y-10562710D01*
X11929350Y-10766710D02*
X11929350Y-10866710D01*
X11879350Y-10816710D02*
X11979350Y-10816710D01*
X11929350Y-11020710D02*
X11929350Y-11120710D01*
X11879350Y-11070710D02*
X11979350Y-11070710D01*
X11929350Y-11274710D02*
X11929350Y-11374710D01*
X11879350Y-11324710D02*
X11979350Y-11324710D01*
X13482850Y-7966210D02*
X13482850Y-8066210D01*
X13432850Y-8016210D02*
X13532850Y-8016210D01*
X13736850Y-7966210D02*
X13736850Y-8066210D01*
X13686850Y-8016210D02*
X13786850Y-8016210D01*
X15726850Y-8668210D02*
X15726850Y-8768210D01*
X15676850Y-8718210D02*
X15776850Y-8718210D01*
X15726850Y-8922210D02*
X15726850Y-9022210D01*
X15676850Y-8972210D02*
X15776850Y-8972210D01*
X15726850Y-9176210D02*
X15726850Y-9276210D01*
X15676850Y-9226210D02*
X15776850Y-9226210D01*
X15726850Y-9430210D02*
X15726850Y-9530210D01*
X15676850Y-9480210D02*
X15776850Y-9480210D01*
X15726850Y-9684210D02*
X15726850Y-9784210D01*
X15676850Y-9734210D02*
X15776850Y-9734210D01*
X15726850Y-9938210D02*
X15726850Y-10038210D01*
X15676850Y-9988210D02*
X15776850Y-9988210D01*
X15726850Y-10192210D02*
X15726850Y-10292210D01*
X15676850Y-10242210D02*
X15776850Y-10242210D01*
X15726850Y-10446210D02*
X15726850Y-10546210D01*
X15676850Y-10496210D02*
X15776850Y-10496210D01*
X15726850Y-10700210D02*
X15726850Y-10800210D01*
X15676850Y-10750210D02*
X15776850Y-10750210D01*
D11*
X11031487Y-12654774D02*
X11031487Y-12454774D01*
X11031487Y-12454774D02*
X11079106Y-12454774D01*
X11079106Y-12454774D02*
X11107678Y-12464297D01*
X11107678Y-12464297D02*
X11126725Y-12483345D01*
X11126725Y-12483345D02*
X11136249Y-12502393D01*
X11136249Y-12502393D02*
X11145773Y-12540488D01*
X11145773Y-12540488D02*
X11145773Y-12569059D01*
X11145773Y-12569059D02*
X11136249Y-12607154D01*
X11136249Y-12607154D02*
X11126725Y-12626202D01*
X11126725Y-12626202D02*
X11107678Y-12645250D01*
X11107678Y-12645250D02*
X11079106Y-12654774D01*
X11079106Y-12654774D02*
X11031487Y-12654774D01*
X11231487Y-12654774D02*
X11231487Y-12521440D01*
X11231487Y-12559535D02*
X11241011Y-12540488D01*
X11241011Y-12540488D02*
X11250535Y-12530964D01*
X11250535Y-12530964D02*
X11269582Y-12521440D01*
X11269582Y-12521440D02*
X11288630Y-12521440D01*
X11355296Y-12654774D02*
X11355296Y-12521440D01*
X11355296Y-12454774D02*
X11345773Y-12464297D01*
X11345773Y-12464297D02*
X11355296Y-12473821D01*
X11355296Y-12473821D02*
X11364820Y-12464297D01*
X11364820Y-12464297D02*
X11355296Y-12454774D01*
X11355296Y-12454774D02*
X11355296Y-12473821D01*
X11479106Y-12654774D02*
X11460058Y-12645250D01*
X11460058Y-12645250D02*
X11450535Y-12626202D01*
X11450535Y-12626202D02*
X11450535Y-12454774D01*
X11583868Y-12654774D02*
X11564820Y-12645250D01*
X11564820Y-12645250D02*
X11555296Y-12626202D01*
X11555296Y-12626202D02*
X11555296Y-12454774D01*
X11812439Y-12654774D02*
X11812439Y-12454774D01*
X11812439Y-12454774D02*
X11879106Y-12597631D01*
X11879106Y-12597631D02*
X11945773Y-12454774D01*
X11945773Y-12454774D02*
X11945773Y-12654774D01*
X12126725Y-12654774D02*
X12126725Y-12550012D01*
X12126725Y-12550012D02*
X12117201Y-12530964D01*
X12117201Y-12530964D02*
X12098154Y-12521440D01*
X12098154Y-12521440D02*
X12060058Y-12521440D01*
X12060058Y-12521440D02*
X12041011Y-12530964D01*
X12126725Y-12645250D02*
X12107677Y-12654774D01*
X12107677Y-12654774D02*
X12060058Y-12654774D01*
X12060058Y-12654774D02*
X12041011Y-12645250D01*
X12041011Y-12645250D02*
X12031487Y-12626202D01*
X12031487Y-12626202D02*
X12031487Y-12607154D01*
X12031487Y-12607154D02*
X12041011Y-12588107D01*
X12041011Y-12588107D02*
X12060058Y-12578583D01*
X12060058Y-12578583D02*
X12107677Y-12578583D01*
X12107677Y-12578583D02*
X12126725Y-12569059D01*
X12221963Y-12521440D02*
X12221963Y-12721440D01*
X12221963Y-12530964D02*
X12241011Y-12521440D01*
X12241011Y-12521440D02*
X12279106Y-12521440D01*
X12279106Y-12521440D02*
X12298154Y-12530964D01*
X12298154Y-12530964D02*
X12307677Y-12540488D01*
X12307677Y-12540488D02*
X12317201Y-12559535D01*
X12317201Y-12559535D02*
X12317201Y-12616678D01*
X12317201Y-12616678D02*
X12307677Y-12635726D01*
X12307677Y-12635726D02*
X12298154Y-12645250D01*
X12298154Y-12645250D02*
X12279106Y-12654774D01*
X12279106Y-12654774D02*
X12241011Y-12654774D01*
X12241011Y-12654774D02*
X12221963Y-12645250D01*
X12402916Y-12635726D02*
X12412439Y-12645250D01*
X12412439Y-12645250D02*
X12402916Y-12654774D01*
X12402916Y-12654774D02*
X12393392Y-12645250D01*
X12393392Y-12645250D02*
X12402916Y-12635726D01*
X12402916Y-12635726D02*
X12402916Y-12654774D01*
X12402916Y-12530964D02*
X12412439Y-12540488D01*
X12412439Y-12540488D02*
X12402916Y-12550012D01*
X12402916Y-12550012D02*
X12393392Y-12540488D01*
X12393392Y-12540488D02*
X12402916Y-12530964D01*
X12402916Y-12530964D02*
X12402916Y-12550012D01*
D12*
X10740710Y-12968290D02*
X10770710Y-12998290D01*
X10770710Y-12968290D02*
X10740710Y-12998290D01*
D11*
X11069582Y-12874774D02*
X11088630Y-12874774D01*
X11088630Y-12874774D02*
X11107678Y-12884297D01*
X11107678Y-12884297D02*
X11117201Y-12893821D01*
X11117201Y-12893821D02*
X11126725Y-12912869D01*
X11126725Y-12912869D02*
X11136249Y-12950964D01*
X11136249Y-12950964D02*
X11136249Y-12998583D01*
X11136249Y-12998583D02*
X11126725Y-13036678D01*
X11126725Y-13036678D02*
X11117201Y-13055726D01*
X11117201Y-13055726D02*
X11107678Y-13065250D01*
X11107678Y-13065250D02*
X11088630Y-13074774D01*
X11088630Y-13074774D02*
X11069582Y-13074774D01*
X11069582Y-13074774D02*
X11050535Y-13065250D01*
X11050535Y-13065250D02*
X11041011Y-13055726D01*
X11041011Y-13055726D02*
X11031487Y-13036678D01*
X11031487Y-13036678D02*
X11021963Y-12998583D01*
X11021963Y-12998583D02*
X11021963Y-12950964D01*
X11021963Y-12950964D02*
X11031487Y-12912869D01*
X11031487Y-12912869D02*
X11041011Y-12893821D01*
X11041011Y-12893821D02*
X11050535Y-12884297D01*
X11050535Y-12884297D02*
X11069582Y-12874774D01*
X11221963Y-13055726D02*
X11231487Y-13065250D01*
X11231487Y-13065250D02*
X11221963Y-13074774D01*
X11221963Y-13074774D02*
X11212439Y-13065250D01*
X11212439Y-13065250D02*
X11221963Y-13055726D01*
X11221963Y-13055726D02*
X11221963Y-13074774D01*
X11298154Y-12874774D02*
X11421963Y-12874774D01*
X11421963Y-12874774D02*
X11355296Y-12950964D01*
X11355296Y-12950964D02*
X11383868Y-12950964D01*
X11383868Y-12950964D02*
X11402916Y-12960488D01*
X11402916Y-12960488D02*
X11412439Y-12970012D01*
X11412439Y-12970012D02*
X11421963Y-12989059D01*
X11421963Y-12989059D02*
X11421963Y-13036678D01*
X11421963Y-13036678D02*
X11412439Y-13055726D01*
X11412439Y-13055726D02*
X11402916Y-13065250D01*
X11402916Y-13065250D02*
X11383868Y-13074774D01*
X11383868Y-13074774D02*
X11326725Y-13074774D01*
X11326725Y-13074774D02*
X11307677Y-13065250D01*
X11307677Y-13065250D02*
X11298154Y-13055726D01*
X11545773Y-12874774D02*
X11564820Y-12874774D01*
X11564820Y-12874774D02*
X11583868Y-12884297D01*
X11583868Y-12884297D02*
X11593392Y-12893821D01*
X11593392Y-12893821D02*
X11602916Y-12912869D01*
X11602916Y-12912869D02*
X11612439Y-12950964D01*
X11612439Y-12950964D02*
X11612439Y-12998583D01*
X11612439Y-12998583D02*
X11602916Y-13036678D01*
X11602916Y-13036678D02*
X11593392Y-13055726D01*
X11593392Y-13055726D02*
X11583868Y-13065250D01*
X11583868Y-13065250D02*
X11564820Y-13074774D01*
X11564820Y-13074774D02*
X11545773Y-13074774D01*
X11545773Y-13074774D02*
X11526725Y-13065250D01*
X11526725Y-13065250D02*
X11517201Y-13055726D01*
X11517201Y-13055726D02*
X11507677Y-13036678D01*
X11507677Y-13036678D02*
X11498154Y-12998583D01*
X11498154Y-12998583D02*
X11498154Y-12950964D01*
X11498154Y-12950964D02*
X11507677Y-12912869D01*
X11507677Y-12912869D02*
X11517201Y-12893821D01*
X11517201Y-12893821D02*
X11526725Y-12884297D01*
X11526725Y-12884297D02*
X11545773Y-12874774D01*
X11736249Y-12874774D02*
X11755297Y-12874774D01*
X11755297Y-12874774D02*
X11774344Y-12884297D01*
X11774344Y-12884297D02*
X11783868Y-12893821D01*
X11783868Y-12893821D02*
X11793392Y-12912869D01*
X11793392Y-12912869D02*
X11802916Y-12950964D01*
X11802916Y-12950964D02*
X11802916Y-12998583D01*
X11802916Y-12998583D02*
X11793392Y-13036678D01*
X11793392Y-13036678D02*
X11783868Y-13055726D01*
X11783868Y-13055726D02*
X11774344Y-13065250D01*
X11774344Y-13065250D02*
X11755297Y-13074774D01*
X11755297Y-13074774D02*
X11736249Y-13074774D01*
X11736249Y-13074774D02*
X11717201Y-13065250D01*
X11717201Y-13065250D02*
X11707677Y-13055726D01*
X11707677Y-13055726D02*
X11698154Y-13036678D01*
X11698154Y-13036678D02*
X11688630Y-12998583D01*
X11688630Y-12998583D02*
X11688630Y-12950964D01*
X11688630Y-12950964D02*
X11698154Y-12912869D01*
X11698154Y-12912869D02*
X11707677Y-12893821D01*
X11707677Y-12893821D02*
X11717201Y-12884297D01*
X11717201Y-12884297D02*
X11736249Y-12874774D01*
X11888630Y-13074774D02*
X11888630Y-12941440D01*
X11888630Y-12960488D02*
X11898154Y-12950964D01*
X11898154Y-12950964D02*
X11917201Y-12941440D01*
X11917201Y-12941440D02*
X11945773Y-12941440D01*
X11945773Y-12941440D02*
X11964820Y-12950964D01*
X11964820Y-12950964D02*
X11974344Y-12970012D01*
X11974344Y-12970012D02*
X11974344Y-13074774D01*
X11974344Y-12970012D02*
X11983868Y-12950964D01*
X11983868Y-12950964D02*
X12002916Y-12941440D01*
X12002916Y-12941440D02*
X12031487Y-12941440D01*
X12031487Y-12941440D02*
X12050535Y-12950964D01*
X12050535Y-12950964D02*
X12060058Y-12970012D01*
X12060058Y-12970012D02*
X12060058Y-13074774D01*
X12155297Y-13074774D02*
X12155297Y-12941440D01*
X12155297Y-12960488D02*
X12164820Y-12950964D01*
X12164820Y-12950964D02*
X12183868Y-12941440D01*
X12183868Y-12941440D02*
X12212439Y-12941440D01*
X12212439Y-12941440D02*
X12231487Y-12950964D01*
X12231487Y-12950964D02*
X12241011Y-12970012D01*
X12241011Y-12970012D02*
X12241011Y-13074774D01*
X12241011Y-12970012D02*
X12250535Y-12950964D01*
X12250535Y-12950964D02*
X12269582Y-12941440D01*
X12269582Y-12941440D02*
X12298154Y-12941440D01*
X12298154Y-12941440D02*
X12317201Y-12950964D01*
X12317201Y-12950964D02*
X12326725Y-12970012D01*
X12326725Y-12970012D02*
X12326725Y-13074774D01*
X12717201Y-12865250D02*
X12545773Y-13122393D01*
X12974344Y-12874774D02*
X12993392Y-12874774D01*
X12993392Y-12874774D02*
X13012440Y-12884297D01*
X13012440Y-12884297D02*
X13021963Y-12893821D01*
X13021963Y-12893821D02*
X13031487Y-12912869D01*
X13031487Y-12912869D02*
X13041011Y-12950964D01*
X13041011Y-12950964D02*
X13041011Y-12998583D01*
X13041011Y-12998583D02*
X13031487Y-13036678D01*
X13031487Y-13036678D02*
X13021963Y-13055726D01*
X13021963Y-13055726D02*
X13012440Y-13065250D01*
X13012440Y-13065250D02*
X12993392Y-13074774D01*
X12993392Y-13074774D02*
X12974344Y-13074774D01*
X12974344Y-13074774D02*
X12955297Y-13065250D01*
X12955297Y-13065250D02*
X12945773Y-13055726D01*
X12945773Y-13055726D02*
X12936249Y-13036678D01*
X12936249Y-13036678D02*
X12926725Y-12998583D01*
X12926725Y-12998583D02*
X12926725Y-12950964D01*
X12926725Y-12950964D02*
X12936249Y-12912869D01*
X12936249Y-12912869D02*
X12945773Y-12893821D01*
X12945773Y-12893821D02*
X12955297Y-12884297D01*
X12955297Y-12884297D02*
X12974344Y-12874774D01*
X13126725Y-13055726D02*
X13136249Y-13065250D01*
X13136249Y-13065250D02*
X13126725Y-13074774D01*
X13126725Y-13074774D02*
X13117201Y-13065250D01*
X13117201Y-13065250D02*
X13126725Y-13055726D01*
X13126725Y-13055726D02*
X13126725Y-13074774D01*
X13260059Y-12874774D02*
X13279106Y-12874774D01*
X13279106Y-12874774D02*
X13298154Y-12884297D01*
X13298154Y-12884297D02*
X13307678Y-12893821D01*
X13307678Y-12893821D02*
X13317201Y-12912869D01*
X13317201Y-12912869D02*
X13326725Y-12950964D01*
X13326725Y-12950964D02*
X13326725Y-12998583D01*
X13326725Y-12998583D02*
X13317201Y-13036678D01*
X13317201Y-13036678D02*
X13307678Y-13055726D01*
X13307678Y-13055726D02*
X13298154Y-13065250D01*
X13298154Y-13065250D02*
X13279106Y-13074774D01*
X13279106Y-13074774D02*
X13260059Y-13074774D01*
X13260059Y-13074774D02*
X13241011Y-13065250D01*
X13241011Y-13065250D02*
X13231487Y-13055726D01*
X13231487Y-13055726D02*
X13221963Y-13036678D01*
X13221963Y-13036678D02*
X13212440Y-12998583D01*
X13212440Y-12998583D02*
X13212440Y-12950964D01*
X13212440Y-12950964D02*
X13221963Y-12912869D01*
X13221963Y-12912869D02*
X13231487Y-12893821D01*
X13231487Y-12893821D02*
X13241011Y-12884297D01*
X13241011Y-12884297D02*
X13260059Y-12874774D01*
X13517201Y-13074774D02*
X13402916Y-13074774D01*
X13460059Y-13074774D02*
X13460059Y-12874774D01*
X13460059Y-12874774D02*
X13441011Y-12903345D01*
X13441011Y-12903345D02*
X13421963Y-12922393D01*
X13421963Y-12922393D02*
X13402916Y-12931916D01*
X13707678Y-13074774D02*
X13593392Y-13074774D01*
X13650535Y-13074774D02*
X13650535Y-12874774D01*
X13650535Y-12874774D02*
X13631487Y-12903345D01*
X13631487Y-12903345D02*
X13612440Y-12922393D01*
X13612440Y-12922393D02*
X13593392Y-12931916D01*
X13821963Y-12960488D02*
X13802916Y-12950964D01*
X13802916Y-12950964D02*
X13793392Y-12941440D01*
X13793392Y-12941440D02*
X13783868Y-12922393D01*
X13783868Y-12922393D02*
X13783868Y-12912869D01*
X13783868Y-12912869D02*
X13793392Y-12893821D01*
X13793392Y-12893821D02*
X13802916Y-12884297D01*
X13802916Y-12884297D02*
X13821963Y-12874774D01*
X13821963Y-12874774D02*
X13860059Y-12874774D01*
X13860059Y-12874774D02*
X13879106Y-12884297D01*
X13879106Y-12884297D02*
X13888630Y-12893821D01*
X13888630Y-12893821D02*
X13898154Y-12912869D01*
X13898154Y-12912869D02*
X13898154Y-12922393D01*
X13898154Y-12922393D02*
X13888630Y-12941440D01*
X13888630Y-12941440D02*
X13879106Y-12950964D01*
X13879106Y-12950964D02*
X13860059Y-12960488D01*
X13860059Y-12960488D02*
X13821963Y-12960488D01*
X13821963Y-12960488D02*
X13802916Y-12970012D01*
X13802916Y-12970012D02*
X13793392Y-12979535D01*
X13793392Y-12979535D02*
X13783868Y-12998583D01*
X13783868Y-12998583D02*
X13783868Y-13036678D01*
X13783868Y-13036678D02*
X13793392Y-13055726D01*
X13793392Y-13055726D02*
X13802916Y-13065250D01*
X13802916Y-13065250D02*
X13821963Y-13074774D01*
X13821963Y-13074774D02*
X13860059Y-13074774D01*
X13860059Y-13074774D02*
X13879106Y-13065250D01*
X13879106Y-13065250D02*
X13888630Y-13055726D01*
X13888630Y-13055726D02*
X13898154Y-13036678D01*
X13898154Y-13036678D02*
X13898154Y-12998583D01*
X13898154Y-12998583D02*
X13888630Y-12979535D01*
X13888630Y-12979535D02*
X13879106Y-12970012D01*
X13879106Y-12970012D02*
X13860059Y-12960488D01*
X13974344Y-12874774D02*
X13974344Y-12912869D01*
X14050535Y-12874774D02*
X14050535Y-12912869D01*
X14345773Y-13150964D02*
X14336249Y-13141440D01*
X14336249Y-13141440D02*
X14317202Y-13112869D01*
X14317202Y-13112869D02*
X14307678Y-13093821D01*
X14307678Y-13093821D02*
X14298154Y-13065250D01*
X14298154Y-13065250D02*
X14288630Y-13017631D01*
X14288630Y-13017631D02*
X14288630Y-12979535D01*
X14288630Y-12979535D02*
X14298154Y-12931916D01*
X14298154Y-12931916D02*
X14307678Y-12903345D01*
X14307678Y-12903345D02*
X14317202Y-12884297D01*
X14317202Y-12884297D02*
X14336249Y-12855726D01*
X14336249Y-12855726D02*
X14345773Y-12846202D01*
X14412440Y-12893821D02*
X14421963Y-12884297D01*
X14421963Y-12884297D02*
X14441011Y-12874774D01*
X14441011Y-12874774D02*
X14488630Y-12874774D01*
X14488630Y-12874774D02*
X14507678Y-12884297D01*
X14507678Y-12884297D02*
X14517202Y-12893821D01*
X14517202Y-12893821D02*
X14526725Y-12912869D01*
X14526725Y-12912869D02*
X14526725Y-12931916D01*
X14526725Y-12931916D02*
X14517202Y-12960488D01*
X14517202Y-12960488D02*
X14402916Y-13074774D01*
X14402916Y-13074774D02*
X14526725Y-13074774D01*
X14593392Y-12874774D02*
X14726725Y-12874774D01*
X14726725Y-12874774D02*
X14641011Y-13074774D01*
X14955297Y-13074774D02*
X14955297Y-12874774D01*
X15041011Y-13074774D02*
X15041011Y-12970012D01*
X15041011Y-12970012D02*
X15031487Y-12950964D01*
X15031487Y-12950964D02*
X15012440Y-12941440D01*
X15012440Y-12941440D02*
X14983868Y-12941440D01*
X14983868Y-12941440D02*
X14964821Y-12950964D01*
X14964821Y-12950964D02*
X14955297Y-12960488D01*
X15164821Y-13074774D02*
X15145773Y-13065250D01*
X15145773Y-13065250D02*
X15136249Y-13055726D01*
X15136249Y-13055726D02*
X15126725Y-13036678D01*
X15126725Y-13036678D02*
X15126725Y-12979535D01*
X15126725Y-12979535D02*
X15136249Y-12960488D01*
X15136249Y-12960488D02*
X15145773Y-12950964D01*
X15145773Y-12950964D02*
X15164821Y-12941440D01*
X15164821Y-12941440D02*
X15193392Y-12941440D01*
X15193392Y-12941440D02*
X15212440Y-12950964D01*
X15212440Y-12950964D02*
X15221964Y-12960488D01*
X15221964Y-12960488D02*
X15231487Y-12979535D01*
X15231487Y-12979535D02*
X15231487Y-13036678D01*
X15231487Y-13036678D02*
X15221964Y-13055726D01*
X15221964Y-13055726D02*
X15212440Y-13065250D01*
X15212440Y-13065250D02*
X15193392Y-13074774D01*
X15193392Y-13074774D02*
X15164821Y-13074774D01*
X15345773Y-13074774D02*
X15326725Y-13065250D01*
X15326725Y-13065250D02*
X15317202Y-13046202D01*
X15317202Y-13046202D02*
X15317202Y-12874774D01*
X15498154Y-13065250D02*
X15479106Y-13074774D01*
X15479106Y-13074774D02*
X15441011Y-13074774D01*
X15441011Y-13074774D02*
X15421964Y-13065250D01*
X15421964Y-13065250D02*
X15412440Y-13046202D01*
X15412440Y-13046202D02*
X15412440Y-12970012D01*
X15412440Y-12970012D02*
X15421964Y-12950964D01*
X15421964Y-12950964D02*
X15441011Y-12941440D01*
X15441011Y-12941440D02*
X15479106Y-12941440D01*
X15479106Y-12941440D02*
X15498154Y-12950964D01*
X15498154Y-12950964D02*
X15507678Y-12970012D01*
X15507678Y-12970012D02*
X15507678Y-12989059D01*
X15507678Y-12989059D02*
X15412440Y-13008107D01*
X15583868Y-13065250D02*
X15602916Y-13074774D01*
X15602916Y-13074774D02*
X15641011Y-13074774D01*
X15641011Y-13074774D02*
X15660059Y-13065250D01*
X15660059Y-13065250D02*
X15669583Y-13046202D01*
X15669583Y-13046202D02*
X15669583Y-13036678D01*
X15669583Y-13036678D02*
X15660059Y-13017631D01*
X15660059Y-13017631D02*
X15641011Y-13008107D01*
X15641011Y-13008107D02*
X15612440Y-13008107D01*
X15612440Y-13008107D02*
X15593392Y-12998583D01*
X15593392Y-12998583D02*
X15583868Y-12979535D01*
X15583868Y-12979535D02*
X15583868Y-12970012D01*
X15583868Y-12970012D02*
X15593392Y-12950964D01*
X15593392Y-12950964D02*
X15612440Y-12941440D01*
X15612440Y-12941440D02*
X15641011Y-12941440D01*
X15641011Y-12941440D02*
X15660059Y-12950964D01*
X15736249Y-13150964D02*
X15745773Y-13141440D01*
X15745773Y-13141440D02*
X15764821Y-13112869D01*
X15764821Y-13112869D02*
X15774345Y-13093821D01*
X15774345Y-13093821D02*
X15783868Y-13065250D01*
X15783868Y-13065250D02*
X15793392Y-13017631D01*
X15793392Y-13017631D02*
X15793392Y-12979535D01*
X15793392Y-12979535D02*
X15783868Y-12931916D01*
X15783868Y-12931916D02*
X15774345Y-12903345D01*
X15774345Y-12903345D02*
X15764821Y-12884297D01*
X15764821Y-12884297D02*
X15745773Y-12855726D01*
X15745773Y-12855726D02*
X15736249Y-12846202D01*
D12*
X10770710Y-13247290D02*
G75*
G02*
X10730710Y-13247290I-20000J0D01*
G01*
X10730710Y-13247290D02*
G75*
G02*
X10770710Y-13247290I20000J0D01*
G01*
D11*
X11069582Y-13138774D02*
X11088630Y-13138774D01*
X11088630Y-13138774D02*
X11107678Y-13148297D01*
X11107678Y-13148297D02*
X11117201Y-13157821D01*
X11117201Y-13157821D02*
X11126725Y-13176869D01*
X11126725Y-13176869D02*
X11136249Y-13214964D01*
X11136249Y-13214964D02*
X11136249Y-13262583D01*
X11136249Y-13262583D02*
X11126725Y-13300678D01*
X11126725Y-13300678D02*
X11117201Y-13319726D01*
X11117201Y-13319726D02*
X11107678Y-13329250D01*
X11107678Y-13329250D02*
X11088630Y-13338774D01*
X11088630Y-13338774D02*
X11069582Y-13338774D01*
X11069582Y-13338774D02*
X11050535Y-13329250D01*
X11050535Y-13329250D02*
X11041011Y-13319726D01*
X11041011Y-13319726D02*
X11031487Y-13300678D01*
X11031487Y-13300678D02*
X11021963Y-13262583D01*
X11021963Y-13262583D02*
X11021963Y-13214964D01*
X11021963Y-13214964D02*
X11031487Y-13176869D01*
X11031487Y-13176869D02*
X11041011Y-13157821D01*
X11041011Y-13157821D02*
X11050535Y-13148297D01*
X11050535Y-13148297D02*
X11069582Y-13138774D01*
X11221963Y-13319726D02*
X11231487Y-13329250D01*
X11231487Y-13329250D02*
X11221963Y-13338774D01*
X11221963Y-13338774D02*
X11212439Y-13329250D01*
X11212439Y-13329250D02*
X11221963Y-13319726D01*
X11221963Y-13319726D02*
X11221963Y-13338774D01*
X11402916Y-13205440D02*
X11402916Y-13338774D01*
X11355296Y-13129250D02*
X11307677Y-13272107D01*
X11307677Y-13272107D02*
X11431487Y-13272107D01*
X11545773Y-13138774D02*
X11564820Y-13138774D01*
X11564820Y-13138774D02*
X11583868Y-13148297D01*
X11583868Y-13148297D02*
X11593392Y-13157821D01*
X11593392Y-13157821D02*
X11602916Y-13176869D01*
X11602916Y-13176869D02*
X11612439Y-13214964D01*
X11612439Y-13214964D02*
X11612439Y-13262583D01*
X11612439Y-13262583D02*
X11602916Y-13300678D01*
X11602916Y-13300678D02*
X11593392Y-13319726D01*
X11593392Y-13319726D02*
X11583868Y-13329250D01*
X11583868Y-13329250D02*
X11564820Y-13338774D01*
X11564820Y-13338774D02*
X11545773Y-13338774D01*
X11545773Y-13338774D02*
X11526725Y-13329250D01*
X11526725Y-13329250D02*
X11517201Y-13319726D01*
X11517201Y-13319726D02*
X11507677Y-13300678D01*
X11507677Y-13300678D02*
X11498154Y-13262583D01*
X11498154Y-13262583D02*
X11498154Y-13214964D01*
X11498154Y-13214964D02*
X11507677Y-13176869D01*
X11507677Y-13176869D02*
X11517201Y-13157821D01*
X11517201Y-13157821D02*
X11526725Y-13148297D01*
X11526725Y-13148297D02*
X11545773Y-13138774D01*
X11736249Y-13138774D02*
X11755297Y-13138774D01*
X11755297Y-13138774D02*
X11774344Y-13148297D01*
X11774344Y-13148297D02*
X11783868Y-13157821D01*
X11783868Y-13157821D02*
X11793392Y-13176869D01*
X11793392Y-13176869D02*
X11802916Y-13214964D01*
X11802916Y-13214964D02*
X11802916Y-13262583D01*
X11802916Y-13262583D02*
X11793392Y-13300678D01*
X11793392Y-13300678D02*
X11783868Y-13319726D01*
X11783868Y-13319726D02*
X11774344Y-13329250D01*
X11774344Y-13329250D02*
X11755297Y-13338774D01*
X11755297Y-13338774D02*
X11736249Y-13338774D01*
X11736249Y-13338774D02*
X11717201Y-13329250D01*
X11717201Y-13329250D02*
X11707677Y-13319726D01*
X11707677Y-13319726D02*
X11698154Y-13300678D01*
X11698154Y-13300678D02*
X11688630Y-13262583D01*
X11688630Y-13262583D02*
X11688630Y-13214964D01*
X11688630Y-13214964D02*
X11698154Y-13176869D01*
X11698154Y-13176869D02*
X11707677Y-13157821D01*
X11707677Y-13157821D02*
X11717201Y-13148297D01*
X11717201Y-13148297D02*
X11736249Y-13138774D01*
X11888630Y-13338774D02*
X11888630Y-13205440D01*
X11888630Y-13224488D02*
X11898154Y-13214964D01*
X11898154Y-13214964D02*
X11917201Y-13205440D01*
X11917201Y-13205440D02*
X11945773Y-13205440D01*
X11945773Y-13205440D02*
X11964820Y-13214964D01*
X11964820Y-13214964D02*
X11974344Y-13234012D01*
X11974344Y-13234012D02*
X11974344Y-13338774D01*
X11974344Y-13234012D02*
X11983868Y-13214964D01*
X11983868Y-13214964D02*
X12002916Y-13205440D01*
X12002916Y-13205440D02*
X12031487Y-13205440D01*
X12031487Y-13205440D02*
X12050535Y-13214964D01*
X12050535Y-13214964D02*
X12060058Y-13234012D01*
X12060058Y-13234012D02*
X12060058Y-13338774D01*
X12155297Y-13338774D02*
X12155297Y-13205440D01*
X12155297Y-13224488D02*
X12164820Y-13214964D01*
X12164820Y-13214964D02*
X12183868Y-13205440D01*
X12183868Y-13205440D02*
X12212439Y-13205440D01*
X12212439Y-13205440D02*
X12231487Y-13214964D01*
X12231487Y-13214964D02*
X12241011Y-13234012D01*
X12241011Y-13234012D02*
X12241011Y-13338774D01*
X12241011Y-13234012D02*
X12250535Y-13214964D01*
X12250535Y-13214964D02*
X12269582Y-13205440D01*
X12269582Y-13205440D02*
X12298154Y-13205440D01*
X12298154Y-13205440D02*
X12317201Y-13214964D01*
X12317201Y-13214964D02*
X12326725Y-13234012D01*
X12326725Y-13234012D02*
X12326725Y-13338774D01*
X12717201Y-13129250D02*
X12545773Y-13386393D01*
X12974344Y-13138774D02*
X12993392Y-13138774D01*
X12993392Y-13138774D02*
X13012440Y-13148297D01*
X13012440Y-13148297D02*
X13021963Y-13157821D01*
X13021963Y-13157821D02*
X13031487Y-13176869D01*
X13031487Y-13176869D02*
X13041011Y-13214964D01*
X13041011Y-13214964D02*
X13041011Y-13262583D01*
X13041011Y-13262583D02*
X13031487Y-13300678D01*
X13031487Y-13300678D02*
X13021963Y-13319726D01*
X13021963Y-13319726D02*
X13012440Y-13329250D01*
X13012440Y-13329250D02*
X12993392Y-13338774D01*
X12993392Y-13338774D02*
X12974344Y-13338774D01*
X12974344Y-13338774D02*
X12955297Y-13329250D01*
X12955297Y-13329250D02*
X12945773Y-13319726D01*
X12945773Y-13319726D02*
X12936249Y-13300678D01*
X12936249Y-13300678D02*
X12926725Y-13262583D01*
X12926725Y-13262583D02*
X12926725Y-13214964D01*
X12926725Y-13214964D02*
X12936249Y-13176869D01*
X12936249Y-13176869D02*
X12945773Y-13157821D01*
X12945773Y-13157821D02*
X12955297Y-13148297D01*
X12955297Y-13148297D02*
X12974344Y-13138774D01*
X13126725Y-13319726D02*
X13136249Y-13329250D01*
X13136249Y-13329250D02*
X13126725Y-13338774D01*
X13126725Y-13338774D02*
X13117201Y-13329250D01*
X13117201Y-13329250D02*
X13126725Y-13319726D01*
X13126725Y-13319726D02*
X13126725Y-13338774D01*
X13260059Y-13138774D02*
X13279106Y-13138774D01*
X13279106Y-13138774D02*
X13298154Y-13148297D01*
X13298154Y-13148297D02*
X13307678Y-13157821D01*
X13307678Y-13157821D02*
X13317201Y-13176869D01*
X13317201Y-13176869D02*
X13326725Y-13214964D01*
X13326725Y-13214964D02*
X13326725Y-13262583D01*
X13326725Y-13262583D02*
X13317201Y-13300678D01*
X13317201Y-13300678D02*
X13307678Y-13319726D01*
X13307678Y-13319726D02*
X13298154Y-13329250D01*
X13298154Y-13329250D02*
X13279106Y-13338774D01*
X13279106Y-13338774D02*
X13260059Y-13338774D01*
X13260059Y-13338774D02*
X13241011Y-13329250D01*
X13241011Y-13329250D02*
X13231487Y-13319726D01*
X13231487Y-13319726D02*
X13221963Y-13300678D01*
X13221963Y-13300678D02*
X13212440Y-13262583D01*
X13212440Y-13262583D02*
X13212440Y-13214964D01*
X13212440Y-13214964D02*
X13221963Y-13176869D01*
X13221963Y-13176869D02*
X13231487Y-13157821D01*
X13231487Y-13157821D02*
X13241011Y-13148297D01*
X13241011Y-13148297D02*
X13260059Y-13138774D01*
X13517201Y-13338774D02*
X13402916Y-13338774D01*
X13460059Y-13338774D02*
X13460059Y-13138774D01*
X13460059Y-13138774D02*
X13441011Y-13167345D01*
X13441011Y-13167345D02*
X13421963Y-13186393D01*
X13421963Y-13186393D02*
X13402916Y-13195916D01*
X13698154Y-13138774D02*
X13602916Y-13138774D01*
X13602916Y-13138774D02*
X13593392Y-13234012D01*
X13593392Y-13234012D02*
X13602916Y-13224488D01*
X13602916Y-13224488D02*
X13621963Y-13214964D01*
X13621963Y-13214964D02*
X13669582Y-13214964D01*
X13669582Y-13214964D02*
X13688630Y-13224488D01*
X13688630Y-13224488D02*
X13698154Y-13234012D01*
X13698154Y-13234012D02*
X13707678Y-13253059D01*
X13707678Y-13253059D02*
X13707678Y-13300678D01*
X13707678Y-13300678D02*
X13698154Y-13319726D01*
X13698154Y-13319726D02*
X13688630Y-13329250D01*
X13688630Y-13329250D02*
X13669582Y-13338774D01*
X13669582Y-13338774D02*
X13621963Y-13338774D01*
X13621963Y-13338774D02*
X13602916Y-13329250D01*
X13602916Y-13329250D02*
X13593392Y-13319726D01*
X13774344Y-13138774D02*
X13907678Y-13138774D01*
X13907678Y-13138774D02*
X13821963Y-13338774D01*
X13974344Y-13138774D02*
X13974344Y-13176869D01*
X14050535Y-13138774D02*
X14050535Y-13176869D01*
X14345773Y-13414964D02*
X14336249Y-13405440D01*
X14336249Y-13405440D02*
X14317202Y-13376869D01*
X14317202Y-13376869D02*
X14307678Y-13357821D01*
X14307678Y-13357821D02*
X14298154Y-13329250D01*
X14298154Y-13329250D02*
X14288630Y-13281631D01*
X14288630Y-13281631D02*
X14288630Y-13243535D01*
X14288630Y-13243535D02*
X14298154Y-13195916D01*
X14298154Y-13195916D02*
X14307678Y-13167345D01*
X14307678Y-13167345D02*
X14317202Y-13148297D01*
X14317202Y-13148297D02*
X14336249Y-13119726D01*
X14336249Y-13119726D02*
X14345773Y-13110202D01*
X14412440Y-13157821D02*
X14421963Y-13148297D01*
X14421963Y-13148297D02*
X14441011Y-13138774D01*
X14441011Y-13138774D02*
X14488630Y-13138774D01*
X14488630Y-13138774D02*
X14507678Y-13148297D01*
X14507678Y-13148297D02*
X14517202Y-13157821D01*
X14517202Y-13157821D02*
X14526725Y-13176869D01*
X14526725Y-13176869D02*
X14526725Y-13195916D01*
X14526725Y-13195916D02*
X14517202Y-13224488D01*
X14517202Y-13224488D02*
X14402916Y-13338774D01*
X14402916Y-13338774D02*
X14526725Y-13338774D01*
X14717202Y-13338774D02*
X14602916Y-13338774D01*
X14660059Y-13338774D02*
X14660059Y-13138774D01*
X14660059Y-13138774D02*
X14641011Y-13167345D01*
X14641011Y-13167345D02*
X14621963Y-13186393D01*
X14621963Y-13186393D02*
X14602916Y-13195916D01*
X14955297Y-13338774D02*
X14955297Y-13138774D01*
X15041011Y-13338774D02*
X15041011Y-13234012D01*
X15041011Y-13234012D02*
X15031487Y-13214964D01*
X15031487Y-13214964D02*
X15012440Y-13205440D01*
X15012440Y-13205440D02*
X14983868Y-13205440D01*
X14983868Y-13205440D02*
X14964821Y-13214964D01*
X14964821Y-13214964D02*
X14955297Y-13224488D01*
X15164821Y-13338774D02*
X15145773Y-13329250D01*
X15145773Y-13329250D02*
X15136249Y-13319726D01*
X15136249Y-13319726D02*
X15126725Y-13300678D01*
X15126725Y-13300678D02*
X15126725Y-13243535D01*
X15126725Y-13243535D02*
X15136249Y-13224488D01*
X15136249Y-13224488D02*
X15145773Y-13214964D01*
X15145773Y-13214964D02*
X15164821Y-13205440D01*
X15164821Y-13205440D02*
X15193392Y-13205440D01*
X15193392Y-13205440D02*
X15212440Y-13214964D01*
X15212440Y-13214964D02*
X15221964Y-13224488D01*
X15221964Y-13224488D02*
X15231487Y-13243535D01*
X15231487Y-13243535D02*
X15231487Y-13300678D01*
X15231487Y-13300678D02*
X15221964Y-13319726D01*
X15221964Y-13319726D02*
X15212440Y-13329250D01*
X15212440Y-13329250D02*
X15193392Y-13338774D01*
X15193392Y-13338774D02*
X15164821Y-13338774D01*
X15345773Y-13338774D02*
X15326725Y-13329250D01*
X15326725Y-13329250D02*
X15317202Y-13310202D01*
X15317202Y-13310202D02*
X15317202Y-13138774D01*
X15498154Y-13329250D02*
X15479106Y-13338774D01*
X15479106Y-13338774D02*
X15441011Y-13338774D01*
X15441011Y-13338774D02*
X15421964Y-13329250D01*
X15421964Y-13329250D02*
X15412440Y-13310202D01*
X15412440Y-13310202D02*
X15412440Y-13234012D01*
X15412440Y-13234012D02*
X15421964Y-13214964D01*
X15421964Y-13214964D02*
X15441011Y-13205440D01*
X15441011Y-13205440D02*
X15479106Y-13205440D01*
X15479106Y-13205440D02*
X15498154Y-13214964D01*
X15498154Y-13214964D02*
X15507678Y-13234012D01*
X15507678Y-13234012D02*
X15507678Y-13253059D01*
X15507678Y-13253059D02*
X15412440Y-13272107D01*
X15583868Y-13329250D02*
X15602916Y-13338774D01*
X15602916Y-13338774D02*
X15641011Y-13338774D01*
X15641011Y-13338774D02*
X15660059Y-13329250D01*
X15660059Y-13329250D02*
X15669583Y-13310202D01*
X15669583Y-13310202D02*
X15669583Y-13300678D01*
X15669583Y-13300678D02*
X15660059Y-13281631D01*
X15660059Y-13281631D02*
X15641011Y-13272107D01*
X15641011Y-13272107D02*
X15612440Y-13272107D01*
X15612440Y-13272107D02*
X15593392Y-13262583D01*
X15593392Y-13262583D02*
X15583868Y-13243535D01*
X15583868Y-13243535D02*
X15583868Y-13234012D01*
X15583868Y-13234012D02*
X15593392Y-13214964D01*
X15593392Y-13214964D02*
X15612440Y-13205440D01*
X15612440Y-13205440D02*
X15641011Y-13205440D01*
X15641011Y-13205440D02*
X15660059Y-13214964D01*
X15736249Y-13414964D02*
X15745773Y-13405440D01*
X15745773Y-13405440D02*
X15764821Y-13376869D01*
X15764821Y-13376869D02*
X15774345Y-13357821D01*
X15774345Y-13357821D02*
X15783868Y-13329250D01*
X15783868Y-13329250D02*
X15793392Y-13281631D01*
X15793392Y-13281631D02*
X15793392Y-13243535D01*
X15793392Y-13243535D02*
X15783868Y-13195916D01*
X15783868Y-13195916D02*
X15774345Y-13167345D01*
X15774345Y-13167345D02*
X15764821Y-13148297D01*
X15764821Y-13148297D02*
X15745773Y-13119726D01*
X15745773Y-13119726D02*
X15736249Y-13110202D01*
D12*
X10720710Y-13461290D02*
X10720710Y-13561290D01*
X10670710Y-13511290D02*
X10770710Y-13511290D01*
D11*
X11136249Y-13602774D02*
X11021963Y-13602774D01*
X11079106Y-13602774D02*
X11079106Y-13402774D01*
X11079106Y-13402774D02*
X11060058Y-13431345D01*
X11060058Y-13431345D02*
X11041011Y-13450393D01*
X11041011Y-13450393D02*
X11021963Y-13459916D01*
X11221963Y-13583726D02*
X11231487Y-13593250D01*
X11231487Y-13593250D02*
X11221963Y-13602774D01*
X11221963Y-13602774D02*
X11212439Y-13593250D01*
X11212439Y-13593250D02*
X11221963Y-13583726D01*
X11221963Y-13583726D02*
X11221963Y-13602774D01*
X11355296Y-13402774D02*
X11374344Y-13402774D01*
X11374344Y-13402774D02*
X11393392Y-13412297D01*
X11393392Y-13412297D02*
X11402916Y-13421821D01*
X11402916Y-13421821D02*
X11412439Y-13440869D01*
X11412439Y-13440869D02*
X11421963Y-13478964D01*
X11421963Y-13478964D02*
X11421963Y-13526583D01*
X11421963Y-13526583D02*
X11412439Y-13564678D01*
X11412439Y-13564678D02*
X11402916Y-13583726D01*
X11402916Y-13583726D02*
X11393392Y-13593250D01*
X11393392Y-13593250D02*
X11374344Y-13602774D01*
X11374344Y-13602774D02*
X11355296Y-13602774D01*
X11355296Y-13602774D02*
X11336249Y-13593250D01*
X11336249Y-13593250D02*
X11326725Y-13583726D01*
X11326725Y-13583726D02*
X11317201Y-13564678D01*
X11317201Y-13564678D02*
X11307677Y-13526583D01*
X11307677Y-13526583D02*
X11307677Y-13478964D01*
X11307677Y-13478964D02*
X11317201Y-13440869D01*
X11317201Y-13440869D02*
X11326725Y-13421821D01*
X11326725Y-13421821D02*
X11336249Y-13412297D01*
X11336249Y-13412297D02*
X11355296Y-13402774D01*
X11545773Y-13402774D02*
X11564820Y-13402774D01*
X11564820Y-13402774D02*
X11583868Y-13412297D01*
X11583868Y-13412297D02*
X11593392Y-13421821D01*
X11593392Y-13421821D02*
X11602916Y-13440869D01*
X11602916Y-13440869D02*
X11612439Y-13478964D01*
X11612439Y-13478964D02*
X11612439Y-13526583D01*
X11612439Y-13526583D02*
X11602916Y-13564678D01*
X11602916Y-13564678D02*
X11593392Y-13583726D01*
X11593392Y-13583726D02*
X11583868Y-13593250D01*
X11583868Y-13593250D02*
X11564820Y-13602774D01*
X11564820Y-13602774D02*
X11545773Y-13602774D01*
X11545773Y-13602774D02*
X11526725Y-13593250D01*
X11526725Y-13593250D02*
X11517201Y-13583726D01*
X11517201Y-13583726D02*
X11507677Y-13564678D01*
X11507677Y-13564678D02*
X11498154Y-13526583D01*
X11498154Y-13526583D02*
X11498154Y-13478964D01*
X11498154Y-13478964D02*
X11507677Y-13440869D01*
X11507677Y-13440869D02*
X11517201Y-13421821D01*
X11517201Y-13421821D02*
X11526725Y-13412297D01*
X11526725Y-13412297D02*
X11545773Y-13402774D01*
X11736249Y-13402774D02*
X11755297Y-13402774D01*
X11755297Y-13402774D02*
X11774344Y-13412297D01*
X11774344Y-13412297D02*
X11783868Y-13421821D01*
X11783868Y-13421821D02*
X11793392Y-13440869D01*
X11793392Y-13440869D02*
X11802916Y-13478964D01*
X11802916Y-13478964D02*
X11802916Y-13526583D01*
X11802916Y-13526583D02*
X11793392Y-13564678D01*
X11793392Y-13564678D02*
X11783868Y-13583726D01*
X11783868Y-13583726D02*
X11774344Y-13593250D01*
X11774344Y-13593250D02*
X11755297Y-13602774D01*
X11755297Y-13602774D02*
X11736249Y-13602774D01*
X11736249Y-13602774D02*
X11717201Y-13593250D01*
X11717201Y-13593250D02*
X11707677Y-13583726D01*
X11707677Y-13583726D02*
X11698154Y-13564678D01*
X11698154Y-13564678D02*
X11688630Y-13526583D01*
X11688630Y-13526583D02*
X11688630Y-13478964D01*
X11688630Y-13478964D02*
X11698154Y-13440869D01*
X11698154Y-13440869D02*
X11707677Y-13421821D01*
X11707677Y-13421821D02*
X11717201Y-13412297D01*
X11717201Y-13412297D02*
X11736249Y-13402774D01*
X11888630Y-13602774D02*
X11888630Y-13469440D01*
X11888630Y-13488488D02*
X11898154Y-13478964D01*
X11898154Y-13478964D02*
X11917201Y-13469440D01*
X11917201Y-13469440D02*
X11945773Y-13469440D01*
X11945773Y-13469440D02*
X11964820Y-13478964D01*
X11964820Y-13478964D02*
X11974344Y-13498012D01*
X11974344Y-13498012D02*
X11974344Y-13602774D01*
X11974344Y-13498012D02*
X11983868Y-13478964D01*
X11983868Y-13478964D02*
X12002916Y-13469440D01*
X12002916Y-13469440D02*
X12031487Y-13469440D01*
X12031487Y-13469440D02*
X12050535Y-13478964D01*
X12050535Y-13478964D02*
X12060058Y-13498012D01*
X12060058Y-13498012D02*
X12060058Y-13602774D01*
X12155297Y-13602774D02*
X12155297Y-13469440D01*
X12155297Y-13488488D02*
X12164820Y-13478964D01*
X12164820Y-13478964D02*
X12183868Y-13469440D01*
X12183868Y-13469440D02*
X12212439Y-13469440D01*
X12212439Y-13469440D02*
X12231487Y-13478964D01*
X12231487Y-13478964D02*
X12241011Y-13498012D01*
X12241011Y-13498012D02*
X12241011Y-13602774D01*
X12241011Y-13498012D02*
X12250535Y-13478964D01*
X12250535Y-13478964D02*
X12269582Y-13469440D01*
X12269582Y-13469440D02*
X12298154Y-13469440D01*
X12298154Y-13469440D02*
X12317201Y-13478964D01*
X12317201Y-13478964D02*
X12326725Y-13498012D01*
X12326725Y-13498012D02*
X12326725Y-13602774D01*
X12717201Y-13393250D02*
X12545773Y-13650393D01*
X12974344Y-13402774D02*
X12993392Y-13402774D01*
X12993392Y-13402774D02*
X13012440Y-13412297D01*
X13012440Y-13412297D02*
X13021963Y-13421821D01*
X13021963Y-13421821D02*
X13031487Y-13440869D01*
X13031487Y-13440869D02*
X13041011Y-13478964D01*
X13041011Y-13478964D02*
X13041011Y-13526583D01*
X13041011Y-13526583D02*
X13031487Y-13564678D01*
X13031487Y-13564678D02*
X13021963Y-13583726D01*
X13021963Y-13583726D02*
X13012440Y-13593250D01*
X13012440Y-13593250D02*
X12993392Y-13602774D01*
X12993392Y-13602774D02*
X12974344Y-13602774D01*
X12974344Y-13602774D02*
X12955297Y-13593250D01*
X12955297Y-13593250D02*
X12945773Y-13583726D01*
X12945773Y-13583726D02*
X12936249Y-13564678D01*
X12936249Y-13564678D02*
X12926725Y-13526583D01*
X12926725Y-13526583D02*
X12926725Y-13478964D01*
X12926725Y-13478964D02*
X12936249Y-13440869D01*
X12936249Y-13440869D02*
X12945773Y-13421821D01*
X12945773Y-13421821D02*
X12955297Y-13412297D01*
X12955297Y-13412297D02*
X12974344Y-13402774D01*
X13126725Y-13583726D02*
X13136249Y-13593250D01*
X13136249Y-13593250D02*
X13126725Y-13602774D01*
X13126725Y-13602774D02*
X13117201Y-13593250D01*
X13117201Y-13593250D02*
X13126725Y-13583726D01*
X13126725Y-13583726D02*
X13126725Y-13602774D01*
X13260059Y-13402774D02*
X13279106Y-13402774D01*
X13279106Y-13402774D02*
X13298154Y-13412297D01*
X13298154Y-13412297D02*
X13307678Y-13421821D01*
X13307678Y-13421821D02*
X13317201Y-13440869D01*
X13317201Y-13440869D02*
X13326725Y-13478964D01*
X13326725Y-13478964D02*
X13326725Y-13526583D01*
X13326725Y-13526583D02*
X13317201Y-13564678D01*
X13317201Y-13564678D02*
X13307678Y-13583726D01*
X13307678Y-13583726D02*
X13298154Y-13593250D01*
X13298154Y-13593250D02*
X13279106Y-13602774D01*
X13279106Y-13602774D02*
X13260059Y-13602774D01*
X13260059Y-13602774D02*
X13241011Y-13593250D01*
X13241011Y-13593250D02*
X13231487Y-13583726D01*
X13231487Y-13583726D02*
X13221963Y-13564678D01*
X13221963Y-13564678D02*
X13212440Y-13526583D01*
X13212440Y-13526583D02*
X13212440Y-13478964D01*
X13212440Y-13478964D02*
X13221963Y-13440869D01*
X13221963Y-13440869D02*
X13231487Y-13421821D01*
X13231487Y-13421821D02*
X13241011Y-13412297D01*
X13241011Y-13412297D02*
X13260059Y-13402774D01*
X13393392Y-13402774D02*
X13517201Y-13402774D01*
X13517201Y-13402774D02*
X13450535Y-13478964D01*
X13450535Y-13478964D02*
X13479106Y-13478964D01*
X13479106Y-13478964D02*
X13498154Y-13488488D01*
X13498154Y-13488488D02*
X13507678Y-13498012D01*
X13507678Y-13498012D02*
X13517201Y-13517059D01*
X13517201Y-13517059D02*
X13517201Y-13564678D01*
X13517201Y-13564678D02*
X13507678Y-13583726D01*
X13507678Y-13583726D02*
X13498154Y-13593250D01*
X13498154Y-13593250D02*
X13479106Y-13602774D01*
X13479106Y-13602774D02*
X13421963Y-13602774D01*
X13421963Y-13602774D02*
X13402916Y-13593250D01*
X13402916Y-13593250D02*
X13393392Y-13583726D01*
X13612440Y-13602774D02*
X13650535Y-13602774D01*
X13650535Y-13602774D02*
X13669582Y-13593250D01*
X13669582Y-13593250D02*
X13679106Y-13583726D01*
X13679106Y-13583726D02*
X13698154Y-13555154D01*
X13698154Y-13555154D02*
X13707678Y-13517059D01*
X13707678Y-13517059D02*
X13707678Y-13440869D01*
X13707678Y-13440869D02*
X13698154Y-13421821D01*
X13698154Y-13421821D02*
X13688630Y-13412297D01*
X13688630Y-13412297D02*
X13669582Y-13402774D01*
X13669582Y-13402774D02*
X13631487Y-13402774D01*
X13631487Y-13402774D02*
X13612440Y-13412297D01*
X13612440Y-13412297D02*
X13602916Y-13421821D01*
X13602916Y-13421821D02*
X13593392Y-13440869D01*
X13593392Y-13440869D02*
X13593392Y-13488488D01*
X13593392Y-13488488D02*
X13602916Y-13507535D01*
X13602916Y-13507535D02*
X13612440Y-13517059D01*
X13612440Y-13517059D02*
X13631487Y-13526583D01*
X13631487Y-13526583D02*
X13669582Y-13526583D01*
X13669582Y-13526583D02*
X13688630Y-13517059D01*
X13688630Y-13517059D02*
X13698154Y-13507535D01*
X13698154Y-13507535D02*
X13707678Y-13488488D01*
X13879106Y-13469440D02*
X13879106Y-13602774D01*
X13831487Y-13393250D02*
X13783868Y-13536107D01*
X13783868Y-13536107D02*
X13907678Y-13536107D01*
X13974344Y-13402774D02*
X13974344Y-13440869D01*
X14050535Y-13402774D02*
X14050535Y-13440869D01*
X14345773Y-13678964D02*
X14336249Y-13669440D01*
X14336249Y-13669440D02*
X14317202Y-13640869D01*
X14317202Y-13640869D02*
X14307678Y-13621821D01*
X14307678Y-13621821D02*
X14298154Y-13593250D01*
X14298154Y-13593250D02*
X14288630Y-13545631D01*
X14288630Y-13545631D02*
X14288630Y-13507535D01*
X14288630Y-13507535D02*
X14298154Y-13459916D01*
X14298154Y-13459916D02*
X14307678Y-13431345D01*
X14307678Y-13431345D02*
X14317202Y-13412297D01*
X14317202Y-13412297D02*
X14336249Y-13383726D01*
X14336249Y-13383726D02*
X14345773Y-13374202D01*
X14412440Y-13421821D02*
X14421963Y-13412297D01*
X14421963Y-13412297D02*
X14441011Y-13402774D01*
X14441011Y-13402774D02*
X14488630Y-13402774D01*
X14488630Y-13402774D02*
X14507678Y-13412297D01*
X14507678Y-13412297D02*
X14517202Y-13421821D01*
X14517202Y-13421821D02*
X14526725Y-13440869D01*
X14526725Y-13440869D02*
X14526725Y-13459916D01*
X14526725Y-13459916D02*
X14517202Y-13488488D01*
X14517202Y-13488488D02*
X14402916Y-13602774D01*
X14402916Y-13602774D02*
X14526725Y-13602774D01*
X14707678Y-13402774D02*
X14612440Y-13402774D01*
X14612440Y-13402774D02*
X14602916Y-13498012D01*
X14602916Y-13498012D02*
X14612440Y-13488488D01*
X14612440Y-13488488D02*
X14631487Y-13478964D01*
X14631487Y-13478964D02*
X14679106Y-13478964D01*
X14679106Y-13478964D02*
X14698154Y-13488488D01*
X14698154Y-13488488D02*
X14707678Y-13498012D01*
X14707678Y-13498012D02*
X14717202Y-13517059D01*
X14717202Y-13517059D02*
X14717202Y-13564678D01*
X14717202Y-13564678D02*
X14707678Y-13583726D01*
X14707678Y-13583726D02*
X14698154Y-13593250D01*
X14698154Y-13593250D02*
X14679106Y-13602774D01*
X14679106Y-13602774D02*
X14631487Y-13602774D01*
X14631487Y-13602774D02*
X14612440Y-13593250D01*
X14612440Y-13593250D02*
X14602916Y-13583726D01*
X14955297Y-13602774D02*
X14955297Y-13402774D01*
X15041011Y-13602774D02*
X15041011Y-13498012D01*
X15041011Y-13498012D02*
X15031487Y-13478964D01*
X15031487Y-13478964D02*
X15012440Y-13469440D01*
X15012440Y-13469440D02*
X14983868Y-13469440D01*
X14983868Y-13469440D02*
X14964821Y-13478964D01*
X14964821Y-13478964D02*
X14955297Y-13488488D01*
X15164821Y-13602774D02*
X15145773Y-13593250D01*
X15145773Y-13593250D02*
X15136249Y-13583726D01*
X15136249Y-13583726D02*
X15126725Y-13564678D01*
X15126725Y-13564678D02*
X15126725Y-13507535D01*
X15126725Y-13507535D02*
X15136249Y-13488488D01*
X15136249Y-13488488D02*
X15145773Y-13478964D01*
X15145773Y-13478964D02*
X15164821Y-13469440D01*
X15164821Y-13469440D02*
X15193392Y-13469440D01*
X15193392Y-13469440D02*
X15212440Y-13478964D01*
X15212440Y-13478964D02*
X15221964Y-13488488D01*
X15221964Y-13488488D02*
X15231487Y-13507535D01*
X15231487Y-13507535D02*
X15231487Y-13564678D01*
X15231487Y-13564678D02*
X15221964Y-13583726D01*
X15221964Y-13583726D02*
X15212440Y-13593250D01*
X15212440Y-13593250D02*
X15193392Y-13602774D01*
X15193392Y-13602774D02*
X15164821Y-13602774D01*
X15345773Y-13602774D02*
X15326725Y-13593250D01*
X15326725Y-13593250D02*
X15317202Y-13574202D01*
X15317202Y-13574202D02*
X15317202Y-13402774D01*
X15498154Y-13593250D02*
X15479106Y-13602774D01*
X15479106Y-13602774D02*
X15441011Y-13602774D01*
X15441011Y-13602774D02*
X15421964Y-13593250D01*
X15421964Y-13593250D02*
X15412440Y-13574202D01*
X15412440Y-13574202D02*
X15412440Y-13498012D01*
X15412440Y-13498012D02*
X15421964Y-13478964D01*
X15421964Y-13478964D02*
X15441011Y-13469440D01*
X15441011Y-13469440D02*
X15479106Y-13469440D01*
X15479106Y-13469440D02*
X15498154Y-13478964D01*
X15498154Y-13478964D02*
X15507678Y-13498012D01*
X15507678Y-13498012D02*
X15507678Y-13517059D01*
X15507678Y-13517059D02*
X15412440Y-13536107D01*
X15583868Y-13593250D02*
X15602916Y-13602774D01*
X15602916Y-13602774D02*
X15641011Y-13602774D01*
X15641011Y-13602774D02*
X15660059Y-13593250D01*
X15660059Y-13593250D02*
X15669583Y-13574202D01*
X15669583Y-13574202D02*
X15669583Y-13564678D01*
X15669583Y-13564678D02*
X15660059Y-13545631D01*
X15660059Y-13545631D02*
X15641011Y-13536107D01*
X15641011Y-13536107D02*
X15612440Y-13536107D01*
X15612440Y-13536107D02*
X15593392Y-13526583D01*
X15593392Y-13526583D02*
X15583868Y-13507535D01*
X15583868Y-13507535D02*
X15583868Y-13498012D01*
X15583868Y-13498012D02*
X15593392Y-13478964D01*
X15593392Y-13478964D02*
X15612440Y-13469440D01*
X15612440Y-13469440D02*
X15641011Y-13469440D01*
X15641011Y-13469440D02*
X15660059Y-13478964D01*
X15736249Y-13678964D02*
X15745773Y-13669440D01*
X15745773Y-13669440D02*
X15764821Y-13640869D01*
X15764821Y-13640869D02*
X15774345Y-13621821D01*
X15774345Y-13621821D02*
X15783868Y-13593250D01*
X15783868Y-13593250D02*
X15793392Y-13545631D01*
X15793392Y-13545631D02*
X15793392Y-13507535D01*
X15793392Y-13507535D02*
X15783868Y-13459916D01*
X15783868Y-13459916D02*
X15774345Y-13431345D01*
X15774345Y-13431345D02*
X15764821Y-13412297D01*
X15764821Y-13412297D02*
X15745773Y-13383726D01*
X15745773Y-13383726D02*
X15736249Y-13374202D01*
M02*
