%TF.GenerationSoftware,KiCad,Pcbnew,9.0.1*%
%TF.CreationDate,2025-11-22T15:13:14+03:00*%
%TF.ProjectId,MCU Datalogger wirh 512KB EEPROM,4d435520-4461-4746-916c-6f6767657220,1*%
%TF.SameCoordinates,Original*%
%TF.FileFunction,Legend,Top*%
%TF.FilePolarity,Positive*%
%FSLAX46Y46*%
G04 Gerber Fmt 4.6, Leading zero omitted, Abs format (unit mm)*
G04 Created by KiCad (PCBNEW 9.0.1) date 2025-11-22 15:13:14*
%MOMM*%
%LPD*%
G01*
G04 APERTURE LIST*
%ADD10C,0.100000*%
%ADD11C,0.150000*%
%ADD12C,0.120000*%
%ADD13C,0.050000*%
%ADD14C,0.300000*%
%ADD15C,0.500000*%
G04 APERTURE END LIST*
D10*
X159976895Y-103063734D02*
X159176895Y-103063734D01*
X159176895Y-103063734D02*
X159176895Y-102873258D01*
X159176895Y-102873258D02*
X159214990Y-102758972D01*
X159214990Y-102758972D02*
X159291180Y-102682782D01*
X159291180Y-102682782D02*
X159367371Y-102644687D01*
X159367371Y-102644687D02*
X159519752Y-102606591D01*
X159519752Y-102606591D02*
X159634038Y-102606591D01*
X159634038Y-102606591D02*
X159786419Y-102644687D01*
X159786419Y-102644687D02*
X159862609Y-102682782D01*
X159862609Y-102682782D02*
X159938800Y-102758972D01*
X159938800Y-102758972D02*
X159976895Y-102873258D01*
X159976895Y-102873258D02*
X159976895Y-103063734D01*
X159519752Y-102149449D02*
X159481657Y-102225639D01*
X159481657Y-102225639D02*
X159443561Y-102263734D01*
X159443561Y-102263734D02*
X159367371Y-102301830D01*
X159367371Y-102301830D02*
X159329276Y-102301830D01*
X159329276Y-102301830D02*
X159253085Y-102263734D01*
X159253085Y-102263734D02*
X159214990Y-102225639D01*
X159214990Y-102225639D02*
X159176895Y-102149449D01*
X159176895Y-102149449D02*
X159176895Y-101997068D01*
X159176895Y-101997068D02*
X159214990Y-101920877D01*
X159214990Y-101920877D02*
X159253085Y-101882782D01*
X159253085Y-101882782D02*
X159329276Y-101844687D01*
X159329276Y-101844687D02*
X159367371Y-101844687D01*
X159367371Y-101844687D02*
X159443561Y-101882782D01*
X159443561Y-101882782D02*
X159481657Y-101920877D01*
X159481657Y-101920877D02*
X159519752Y-101997068D01*
X159519752Y-101997068D02*
X159519752Y-102149449D01*
X159519752Y-102149449D02*
X159557847Y-102225639D01*
X159557847Y-102225639D02*
X159595942Y-102263734D01*
X159595942Y-102263734D02*
X159672133Y-102301830D01*
X159672133Y-102301830D02*
X159824514Y-102301830D01*
X159824514Y-102301830D02*
X159900704Y-102263734D01*
X159900704Y-102263734D02*
X159938800Y-102225639D01*
X159938800Y-102225639D02*
X159976895Y-102149449D01*
X159976895Y-102149449D02*
X159976895Y-101997068D01*
X159976895Y-101997068D02*
X159938800Y-101920877D01*
X159938800Y-101920877D02*
X159900704Y-101882782D01*
X159900704Y-101882782D02*
X159824514Y-101844687D01*
X159824514Y-101844687D02*
X159672133Y-101844687D01*
X159672133Y-101844687D02*
X159595942Y-101882782D01*
X159595942Y-101882782D02*
X159557847Y-101920877D01*
X159557847Y-101920877D02*
X159519752Y-101997068D01*
X116346895Y-109548020D02*
X117146895Y-109281353D01*
X117146895Y-109281353D02*
X116346895Y-109014687D01*
X117070704Y-108290877D02*
X117108800Y-108328973D01*
X117108800Y-108328973D02*
X117146895Y-108443258D01*
X117146895Y-108443258D02*
X117146895Y-108519449D01*
X117146895Y-108519449D02*
X117108800Y-108633735D01*
X117108800Y-108633735D02*
X117032609Y-108709925D01*
X117032609Y-108709925D02*
X116956419Y-108748020D01*
X116956419Y-108748020D02*
X116804038Y-108786116D01*
X116804038Y-108786116D02*
X116689752Y-108786116D01*
X116689752Y-108786116D02*
X116537371Y-108748020D01*
X116537371Y-108748020D02*
X116461180Y-108709925D01*
X116461180Y-108709925D02*
X116384990Y-108633735D01*
X116384990Y-108633735D02*
X116346895Y-108519449D01*
X116346895Y-108519449D02*
X116346895Y-108443258D01*
X116346895Y-108443258D02*
X116384990Y-108328973D01*
X116384990Y-108328973D02*
X116423085Y-108290877D01*
X117070704Y-107490877D02*
X117108800Y-107528973D01*
X117108800Y-107528973D02*
X117146895Y-107643258D01*
X117146895Y-107643258D02*
X117146895Y-107719449D01*
X117146895Y-107719449D02*
X117108800Y-107833735D01*
X117108800Y-107833735D02*
X117032609Y-107909925D01*
X117032609Y-107909925D02*
X116956419Y-107948020D01*
X116956419Y-107948020D02*
X116804038Y-107986116D01*
X116804038Y-107986116D02*
X116689752Y-107986116D01*
X116689752Y-107986116D02*
X116537371Y-107948020D01*
X116537371Y-107948020D02*
X116461180Y-107909925D01*
X116461180Y-107909925D02*
X116384990Y-107833735D01*
X116384990Y-107833735D02*
X116346895Y-107719449D01*
X116346895Y-107719449D02*
X116346895Y-107643258D01*
X116346895Y-107643258D02*
X116384990Y-107528973D01*
X116384990Y-107528973D02*
X116423085Y-107490877D01*
X116371200Y-100648169D02*
X116333104Y-100762455D01*
X116333104Y-100762455D02*
X116333104Y-100952931D01*
X116333104Y-100952931D02*
X116371200Y-101029122D01*
X116371200Y-101029122D02*
X116409295Y-101067217D01*
X116409295Y-101067217D02*
X116485485Y-101105312D01*
X116485485Y-101105312D02*
X116561676Y-101105312D01*
X116561676Y-101105312D02*
X116637866Y-101067217D01*
X116637866Y-101067217D02*
X116675961Y-101029122D01*
X116675961Y-101029122D02*
X116714057Y-100952931D01*
X116714057Y-100952931D02*
X116752152Y-100800550D01*
X116752152Y-100800550D02*
X116790247Y-100724360D01*
X116790247Y-100724360D02*
X116828342Y-100686265D01*
X116828342Y-100686265D02*
X116904533Y-100648169D01*
X116904533Y-100648169D02*
X116980723Y-100648169D01*
X116980723Y-100648169D02*
X117056914Y-100686265D01*
X117056914Y-100686265D02*
X117095009Y-100724360D01*
X117095009Y-100724360D02*
X117133104Y-100800550D01*
X117133104Y-100800550D02*
X117133104Y-100991027D01*
X117133104Y-100991027D02*
X117095009Y-101105312D01*
X116409295Y-101905313D02*
X116371200Y-101867217D01*
X116371200Y-101867217D02*
X116333104Y-101752932D01*
X116333104Y-101752932D02*
X116333104Y-101676741D01*
X116333104Y-101676741D02*
X116371200Y-101562455D01*
X116371200Y-101562455D02*
X116447390Y-101486265D01*
X116447390Y-101486265D02*
X116523580Y-101448170D01*
X116523580Y-101448170D02*
X116675961Y-101410074D01*
X116675961Y-101410074D02*
X116790247Y-101410074D01*
X116790247Y-101410074D02*
X116942628Y-101448170D01*
X116942628Y-101448170D02*
X117018819Y-101486265D01*
X117018819Y-101486265D02*
X117095009Y-101562455D01*
X117095009Y-101562455D02*
X117133104Y-101676741D01*
X117133104Y-101676741D02*
X117133104Y-101752932D01*
X117133104Y-101752932D02*
X117095009Y-101867217D01*
X117095009Y-101867217D02*
X117056914Y-101905313D01*
X116333104Y-102629122D02*
X116333104Y-102248170D01*
X116333104Y-102248170D02*
X117133104Y-102248170D01*
X134164836Y-78191657D02*
X134126741Y-78153561D01*
X134126741Y-78153561D02*
X134050550Y-78039276D01*
X134050550Y-78039276D02*
X134012455Y-77963085D01*
X134012455Y-77963085D02*
X133974360Y-77848800D01*
X133974360Y-77848800D02*
X133936265Y-77658323D01*
X133936265Y-77658323D02*
X133936265Y-77505942D01*
X133936265Y-77505942D02*
X133974360Y-77315466D01*
X133974360Y-77315466D02*
X134012455Y-77201180D01*
X134012455Y-77201180D02*
X134050550Y-77124990D01*
X134050550Y-77124990D02*
X134126741Y-77010704D01*
X134126741Y-77010704D02*
X134164836Y-76972609D01*
X134469598Y-77582133D02*
X135079122Y-77582133D01*
X134774360Y-77886895D02*
X134774360Y-77277371D01*
X135383883Y-78191657D02*
X135421978Y-78153561D01*
X135421978Y-78153561D02*
X135498169Y-78039276D01*
X135498169Y-78039276D02*
X135536264Y-77963085D01*
X135536264Y-77963085D02*
X135574359Y-77848800D01*
X135574359Y-77848800D02*
X135612455Y-77658323D01*
X135612455Y-77658323D02*
X135612455Y-77505942D01*
X135612455Y-77505942D02*
X135574359Y-77315466D01*
X135574359Y-77315466D02*
X135536264Y-77201180D01*
X135536264Y-77201180D02*
X135498169Y-77124990D01*
X135498169Y-77124990D02*
X135421978Y-77010704D01*
X135421978Y-77010704D02*
X135383883Y-76972609D01*
X160056895Y-90153734D02*
X159256895Y-90153734D01*
X159256895Y-90153734D02*
X159256895Y-89963258D01*
X159256895Y-89963258D02*
X159294990Y-89848972D01*
X159294990Y-89848972D02*
X159371180Y-89772782D01*
X159371180Y-89772782D02*
X159447371Y-89734687D01*
X159447371Y-89734687D02*
X159599752Y-89696591D01*
X159599752Y-89696591D02*
X159714038Y-89696591D01*
X159714038Y-89696591D02*
X159866419Y-89734687D01*
X159866419Y-89734687D02*
X159942609Y-89772782D01*
X159942609Y-89772782D02*
X160018800Y-89848972D01*
X160018800Y-89848972D02*
X160056895Y-89963258D01*
X160056895Y-89963258D02*
X160056895Y-90153734D01*
X159256895Y-89429925D02*
X159256895Y-88934687D01*
X159256895Y-88934687D02*
X159561657Y-89201353D01*
X159561657Y-89201353D02*
X159561657Y-89087068D01*
X159561657Y-89087068D02*
X159599752Y-89010877D01*
X159599752Y-89010877D02*
X159637847Y-88972782D01*
X159637847Y-88972782D02*
X159714038Y-88934687D01*
X159714038Y-88934687D02*
X159904514Y-88934687D01*
X159904514Y-88934687D02*
X159980704Y-88972782D01*
X159980704Y-88972782D02*
X160018800Y-89010877D01*
X160018800Y-89010877D02*
X160056895Y-89087068D01*
X160056895Y-89087068D02*
X160056895Y-89315639D01*
X160056895Y-89315639D02*
X160018800Y-89391830D01*
X160018800Y-89391830D02*
X159980704Y-89429925D01*
X117115009Y-92855312D02*
X117153104Y-92779122D01*
X117153104Y-92779122D02*
X117153104Y-92664836D01*
X117153104Y-92664836D02*
X117115009Y-92550550D01*
X117115009Y-92550550D02*
X117038819Y-92474360D01*
X117038819Y-92474360D02*
X116962628Y-92436265D01*
X116962628Y-92436265D02*
X116810247Y-92398169D01*
X116810247Y-92398169D02*
X116695961Y-92398169D01*
X116695961Y-92398169D02*
X116543580Y-92436265D01*
X116543580Y-92436265D02*
X116467390Y-92474360D01*
X116467390Y-92474360D02*
X116391200Y-92550550D01*
X116391200Y-92550550D02*
X116353104Y-92664836D01*
X116353104Y-92664836D02*
X116353104Y-92741027D01*
X116353104Y-92741027D02*
X116391200Y-92855312D01*
X116391200Y-92855312D02*
X116429295Y-92893408D01*
X116429295Y-92893408D02*
X116695961Y-92893408D01*
X116695961Y-92893408D02*
X116695961Y-92741027D01*
X116353104Y-93236265D02*
X117153104Y-93236265D01*
X117153104Y-93236265D02*
X116353104Y-93693408D01*
X116353104Y-93693408D02*
X117153104Y-93693408D01*
X116353104Y-94074360D02*
X117153104Y-94074360D01*
X117153104Y-94074360D02*
X117153104Y-94264836D01*
X117153104Y-94264836D02*
X117115009Y-94379122D01*
X117115009Y-94379122D02*
X117038819Y-94455312D01*
X117038819Y-94455312D02*
X116962628Y-94493407D01*
X116962628Y-94493407D02*
X116810247Y-94531503D01*
X116810247Y-94531503D02*
X116695961Y-94531503D01*
X116695961Y-94531503D02*
X116543580Y-94493407D01*
X116543580Y-94493407D02*
X116467390Y-94455312D01*
X116467390Y-94455312D02*
X116391200Y-94379122D01*
X116391200Y-94379122D02*
X116353104Y-94264836D01*
X116353104Y-94264836D02*
X116353104Y-94074360D01*
X160076895Y-87723734D02*
X159276895Y-87723734D01*
X159276895Y-87723734D02*
X159276895Y-87533258D01*
X159276895Y-87533258D02*
X159314990Y-87418972D01*
X159314990Y-87418972D02*
X159391180Y-87342782D01*
X159391180Y-87342782D02*
X159467371Y-87304687D01*
X159467371Y-87304687D02*
X159619752Y-87266591D01*
X159619752Y-87266591D02*
X159734038Y-87266591D01*
X159734038Y-87266591D02*
X159886419Y-87304687D01*
X159886419Y-87304687D02*
X159962609Y-87342782D01*
X159962609Y-87342782D02*
X160038800Y-87418972D01*
X160038800Y-87418972D02*
X160076895Y-87533258D01*
X160076895Y-87533258D02*
X160076895Y-87723734D01*
X159353085Y-86961830D02*
X159314990Y-86923734D01*
X159314990Y-86923734D02*
X159276895Y-86847544D01*
X159276895Y-86847544D02*
X159276895Y-86657068D01*
X159276895Y-86657068D02*
X159314990Y-86580877D01*
X159314990Y-86580877D02*
X159353085Y-86542782D01*
X159353085Y-86542782D02*
X159429276Y-86504687D01*
X159429276Y-86504687D02*
X159505466Y-86504687D01*
X159505466Y-86504687D02*
X159619752Y-86542782D01*
X159619752Y-86542782D02*
X160076895Y-86999925D01*
X160076895Y-86999925D02*
X160076895Y-86504687D01*
X160026895Y-92803734D02*
X159226895Y-92803734D01*
X159226895Y-92803734D02*
X159226895Y-92613258D01*
X159226895Y-92613258D02*
X159264990Y-92498972D01*
X159264990Y-92498972D02*
X159341180Y-92422782D01*
X159341180Y-92422782D02*
X159417371Y-92384687D01*
X159417371Y-92384687D02*
X159569752Y-92346591D01*
X159569752Y-92346591D02*
X159684038Y-92346591D01*
X159684038Y-92346591D02*
X159836419Y-92384687D01*
X159836419Y-92384687D02*
X159912609Y-92422782D01*
X159912609Y-92422782D02*
X159988800Y-92498972D01*
X159988800Y-92498972D02*
X160026895Y-92613258D01*
X160026895Y-92613258D02*
X160026895Y-92803734D01*
X159493561Y-91660877D02*
X160026895Y-91660877D01*
X159188800Y-91851353D02*
X159760228Y-92041830D01*
X159760228Y-92041830D02*
X159760228Y-91546591D01*
X117176895Y-111156591D02*
X116795942Y-111423258D01*
X117176895Y-111613734D02*
X116376895Y-111613734D01*
X116376895Y-111613734D02*
X116376895Y-111308972D01*
X116376895Y-111308972D02*
X116414990Y-111232782D01*
X116414990Y-111232782D02*
X116453085Y-111194687D01*
X116453085Y-111194687D02*
X116529276Y-111156591D01*
X116529276Y-111156591D02*
X116643561Y-111156591D01*
X116643561Y-111156591D02*
X116719752Y-111194687D01*
X116719752Y-111194687D02*
X116757847Y-111232782D01*
X116757847Y-111232782D02*
X116795942Y-111308972D01*
X116795942Y-111308972D02*
X116795942Y-111613734D01*
X116376895Y-110889925D02*
X117176895Y-110356591D01*
X116376895Y-110356591D02*
X117176895Y-110889925D01*
X159986895Y-97753734D02*
X159186895Y-97753734D01*
X159186895Y-97753734D02*
X159186895Y-97563258D01*
X159186895Y-97563258D02*
X159224990Y-97448972D01*
X159224990Y-97448972D02*
X159301180Y-97372782D01*
X159301180Y-97372782D02*
X159377371Y-97334687D01*
X159377371Y-97334687D02*
X159529752Y-97296591D01*
X159529752Y-97296591D02*
X159644038Y-97296591D01*
X159644038Y-97296591D02*
X159796419Y-97334687D01*
X159796419Y-97334687D02*
X159872609Y-97372782D01*
X159872609Y-97372782D02*
X159948800Y-97448972D01*
X159948800Y-97448972D02*
X159986895Y-97563258D01*
X159986895Y-97563258D02*
X159986895Y-97753734D01*
X159186895Y-96610877D02*
X159186895Y-96763258D01*
X159186895Y-96763258D02*
X159224990Y-96839449D01*
X159224990Y-96839449D02*
X159263085Y-96877544D01*
X159263085Y-96877544D02*
X159377371Y-96953734D01*
X159377371Y-96953734D02*
X159529752Y-96991830D01*
X159529752Y-96991830D02*
X159834514Y-96991830D01*
X159834514Y-96991830D02*
X159910704Y-96953734D01*
X159910704Y-96953734D02*
X159948800Y-96915639D01*
X159948800Y-96915639D02*
X159986895Y-96839449D01*
X159986895Y-96839449D02*
X159986895Y-96687068D01*
X159986895Y-96687068D02*
X159948800Y-96610877D01*
X159948800Y-96610877D02*
X159910704Y-96572782D01*
X159910704Y-96572782D02*
X159834514Y-96534687D01*
X159834514Y-96534687D02*
X159644038Y-96534687D01*
X159644038Y-96534687D02*
X159567847Y-96572782D01*
X159567847Y-96572782D02*
X159529752Y-96610877D01*
X159529752Y-96610877D02*
X159491657Y-96687068D01*
X159491657Y-96687068D02*
X159491657Y-96839449D01*
X159491657Y-96839449D02*
X159529752Y-96915639D01*
X159529752Y-96915639D02*
X159567847Y-96953734D01*
X159567847Y-96953734D02*
X159644038Y-96991830D01*
X120178800Y-86701830D02*
X120216895Y-86587544D01*
X120216895Y-86587544D02*
X120216895Y-86397068D01*
X120216895Y-86397068D02*
X120178800Y-86320877D01*
X120178800Y-86320877D02*
X120140704Y-86282782D01*
X120140704Y-86282782D02*
X120064514Y-86244687D01*
X120064514Y-86244687D02*
X119988323Y-86244687D01*
X119988323Y-86244687D02*
X119912133Y-86282782D01*
X119912133Y-86282782D02*
X119874038Y-86320877D01*
X119874038Y-86320877D02*
X119835942Y-86397068D01*
X119835942Y-86397068D02*
X119797847Y-86549449D01*
X119797847Y-86549449D02*
X119759752Y-86625639D01*
X119759752Y-86625639D02*
X119721657Y-86663734D01*
X119721657Y-86663734D02*
X119645466Y-86701830D01*
X119645466Y-86701830D02*
X119569276Y-86701830D01*
X119569276Y-86701830D02*
X119493085Y-86663734D01*
X119493085Y-86663734D02*
X119454990Y-86625639D01*
X119454990Y-86625639D02*
X119416895Y-86549449D01*
X119416895Y-86549449D02*
X119416895Y-86358972D01*
X119416895Y-86358972D02*
X119454990Y-86244687D01*
X120140704Y-85444686D02*
X120178800Y-85482782D01*
X120178800Y-85482782D02*
X120216895Y-85597067D01*
X120216895Y-85597067D02*
X120216895Y-85673258D01*
X120216895Y-85673258D02*
X120178800Y-85787544D01*
X120178800Y-85787544D02*
X120102609Y-85863734D01*
X120102609Y-85863734D02*
X120026419Y-85901829D01*
X120026419Y-85901829D02*
X119874038Y-85939925D01*
X119874038Y-85939925D02*
X119759752Y-85939925D01*
X119759752Y-85939925D02*
X119607371Y-85901829D01*
X119607371Y-85901829D02*
X119531180Y-85863734D01*
X119531180Y-85863734D02*
X119454990Y-85787544D01*
X119454990Y-85787544D02*
X119416895Y-85673258D01*
X119416895Y-85673258D02*
X119416895Y-85597067D01*
X119416895Y-85597067D02*
X119454990Y-85482782D01*
X119454990Y-85482782D02*
X119493085Y-85444686D01*
X120216895Y-84720877D02*
X120216895Y-85101829D01*
X120216895Y-85101829D02*
X119416895Y-85101829D01*
X117103104Y-95151979D02*
X116303104Y-95418646D01*
X116303104Y-95418646D02*
X117103104Y-95685312D01*
X116379295Y-96409122D02*
X116341200Y-96371026D01*
X116341200Y-96371026D02*
X116303104Y-96256741D01*
X116303104Y-96256741D02*
X116303104Y-96180550D01*
X116303104Y-96180550D02*
X116341200Y-96066264D01*
X116341200Y-96066264D02*
X116417390Y-95990074D01*
X116417390Y-95990074D02*
X116493580Y-95951979D01*
X116493580Y-95951979D02*
X116645961Y-95913883D01*
X116645961Y-95913883D02*
X116760247Y-95913883D01*
X116760247Y-95913883D02*
X116912628Y-95951979D01*
X116912628Y-95951979D02*
X116988819Y-95990074D01*
X116988819Y-95990074D02*
X117065009Y-96066264D01*
X117065009Y-96066264D02*
X117103104Y-96180550D01*
X117103104Y-96180550D02*
X117103104Y-96256741D01*
X117103104Y-96256741D02*
X117065009Y-96371026D01*
X117065009Y-96371026D02*
X117026914Y-96409122D01*
X116379295Y-97209122D02*
X116341200Y-97171026D01*
X116341200Y-97171026D02*
X116303104Y-97056741D01*
X116303104Y-97056741D02*
X116303104Y-96980550D01*
X116303104Y-96980550D02*
X116341200Y-96866264D01*
X116341200Y-96866264D02*
X116417390Y-96790074D01*
X116417390Y-96790074D02*
X116493580Y-96751979D01*
X116493580Y-96751979D02*
X116645961Y-96713883D01*
X116645961Y-96713883D02*
X116760247Y-96713883D01*
X116760247Y-96713883D02*
X116912628Y-96751979D01*
X116912628Y-96751979D02*
X116988819Y-96790074D01*
X116988819Y-96790074D02*
X117065009Y-96866264D01*
X117065009Y-96866264D02*
X117103104Y-96980550D01*
X117103104Y-96980550D02*
X117103104Y-97056741D01*
X117103104Y-97056741D02*
X117065009Y-97171026D01*
X117065009Y-97171026D02*
X117026914Y-97209122D01*
X160006895Y-95163734D02*
X159206895Y-95163734D01*
X159206895Y-95163734D02*
X159206895Y-94973258D01*
X159206895Y-94973258D02*
X159244990Y-94858972D01*
X159244990Y-94858972D02*
X159321180Y-94782782D01*
X159321180Y-94782782D02*
X159397371Y-94744687D01*
X159397371Y-94744687D02*
X159549752Y-94706591D01*
X159549752Y-94706591D02*
X159664038Y-94706591D01*
X159664038Y-94706591D02*
X159816419Y-94744687D01*
X159816419Y-94744687D02*
X159892609Y-94782782D01*
X159892609Y-94782782D02*
X159968800Y-94858972D01*
X159968800Y-94858972D02*
X160006895Y-94973258D01*
X160006895Y-94973258D02*
X160006895Y-95163734D01*
X159206895Y-93982782D02*
X159206895Y-94363734D01*
X159206895Y-94363734D02*
X159587847Y-94401830D01*
X159587847Y-94401830D02*
X159549752Y-94363734D01*
X159549752Y-94363734D02*
X159511657Y-94287544D01*
X159511657Y-94287544D02*
X159511657Y-94097068D01*
X159511657Y-94097068D02*
X159549752Y-94020877D01*
X159549752Y-94020877D02*
X159587847Y-93982782D01*
X159587847Y-93982782D02*
X159664038Y-93944687D01*
X159664038Y-93944687D02*
X159854514Y-93944687D01*
X159854514Y-93944687D02*
X159930704Y-93982782D01*
X159930704Y-93982782D02*
X159968800Y-94020877D01*
X159968800Y-94020877D02*
X160006895Y-94097068D01*
X160006895Y-94097068D02*
X160006895Y-94287544D01*
X160006895Y-94287544D02*
X159968800Y-94363734D01*
X159968800Y-94363734D02*
X159930704Y-94401830D01*
X120180066Y-89840913D02*
X119380066Y-89840913D01*
X119380066Y-89840913D02*
X119951494Y-89574247D01*
X119951494Y-89574247D02*
X119380066Y-89307580D01*
X119380066Y-89307580D02*
X120180066Y-89307580D01*
X120180066Y-88926627D02*
X119380066Y-88926627D01*
X120141971Y-88583771D02*
X120180066Y-88469485D01*
X120180066Y-88469485D02*
X120180066Y-88279009D01*
X120180066Y-88279009D02*
X120141971Y-88202818D01*
X120141971Y-88202818D02*
X120103875Y-88164723D01*
X120103875Y-88164723D02*
X120027685Y-88126628D01*
X120027685Y-88126628D02*
X119951494Y-88126628D01*
X119951494Y-88126628D02*
X119875304Y-88164723D01*
X119875304Y-88164723D02*
X119837209Y-88202818D01*
X119837209Y-88202818D02*
X119799113Y-88279009D01*
X119799113Y-88279009D02*
X119761018Y-88431390D01*
X119761018Y-88431390D02*
X119722923Y-88507580D01*
X119722923Y-88507580D02*
X119684828Y-88545675D01*
X119684828Y-88545675D02*
X119608637Y-88583771D01*
X119608637Y-88583771D02*
X119532447Y-88583771D01*
X119532447Y-88583771D02*
X119456256Y-88545675D01*
X119456256Y-88545675D02*
X119418161Y-88507580D01*
X119418161Y-88507580D02*
X119380066Y-88431390D01*
X119380066Y-88431390D02*
X119380066Y-88240913D01*
X119380066Y-88240913D02*
X119418161Y-88126628D01*
X119380066Y-87631389D02*
X119380066Y-87479008D01*
X119380066Y-87479008D02*
X119418161Y-87402818D01*
X119418161Y-87402818D02*
X119494351Y-87326627D01*
X119494351Y-87326627D02*
X119646732Y-87288532D01*
X119646732Y-87288532D02*
X119913399Y-87288532D01*
X119913399Y-87288532D02*
X120065780Y-87326627D01*
X120065780Y-87326627D02*
X120141971Y-87402818D01*
X120141971Y-87402818D02*
X120180066Y-87479008D01*
X120180066Y-87479008D02*
X120180066Y-87631389D01*
X120180066Y-87631389D02*
X120141971Y-87707580D01*
X120141971Y-87707580D02*
X120065780Y-87783770D01*
X120065780Y-87783770D02*
X119913399Y-87821866D01*
X119913399Y-87821866D02*
X119646732Y-87821866D01*
X119646732Y-87821866D02*
X119494351Y-87783770D01*
X119494351Y-87783770D02*
X119418161Y-87707580D01*
X119418161Y-87707580D02*
X119380066Y-87631389D01*
X116464073Y-106362259D02*
X116425978Y-106438449D01*
X116425978Y-106438449D02*
X116425978Y-106552735D01*
X116425978Y-106552735D02*
X116464073Y-106667021D01*
X116464073Y-106667021D02*
X116540263Y-106743211D01*
X116540263Y-106743211D02*
X116616454Y-106781306D01*
X116616454Y-106781306D02*
X116768835Y-106819402D01*
X116768835Y-106819402D02*
X116883121Y-106819402D01*
X116883121Y-106819402D02*
X117035502Y-106781306D01*
X117035502Y-106781306D02*
X117111692Y-106743211D01*
X117111692Y-106743211D02*
X117187883Y-106667021D01*
X117187883Y-106667021D02*
X117225978Y-106552735D01*
X117225978Y-106552735D02*
X117225978Y-106476544D01*
X117225978Y-106476544D02*
X117187883Y-106362259D01*
X117187883Y-106362259D02*
X117149787Y-106324163D01*
X117149787Y-106324163D02*
X116883121Y-106324163D01*
X116883121Y-106324163D02*
X116883121Y-106476544D01*
X117225978Y-105981306D02*
X116425978Y-105981306D01*
X116425978Y-105981306D02*
X117225978Y-105524163D01*
X117225978Y-105524163D02*
X116425978Y-105524163D01*
X117225978Y-105143211D02*
X116425978Y-105143211D01*
X116425978Y-105143211D02*
X116425978Y-104952735D01*
X116425978Y-104952735D02*
X116464073Y-104838449D01*
X116464073Y-104838449D02*
X116540263Y-104762259D01*
X116540263Y-104762259D02*
X116616454Y-104724164D01*
X116616454Y-104724164D02*
X116768835Y-104686068D01*
X116768835Y-104686068D02*
X116883121Y-104686068D01*
X116883121Y-104686068D02*
X117035502Y-104724164D01*
X117035502Y-104724164D02*
X117111692Y-104762259D01*
X117111692Y-104762259D02*
X117187883Y-104838449D01*
X117187883Y-104838449D02*
X117225978Y-104952735D01*
X117225978Y-104952735D02*
X117225978Y-105143211D01*
X116386895Y-114108020D02*
X116386895Y-113650877D01*
X117186895Y-113879449D02*
X116386895Y-113879449D01*
X116386895Y-113460401D02*
X117186895Y-112927067D01*
X116386895Y-112927067D02*
X117186895Y-113460401D01*
X112414990Y-83404687D02*
X112376895Y-83480877D01*
X112376895Y-83480877D02*
X112376895Y-83595163D01*
X112376895Y-83595163D02*
X112414990Y-83709449D01*
X112414990Y-83709449D02*
X112491180Y-83785639D01*
X112491180Y-83785639D02*
X112567371Y-83823734D01*
X112567371Y-83823734D02*
X112719752Y-83861830D01*
X112719752Y-83861830D02*
X112834038Y-83861830D01*
X112834038Y-83861830D02*
X112986419Y-83823734D01*
X112986419Y-83823734D02*
X113062609Y-83785639D01*
X113062609Y-83785639D02*
X113138800Y-83709449D01*
X113138800Y-83709449D02*
X113176895Y-83595163D01*
X113176895Y-83595163D02*
X113176895Y-83518972D01*
X113176895Y-83518972D02*
X113138800Y-83404687D01*
X113138800Y-83404687D02*
X113100704Y-83366591D01*
X113100704Y-83366591D02*
X112834038Y-83366591D01*
X112834038Y-83366591D02*
X112834038Y-83518972D01*
X113176895Y-83023734D02*
X112376895Y-83023734D01*
X112376895Y-83023734D02*
X113176895Y-82566591D01*
X113176895Y-82566591D02*
X112376895Y-82566591D01*
X113176895Y-82185639D02*
X112376895Y-82185639D01*
X112376895Y-82185639D02*
X112376895Y-81995163D01*
X112376895Y-81995163D02*
X112414990Y-81880877D01*
X112414990Y-81880877D02*
X112491180Y-81804687D01*
X112491180Y-81804687D02*
X112567371Y-81766592D01*
X112567371Y-81766592D02*
X112719752Y-81728496D01*
X112719752Y-81728496D02*
X112834038Y-81728496D01*
X112834038Y-81728496D02*
X112986419Y-81766592D01*
X112986419Y-81766592D02*
X113062609Y-81804687D01*
X113062609Y-81804687D02*
X113138800Y-81880877D01*
X113138800Y-81880877D02*
X113176895Y-81995163D01*
X113176895Y-81995163D02*
X113176895Y-82185639D01*
X113156895Y-86913734D02*
X112356895Y-86913734D01*
X112356895Y-86913734D02*
X112928323Y-86647068D01*
X112928323Y-86647068D02*
X112356895Y-86380401D01*
X112356895Y-86380401D02*
X113156895Y-86380401D01*
X112356895Y-85847067D02*
X112356895Y-85694686D01*
X112356895Y-85694686D02*
X112394990Y-85618496D01*
X112394990Y-85618496D02*
X112471180Y-85542305D01*
X112471180Y-85542305D02*
X112623561Y-85504210D01*
X112623561Y-85504210D02*
X112890228Y-85504210D01*
X112890228Y-85504210D02*
X113042609Y-85542305D01*
X113042609Y-85542305D02*
X113118800Y-85618496D01*
X113118800Y-85618496D02*
X113156895Y-85694686D01*
X113156895Y-85694686D02*
X113156895Y-85847067D01*
X113156895Y-85847067D02*
X113118800Y-85923258D01*
X113118800Y-85923258D02*
X113042609Y-85999448D01*
X113042609Y-85999448D02*
X112890228Y-86037544D01*
X112890228Y-86037544D02*
X112623561Y-86037544D01*
X112623561Y-86037544D02*
X112471180Y-85999448D01*
X112471180Y-85999448D02*
X112394990Y-85923258D01*
X112394990Y-85923258D02*
X112356895Y-85847067D01*
X113118800Y-85199449D02*
X113156895Y-85085163D01*
X113156895Y-85085163D02*
X113156895Y-84894687D01*
X113156895Y-84894687D02*
X113118800Y-84818496D01*
X113118800Y-84818496D02*
X113080704Y-84780401D01*
X113080704Y-84780401D02*
X113004514Y-84742306D01*
X113004514Y-84742306D02*
X112928323Y-84742306D01*
X112928323Y-84742306D02*
X112852133Y-84780401D01*
X112852133Y-84780401D02*
X112814038Y-84818496D01*
X112814038Y-84818496D02*
X112775942Y-84894687D01*
X112775942Y-84894687D02*
X112737847Y-85047068D01*
X112737847Y-85047068D02*
X112699752Y-85123258D01*
X112699752Y-85123258D02*
X112661657Y-85161353D01*
X112661657Y-85161353D02*
X112585466Y-85199449D01*
X112585466Y-85199449D02*
X112509276Y-85199449D01*
X112509276Y-85199449D02*
X112433085Y-85161353D01*
X112433085Y-85161353D02*
X112394990Y-85123258D01*
X112394990Y-85123258D02*
X112356895Y-85047068D01*
X112356895Y-85047068D02*
X112356895Y-84856591D01*
X112356895Y-84856591D02*
X112394990Y-84742306D01*
X113156895Y-84399448D02*
X112356895Y-84399448D01*
X136904836Y-78191657D02*
X136866741Y-78153561D01*
X136866741Y-78153561D02*
X136790550Y-78039276D01*
X136790550Y-78039276D02*
X136752455Y-77963085D01*
X136752455Y-77963085D02*
X136714360Y-77848800D01*
X136714360Y-77848800D02*
X136676265Y-77658323D01*
X136676265Y-77658323D02*
X136676265Y-77505942D01*
X136676265Y-77505942D02*
X136714360Y-77315466D01*
X136714360Y-77315466D02*
X136752455Y-77201180D01*
X136752455Y-77201180D02*
X136790550Y-77124990D01*
X136790550Y-77124990D02*
X136866741Y-77010704D01*
X136866741Y-77010704D02*
X136904836Y-76972609D01*
X137209598Y-77582133D02*
X137819122Y-77582133D01*
X138123883Y-78191657D02*
X138161978Y-78153561D01*
X138161978Y-78153561D02*
X138238169Y-78039276D01*
X138238169Y-78039276D02*
X138276264Y-77963085D01*
X138276264Y-77963085D02*
X138314359Y-77848800D01*
X138314359Y-77848800D02*
X138352455Y-77658323D01*
X138352455Y-77658323D02*
X138352455Y-77505942D01*
X138352455Y-77505942D02*
X138314359Y-77315466D01*
X138314359Y-77315466D02*
X138276264Y-77201180D01*
X138276264Y-77201180D02*
X138238169Y-77124990D01*
X138238169Y-77124990D02*
X138161978Y-77010704D01*
X138161978Y-77010704D02*
X138123883Y-76972609D01*
X116391200Y-97868169D02*
X116353104Y-97982455D01*
X116353104Y-97982455D02*
X116353104Y-98172931D01*
X116353104Y-98172931D02*
X116391200Y-98249122D01*
X116391200Y-98249122D02*
X116429295Y-98287217D01*
X116429295Y-98287217D02*
X116505485Y-98325312D01*
X116505485Y-98325312D02*
X116581676Y-98325312D01*
X116581676Y-98325312D02*
X116657866Y-98287217D01*
X116657866Y-98287217D02*
X116695961Y-98249122D01*
X116695961Y-98249122D02*
X116734057Y-98172931D01*
X116734057Y-98172931D02*
X116772152Y-98020550D01*
X116772152Y-98020550D02*
X116810247Y-97944360D01*
X116810247Y-97944360D02*
X116848342Y-97906265D01*
X116848342Y-97906265D02*
X116924533Y-97868169D01*
X116924533Y-97868169D02*
X117000723Y-97868169D01*
X117000723Y-97868169D02*
X117076914Y-97906265D01*
X117076914Y-97906265D02*
X117115009Y-97944360D01*
X117115009Y-97944360D02*
X117153104Y-98020550D01*
X117153104Y-98020550D02*
X117153104Y-98211027D01*
X117153104Y-98211027D02*
X117115009Y-98325312D01*
X116353104Y-98668170D02*
X117153104Y-98668170D01*
X117153104Y-98668170D02*
X117153104Y-98858646D01*
X117153104Y-98858646D02*
X117115009Y-98972932D01*
X117115009Y-98972932D02*
X117038819Y-99049122D01*
X117038819Y-99049122D02*
X116962628Y-99087217D01*
X116962628Y-99087217D02*
X116810247Y-99125313D01*
X116810247Y-99125313D02*
X116695961Y-99125313D01*
X116695961Y-99125313D02*
X116543580Y-99087217D01*
X116543580Y-99087217D02*
X116467390Y-99049122D01*
X116467390Y-99049122D02*
X116391200Y-98972932D01*
X116391200Y-98972932D02*
X116353104Y-98858646D01*
X116353104Y-98858646D02*
X116353104Y-98668170D01*
X116581676Y-99430074D02*
X116581676Y-99811027D01*
X116353104Y-99353884D02*
X117153104Y-99620551D01*
X117153104Y-99620551D02*
X116353104Y-99887217D01*
X159204990Y-105194687D02*
X159166895Y-105270877D01*
X159166895Y-105270877D02*
X159166895Y-105385163D01*
X159166895Y-105385163D02*
X159204990Y-105499449D01*
X159204990Y-105499449D02*
X159281180Y-105575639D01*
X159281180Y-105575639D02*
X159357371Y-105613734D01*
X159357371Y-105613734D02*
X159509752Y-105651830D01*
X159509752Y-105651830D02*
X159624038Y-105651830D01*
X159624038Y-105651830D02*
X159776419Y-105613734D01*
X159776419Y-105613734D02*
X159852609Y-105575639D01*
X159852609Y-105575639D02*
X159928800Y-105499449D01*
X159928800Y-105499449D02*
X159966895Y-105385163D01*
X159966895Y-105385163D02*
X159966895Y-105308972D01*
X159966895Y-105308972D02*
X159928800Y-105194687D01*
X159928800Y-105194687D02*
X159890704Y-105156591D01*
X159890704Y-105156591D02*
X159624038Y-105156591D01*
X159624038Y-105156591D02*
X159624038Y-105308972D01*
X159966895Y-104813734D02*
X159166895Y-104813734D01*
X159166895Y-104813734D02*
X159966895Y-104356591D01*
X159966895Y-104356591D02*
X159166895Y-104356591D01*
X159966895Y-103975639D02*
X159166895Y-103975639D01*
X159166895Y-103975639D02*
X159166895Y-103785163D01*
X159166895Y-103785163D02*
X159204990Y-103670877D01*
X159204990Y-103670877D02*
X159281180Y-103594687D01*
X159281180Y-103594687D02*
X159357371Y-103556592D01*
X159357371Y-103556592D02*
X159509752Y-103518496D01*
X159509752Y-103518496D02*
X159624038Y-103518496D01*
X159624038Y-103518496D02*
X159776419Y-103556592D01*
X159776419Y-103556592D02*
X159852609Y-103594687D01*
X159852609Y-103594687D02*
X159928800Y-103670877D01*
X159928800Y-103670877D02*
X159966895Y-103785163D01*
X159966895Y-103785163D02*
X159966895Y-103975639D01*
X159166895Y-108538020D02*
X159966895Y-108271353D01*
X159966895Y-108271353D02*
X159166895Y-108004687D01*
X159890704Y-107280877D02*
X159928800Y-107318973D01*
X159928800Y-107318973D02*
X159966895Y-107433258D01*
X159966895Y-107433258D02*
X159966895Y-107509449D01*
X159966895Y-107509449D02*
X159928800Y-107623735D01*
X159928800Y-107623735D02*
X159852609Y-107699925D01*
X159852609Y-107699925D02*
X159776419Y-107738020D01*
X159776419Y-107738020D02*
X159624038Y-107776116D01*
X159624038Y-107776116D02*
X159509752Y-107776116D01*
X159509752Y-107776116D02*
X159357371Y-107738020D01*
X159357371Y-107738020D02*
X159281180Y-107699925D01*
X159281180Y-107699925D02*
X159204990Y-107623735D01*
X159204990Y-107623735D02*
X159166895Y-107509449D01*
X159166895Y-107509449D02*
X159166895Y-107433258D01*
X159166895Y-107433258D02*
X159204990Y-107318973D01*
X159204990Y-107318973D02*
X159243085Y-107280877D01*
X159890704Y-106480877D02*
X159928800Y-106518973D01*
X159928800Y-106518973D02*
X159966895Y-106633258D01*
X159966895Y-106633258D02*
X159966895Y-106709449D01*
X159966895Y-106709449D02*
X159928800Y-106823735D01*
X159928800Y-106823735D02*
X159852609Y-106899925D01*
X159852609Y-106899925D02*
X159776419Y-106938020D01*
X159776419Y-106938020D02*
X159624038Y-106976116D01*
X159624038Y-106976116D02*
X159509752Y-106976116D01*
X159509752Y-106976116D02*
X159357371Y-106938020D01*
X159357371Y-106938020D02*
X159281180Y-106899925D01*
X159281180Y-106899925D02*
X159204990Y-106823735D01*
X159204990Y-106823735D02*
X159166895Y-106709449D01*
X159166895Y-106709449D02*
X159166895Y-106633258D01*
X159166895Y-106633258D02*
X159204990Y-106518973D01*
X159204990Y-106518973D02*
X159243085Y-106480877D01*
X159996895Y-100513734D02*
X159196895Y-100513734D01*
X159196895Y-100513734D02*
X159196895Y-100323258D01*
X159196895Y-100323258D02*
X159234990Y-100208972D01*
X159234990Y-100208972D02*
X159311180Y-100132782D01*
X159311180Y-100132782D02*
X159387371Y-100094687D01*
X159387371Y-100094687D02*
X159539752Y-100056591D01*
X159539752Y-100056591D02*
X159654038Y-100056591D01*
X159654038Y-100056591D02*
X159806419Y-100094687D01*
X159806419Y-100094687D02*
X159882609Y-100132782D01*
X159882609Y-100132782D02*
X159958800Y-100208972D01*
X159958800Y-100208972D02*
X159996895Y-100323258D01*
X159996895Y-100323258D02*
X159996895Y-100513734D01*
X159196895Y-99789925D02*
X159196895Y-99256591D01*
X159196895Y-99256591D02*
X159996895Y-99599449D01*
X112375242Y-89525120D02*
X113175242Y-89258453D01*
X113175242Y-89258453D02*
X112375242Y-88991787D01*
X113099051Y-88267977D02*
X113137147Y-88306073D01*
X113137147Y-88306073D02*
X113175242Y-88420358D01*
X113175242Y-88420358D02*
X113175242Y-88496549D01*
X113175242Y-88496549D02*
X113137147Y-88610835D01*
X113137147Y-88610835D02*
X113060956Y-88687025D01*
X113060956Y-88687025D02*
X112984766Y-88725120D01*
X112984766Y-88725120D02*
X112832385Y-88763216D01*
X112832385Y-88763216D02*
X112718099Y-88763216D01*
X112718099Y-88763216D02*
X112565718Y-88725120D01*
X112565718Y-88725120D02*
X112489527Y-88687025D01*
X112489527Y-88687025D02*
X112413337Y-88610835D01*
X112413337Y-88610835D02*
X112375242Y-88496549D01*
X112375242Y-88496549D02*
X112375242Y-88420358D01*
X112375242Y-88420358D02*
X112413337Y-88306073D01*
X112413337Y-88306073D02*
X112451432Y-88267977D01*
X113099051Y-87467977D02*
X113137147Y-87506073D01*
X113137147Y-87506073D02*
X113175242Y-87620358D01*
X113175242Y-87620358D02*
X113175242Y-87696549D01*
X113175242Y-87696549D02*
X113137147Y-87810835D01*
X113137147Y-87810835D02*
X113060956Y-87887025D01*
X113060956Y-87887025D02*
X112984766Y-87925120D01*
X112984766Y-87925120D02*
X112832385Y-87963216D01*
X112832385Y-87963216D02*
X112718099Y-87963216D01*
X112718099Y-87963216D02*
X112565718Y-87925120D01*
X112565718Y-87925120D02*
X112489527Y-87887025D01*
X112489527Y-87887025D02*
X112413337Y-87810835D01*
X112413337Y-87810835D02*
X112375242Y-87696549D01*
X112375242Y-87696549D02*
X112375242Y-87620358D01*
X112375242Y-87620358D02*
X112413337Y-87506073D01*
X112413337Y-87506073D02*
X112451432Y-87467977D01*
X120296895Y-83606591D02*
X119915942Y-83873258D01*
X120296895Y-84063734D02*
X119496895Y-84063734D01*
X119496895Y-84063734D02*
X119496895Y-83758972D01*
X119496895Y-83758972D02*
X119534990Y-83682782D01*
X119534990Y-83682782D02*
X119573085Y-83644687D01*
X119573085Y-83644687D02*
X119649276Y-83606591D01*
X119649276Y-83606591D02*
X119763561Y-83606591D01*
X119763561Y-83606591D02*
X119839752Y-83644687D01*
X119839752Y-83644687D02*
X119877847Y-83682782D01*
X119877847Y-83682782D02*
X119915942Y-83758972D01*
X119915942Y-83758972D02*
X119915942Y-84063734D01*
X119877847Y-83263734D02*
X119877847Y-82997068D01*
X120296895Y-82882782D02*
X120296895Y-83263734D01*
X120296895Y-83263734D02*
X119496895Y-83263734D01*
X119496895Y-83263734D02*
X119496895Y-82882782D01*
X120258800Y-82578020D02*
X120296895Y-82463734D01*
X120296895Y-82463734D02*
X120296895Y-82273258D01*
X120296895Y-82273258D02*
X120258800Y-82197067D01*
X120258800Y-82197067D02*
X120220704Y-82158972D01*
X120220704Y-82158972D02*
X120144514Y-82120877D01*
X120144514Y-82120877D02*
X120068323Y-82120877D01*
X120068323Y-82120877D02*
X119992133Y-82158972D01*
X119992133Y-82158972D02*
X119954038Y-82197067D01*
X119954038Y-82197067D02*
X119915942Y-82273258D01*
X119915942Y-82273258D02*
X119877847Y-82425639D01*
X119877847Y-82425639D02*
X119839752Y-82501829D01*
X119839752Y-82501829D02*
X119801657Y-82539924D01*
X119801657Y-82539924D02*
X119725466Y-82578020D01*
X119725466Y-82578020D02*
X119649276Y-82578020D01*
X119649276Y-82578020D02*
X119573085Y-82539924D01*
X119573085Y-82539924D02*
X119534990Y-82501829D01*
X119534990Y-82501829D02*
X119496895Y-82425639D01*
X119496895Y-82425639D02*
X119496895Y-82235162D01*
X119496895Y-82235162D02*
X119534990Y-82120877D01*
X119877847Y-81778019D02*
X119877847Y-81511353D01*
X120296895Y-81397067D02*
X120296895Y-81778019D01*
X120296895Y-81778019D02*
X119496895Y-81778019D01*
X119496895Y-81778019D02*
X119496895Y-81397067D01*
X119496895Y-81168495D02*
X119496895Y-80711352D01*
X120296895Y-80939924D02*
X119496895Y-80939924D01*
D11*
X111048876Y-115958095D02*
X111048876Y-115158095D01*
X111048876Y-115539047D02*
X111506019Y-115539047D01*
X111506019Y-115958095D02*
X111506019Y-115158095D01*
X111810780Y-115158095D02*
X112306018Y-115158095D01*
X112306018Y-115158095D02*
X112039352Y-115462857D01*
X112039352Y-115462857D02*
X112153637Y-115462857D01*
X112153637Y-115462857D02*
X112229828Y-115500952D01*
X112229828Y-115500952D02*
X112267923Y-115539047D01*
X112267923Y-115539047D02*
X112306018Y-115615238D01*
X112306018Y-115615238D02*
X112306018Y-115805714D01*
X112306018Y-115805714D02*
X112267923Y-115881904D01*
X112267923Y-115881904D02*
X112229828Y-115920000D01*
X112229828Y-115920000D02*
X112153637Y-115958095D01*
X112153637Y-115958095D02*
X111925066Y-115958095D01*
X111925066Y-115958095D02*
X111848875Y-115920000D01*
X111848875Y-115920000D02*
X111810780Y-115881904D01*
X150037876Y-91383295D02*
X150037876Y-92030914D01*
X150037876Y-92030914D02*
X150075971Y-92107104D01*
X150075971Y-92107104D02*
X150114066Y-92145200D01*
X150114066Y-92145200D02*
X150190257Y-92183295D01*
X150190257Y-92183295D02*
X150342638Y-92183295D01*
X150342638Y-92183295D02*
X150418828Y-92145200D01*
X150418828Y-92145200D02*
X150456923Y-92107104D01*
X150456923Y-92107104D02*
X150495019Y-92030914D01*
X150495019Y-92030914D02*
X150495019Y-91383295D01*
X150837875Y-91459485D02*
X150875971Y-91421390D01*
X150875971Y-91421390D02*
X150952161Y-91383295D01*
X150952161Y-91383295D02*
X151142637Y-91383295D01*
X151142637Y-91383295D02*
X151218828Y-91421390D01*
X151218828Y-91421390D02*
X151256923Y-91459485D01*
X151256923Y-91459485D02*
X151295018Y-91535676D01*
X151295018Y-91535676D02*
X151295018Y-91611866D01*
X151295018Y-91611866D02*
X151256923Y-91726152D01*
X151256923Y-91726152D02*
X150799780Y-92183295D01*
X150799780Y-92183295D02*
X151295018Y-92183295D01*
X149111056Y-92577085D02*
X149149152Y-92538990D01*
X149149152Y-92538990D02*
X149225342Y-92500895D01*
X149225342Y-92500895D02*
X149415818Y-92500895D01*
X149415818Y-92500895D02*
X149492009Y-92538990D01*
X149492009Y-92538990D02*
X149530104Y-92577085D01*
X149530104Y-92577085D02*
X149568199Y-92653276D01*
X149568199Y-92653276D02*
X149568199Y-92729466D01*
X149568199Y-92729466D02*
X149530104Y-92843752D01*
X149530104Y-92843752D02*
X149072961Y-93300895D01*
X149072961Y-93300895D02*
X149568199Y-93300895D01*
X150253914Y-92767561D02*
X150253914Y-93300895D01*
X150063438Y-92462800D02*
X149872961Y-93034228D01*
X149872961Y-93034228D02*
X150368200Y-93034228D01*
X151053914Y-93300895D02*
X150672962Y-93300895D01*
X150672962Y-93300895D02*
X150672962Y-92500895D01*
X151777724Y-93224704D02*
X151739628Y-93262800D01*
X151739628Y-93262800D02*
X151625343Y-93300895D01*
X151625343Y-93300895D02*
X151549152Y-93300895D01*
X151549152Y-93300895D02*
X151434866Y-93262800D01*
X151434866Y-93262800D02*
X151358676Y-93186609D01*
X151358676Y-93186609D02*
X151320581Y-93110419D01*
X151320581Y-93110419D02*
X151282485Y-92958038D01*
X151282485Y-92958038D02*
X151282485Y-92843752D01*
X151282485Y-92843752D02*
X151320581Y-92691371D01*
X151320581Y-92691371D02*
X151358676Y-92615180D01*
X151358676Y-92615180D02*
X151434866Y-92538990D01*
X151434866Y-92538990D02*
X151549152Y-92500895D01*
X151549152Y-92500895D02*
X151625343Y-92500895D01*
X151625343Y-92500895D02*
X151739628Y-92538990D01*
X151739628Y-92538990D02*
X151777724Y-92577085D01*
X152539628Y-93300895D02*
X152082485Y-93300895D01*
X152311057Y-93300895D02*
X152311057Y-92500895D01*
X152311057Y-92500895D02*
X152234866Y-92615180D01*
X152234866Y-92615180D02*
X152158676Y-92691371D01*
X152158676Y-92691371D02*
X152082485Y-92729466D01*
X153034867Y-92500895D02*
X153111057Y-92500895D01*
X153111057Y-92500895D02*
X153187248Y-92538990D01*
X153187248Y-92538990D02*
X153225343Y-92577085D01*
X153225343Y-92577085D02*
X153263438Y-92653276D01*
X153263438Y-92653276D02*
X153301533Y-92805657D01*
X153301533Y-92805657D02*
X153301533Y-92996133D01*
X153301533Y-92996133D02*
X153263438Y-93148514D01*
X153263438Y-93148514D02*
X153225343Y-93224704D01*
X153225343Y-93224704D02*
X153187248Y-93262800D01*
X153187248Y-93262800D02*
X153111057Y-93300895D01*
X153111057Y-93300895D02*
X153034867Y-93300895D01*
X153034867Y-93300895D02*
X152958676Y-93262800D01*
X152958676Y-93262800D02*
X152920581Y-93224704D01*
X152920581Y-93224704D02*
X152882486Y-93148514D01*
X152882486Y-93148514D02*
X152844390Y-92996133D01*
X152844390Y-92996133D02*
X152844390Y-92805657D01*
X152844390Y-92805657D02*
X152882486Y-92653276D01*
X152882486Y-92653276D02*
X152920581Y-92577085D01*
X152920581Y-92577085D02*
X152958676Y-92538990D01*
X152958676Y-92538990D02*
X153034867Y-92500895D01*
X153606295Y-92577085D02*
X153644391Y-92538990D01*
X153644391Y-92538990D02*
X153720581Y-92500895D01*
X153720581Y-92500895D02*
X153911057Y-92500895D01*
X153911057Y-92500895D02*
X153987248Y-92538990D01*
X153987248Y-92538990D02*
X154025343Y-92577085D01*
X154025343Y-92577085D02*
X154063438Y-92653276D01*
X154063438Y-92653276D02*
X154063438Y-92729466D01*
X154063438Y-92729466D02*
X154025343Y-92843752D01*
X154025343Y-92843752D02*
X153568200Y-93300895D01*
X153568200Y-93300895D02*
X154063438Y-93300895D01*
X154787248Y-92500895D02*
X154406296Y-92500895D01*
X154406296Y-92500895D02*
X154368200Y-92881847D01*
X154368200Y-92881847D02*
X154406296Y-92843752D01*
X154406296Y-92843752D02*
X154482486Y-92805657D01*
X154482486Y-92805657D02*
X154672962Y-92805657D01*
X154672962Y-92805657D02*
X154749153Y-92843752D01*
X154749153Y-92843752D02*
X154787248Y-92881847D01*
X154787248Y-92881847D02*
X154825343Y-92958038D01*
X154825343Y-92958038D02*
X154825343Y-93148514D01*
X154825343Y-93148514D02*
X154787248Y-93224704D01*
X154787248Y-93224704D02*
X154749153Y-93262800D01*
X154749153Y-93262800D02*
X154672962Y-93300895D01*
X154672962Y-93300895D02*
X154482486Y-93300895D01*
X154482486Y-93300895D02*
X154406296Y-93262800D01*
X154406296Y-93262800D02*
X154368200Y-93224704D01*
X133357604Y-83566232D02*
X133395700Y-83604328D01*
X133395700Y-83604328D02*
X133433795Y-83718613D01*
X133433795Y-83718613D02*
X133433795Y-83794804D01*
X133433795Y-83794804D02*
X133395700Y-83909090D01*
X133395700Y-83909090D02*
X133319509Y-83985280D01*
X133319509Y-83985280D02*
X133243319Y-84023375D01*
X133243319Y-84023375D02*
X133090938Y-84061471D01*
X133090938Y-84061471D02*
X132976652Y-84061471D01*
X132976652Y-84061471D02*
X132824271Y-84023375D01*
X132824271Y-84023375D02*
X132748080Y-83985280D01*
X132748080Y-83985280D02*
X132671890Y-83909090D01*
X132671890Y-83909090D02*
X132633795Y-83794804D01*
X132633795Y-83794804D02*
X132633795Y-83718613D01*
X132633795Y-83718613D02*
X132671890Y-83604328D01*
X132671890Y-83604328D02*
X132709985Y-83566232D01*
X132633795Y-82842423D02*
X132633795Y-83223375D01*
X132633795Y-83223375D02*
X133014747Y-83261471D01*
X133014747Y-83261471D02*
X132976652Y-83223375D01*
X132976652Y-83223375D02*
X132938557Y-83147185D01*
X132938557Y-83147185D02*
X132938557Y-82956709D01*
X132938557Y-82956709D02*
X132976652Y-82880518D01*
X132976652Y-82880518D02*
X133014747Y-82842423D01*
X133014747Y-82842423D02*
X133090938Y-82804328D01*
X133090938Y-82804328D02*
X133281414Y-82804328D01*
X133281414Y-82804328D02*
X133357604Y-82842423D01*
X133357604Y-82842423D02*
X133395700Y-82880518D01*
X133395700Y-82880518D02*
X133433795Y-82956709D01*
X133433795Y-82956709D02*
X133433795Y-83147185D01*
X133433795Y-83147185D02*
X133395700Y-83223375D01*
X133395700Y-83223375D02*
X133357604Y-83261471D01*
X139133795Y-84378138D02*
X139133795Y-84835281D01*
X139133795Y-84606709D02*
X138333795Y-84606709D01*
X138333795Y-84606709D02*
X138448080Y-84682900D01*
X138448080Y-84682900D02*
X138524271Y-84759090D01*
X138524271Y-84759090D02*
X138562366Y-84835281D01*
X138333795Y-83882899D02*
X138333795Y-83806709D01*
X138333795Y-83806709D02*
X138371890Y-83730518D01*
X138371890Y-83730518D02*
X138409985Y-83692423D01*
X138409985Y-83692423D02*
X138486176Y-83654328D01*
X138486176Y-83654328D02*
X138638557Y-83616233D01*
X138638557Y-83616233D02*
X138829033Y-83616233D01*
X138829033Y-83616233D02*
X138981414Y-83654328D01*
X138981414Y-83654328D02*
X139057604Y-83692423D01*
X139057604Y-83692423D02*
X139095700Y-83730518D01*
X139095700Y-83730518D02*
X139133795Y-83806709D01*
X139133795Y-83806709D02*
X139133795Y-83882899D01*
X139133795Y-83882899D02*
X139095700Y-83959090D01*
X139095700Y-83959090D02*
X139057604Y-83997185D01*
X139057604Y-83997185D02*
X138981414Y-84035280D01*
X138981414Y-84035280D02*
X138829033Y-84073376D01*
X138829033Y-84073376D02*
X138638557Y-84073376D01*
X138638557Y-84073376D02*
X138486176Y-84035280D01*
X138486176Y-84035280D02*
X138409985Y-83997185D01*
X138409985Y-83997185D02*
X138371890Y-83959090D01*
X138371890Y-83959090D02*
X138333795Y-83882899D01*
X138333795Y-83120994D02*
X138333795Y-83044804D01*
X138333795Y-83044804D02*
X138371890Y-82968613D01*
X138371890Y-82968613D02*
X138409985Y-82930518D01*
X138409985Y-82930518D02*
X138486176Y-82892423D01*
X138486176Y-82892423D02*
X138638557Y-82854328D01*
X138638557Y-82854328D02*
X138829033Y-82854328D01*
X138829033Y-82854328D02*
X138981414Y-82892423D01*
X138981414Y-82892423D02*
X139057604Y-82930518D01*
X139057604Y-82930518D02*
X139095700Y-82968613D01*
X139095700Y-82968613D02*
X139133795Y-83044804D01*
X139133795Y-83044804D02*
X139133795Y-83120994D01*
X139133795Y-83120994D02*
X139095700Y-83197185D01*
X139095700Y-83197185D02*
X139057604Y-83235280D01*
X139057604Y-83235280D02*
X138981414Y-83273375D01*
X138981414Y-83273375D02*
X138829033Y-83311471D01*
X138829033Y-83311471D02*
X138638557Y-83311471D01*
X138638557Y-83311471D02*
X138486176Y-83273375D01*
X138486176Y-83273375D02*
X138409985Y-83235280D01*
X138409985Y-83235280D02*
X138371890Y-83197185D01*
X138371890Y-83197185D02*
X138333795Y-83120994D01*
X138600461Y-82511470D02*
X139133795Y-82511470D01*
X138676652Y-82511470D02*
X138638557Y-82473375D01*
X138638557Y-82473375D02*
X138600461Y-82397185D01*
X138600461Y-82397185D02*
X138600461Y-82282899D01*
X138600461Y-82282899D02*
X138638557Y-82206708D01*
X138638557Y-82206708D02*
X138714747Y-82168613D01*
X138714747Y-82168613D02*
X139133795Y-82168613D01*
X132424842Y-101243051D02*
X132805795Y-101243051D01*
X132005795Y-101509718D02*
X132424842Y-101243051D01*
X132424842Y-101243051D02*
X132005795Y-100976385D01*
X132805795Y-100290671D02*
X132805795Y-100747814D01*
X132805795Y-100519242D02*
X132005795Y-100519242D01*
X132005795Y-100519242D02*
X132120080Y-100595433D01*
X132120080Y-100595433D02*
X132196271Y-100671623D01*
X132196271Y-100671623D02*
X132234366Y-100747814D01*
X134639256Y-99193695D02*
X134182113Y-99193695D01*
X134410685Y-99193695D02*
X134410685Y-98393695D01*
X134410685Y-98393695D02*
X134334494Y-98507980D01*
X134334494Y-98507980D02*
X134258304Y-98584171D01*
X134258304Y-98584171D02*
X134182113Y-98622266D01*
X135324971Y-98393695D02*
X135172590Y-98393695D01*
X135172590Y-98393695D02*
X135096399Y-98431790D01*
X135096399Y-98431790D02*
X135058304Y-98469885D01*
X135058304Y-98469885D02*
X134982114Y-98584171D01*
X134982114Y-98584171D02*
X134944018Y-98736552D01*
X134944018Y-98736552D02*
X134944018Y-99041314D01*
X134944018Y-99041314D02*
X134982114Y-99117504D01*
X134982114Y-99117504D02*
X135020209Y-99155600D01*
X135020209Y-99155600D02*
X135096399Y-99193695D01*
X135096399Y-99193695D02*
X135248780Y-99193695D01*
X135248780Y-99193695D02*
X135324971Y-99155600D01*
X135324971Y-99155600D02*
X135363066Y-99117504D01*
X135363066Y-99117504D02*
X135401161Y-99041314D01*
X135401161Y-99041314D02*
X135401161Y-98850838D01*
X135401161Y-98850838D02*
X135363066Y-98774647D01*
X135363066Y-98774647D02*
X135324971Y-98736552D01*
X135324971Y-98736552D02*
X135248780Y-98698457D01*
X135248780Y-98698457D02*
X135096399Y-98698457D01*
X135096399Y-98698457D02*
X135020209Y-98736552D01*
X135020209Y-98736552D02*
X134982114Y-98774647D01*
X134982114Y-98774647D02*
X134944018Y-98850838D01*
X136353543Y-99193695D02*
X136353543Y-98393695D01*
X136353543Y-98393695D02*
X136620209Y-98965123D01*
X136620209Y-98965123D02*
X136886876Y-98393695D01*
X136886876Y-98393695D02*
X136886876Y-99193695D01*
X137267829Y-99193695D02*
X137267829Y-98393695D01*
X137267829Y-98774647D02*
X137724972Y-98774647D01*
X137724972Y-99193695D02*
X137724972Y-98393695D01*
X138029733Y-98660361D02*
X138448781Y-98660361D01*
X138448781Y-98660361D02*
X138029733Y-99193695D01*
X138029733Y-99193695D02*
X138448781Y-99193695D01*
X144025795Y-95927575D02*
X143225795Y-95927575D01*
X143225795Y-95927575D02*
X143225795Y-95737099D01*
X143225795Y-95737099D02*
X143263890Y-95622813D01*
X143263890Y-95622813D02*
X143340080Y-95546623D01*
X143340080Y-95546623D02*
X143416271Y-95508528D01*
X143416271Y-95508528D02*
X143568652Y-95470432D01*
X143568652Y-95470432D02*
X143682938Y-95470432D01*
X143682938Y-95470432D02*
X143835319Y-95508528D01*
X143835319Y-95508528D02*
X143911509Y-95546623D01*
X143911509Y-95546623D02*
X143987700Y-95622813D01*
X143987700Y-95622813D02*
X144025795Y-95737099D01*
X144025795Y-95737099D02*
X144025795Y-95927575D01*
X143301985Y-95165671D02*
X143263890Y-95127575D01*
X143263890Y-95127575D02*
X143225795Y-95051385D01*
X143225795Y-95051385D02*
X143225795Y-94860909D01*
X143225795Y-94860909D02*
X143263890Y-94784718D01*
X143263890Y-94784718D02*
X143301985Y-94746623D01*
X143301985Y-94746623D02*
X143378176Y-94708528D01*
X143378176Y-94708528D02*
X143454366Y-94708528D01*
X143454366Y-94708528D02*
X143568652Y-94746623D01*
X143568652Y-94746623D02*
X144025795Y-95203766D01*
X144025795Y-95203766D02*
X144025795Y-94708528D01*
X142678495Y-90150932D02*
X142297542Y-90417599D01*
X142678495Y-90608075D02*
X141878495Y-90608075D01*
X141878495Y-90608075D02*
X141878495Y-90303313D01*
X141878495Y-90303313D02*
X141916590Y-90227123D01*
X141916590Y-90227123D02*
X141954685Y-90189028D01*
X141954685Y-90189028D02*
X142030876Y-90150932D01*
X142030876Y-90150932D02*
X142145161Y-90150932D01*
X142145161Y-90150932D02*
X142221352Y-90189028D01*
X142221352Y-90189028D02*
X142259447Y-90227123D01*
X142259447Y-90227123D02*
X142297542Y-90303313D01*
X142297542Y-90303313D02*
X142297542Y-90608075D01*
X141878495Y-89884266D02*
X141878495Y-89350932D01*
X141878495Y-89350932D02*
X142678495Y-89693790D01*
X144930795Y-91015671D02*
X144930795Y-90520433D01*
X144930795Y-90520433D02*
X145235557Y-90787099D01*
X145235557Y-90787099D02*
X145235557Y-90672814D01*
X145235557Y-90672814D02*
X145273652Y-90596623D01*
X145273652Y-90596623D02*
X145311747Y-90558528D01*
X145311747Y-90558528D02*
X145387938Y-90520433D01*
X145387938Y-90520433D02*
X145578414Y-90520433D01*
X145578414Y-90520433D02*
X145654604Y-90558528D01*
X145654604Y-90558528D02*
X145692700Y-90596623D01*
X145692700Y-90596623D02*
X145730795Y-90672814D01*
X145730795Y-90672814D02*
X145730795Y-90901385D01*
X145730795Y-90901385D02*
X145692700Y-90977576D01*
X145692700Y-90977576D02*
X145654604Y-91015671D01*
X144930795Y-90253766D02*
X144930795Y-89758528D01*
X144930795Y-89758528D02*
X145235557Y-90025194D01*
X145235557Y-90025194D02*
X145235557Y-89910909D01*
X145235557Y-89910909D02*
X145273652Y-89834718D01*
X145273652Y-89834718D02*
X145311747Y-89796623D01*
X145311747Y-89796623D02*
X145387938Y-89758528D01*
X145387938Y-89758528D02*
X145578414Y-89758528D01*
X145578414Y-89758528D02*
X145654604Y-89796623D01*
X145654604Y-89796623D02*
X145692700Y-89834718D01*
X145692700Y-89834718D02*
X145730795Y-89910909D01*
X145730795Y-89910909D02*
X145730795Y-90139480D01*
X145730795Y-90139480D02*
X145692700Y-90215671D01*
X145692700Y-90215671D02*
X145654604Y-90253766D01*
X144930795Y-89263289D02*
X144930795Y-89187099D01*
X144930795Y-89187099D02*
X144968890Y-89110908D01*
X144968890Y-89110908D02*
X145006985Y-89072813D01*
X145006985Y-89072813D02*
X145083176Y-89034718D01*
X145083176Y-89034718D02*
X145235557Y-88996623D01*
X145235557Y-88996623D02*
X145426033Y-88996623D01*
X145426033Y-88996623D02*
X145578414Y-89034718D01*
X145578414Y-89034718D02*
X145654604Y-89072813D01*
X145654604Y-89072813D02*
X145692700Y-89110908D01*
X145692700Y-89110908D02*
X145730795Y-89187099D01*
X145730795Y-89187099D02*
X145730795Y-89263289D01*
X145730795Y-89263289D02*
X145692700Y-89339480D01*
X145692700Y-89339480D02*
X145654604Y-89377575D01*
X145654604Y-89377575D02*
X145578414Y-89415670D01*
X145578414Y-89415670D02*
X145426033Y-89453766D01*
X145426033Y-89453766D02*
X145235557Y-89453766D01*
X145235557Y-89453766D02*
X145083176Y-89415670D01*
X145083176Y-89415670D02*
X145006985Y-89377575D01*
X145006985Y-89377575D02*
X144968890Y-89339480D01*
X144968890Y-89339480D02*
X144930795Y-89263289D01*
X130942295Y-105483332D02*
X130561342Y-105749999D01*
X130942295Y-105940475D02*
X130142295Y-105940475D01*
X130142295Y-105940475D02*
X130142295Y-105635713D01*
X130142295Y-105635713D02*
X130180390Y-105559523D01*
X130180390Y-105559523D02*
X130218485Y-105521428D01*
X130218485Y-105521428D02*
X130294676Y-105483332D01*
X130294676Y-105483332D02*
X130408961Y-105483332D01*
X130408961Y-105483332D02*
X130485152Y-105521428D01*
X130485152Y-105521428D02*
X130523247Y-105559523D01*
X130523247Y-105559523D02*
X130561342Y-105635713D01*
X130561342Y-105635713D02*
X130561342Y-105940475D01*
X130408961Y-104797618D02*
X130942295Y-104797618D01*
X130104200Y-104988094D02*
X130675628Y-105178571D01*
X130675628Y-105178571D02*
X130675628Y-104683332D01*
X133890095Y-106317981D02*
X133890095Y-106775124D01*
X133890095Y-106546552D02*
X133090095Y-106546552D01*
X133090095Y-106546552D02*
X133204380Y-106622743D01*
X133204380Y-106622743D02*
X133280571Y-106698933D01*
X133280571Y-106698933D02*
X133318666Y-106775124D01*
X133090095Y-105822742D02*
X133090095Y-105746552D01*
X133090095Y-105746552D02*
X133128190Y-105670361D01*
X133128190Y-105670361D02*
X133166285Y-105632266D01*
X133166285Y-105632266D02*
X133242476Y-105594171D01*
X133242476Y-105594171D02*
X133394857Y-105556076D01*
X133394857Y-105556076D02*
X133585333Y-105556076D01*
X133585333Y-105556076D02*
X133737714Y-105594171D01*
X133737714Y-105594171D02*
X133813904Y-105632266D01*
X133813904Y-105632266D02*
X133852000Y-105670361D01*
X133852000Y-105670361D02*
X133890095Y-105746552D01*
X133890095Y-105746552D02*
X133890095Y-105822742D01*
X133890095Y-105822742D02*
X133852000Y-105898933D01*
X133852000Y-105898933D02*
X133813904Y-105937028D01*
X133813904Y-105937028D02*
X133737714Y-105975123D01*
X133737714Y-105975123D02*
X133585333Y-106013219D01*
X133585333Y-106013219D02*
X133394857Y-106013219D01*
X133394857Y-106013219D02*
X133242476Y-105975123D01*
X133242476Y-105975123D02*
X133166285Y-105937028D01*
X133166285Y-105937028D02*
X133128190Y-105898933D01*
X133128190Y-105898933D02*
X133090095Y-105822742D01*
X133890095Y-105213218D02*
X133090095Y-105213218D01*
X133890095Y-104756075D02*
X133432952Y-105098933D01*
X133090095Y-104756075D02*
X133547238Y-105213218D01*
X139586667Y-108686104D02*
X139548571Y-108724200D01*
X139548571Y-108724200D02*
X139434286Y-108762295D01*
X139434286Y-108762295D02*
X139358095Y-108762295D01*
X139358095Y-108762295D02*
X139243809Y-108724200D01*
X139243809Y-108724200D02*
X139167619Y-108648009D01*
X139167619Y-108648009D02*
X139129524Y-108571819D01*
X139129524Y-108571819D02*
X139091428Y-108419438D01*
X139091428Y-108419438D02*
X139091428Y-108305152D01*
X139091428Y-108305152D02*
X139129524Y-108152771D01*
X139129524Y-108152771D02*
X139167619Y-108076580D01*
X139167619Y-108076580D02*
X139243809Y-108000390D01*
X139243809Y-108000390D02*
X139358095Y-107962295D01*
X139358095Y-107962295D02*
X139434286Y-107962295D01*
X139434286Y-107962295D02*
X139548571Y-108000390D01*
X139548571Y-108000390D02*
X139586667Y-108038485D01*
X140272381Y-108228961D02*
X140272381Y-108762295D01*
X140081905Y-107924200D02*
X139891428Y-108495628D01*
X139891428Y-108495628D02*
X140386667Y-108495628D01*
X141642295Y-105643333D02*
X141642295Y-106100476D01*
X141642295Y-105871904D02*
X140842295Y-105871904D01*
X140842295Y-105871904D02*
X140956580Y-105948095D01*
X140956580Y-105948095D02*
X141032771Y-106024285D01*
X141032771Y-106024285D02*
X141070866Y-106100476D01*
X141108961Y-104957618D02*
X141642295Y-104957618D01*
X141108961Y-105300475D02*
X141528009Y-105300475D01*
X141528009Y-105300475D02*
X141604200Y-105262380D01*
X141604200Y-105262380D02*
X141642295Y-105186190D01*
X141642295Y-105186190D02*
X141642295Y-105071904D01*
X141642295Y-105071904D02*
X141604200Y-104995713D01*
X141604200Y-104995713D02*
X141566104Y-104957618D01*
X127706667Y-92392295D02*
X127440000Y-92011342D01*
X127249524Y-92392295D02*
X127249524Y-91592295D01*
X127249524Y-91592295D02*
X127554286Y-91592295D01*
X127554286Y-91592295D02*
X127630476Y-91630390D01*
X127630476Y-91630390D02*
X127668571Y-91668485D01*
X127668571Y-91668485D02*
X127706667Y-91744676D01*
X127706667Y-91744676D02*
X127706667Y-91858961D01*
X127706667Y-91858961D02*
X127668571Y-91935152D01*
X127668571Y-91935152D02*
X127630476Y-91973247D01*
X127630476Y-91973247D02*
X127554286Y-92011342D01*
X127554286Y-92011342D02*
X127249524Y-92011342D01*
X128392381Y-91592295D02*
X128240000Y-91592295D01*
X128240000Y-91592295D02*
X128163809Y-91630390D01*
X128163809Y-91630390D02*
X128125714Y-91668485D01*
X128125714Y-91668485D02*
X128049524Y-91782771D01*
X128049524Y-91782771D02*
X128011428Y-91935152D01*
X128011428Y-91935152D02*
X128011428Y-92239914D01*
X128011428Y-92239914D02*
X128049524Y-92316104D01*
X128049524Y-92316104D02*
X128087619Y-92354200D01*
X128087619Y-92354200D02*
X128163809Y-92392295D01*
X128163809Y-92392295D02*
X128316190Y-92392295D01*
X128316190Y-92392295D02*
X128392381Y-92354200D01*
X128392381Y-92354200D02*
X128430476Y-92316104D01*
X128430476Y-92316104D02*
X128468571Y-92239914D01*
X128468571Y-92239914D02*
X128468571Y-92049438D01*
X128468571Y-92049438D02*
X128430476Y-91973247D01*
X128430476Y-91973247D02*
X128392381Y-91935152D01*
X128392381Y-91935152D02*
X128316190Y-91897057D01*
X128316190Y-91897057D02*
X128163809Y-91897057D01*
X128163809Y-91897057D02*
X128087619Y-91935152D01*
X128087619Y-91935152D02*
X128049524Y-91973247D01*
X128049524Y-91973247D02*
X128011428Y-92049438D01*
X127337618Y-96982295D02*
X126880475Y-96982295D01*
X127109047Y-96982295D02*
X127109047Y-96182295D01*
X127109047Y-96182295D02*
X127032856Y-96296580D01*
X127032856Y-96296580D02*
X126956666Y-96372771D01*
X126956666Y-96372771D02*
X126880475Y-96410866D01*
X127832857Y-96182295D02*
X127909047Y-96182295D01*
X127909047Y-96182295D02*
X127985238Y-96220390D01*
X127985238Y-96220390D02*
X128023333Y-96258485D01*
X128023333Y-96258485D02*
X128061428Y-96334676D01*
X128061428Y-96334676D02*
X128099523Y-96487057D01*
X128099523Y-96487057D02*
X128099523Y-96677533D01*
X128099523Y-96677533D02*
X128061428Y-96829914D01*
X128061428Y-96829914D02*
X128023333Y-96906104D01*
X128023333Y-96906104D02*
X127985238Y-96944200D01*
X127985238Y-96944200D02*
X127909047Y-96982295D01*
X127909047Y-96982295D02*
X127832857Y-96982295D01*
X127832857Y-96982295D02*
X127756666Y-96944200D01*
X127756666Y-96944200D02*
X127718571Y-96906104D01*
X127718571Y-96906104D02*
X127680476Y-96829914D01*
X127680476Y-96829914D02*
X127642380Y-96677533D01*
X127642380Y-96677533D02*
X127642380Y-96487057D01*
X127642380Y-96487057D02*
X127680476Y-96334676D01*
X127680476Y-96334676D02*
X127718571Y-96258485D01*
X127718571Y-96258485D02*
X127756666Y-96220390D01*
X127756666Y-96220390D02*
X127832857Y-96182295D01*
X128442381Y-96982295D02*
X128442381Y-96182295D01*
X128899524Y-96982295D02*
X128556666Y-96525152D01*
X128899524Y-96182295D02*
X128442381Y-96639438D01*
X157001833Y-84364395D02*
X157001833Y-84935823D01*
X157001833Y-84935823D02*
X156963738Y-85050109D01*
X156963738Y-85050109D02*
X156887547Y-85126300D01*
X156887547Y-85126300D02*
X156773262Y-85164395D01*
X156773262Y-85164395D02*
X156697071Y-85164395D01*
X157306595Y-84364395D02*
X157801833Y-84364395D01*
X157801833Y-84364395D02*
X157535167Y-84669157D01*
X157535167Y-84669157D02*
X157649452Y-84669157D01*
X157649452Y-84669157D02*
X157725643Y-84707252D01*
X157725643Y-84707252D02*
X157763738Y-84745347D01*
X157763738Y-84745347D02*
X157801833Y-84821538D01*
X157801833Y-84821538D02*
X157801833Y-85012014D01*
X157801833Y-85012014D02*
X157763738Y-85088204D01*
X157763738Y-85088204D02*
X157725643Y-85126300D01*
X157725643Y-85126300D02*
X157649452Y-85164395D01*
X157649452Y-85164395D02*
X157420881Y-85164395D01*
X157420881Y-85164395D02*
X157344690Y-85126300D01*
X157344690Y-85126300D02*
X157306595Y-85088204D01*
X139612548Y-116293442D02*
X139612548Y-116674395D01*
X139345881Y-115874395D02*
X139612548Y-116293442D01*
X139612548Y-116293442D02*
X139879214Y-115874395D01*
X140107785Y-115950585D02*
X140145881Y-115912490D01*
X140145881Y-115912490D02*
X140222071Y-115874395D01*
X140222071Y-115874395D02*
X140412547Y-115874395D01*
X140412547Y-115874395D02*
X140488738Y-115912490D01*
X140488738Y-115912490D02*
X140526833Y-115950585D01*
X140526833Y-115950585D02*
X140564928Y-116026776D01*
X140564928Y-116026776D02*
X140564928Y-116102966D01*
X140564928Y-116102966D02*
X140526833Y-116217252D01*
X140526833Y-116217252D02*
X140069690Y-116674395D01*
X140069690Y-116674395D02*
X140564928Y-116674395D01*
X132537628Y-118764495D02*
X133032866Y-118764495D01*
X133032866Y-118764495D02*
X132766200Y-119069257D01*
X132766200Y-119069257D02*
X132880485Y-119069257D01*
X132880485Y-119069257D02*
X132956676Y-119107352D01*
X132956676Y-119107352D02*
X132994771Y-119145447D01*
X132994771Y-119145447D02*
X133032866Y-119221638D01*
X133032866Y-119221638D02*
X133032866Y-119412114D01*
X133032866Y-119412114D02*
X132994771Y-119488304D01*
X132994771Y-119488304D02*
X132956676Y-119526400D01*
X132956676Y-119526400D02*
X132880485Y-119564495D01*
X132880485Y-119564495D02*
X132651914Y-119564495D01*
X132651914Y-119564495D02*
X132575723Y-119526400D01*
X132575723Y-119526400D02*
X132537628Y-119488304D01*
X133337628Y-118840685D02*
X133375724Y-118802590D01*
X133375724Y-118802590D02*
X133451914Y-118764495D01*
X133451914Y-118764495D02*
X133642390Y-118764495D01*
X133642390Y-118764495D02*
X133718581Y-118802590D01*
X133718581Y-118802590D02*
X133756676Y-118840685D01*
X133756676Y-118840685D02*
X133794771Y-118916876D01*
X133794771Y-118916876D02*
X133794771Y-118993066D01*
X133794771Y-118993066D02*
X133756676Y-119107352D01*
X133756676Y-119107352D02*
X133299533Y-119564495D01*
X133299533Y-119564495D02*
X133794771Y-119564495D01*
X134137629Y-119488304D02*
X134175724Y-119526400D01*
X134175724Y-119526400D02*
X134137629Y-119564495D01*
X134137629Y-119564495D02*
X134099533Y-119526400D01*
X134099533Y-119526400D02*
X134137629Y-119488304D01*
X134137629Y-119488304D02*
X134137629Y-119564495D01*
X134442390Y-118764495D02*
X134975724Y-118764495D01*
X134975724Y-118764495D02*
X134632866Y-119564495D01*
X135623343Y-118764495D02*
X135470962Y-118764495D01*
X135470962Y-118764495D02*
X135394771Y-118802590D01*
X135394771Y-118802590D02*
X135356676Y-118840685D01*
X135356676Y-118840685D02*
X135280486Y-118954971D01*
X135280486Y-118954971D02*
X135242390Y-119107352D01*
X135242390Y-119107352D02*
X135242390Y-119412114D01*
X135242390Y-119412114D02*
X135280486Y-119488304D01*
X135280486Y-119488304D02*
X135318581Y-119526400D01*
X135318581Y-119526400D02*
X135394771Y-119564495D01*
X135394771Y-119564495D02*
X135547152Y-119564495D01*
X135547152Y-119564495D02*
X135623343Y-119526400D01*
X135623343Y-119526400D02*
X135661438Y-119488304D01*
X135661438Y-119488304D02*
X135699533Y-119412114D01*
X135699533Y-119412114D02*
X135699533Y-119221638D01*
X135699533Y-119221638D02*
X135661438Y-119145447D01*
X135661438Y-119145447D02*
X135623343Y-119107352D01*
X135623343Y-119107352D02*
X135547152Y-119069257D01*
X135547152Y-119069257D02*
X135394771Y-119069257D01*
X135394771Y-119069257D02*
X135318581Y-119107352D01*
X135318581Y-119107352D02*
X135280486Y-119145447D01*
X135280486Y-119145447D02*
X135242390Y-119221638D01*
X136156676Y-119107352D02*
X136080486Y-119069257D01*
X136080486Y-119069257D02*
X136042391Y-119031161D01*
X136042391Y-119031161D02*
X136004295Y-118954971D01*
X136004295Y-118954971D02*
X136004295Y-118916876D01*
X136004295Y-118916876D02*
X136042391Y-118840685D01*
X136042391Y-118840685D02*
X136080486Y-118802590D01*
X136080486Y-118802590D02*
X136156676Y-118764495D01*
X136156676Y-118764495D02*
X136309057Y-118764495D01*
X136309057Y-118764495D02*
X136385248Y-118802590D01*
X136385248Y-118802590D02*
X136423343Y-118840685D01*
X136423343Y-118840685D02*
X136461438Y-118916876D01*
X136461438Y-118916876D02*
X136461438Y-118954971D01*
X136461438Y-118954971D02*
X136423343Y-119031161D01*
X136423343Y-119031161D02*
X136385248Y-119069257D01*
X136385248Y-119069257D02*
X136309057Y-119107352D01*
X136309057Y-119107352D02*
X136156676Y-119107352D01*
X136156676Y-119107352D02*
X136080486Y-119145447D01*
X136080486Y-119145447D02*
X136042391Y-119183542D01*
X136042391Y-119183542D02*
X136004295Y-119259733D01*
X136004295Y-119259733D02*
X136004295Y-119412114D01*
X136004295Y-119412114D02*
X136042391Y-119488304D01*
X136042391Y-119488304D02*
X136080486Y-119526400D01*
X136080486Y-119526400D02*
X136156676Y-119564495D01*
X136156676Y-119564495D02*
X136309057Y-119564495D01*
X136309057Y-119564495D02*
X136385248Y-119526400D01*
X136385248Y-119526400D02*
X136423343Y-119488304D01*
X136423343Y-119488304D02*
X136461438Y-119412114D01*
X136461438Y-119412114D02*
X136461438Y-119259733D01*
X136461438Y-119259733D02*
X136423343Y-119183542D01*
X136423343Y-119183542D02*
X136385248Y-119145447D01*
X136385248Y-119145447D02*
X136309057Y-119107352D01*
X137413820Y-119564495D02*
X137413820Y-118764495D01*
X137870963Y-119564495D02*
X137528105Y-119107352D01*
X137870963Y-118764495D02*
X137413820Y-119221638D01*
X138213820Y-119564495D02*
X138213820Y-118764495D01*
X138213820Y-119145447D02*
X138670963Y-119145447D01*
X138670963Y-119564495D02*
X138670963Y-118764495D01*
X138975724Y-119031161D02*
X139394772Y-119031161D01*
X139394772Y-119031161D02*
X138975724Y-119564495D01*
X138975724Y-119564495D02*
X139394772Y-119564495D01*
X132391747Y-80790671D02*
X132429842Y-80676385D01*
X132429842Y-80676385D02*
X132467938Y-80638290D01*
X132467938Y-80638290D02*
X132544128Y-80600194D01*
X132544128Y-80600194D02*
X132658414Y-80600194D01*
X132658414Y-80600194D02*
X132734604Y-80638290D01*
X132734604Y-80638290D02*
X132772700Y-80676385D01*
X132772700Y-80676385D02*
X132810795Y-80752575D01*
X132810795Y-80752575D02*
X132810795Y-81057337D01*
X132810795Y-81057337D02*
X132010795Y-81057337D01*
X132010795Y-81057337D02*
X132010795Y-80790671D01*
X132010795Y-80790671D02*
X132048890Y-80714480D01*
X132048890Y-80714480D02*
X132086985Y-80676385D01*
X132086985Y-80676385D02*
X132163176Y-80638290D01*
X132163176Y-80638290D02*
X132239366Y-80638290D01*
X132239366Y-80638290D02*
X132315557Y-80676385D01*
X132315557Y-80676385D02*
X132353652Y-80714480D01*
X132353652Y-80714480D02*
X132391747Y-80790671D01*
X132391747Y-80790671D02*
X132391747Y-81057337D01*
X132010795Y-80371623D02*
X132010795Y-79914480D01*
X132810795Y-80143052D02*
X132010795Y-80143052D01*
X132810795Y-79228766D02*
X132810795Y-79685909D01*
X132810795Y-79457337D02*
X132010795Y-79457337D01*
X132010795Y-79457337D02*
X132125080Y-79533528D01*
X132125080Y-79533528D02*
X132201271Y-79609718D01*
X132201271Y-79609718D02*
X132239366Y-79685909D01*
X121332295Y-93936666D02*
X121903723Y-93936666D01*
X121903723Y-93936666D02*
X122018009Y-93974761D01*
X122018009Y-93974761D02*
X122094200Y-94050952D01*
X122094200Y-94050952D02*
X122132295Y-94165237D01*
X122132295Y-94165237D02*
X122132295Y-94241428D01*
X122132295Y-93136666D02*
X122132295Y-93593809D01*
X122132295Y-93365237D02*
X121332295Y-93365237D01*
X121332295Y-93365237D02*
X121446580Y-93441428D01*
X121446580Y-93441428D02*
X121522771Y-93517618D01*
X121522771Y-93517618D02*
X121560866Y-93593809D01*
X142760167Y-99248204D02*
X142722071Y-99286300D01*
X142722071Y-99286300D02*
X142607786Y-99324395D01*
X142607786Y-99324395D02*
X142531595Y-99324395D01*
X142531595Y-99324395D02*
X142417309Y-99286300D01*
X142417309Y-99286300D02*
X142341119Y-99210109D01*
X142341119Y-99210109D02*
X142303024Y-99133919D01*
X142303024Y-99133919D02*
X142264928Y-98981538D01*
X142264928Y-98981538D02*
X142264928Y-98867252D01*
X142264928Y-98867252D02*
X142303024Y-98714871D01*
X142303024Y-98714871D02*
X142341119Y-98638680D01*
X142341119Y-98638680D02*
X142417309Y-98562490D01*
X142417309Y-98562490D02*
X142531595Y-98524395D01*
X142531595Y-98524395D02*
X142607786Y-98524395D01*
X142607786Y-98524395D02*
X142722071Y-98562490D01*
X142722071Y-98562490D02*
X142760167Y-98600585D01*
X143026833Y-98524395D02*
X143522071Y-98524395D01*
X143522071Y-98524395D02*
X143255405Y-98829157D01*
X143255405Y-98829157D02*
X143369690Y-98829157D01*
X143369690Y-98829157D02*
X143445881Y-98867252D01*
X143445881Y-98867252D02*
X143483976Y-98905347D01*
X143483976Y-98905347D02*
X143522071Y-98981538D01*
X143522071Y-98981538D02*
X143522071Y-99172014D01*
X143522071Y-99172014D02*
X143483976Y-99248204D01*
X143483976Y-99248204D02*
X143445881Y-99286300D01*
X143445881Y-99286300D02*
X143369690Y-99324395D01*
X143369690Y-99324395D02*
X143141119Y-99324395D01*
X143141119Y-99324395D02*
X143064928Y-99286300D01*
X143064928Y-99286300D02*
X143026833Y-99248204D01*
X141922070Y-102300585D02*
X141960166Y-102262490D01*
X141960166Y-102262490D02*
X142036356Y-102224395D01*
X142036356Y-102224395D02*
X142226832Y-102224395D01*
X142226832Y-102224395D02*
X142303023Y-102262490D01*
X142303023Y-102262490D02*
X142341118Y-102300585D01*
X142341118Y-102300585D02*
X142379213Y-102376776D01*
X142379213Y-102376776D02*
X142379213Y-102452966D01*
X142379213Y-102452966D02*
X142341118Y-102567252D01*
X142341118Y-102567252D02*
X141883975Y-103024395D01*
X141883975Y-103024395D02*
X142379213Y-103024395D01*
X142683975Y-102300585D02*
X142722071Y-102262490D01*
X142722071Y-102262490D02*
X142798261Y-102224395D01*
X142798261Y-102224395D02*
X142988737Y-102224395D01*
X142988737Y-102224395D02*
X143064928Y-102262490D01*
X143064928Y-102262490D02*
X143103023Y-102300585D01*
X143103023Y-102300585D02*
X143141118Y-102376776D01*
X143141118Y-102376776D02*
X143141118Y-102452966D01*
X143141118Y-102452966D02*
X143103023Y-102567252D01*
X143103023Y-102567252D02*
X142645880Y-103024395D01*
X142645880Y-103024395D02*
X143141118Y-103024395D01*
X143483976Y-102491061D02*
X143483976Y-103291061D01*
X143483976Y-102529157D02*
X143560166Y-102491061D01*
X143560166Y-102491061D02*
X143712547Y-102491061D01*
X143712547Y-102491061D02*
X143788738Y-102529157D01*
X143788738Y-102529157D02*
X143826833Y-102567252D01*
X143826833Y-102567252D02*
X143864928Y-102643442D01*
X143864928Y-102643442D02*
X143864928Y-102872014D01*
X143864928Y-102872014D02*
X143826833Y-102948204D01*
X143826833Y-102948204D02*
X143788738Y-102986300D01*
X143788738Y-102986300D02*
X143712547Y-103024395D01*
X143712547Y-103024395D02*
X143560166Y-103024395D01*
X143560166Y-103024395D02*
X143483976Y-102986300D01*
X159105676Y-75876895D02*
X159105676Y-75076895D01*
X159105676Y-75457847D02*
X159562819Y-75457847D01*
X159562819Y-75876895D02*
X159562819Y-75076895D01*
X159905675Y-75153085D02*
X159943771Y-75114990D01*
X159943771Y-75114990D02*
X160019961Y-75076895D01*
X160019961Y-75076895D02*
X160210437Y-75076895D01*
X160210437Y-75076895D02*
X160286628Y-75114990D01*
X160286628Y-75114990D02*
X160324723Y-75153085D01*
X160324723Y-75153085D02*
X160362818Y-75229276D01*
X160362818Y-75229276D02*
X160362818Y-75305466D01*
X160362818Y-75305466D02*
X160324723Y-75419752D01*
X160324723Y-75419752D02*
X159867580Y-75876895D01*
X159867580Y-75876895D02*
X160362818Y-75876895D01*
X128949467Y-100514504D02*
X128911371Y-100552600D01*
X128911371Y-100552600D02*
X128797086Y-100590695D01*
X128797086Y-100590695D02*
X128720895Y-100590695D01*
X128720895Y-100590695D02*
X128606609Y-100552600D01*
X128606609Y-100552600D02*
X128530419Y-100476409D01*
X128530419Y-100476409D02*
X128492324Y-100400219D01*
X128492324Y-100400219D02*
X128454228Y-100247838D01*
X128454228Y-100247838D02*
X128454228Y-100133552D01*
X128454228Y-100133552D02*
X128492324Y-99981171D01*
X128492324Y-99981171D02*
X128530419Y-99904980D01*
X128530419Y-99904980D02*
X128606609Y-99828790D01*
X128606609Y-99828790D02*
X128720895Y-99790695D01*
X128720895Y-99790695D02*
X128797086Y-99790695D01*
X128797086Y-99790695D02*
X128911371Y-99828790D01*
X128911371Y-99828790D02*
X128949467Y-99866885D01*
X129254228Y-99866885D02*
X129292324Y-99828790D01*
X129292324Y-99828790D02*
X129368514Y-99790695D01*
X129368514Y-99790695D02*
X129558990Y-99790695D01*
X129558990Y-99790695D02*
X129635181Y-99828790D01*
X129635181Y-99828790D02*
X129673276Y-99866885D01*
X129673276Y-99866885D02*
X129711371Y-99943076D01*
X129711371Y-99943076D02*
X129711371Y-100019266D01*
X129711371Y-100019266D02*
X129673276Y-100133552D01*
X129673276Y-100133552D02*
X129216133Y-100590695D01*
X129216133Y-100590695D02*
X129711371Y-100590695D01*
X128289170Y-103600685D02*
X128327266Y-103562590D01*
X128327266Y-103562590D02*
X128403456Y-103524495D01*
X128403456Y-103524495D02*
X128593932Y-103524495D01*
X128593932Y-103524495D02*
X128670123Y-103562590D01*
X128670123Y-103562590D02*
X128708218Y-103600685D01*
X128708218Y-103600685D02*
X128746313Y-103676876D01*
X128746313Y-103676876D02*
X128746313Y-103753066D01*
X128746313Y-103753066D02*
X128708218Y-103867352D01*
X128708218Y-103867352D02*
X128251075Y-104324495D01*
X128251075Y-104324495D02*
X128746313Y-104324495D01*
X129051075Y-103600685D02*
X129089171Y-103562590D01*
X129089171Y-103562590D02*
X129165361Y-103524495D01*
X129165361Y-103524495D02*
X129355837Y-103524495D01*
X129355837Y-103524495D02*
X129432028Y-103562590D01*
X129432028Y-103562590D02*
X129470123Y-103600685D01*
X129470123Y-103600685D02*
X129508218Y-103676876D01*
X129508218Y-103676876D02*
X129508218Y-103753066D01*
X129508218Y-103753066D02*
X129470123Y-103867352D01*
X129470123Y-103867352D02*
X129012980Y-104324495D01*
X129012980Y-104324495D02*
X129508218Y-104324495D01*
X129851076Y-103791161D02*
X129851076Y-104591161D01*
X129851076Y-103829257D02*
X129927266Y-103791161D01*
X129927266Y-103791161D02*
X130079647Y-103791161D01*
X130079647Y-103791161D02*
X130155838Y-103829257D01*
X130155838Y-103829257D02*
X130193933Y-103867352D01*
X130193933Y-103867352D02*
X130232028Y-103943542D01*
X130232028Y-103943542D02*
X130232028Y-104172114D01*
X130232028Y-104172114D02*
X130193933Y-104248304D01*
X130193933Y-104248304D02*
X130155838Y-104286400D01*
X130155838Y-104286400D02*
X130079647Y-104324495D01*
X130079647Y-104324495D02*
X129927266Y-104324495D01*
X129927266Y-104324495D02*
X129851076Y-104286400D01*
X124764876Y-89071895D02*
X124764876Y-89719514D01*
X124764876Y-89719514D02*
X124802971Y-89795704D01*
X124802971Y-89795704D02*
X124841066Y-89833800D01*
X124841066Y-89833800D02*
X124917257Y-89871895D01*
X124917257Y-89871895D02*
X125069638Y-89871895D01*
X125069638Y-89871895D02*
X125145828Y-89833800D01*
X125145828Y-89833800D02*
X125183923Y-89795704D01*
X125183923Y-89795704D02*
X125222019Y-89719514D01*
X125222019Y-89719514D02*
X125222019Y-89071895D01*
X126022018Y-89871895D02*
X125564875Y-89871895D01*
X125793447Y-89871895D02*
X125793447Y-89071895D01*
X125793447Y-89071895D02*
X125717256Y-89186180D01*
X125717256Y-89186180D02*
X125641066Y-89262371D01*
X125641066Y-89262371D02*
X125564875Y-89300466D01*
X122568056Y-90240285D02*
X122606152Y-90202190D01*
X122606152Y-90202190D02*
X122682342Y-90164095D01*
X122682342Y-90164095D02*
X122872818Y-90164095D01*
X122872818Y-90164095D02*
X122949009Y-90202190D01*
X122949009Y-90202190D02*
X122987104Y-90240285D01*
X122987104Y-90240285D02*
X123025199Y-90316476D01*
X123025199Y-90316476D02*
X123025199Y-90392666D01*
X123025199Y-90392666D02*
X122987104Y-90506952D01*
X122987104Y-90506952D02*
X122529961Y-90964095D01*
X122529961Y-90964095D02*
X123025199Y-90964095D01*
X123710914Y-90430761D02*
X123710914Y-90964095D01*
X123520438Y-90126000D02*
X123329961Y-90697428D01*
X123329961Y-90697428D02*
X123825200Y-90697428D01*
X124510914Y-90964095D02*
X124129962Y-90964095D01*
X124129962Y-90964095D02*
X124129962Y-90164095D01*
X125234724Y-90887904D02*
X125196628Y-90926000D01*
X125196628Y-90926000D02*
X125082343Y-90964095D01*
X125082343Y-90964095D02*
X125006152Y-90964095D01*
X125006152Y-90964095D02*
X124891866Y-90926000D01*
X124891866Y-90926000D02*
X124815676Y-90849809D01*
X124815676Y-90849809D02*
X124777581Y-90773619D01*
X124777581Y-90773619D02*
X124739485Y-90621238D01*
X124739485Y-90621238D02*
X124739485Y-90506952D01*
X124739485Y-90506952D02*
X124777581Y-90354571D01*
X124777581Y-90354571D02*
X124815676Y-90278380D01*
X124815676Y-90278380D02*
X124891866Y-90202190D01*
X124891866Y-90202190D02*
X125006152Y-90164095D01*
X125006152Y-90164095D02*
X125082343Y-90164095D01*
X125082343Y-90164095D02*
X125196628Y-90202190D01*
X125196628Y-90202190D02*
X125234724Y-90240285D01*
X125996628Y-90964095D02*
X125539485Y-90964095D01*
X125768057Y-90964095D02*
X125768057Y-90164095D01*
X125768057Y-90164095D02*
X125691866Y-90278380D01*
X125691866Y-90278380D02*
X125615676Y-90354571D01*
X125615676Y-90354571D02*
X125539485Y-90392666D01*
X126491867Y-90164095D02*
X126568057Y-90164095D01*
X126568057Y-90164095D02*
X126644248Y-90202190D01*
X126644248Y-90202190D02*
X126682343Y-90240285D01*
X126682343Y-90240285D02*
X126720438Y-90316476D01*
X126720438Y-90316476D02*
X126758533Y-90468857D01*
X126758533Y-90468857D02*
X126758533Y-90659333D01*
X126758533Y-90659333D02*
X126720438Y-90811714D01*
X126720438Y-90811714D02*
X126682343Y-90887904D01*
X126682343Y-90887904D02*
X126644248Y-90926000D01*
X126644248Y-90926000D02*
X126568057Y-90964095D01*
X126568057Y-90964095D02*
X126491867Y-90964095D01*
X126491867Y-90964095D02*
X126415676Y-90926000D01*
X126415676Y-90926000D02*
X126377581Y-90887904D01*
X126377581Y-90887904D02*
X126339486Y-90811714D01*
X126339486Y-90811714D02*
X126301390Y-90659333D01*
X126301390Y-90659333D02*
X126301390Y-90468857D01*
X126301390Y-90468857D02*
X126339486Y-90316476D01*
X126339486Y-90316476D02*
X126377581Y-90240285D01*
X126377581Y-90240285D02*
X126415676Y-90202190D01*
X126415676Y-90202190D02*
X126491867Y-90164095D01*
X127063295Y-90240285D02*
X127101391Y-90202190D01*
X127101391Y-90202190D02*
X127177581Y-90164095D01*
X127177581Y-90164095D02*
X127368057Y-90164095D01*
X127368057Y-90164095D02*
X127444248Y-90202190D01*
X127444248Y-90202190D02*
X127482343Y-90240285D01*
X127482343Y-90240285D02*
X127520438Y-90316476D01*
X127520438Y-90316476D02*
X127520438Y-90392666D01*
X127520438Y-90392666D02*
X127482343Y-90506952D01*
X127482343Y-90506952D02*
X127025200Y-90964095D01*
X127025200Y-90964095D02*
X127520438Y-90964095D01*
X128244248Y-90164095D02*
X127863296Y-90164095D01*
X127863296Y-90164095D02*
X127825200Y-90545047D01*
X127825200Y-90545047D02*
X127863296Y-90506952D01*
X127863296Y-90506952D02*
X127939486Y-90468857D01*
X127939486Y-90468857D02*
X128129962Y-90468857D01*
X128129962Y-90468857D02*
X128206153Y-90506952D01*
X128206153Y-90506952D02*
X128244248Y-90545047D01*
X128244248Y-90545047D02*
X128282343Y-90621238D01*
X128282343Y-90621238D02*
X128282343Y-90811714D01*
X128282343Y-90811714D02*
X128244248Y-90887904D01*
X128244248Y-90887904D02*
X128206153Y-90926000D01*
X128206153Y-90926000D02*
X128129962Y-90964095D01*
X128129962Y-90964095D02*
X127939486Y-90964095D01*
X127939486Y-90964095D02*
X127863296Y-90926000D01*
X127863296Y-90926000D02*
X127825200Y-90887904D01*
X134910395Y-105619132D02*
X134529442Y-105885799D01*
X134910395Y-106076275D02*
X134110395Y-106076275D01*
X134110395Y-106076275D02*
X134110395Y-105771513D01*
X134110395Y-105771513D02*
X134148490Y-105695323D01*
X134148490Y-105695323D02*
X134186585Y-105657228D01*
X134186585Y-105657228D02*
X134262776Y-105619132D01*
X134262776Y-105619132D02*
X134377061Y-105619132D01*
X134377061Y-105619132D02*
X134453252Y-105657228D01*
X134453252Y-105657228D02*
X134491347Y-105695323D01*
X134491347Y-105695323D02*
X134529442Y-105771513D01*
X134529442Y-105771513D02*
X134529442Y-106076275D01*
X134110395Y-104895323D02*
X134110395Y-105276275D01*
X134110395Y-105276275D02*
X134491347Y-105314371D01*
X134491347Y-105314371D02*
X134453252Y-105276275D01*
X134453252Y-105276275D02*
X134415157Y-105200085D01*
X134415157Y-105200085D02*
X134415157Y-105009609D01*
X134415157Y-105009609D02*
X134453252Y-104933418D01*
X134453252Y-104933418D02*
X134491347Y-104895323D01*
X134491347Y-104895323D02*
X134567538Y-104857228D01*
X134567538Y-104857228D02*
X134758014Y-104857228D01*
X134758014Y-104857228D02*
X134834204Y-104895323D01*
X134834204Y-104895323D02*
X134872300Y-104933418D01*
X134872300Y-104933418D02*
X134910395Y-105009609D01*
X134910395Y-105009609D02*
X134910395Y-105200085D01*
X134910395Y-105200085D02*
X134872300Y-105276275D01*
X134872300Y-105276275D02*
X134834204Y-105314371D01*
X138003895Y-105987781D02*
X138003895Y-106444924D01*
X138003895Y-106216352D02*
X137203895Y-106216352D01*
X137203895Y-106216352D02*
X137318180Y-106292543D01*
X137318180Y-106292543D02*
X137394371Y-106368733D01*
X137394371Y-106368733D02*
X137432466Y-106444924D01*
X137203895Y-105492542D02*
X137203895Y-105416352D01*
X137203895Y-105416352D02*
X137241990Y-105340161D01*
X137241990Y-105340161D02*
X137280085Y-105302066D01*
X137280085Y-105302066D02*
X137356276Y-105263971D01*
X137356276Y-105263971D02*
X137508657Y-105225876D01*
X137508657Y-105225876D02*
X137699133Y-105225876D01*
X137699133Y-105225876D02*
X137851514Y-105263971D01*
X137851514Y-105263971D02*
X137927704Y-105302066D01*
X137927704Y-105302066D02*
X137965800Y-105340161D01*
X137965800Y-105340161D02*
X138003895Y-105416352D01*
X138003895Y-105416352D02*
X138003895Y-105492542D01*
X138003895Y-105492542D02*
X137965800Y-105568733D01*
X137965800Y-105568733D02*
X137927704Y-105606828D01*
X137927704Y-105606828D02*
X137851514Y-105644923D01*
X137851514Y-105644923D02*
X137699133Y-105683019D01*
X137699133Y-105683019D02*
X137508657Y-105683019D01*
X137508657Y-105683019D02*
X137356276Y-105644923D01*
X137356276Y-105644923D02*
X137280085Y-105606828D01*
X137280085Y-105606828D02*
X137241990Y-105568733D01*
X137241990Y-105568733D02*
X137203895Y-105492542D01*
X138003895Y-104883018D02*
X137203895Y-104883018D01*
X138003895Y-104425875D02*
X137546752Y-104768733D01*
X137203895Y-104425875D02*
X137661038Y-104883018D01*
X159105676Y-116415295D02*
X159105676Y-115615295D01*
X159105676Y-115996247D02*
X159562819Y-115996247D01*
X159562819Y-116415295D02*
X159562819Y-115615295D01*
X160286628Y-115881961D02*
X160286628Y-116415295D01*
X160096152Y-115577200D02*
X159905675Y-116148628D01*
X159905675Y-116148628D02*
X160400914Y-116148628D01*
X147694667Y-93478695D02*
X147428000Y-93097742D01*
X147237524Y-93478695D02*
X147237524Y-92678695D01*
X147237524Y-92678695D02*
X147542286Y-92678695D01*
X147542286Y-92678695D02*
X147618476Y-92716790D01*
X147618476Y-92716790D02*
X147656571Y-92754885D01*
X147656571Y-92754885D02*
X147694667Y-92831076D01*
X147694667Y-92831076D02*
X147694667Y-92945361D01*
X147694667Y-92945361D02*
X147656571Y-93021552D01*
X147656571Y-93021552D02*
X147618476Y-93059647D01*
X147618476Y-93059647D02*
X147542286Y-93097742D01*
X147542286Y-93097742D02*
X147237524Y-93097742D01*
X148456571Y-93478695D02*
X147999428Y-93478695D01*
X148228000Y-93478695D02*
X148228000Y-92678695D01*
X148228000Y-92678695D02*
X148151809Y-92792980D01*
X148151809Y-92792980D02*
X148075619Y-92869171D01*
X148075619Y-92869171D02*
X147999428Y-92907266D01*
X147237328Y-97346395D02*
X147732566Y-97346395D01*
X147732566Y-97346395D02*
X147465900Y-97651157D01*
X147465900Y-97651157D02*
X147580185Y-97651157D01*
X147580185Y-97651157D02*
X147656376Y-97689252D01*
X147656376Y-97689252D02*
X147694471Y-97727347D01*
X147694471Y-97727347D02*
X147732566Y-97803538D01*
X147732566Y-97803538D02*
X147732566Y-97994014D01*
X147732566Y-97994014D02*
X147694471Y-98070204D01*
X147694471Y-98070204D02*
X147656376Y-98108300D01*
X147656376Y-98108300D02*
X147580185Y-98146395D01*
X147580185Y-98146395D02*
X147351614Y-98146395D01*
X147351614Y-98146395D02*
X147275423Y-98108300D01*
X147275423Y-98108300D02*
X147237328Y-98070204D01*
X147999233Y-97346395D02*
X148494471Y-97346395D01*
X148494471Y-97346395D02*
X148227805Y-97651157D01*
X148227805Y-97651157D02*
X148342090Y-97651157D01*
X148342090Y-97651157D02*
X148418281Y-97689252D01*
X148418281Y-97689252D02*
X148456376Y-97727347D01*
X148456376Y-97727347D02*
X148494471Y-97803538D01*
X148494471Y-97803538D02*
X148494471Y-97994014D01*
X148494471Y-97994014D02*
X148456376Y-98070204D01*
X148456376Y-98070204D02*
X148418281Y-98108300D01*
X148418281Y-98108300D02*
X148342090Y-98146395D01*
X148342090Y-98146395D02*
X148113519Y-98146395D01*
X148113519Y-98146395D02*
X148037328Y-98108300D01*
X148037328Y-98108300D02*
X147999233Y-98070204D01*
X148989710Y-97346395D02*
X149065900Y-97346395D01*
X149065900Y-97346395D02*
X149142091Y-97384490D01*
X149142091Y-97384490D02*
X149180186Y-97422585D01*
X149180186Y-97422585D02*
X149218281Y-97498776D01*
X149218281Y-97498776D02*
X149256376Y-97651157D01*
X149256376Y-97651157D02*
X149256376Y-97841633D01*
X149256376Y-97841633D02*
X149218281Y-97994014D01*
X149218281Y-97994014D02*
X149180186Y-98070204D01*
X149180186Y-98070204D02*
X149142091Y-98108300D01*
X149142091Y-98108300D02*
X149065900Y-98146395D01*
X149065900Y-98146395D02*
X148989710Y-98146395D01*
X148989710Y-98146395D02*
X148913519Y-98108300D01*
X148913519Y-98108300D02*
X148875424Y-98070204D01*
X148875424Y-98070204D02*
X148837329Y-97994014D01*
X148837329Y-97994014D02*
X148799233Y-97841633D01*
X148799233Y-97841633D02*
X148799233Y-97651157D01*
X148799233Y-97651157D02*
X148837329Y-97498776D01*
X148837329Y-97498776D02*
X148875424Y-97422585D01*
X148875424Y-97422585D02*
X148913519Y-97384490D01*
X148913519Y-97384490D02*
X148989710Y-97346395D01*
X148882295Y-84033332D02*
X148501342Y-84299999D01*
X148882295Y-84490475D02*
X148082295Y-84490475D01*
X148082295Y-84490475D02*
X148082295Y-84185713D01*
X148082295Y-84185713D02*
X148120390Y-84109523D01*
X148120390Y-84109523D02*
X148158485Y-84071428D01*
X148158485Y-84071428D02*
X148234676Y-84033332D01*
X148234676Y-84033332D02*
X148348961Y-84033332D01*
X148348961Y-84033332D02*
X148425152Y-84071428D01*
X148425152Y-84071428D02*
X148463247Y-84109523D01*
X148463247Y-84109523D02*
X148501342Y-84185713D01*
X148501342Y-84185713D02*
X148501342Y-84490475D01*
X148082295Y-83766666D02*
X148082295Y-83271428D01*
X148082295Y-83271428D02*
X148387057Y-83538094D01*
X148387057Y-83538094D02*
X148387057Y-83423809D01*
X148387057Y-83423809D02*
X148425152Y-83347618D01*
X148425152Y-83347618D02*
X148463247Y-83309523D01*
X148463247Y-83309523D02*
X148539438Y-83271428D01*
X148539438Y-83271428D02*
X148729914Y-83271428D01*
X148729914Y-83271428D02*
X148806104Y-83309523D01*
X148806104Y-83309523D02*
X148844200Y-83347618D01*
X148844200Y-83347618D02*
X148882295Y-83423809D01*
X148882295Y-83423809D02*
X148882295Y-83652380D01*
X148882295Y-83652380D02*
X148844200Y-83728571D01*
X148844200Y-83728571D02*
X148806104Y-83766666D01*
X149879152Y-82328161D02*
X149879152Y-82861495D01*
X149688676Y-82023400D02*
X149498199Y-82594828D01*
X149498199Y-82594828D02*
X149993438Y-82594828D01*
X150298200Y-82785304D02*
X150336295Y-82823400D01*
X150336295Y-82823400D02*
X150298200Y-82861495D01*
X150298200Y-82861495D02*
X150260104Y-82823400D01*
X150260104Y-82823400D02*
X150298200Y-82785304D01*
X150298200Y-82785304D02*
X150298200Y-82861495D01*
X150602961Y-82061495D02*
X151136295Y-82061495D01*
X151136295Y-82061495D02*
X150793437Y-82861495D01*
X151441057Y-82861495D02*
X151441057Y-82061495D01*
X151898200Y-82861495D02*
X151555342Y-82404352D01*
X151898200Y-82061495D02*
X151441057Y-82518638D01*
X132836104Y-86453332D02*
X132874200Y-86491428D01*
X132874200Y-86491428D02*
X132912295Y-86605713D01*
X132912295Y-86605713D02*
X132912295Y-86681904D01*
X132912295Y-86681904D02*
X132874200Y-86796190D01*
X132874200Y-86796190D02*
X132798009Y-86872380D01*
X132798009Y-86872380D02*
X132721819Y-86910475D01*
X132721819Y-86910475D02*
X132569438Y-86948571D01*
X132569438Y-86948571D02*
X132455152Y-86948571D01*
X132455152Y-86948571D02*
X132302771Y-86910475D01*
X132302771Y-86910475D02*
X132226580Y-86872380D01*
X132226580Y-86872380D02*
X132150390Y-86796190D01*
X132150390Y-86796190D02*
X132112295Y-86681904D01*
X132112295Y-86681904D02*
X132112295Y-86605713D01*
X132112295Y-86605713D02*
X132150390Y-86491428D01*
X132150390Y-86491428D02*
X132188485Y-86453332D01*
X132912295Y-85691428D02*
X132912295Y-86148571D01*
X132912295Y-85919999D02*
X132112295Y-85919999D01*
X132112295Y-85919999D02*
X132226580Y-85996190D01*
X132226580Y-85996190D02*
X132302771Y-86072380D01*
X132302771Y-86072380D02*
X132340866Y-86148571D01*
X137963395Y-87420328D02*
X137963395Y-87344138D01*
X137963395Y-87344138D02*
X138001490Y-87267947D01*
X138001490Y-87267947D02*
X138039585Y-87229852D01*
X138039585Y-87229852D02*
X138115776Y-87191757D01*
X138115776Y-87191757D02*
X138268157Y-87153662D01*
X138268157Y-87153662D02*
X138458633Y-87153662D01*
X138458633Y-87153662D02*
X138611014Y-87191757D01*
X138611014Y-87191757D02*
X138687204Y-87229852D01*
X138687204Y-87229852D02*
X138725300Y-87267947D01*
X138725300Y-87267947D02*
X138763395Y-87344138D01*
X138763395Y-87344138D02*
X138763395Y-87420328D01*
X138763395Y-87420328D02*
X138725300Y-87496519D01*
X138725300Y-87496519D02*
X138687204Y-87534614D01*
X138687204Y-87534614D02*
X138611014Y-87572709D01*
X138611014Y-87572709D02*
X138458633Y-87610805D01*
X138458633Y-87610805D02*
X138268157Y-87610805D01*
X138268157Y-87610805D02*
X138115776Y-87572709D01*
X138115776Y-87572709D02*
X138039585Y-87534614D01*
X138039585Y-87534614D02*
X138001490Y-87496519D01*
X138001490Y-87496519D02*
X137963395Y-87420328D01*
X138687204Y-86810804D02*
X138725300Y-86772709D01*
X138725300Y-86772709D02*
X138763395Y-86810804D01*
X138763395Y-86810804D02*
X138725300Y-86848900D01*
X138725300Y-86848900D02*
X138687204Y-86810804D01*
X138687204Y-86810804D02*
X138763395Y-86810804D01*
X138763395Y-86010805D02*
X138763395Y-86467948D01*
X138763395Y-86239376D02*
X137963395Y-86239376D01*
X137963395Y-86239376D02*
X138077680Y-86315567D01*
X138077680Y-86315567D02*
X138153871Y-86391757D01*
X138153871Y-86391757D02*
X138191966Y-86467948D01*
X138230061Y-85325090D02*
X138763395Y-85325090D01*
X138230061Y-85667947D02*
X138649109Y-85667947D01*
X138649109Y-85667947D02*
X138725300Y-85629852D01*
X138725300Y-85629852D02*
X138763395Y-85553662D01*
X138763395Y-85553662D02*
X138763395Y-85439376D01*
X138763395Y-85439376D02*
X138725300Y-85363185D01*
X138725300Y-85363185D02*
X138687204Y-85325090D01*
D10*
X138983395Y-111971623D02*
X139631014Y-111971623D01*
X139631014Y-111971623D02*
X139707204Y-111933528D01*
X139707204Y-111933528D02*
X139745300Y-111895433D01*
X139745300Y-111895433D02*
X139783395Y-111819242D01*
X139783395Y-111819242D02*
X139783395Y-111666861D01*
X139783395Y-111666861D02*
X139745300Y-111590671D01*
X139745300Y-111590671D02*
X139707204Y-111552576D01*
X139707204Y-111552576D02*
X139631014Y-111514480D01*
X139631014Y-111514480D02*
X138983395Y-111514480D01*
X138983395Y-111209719D02*
X138983395Y-110714481D01*
X138983395Y-110714481D02*
X139288157Y-110981147D01*
X139288157Y-110981147D02*
X139288157Y-110866862D01*
X139288157Y-110866862D02*
X139326252Y-110790671D01*
X139326252Y-110790671D02*
X139364347Y-110752576D01*
X139364347Y-110752576D02*
X139440538Y-110714481D01*
X139440538Y-110714481D02*
X139631014Y-110714481D01*
X139631014Y-110714481D02*
X139707204Y-110752576D01*
X139707204Y-110752576D02*
X139745300Y-110790671D01*
X139745300Y-110790671D02*
X139783395Y-110866862D01*
X139783395Y-110866862D02*
X139783395Y-111095433D01*
X139783395Y-111095433D02*
X139745300Y-111171624D01*
X139745300Y-111171624D02*
X139707204Y-111209719D01*
D11*
X133305895Y-113709076D02*
X132505895Y-113709076D01*
X132505895Y-113709076D02*
X132505895Y-113518600D01*
X132505895Y-113518600D02*
X132543990Y-113404314D01*
X132543990Y-113404314D02*
X132620180Y-113328124D01*
X132620180Y-113328124D02*
X132696371Y-113290029D01*
X132696371Y-113290029D02*
X132848752Y-113251933D01*
X132848752Y-113251933D02*
X132963038Y-113251933D01*
X132963038Y-113251933D02*
X133115419Y-113290029D01*
X133115419Y-113290029D02*
X133191609Y-113328124D01*
X133191609Y-113328124D02*
X133267800Y-113404314D01*
X133267800Y-113404314D02*
X133305895Y-113518600D01*
X133305895Y-113518600D02*
X133305895Y-113709076D01*
X133267800Y-112947172D02*
X133305895Y-112832886D01*
X133305895Y-112832886D02*
X133305895Y-112642410D01*
X133305895Y-112642410D02*
X133267800Y-112566219D01*
X133267800Y-112566219D02*
X133229704Y-112528124D01*
X133229704Y-112528124D02*
X133153514Y-112490029D01*
X133153514Y-112490029D02*
X133077323Y-112490029D01*
X133077323Y-112490029D02*
X133001133Y-112528124D01*
X133001133Y-112528124D02*
X132963038Y-112566219D01*
X132963038Y-112566219D02*
X132924942Y-112642410D01*
X132924942Y-112642410D02*
X132886847Y-112794791D01*
X132886847Y-112794791D02*
X132848752Y-112870981D01*
X132848752Y-112870981D02*
X132810657Y-112909076D01*
X132810657Y-112909076D02*
X132734466Y-112947172D01*
X132734466Y-112947172D02*
X132658276Y-112947172D01*
X132658276Y-112947172D02*
X132582085Y-112909076D01*
X132582085Y-112909076D02*
X132543990Y-112870981D01*
X132543990Y-112870981D02*
X132505895Y-112794791D01*
X132505895Y-112794791D02*
X132505895Y-112604314D01*
X132505895Y-112604314D02*
X132543990Y-112490029D01*
X133305895Y-111728124D02*
X133305895Y-112185267D01*
X133305895Y-111956695D02*
X132505895Y-111956695D01*
X132505895Y-111956695D02*
X132620180Y-112032886D01*
X132620180Y-112032886D02*
X132696371Y-112109076D01*
X132696371Y-112109076D02*
X132734466Y-112185267D01*
X133305895Y-110966219D02*
X133305895Y-111423362D01*
X133305895Y-111194790D02*
X132505895Y-111194790D01*
X132505895Y-111194790D02*
X132620180Y-111270981D01*
X132620180Y-111270981D02*
X132696371Y-111347171D01*
X132696371Y-111347171D02*
X132734466Y-111423362D01*
X132505895Y-110699552D02*
X132505895Y-110204314D01*
X132505895Y-110204314D02*
X132810657Y-110470980D01*
X132810657Y-110470980D02*
X132810657Y-110356695D01*
X132810657Y-110356695D02*
X132848752Y-110280504D01*
X132848752Y-110280504D02*
X132886847Y-110242409D01*
X132886847Y-110242409D02*
X132963038Y-110204314D01*
X132963038Y-110204314D02*
X133153514Y-110204314D01*
X133153514Y-110204314D02*
X133229704Y-110242409D01*
X133229704Y-110242409D02*
X133267800Y-110280504D01*
X133267800Y-110280504D02*
X133305895Y-110356695D01*
X133305895Y-110356695D02*
X133305895Y-110585266D01*
X133305895Y-110585266D02*
X133267800Y-110661457D01*
X133267800Y-110661457D02*
X133229704Y-110699552D01*
X132505895Y-109937647D02*
X132505895Y-109404313D01*
X132505895Y-109404313D02*
X133305895Y-109747171D01*
X133267800Y-109137647D02*
X133305895Y-109023361D01*
X133305895Y-109023361D02*
X133305895Y-108832885D01*
X133305895Y-108832885D02*
X133267800Y-108756694D01*
X133267800Y-108756694D02*
X133229704Y-108718599D01*
X133229704Y-108718599D02*
X133153514Y-108680504D01*
X133153514Y-108680504D02*
X133077323Y-108680504D01*
X133077323Y-108680504D02*
X133001133Y-108718599D01*
X133001133Y-108718599D02*
X132963038Y-108756694D01*
X132963038Y-108756694D02*
X132924942Y-108832885D01*
X132924942Y-108832885D02*
X132886847Y-108985266D01*
X132886847Y-108985266D02*
X132848752Y-109061456D01*
X132848752Y-109061456D02*
X132810657Y-109099551D01*
X132810657Y-109099551D02*
X132734466Y-109137647D01*
X132734466Y-109137647D02*
X132658276Y-109137647D01*
X132658276Y-109137647D02*
X132582085Y-109099551D01*
X132582085Y-109099551D02*
X132543990Y-109061456D01*
X132543990Y-109061456D02*
X132505895Y-108985266D01*
X132505895Y-108985266D02*
X132505895Y-108794789D01*
X132505895Y-108794789D02*
X132543990Y-108680504D01*
X133001133Y-108337646D02*
X133001133Y-107728123D01*
X133305895Y-108032884D02*
X132696371Y-108032884D01*
X115993333Y-80342295D02*
X115993333Y-80913723D01*
X115993333Y-80913723D02*
X115955238Y-81028009D01*
X115955238Y-81028009D02*
X115879047Y-81104200D01*
X115879047Y-81104200D02*
X115764762Y-81142295D01*
X115764762Y-81142295D02*
X115688571Y-81142295D01*
X116717143Y-80608961D02*
X116717143Y-81142295D01*
X116526667Y-80304200D02*
X116336190Y-80875628D01*
X116336190Y-80875628D02*
X116831429Y-80875628D01*
X141703024Y-88079395D02*
X141703024Y-87279395D01*
X141703024Y-87279395D02*
X141893500Y-87279395D01*
X141893500Y-87279395D02*
X142007786Y-87317490D01*
X142007786Y-87317490D02*
X142083976Y-87393680D01*
X142083976Y-87393680D02*
X142122071Y-87469871D01*
X142122071Y-87469871D02*
X142160167Y-87622252D01*
X142160167Y-87622252D02*
X142160167Y-87736538D01*
X142160167Y-87736538D02*
X142122071Y-87888919D01*
X142122071Y-87888919D02*
X142083976Y-87965109D01*
X142083976Y-87965109D02*
X142007786Y-88041300D01*
X142007786Y-88041300D02*
X141893500Y-88079395D01*
X141893500Y-88079395D02*
X141703024Y-88079395D01*
X142922071Y-88079395D02*
X142464928Y-88079395D01*
X142693500Y-88079395D02*
X142693500Y-87279395D01*
X142693500Y-87279395D02*
X142617309Y-87393680D01*
X142617309Y-87393680D02*
X142541119Y-87469871D01*
X142541119Y-87469871D02*
X142464928Y-87507966D01*
X112120476Y-76202295D02*
X112120476Y-75402295D01*
X112120476Y-75783247D02*
X112577619Y-75783247D01*
X112577619Y-76202295D02*
X112577619Y-75402295D01*
X113377618Y-76202295D02*
X112920475Y-76202295D01*
X113149047Y-76202295D02*
X113149047Y-75402295D01*
X113149047Y-75402295D02*
X113072856Y-75516580D01*
X113072856Y-75516580D02*
X112996666Y-75592771D01*
X112996666Y-75592771D02*
X112920475Y-75630866D01*
X123522295Y-81453332D02*
X123141342Y-81719999D01*
X123522295Y-81910475D02*
X122722295Y-81910475D01*
X122722295Y-81910475D02*
X122722295Y-81605713D01*
X122722295Y-81605713D02*
X122760390Y-81529523D01*
X122760390Y-81529523D02*
X122798485Y-81491428D01*
X122798485Y-81491428D02*
X122874676Y-81453332D01*
X122874676Y-81453332D02*
X122988961Y-81453332D01*
X122988961Y-81453332D02*
X123065152Y-81491428D01*
X123065152Y-81491428D02*
X123103247Y-81529523D01*
X123103247Y-81529523D02*
X123141342Y-81605713D01*
X123141342Y-81605713D02*
X123141342Y-81910475D01*
X122798485Y-81148571D02*
X122760390Y-81110475D01*
X122760390Y-81110475D02*
X122722295Y-81034285D01*
X122722295Y-81034285D02*
X122722295Y-80843809D01*
X122722295Y-80843809D02*
X122760390Y-80767618D01*
X122760390Y-80767618D02*
X122798485Y-80729523D01*
X122798485Y-80729523D02*
X122874676Y-80691428D01*
X122874676Y-80691428D02*
X122950866Y-80691428D01*
X122950866Y-80691428D02*
X123065152Y-80729523D01*
X123065152Y-80729523D02*
X123522295Y-81186666D01*
X123522295Y-81186666D02*
X123522295Y-80691428D01*
X127528961Y-82349047D02*
X128062295Y-82349047D01*
X127224200Y-82539523D02*
X127795628Y-82730000D01*
X127795628Y-82730000D02*
X127795628Y-82234761D01*
X127986104Y-81929999D02*
X128024200Y-81891904D01*
X128024200Y-81891904D02*
X128062295Y-81929999D01*
X128062295Y-81929999D02*
X128024200Y-81968095D01*
X128024200Y-81968095D02*
X127986104Y-81929999D01*
X127986104Y-81929999D02*
X128062295Y-81929999D01*
X127262295Y-81625238D02*
X127262295Y-81091904D01*
X127262295Y-81091904D02*
X128062295Y-81434762D01*
X128062295Y-80787142D02*
X127262295Y-80787142D01*
X128062295Y-80329999D02*
X127605152Y-80672857D01*
X127262295Y-80329999D02*
X127719438Y-80787142D01*
D10*
X130044895Y-91382751D02*
X129244895Y-91382751D01*
X129968704Y-90544656D02*
X130006800Y-90582752D01*
X130006800Y-90582752D02*
X130044895Y-90697037D01*
X130044895Y-90697037D02*
X130044895Y-90773228D01*
X130044895Y-90773228D02*
X130006800Y-90887514D01*
X130006800Y-90887514D02*
X129930609Y-90963704D01*
X129930609Y-90963704D02*
X129854419Y-91001799D01*
X129854419Y-91001799D02*
X129702038Y-91039895D01*
X129702038Y-91039895D02*
X129587752Y-91039895D01*
X129587752Y-91039895D02*
X129435371Y-91001799D01*
X129435371Y-91001799D02*
X129359180Y-90963704D01*
X129359180Y-90963704D02*
X129282990Y-90887514D01*
X129282990Y-90887514D02*
X129244895Y-90773228D01*
X129244895Y-90773228D02*
X129244895Y-90697037D01*
X129244895Y-90697037D02*
X129282990Y-90582752D01*
X129282990Y-90582752D02*
X129321085Y-90544656D01*
X130044895Y-89782752D02*
X130044895Y-90239895D01*
X130044895Y-90011323D02*
X129244895Y-90011323D01*
X129244895Y-90011323D02*
X129359180Y-90087514D01*
X129359180Y-90087514D02*
X129435371Y-90163704D01*
X129435371Y-90163704D02*
X129473466Y-90239895D01*
D11*
X141357723Y-98176743D02*
X141357723Y-97795790D01*
X141586295Y-98252933D02*
X140786295Y-97986266D01*
X140786295Y-97986266D02*
X141586295Y-97719600D01*
X140786295Y-97567219D02*
X140786295Y-97110076D01*
X141586295Y-97338648D02*
X140786295Y-97338648D01*
X141586295Y-96843409D02*
X140786295Y-96843409D01*
X140786295Y-96843409D02*
X141357723Y-96576743D01*
X141357723Y-96576743D02*
X140786295Y-96310076D01*
X140786295Y-96310076D02*
X141586295Y-96310076D01*
X141167247Y-95929123D02*
X141167247Y-95662457D01*
X141586295Y-95548171D02*
X141586295Y-95929123D01*
X141586295Y-95929123D02*
X140786295Y-95929123D01*
X140786295Y-95929123D02*
X140786295Y-95548171D01*
X140824390Y-94786266D02*
X140786295Y-94862456D01*
X140786295Y-94862456D02*
X140786295Y-94976742D01*
X140786295Y-94976742D02*
X140824390Y-95091028D01*
X140824390Y-95091028D02*
X140900580Y-95167218D01*
X140900580Y-95167218D02*
X140976771Y-95205313D01*
X140976771Y-95205313D02*
X141129152Y-95243409D01*
X141129152Y-95243409D02*
X141243438Y-95243409D01*
X141243438Y-95243409D02*
X141395819Y-95205313D01*
X141395819Y-95205313D02*
X141472009Y-95167218D01*
X141472009Y-95167218D02*
X141548200Y-95091028D01*
X141548200Y-95091028D02*
X141586295Y-94976742D01*
X141586295Y-94976742D02*
X141586295Y-94900551D01*
X141586295Y-94900551D02*
X141548200Y-94786266D01*
X141548200Y-94786266D02*
X141510104Y-94748170D01*
X141510104Y-94748170D02*
X141243438Y-94748170D01*
X141243438Y-94748170D02*
X141243438Y-94900551D01*
X141357723Y-94443409D02*
X141357723Y-94062456D01*
X141586295Y-94519599D02*
X140786295Y-94252932D01*
X140786295Y-94252932D02*
X141586295Y-93986266D01*
X140786295Y-93795790D02*
X140786295Y-93300552D01*
X140786295Y-93300552D02*
X141091057Y-93567218D01*
X141091057Y-93567218D02*
X141091057Y-93452933D01*
X141091057Y-93452933D02*
X141129152Y-93376742D01*
X141129152Y-93376742D02*
X141167247Y-93338647D01*
X141167247Y-93338647D02*
X141243438Y-93300552D01*
X141243438Y-93300552D02*
X141433914Y-93300552D01*
X141433914Y-93300552D02*
X141510104Y-93338647D01*
X141510104Y-93338647D02*
X141548200Y-93376742D01*
X141548200Y-93376742D02*
X141586295Y-93452933D01*
X141586295Y-93452933D02*
X141586295Y-93681504D01*
X141586295Y-93681504D02*
X141548200Y-93757695D01*
X141548200Y-93757695D02*
X141510104Y-93795790D01*
X140862485Y-92995790D02*
X140824390Y-92957694D01*
X140824390Y-92957694D02*
X140786295Y-92881504D01*
X140786295Y-92881504D02*
X140786295Y-92691028D01*
X140786295Y-92691028D02*
X140824390Y-92614837D01*
X140824390Y-92614837D02*
X140862485Y-92576742D01*
X140862485Y-92576742D02*
X140938676Y-92538647D01*
X140938676Y-92538647D02*
X141014866Y-92538647D01*
X141014866Y-92538647D02*
X141129152Y-92576742D01*
X141129152Y-92576742D02*
X141586295Y-93033885D01*
X141586295Y-93033885D02*
X141586295Y-92538647D01*
X141129152Y-92081504D02*
X141091057Y-92157694D01*
X141091057Y-92157694D02*
X141052961Y-92195789D01*
X141052961Y-92195789D02*
X140976771Y-92233885D01*
X140976771Y-92233885D02*
X140938676Y-92233885D01*
X140938676Y-92233885D02*
X140862485Y-92195789D01*
X140862485Y-92195789D02*
X140824390Y-92157694D01*
X140824390Y-92157694D02*
X140786295Y-92081504D01*
X140786295Y-92081504D02*
X140786295Y-91929123D01*
X140786295Y-91929123D02*
X140824390Y-91852932D01*
X140824390Y-91852932D02*
X140862485Y-91814837D01*
X140862485Y-91814837D02*
X140938676Y-91776742D01*
X140938676Y-91776742D02*
X140976771Y-91776742D01*
X140976771Y-91776742D02*
X141052961Y-91814837D01*
X141052961Y-91814837D02*
X141091057Y-91852932D01*
X141091057Y-91852932D02*
X141129152Y-91929123D01*
X141129152Y-91929123D02*
X141129152Y-92081504D01*
X141129152Y-92081504D02*
X141167247Y-92157694D01*
X141167247Y-92157694D02*
X141205342Y-92195789D01*
X141205342Y-92195789D02*
X141281533Y-92233885D01*
X141281533Y-92233885D02*
X141433914Y-92233885D01*
X141433914Y-92233885D02*
X141510104Y-92195789D01*
X141510104Y-92195789D02*
X141548200Y-92157694D01*
X141548200Y-92157694D02*
X141586295Y-92081504D01*
X141586295Y-92081504D02*
X141586295Y-91929123D01*
X141586295Y-91929123D02*
X141548200Y-91852932D01*
X141548200Y-91852932D02*
X141510104Y-91814837D01*
X141510104Y-91814837D02*
X141433914Y-91776742D01*
X141433914Y-91776742D02*
X141281533Y-91776742D01*
X141281533Y-91776742D02*
X141205342Y-91814837D01*
X141205342Y-91814837D02*
X141167247Y-91852932D01*
X141167247Y-91852932D02*
X141129152Y-91929123D01*
X141586295Y-91433884D02*
X140786295Y-91433884D01*
X140786295Y-91433884D02*
X140786295Y-91129122D01*
X140786295Y-91129122D02*
X140824390Y-91052932D01*
X140824390Y-91052932D02*
X140862485Y-91014837D01*
X140862485Y-91014837D02*
X140938676Y-90976741D01*
X140938676Y-90976741D02*
X141052961Y-90976741D01*
X141052961Y-90976741D02*
X141129152Y-91014837D01*
X141129152Y-91014837D02*
X141167247Y-91052932D01*
X141167247Y-91052932D02*
X141205342Y-91129122D01*
X141205342Y-91129122D02*
X141205342Y-91433884D01*
X141281533Y-90633884D02*
X141281533Y-90024361D01*
X141357723Y-89681504D02*
X141357723Y-89300551D01*
X141586295Y-89757694D02*
X140786295Y-89491027D01*
X140786295Y-89491027D02*
X141586295Y-89224361D01*
X140786295Y-88957694D02*
X141433914Y-88957694D01*
X141433914Y-88957694D02*
X141510104Y-88919599D01*
X141510104Y-88919599D02*
X141548200Y-88881504D01*
X141548200Y-88881504D02*
X141586295Y-88805313D01*
X141586295Y-88805313D02*
X141586295Y-88652932D01*
X141586295Y-88652932D02*
X141548200Y-88576742D01*
X141548200Y-88576742D02*
X141510104Y-88538647D01*
X141510104Y-88538647D02*
X141433914Y-88500551D01*
X141433914Y-88500551D02*
X140786295Y-88500551D01*
X121422295Y-106766666D02*
X121993723Y-106766666D01*
X121993723Y-106766666D02*
X122108009Y-106804761D01*
X122108009Y-106804761D02*
X122184200Y-106880952D01*
X122184200Y-106880952D02*
X122222295Y-106995237D01*
X122222295Y-106995237D02*
X122222295Y-107071428D01*
X121498485Y-106423809D02*
X121460390Y-106385713D01*
X121460390Y-106385713D02*
X121422295Y-106309523D01*
X121422295Y-106309523D02*
X121422295Y-106119047D01*
X121422295Y-106119047D02*
X121460390Y-106042856D01*
X121460390Y-106042856D02*
X121498485Y-106004761D01*
X121498485Y-106004761D02*
X121574676Y-105966666D01*
X121574676Y-105966666D02*
X121650866Y-105966666D01*
X121650866Y-105966666D02*
X121765152Y-106004761D01*
X121765152Y-106004761D02*
X122222295Y-106461904D01*
X122222295Y-106461904D02*
X122222295Y-105966666D01*
D12*
%TO.C,U2*%
X147671000Y-85402100D02*
X147671000Y-85672100D01*
X147671000Y-90922100D02*
X147671000Y-90652100D01*
X150431000Y-85402100D02*
X147671000Y-85402100D01*
X150431000Y-85402100D02*
X153191000Y-85402100D01*
X150431000Y-90922100D02*
X147671000Y-90922100D01*
X150431000Y-90922100D02*
X153191000Y-90922100D01*
X153191000Y-85402100D02*
X153191000Y-85672100D01*
X153191000Y-90922100D02*
X153191000Y-90652100D01*
X146906000Y-85672100D02*
X146666000Y-85342100D01*
X147146000Y-85342100D01*
X146906000Y-85672100D01*
G36*
X146906000Y-85672100D02*
G01*
X146666000Y-85342100D01*
X147146000Y-85342100D01*
X146906000Y-85672100D01*
G37*
%TO.C,C5*%
X135208748Y-82590000D02*
X136631252Y-82590000D01*
X135208748Y-84410000D02*
X136631252Y-84410000D01*
%TO.C,Y1*%
X133468500Y-102987100D02*
X139218500Y-102987100D01*
X139218500Y-99387100D02*
X133468500Y-99387100D01*
X139218500Y-102987100D02*
X139218500Y-99387100D01*
%TO.C,D2*%
X144358500Y-93737100D02*
X144358500Y-97622100D01*
X144358500Y-97622100D02*
X146628500Y-97622100D01*
X146628500Y-97622100D02*
X146628500Y-93737100D01*
%TO.C,R7*%
X142983500Y-90214164D02*
X142983500Y-89760036D01*
X144453500Y-90214164D02*
X144453500Y-89760036D01*
%TO.C,R4*%
X131308500Y-105451664D02*
X131308500Y-104997536D01*
X132778500Y-105451664D02*
X132778500Y-104997536D01*
%TO.C,C4*%
X138683500Y-104775848D02*
X138683500Y-106198352D01*
X140503500Y-104775848D02*
X140503500Y-106198352D01*
%TO.C,R6*%
X127108500Y-94489164D02*
X127108500Y-94035036D01*
X128578500Y-94489164D02*
X128578500Y-94035036D01*
%TO.C,J3*%
X155888500Y-85802100D02*
X157268500Y-85802100D01*
X155888500Y-87182100D02*
X155888500Y-85802100D01*
X155888500Y-88452100D02*
X155888500Y-108882100D01*
X155888500Y-88452100D02*
X158648500Y-88452100D01*
X155888500Y-108882100D02*
X158648500Y-108882100D01*
X158648500Y-88452100D02*
X158648500Y-108882100D01*
%TO.C,Y2*%
X132893500Y-114787100D02*
X132893500Y-118387100D01*
X132893500Y-118387100D02*
X138643500Y-118387100D01*
X138643500Y-114787100D02*
X132893500Y-114787100D01*
%TO.C,BT1*%
X133448500Y-81542100D02*
X133448500Y-80162100D01*
X134828500Y-81542100D02*
X133448500Y-81542100D01*
X136098500Y-78782100D02*
X138748500Y-78782100D01*
X136098500Y-81542100D02*
X136098500Y-78782100D01*
X136098500Y-81542100D02*
X138748500Y-81542100D01*
X138748500Y-81542100D02*
X138748500Y-78782100D01*
%TO.C,J1*%
X117913500Y-92112100D02*
X119293500Y-92112100D01*
X117913500Y-93492100D02*
X117913500Y-92112100D01*
X117913500Y-94762100D02*
X117913500Y-102492100D01*
X117913500Y-94762100D02*
X120673500Y-94762100D01*
X117913500Y-102492100D02*
X120673500Y-102492100D01*
X120673500Y-94762100D02*
X120673500Y-102492100D01*
%TO.C,C3*%
X142182248Y-99902100D02*
X143604752Y-99902100D01*
X142182248Y-101722100D02*
X143604752Y-101722100D01*
%TO.C,C2*%
X128508748Y-101230000D02*
X129931252Y-101230000D01*
X128508748Y-103050000D02*
X129931252Y-103050000D01*
%TO.C,U1*%
X122596000Y-83212100D02*
X122596000Y-83482100D01*
X122596000Y-88732100D02*
X122596000Y-88462100D01*
X125356000Y-83212100D02*
X122596000Y-83212100D01*
X125356000Y-83212100D02*
X128116000Y-83212100D01*
X125356000Y-88732100D02*
X122596000Y-88732100D01*
X125356000Y-88732100D02*
X128116000Y-88732100D01*
X128116000Y-83212100D02*
X128116000Y-83482100D01*
X128116000Y-88732100D02*
X128116000Y-88462100D01*
X121831000Y-83482100D02*
X121591000Y-83152100D01*
X122071000Y-83152100D01*
X121831000Y-83482100D01*
G36*
X121831000Y-83482100D02*
G01*
X121591000Y-83152100D01*
X122071000Y-83152100D01*
X121831000Y-83482100D01*
G37*
%TO.C,R5*%
X135256600Y-105662464D02*
X135256600Y-105208336D01*
X136726600Y-105662464D02*
X136726600Y-105208336D01*
%TO.C,R1*%
X147499400Y-95553264D02*
X147499400Y-95099136D01*
X148969400Y-95553264D02*
X148969400Y-95099136D01*
%TO.C,R3*%
X150428936Y-83277100D02*
X150883064Y-83277100D01*
X150428936Y-84747100D02*
X150883064Y-84747100D01*
%TO.C,C1*%
X134788748Y-85510000D02*
X136211252Y-85510000D01*
X134788748Y-87330000D02*
X136211252Y-87330000D01*
D10*
%TO.C,U3*%
X133733500Y-114139600D02*
X133733500Y-113449600D01*
X134083500Y-112289600D02*
X134823500Y-112289600D01*
X134093500Y-114139600D02*
X133733500Y-114139600D01*
X134553500Y-112019600D02*
X134823500Y-112289600D01*
X134823500Y-112289600D02*
X134553500Y-112559600D01*
X137293500Y-109489600D02*
X137563500Y-109219600D01*
X137563500Y-109759600D02*
X137293500Y-109489600D01*
X137813500Y-111979600D02*
X137573500Y-112219600D01*
X137813500Y-111979600D02*
X138053500Y-112219600D01*
X137813500Y-112599600D02*
X137813500Y-111979600D01*
X137933500Y-107659600D02*
X138263500Y-107659600D01*
X138033500Y-109489600D02*
X137293500Y-109489600D01*
X138263500Y-107659600D02*
X138263500Y-108259600D01*
X138263500Y-113449600D02*
X138263500Y-114129600D01*
X138263500Y-114129600D02*
X137933500Y-114129600D01*
D13*
X133593500Y-107559600D02*
X138373500Y-107559600D01*
X138373500Y-114259600D01*
X133593500Y-114259600D01*
X133593500Y-107559600D01*
D10*
X133723500Y-107659600D02*
X133733500Y-107659600D01*
X133733500Y-108259600D01*
X133723500Y-108259600D01*
X133723500Y-107659600D01*
X133723500Y-107659600D02*
X134093500Y-107659600D01*
X133723500Y-107659600D01*
X133823500Y-109049600D02*
X138213500Y-109049600D01*
X138213500Y-112749600D01*
X133823500Y-112749600D01*
X133823500Y-109049600D01*
D14*
X134113500Y-114559600D02*
G75*
G02*
X134053500Y-114559600I-30000J0D01*
G01*
X134053500Y-114559600D02*
G75*
G02*
X134113500Y-114559600I30000J0D01*
G01*
D12*
%TO.C,J4*%
X113673500Y-89667100D02*
X113673500Y-81827100D01*
X116323500Y-87017100D02*
X116323500Y-89667100D01*
X116323500Y-89667100D02*
X113673500Y-89667100D01*
X118973500Y-81827100D02*
X113673500Y-81827100D01*
X118973500Y-87017100D02*
X116323500Y-87017100D01*
X118973500Y-87017100D02*
X118973500Y-81827100D01*
X118973500Y-88287100D02*
X118973500Y-89667100D01*
X118973500Y-89667100D02*
X117593500Y-89667100D01*
%TO.C,D1*%
X140693500Y-87022100D02*
X144578500Y-87022100D01*
X144578500Y-84752100D02*
X140693500Y-84752100D01*
X144578500Y-87022100D02*
X144578500Y-84752100D01*
%TO.C,R2*%
X125091436Y-80702100D02*
X125545564Y-80702100D01*
X125091436Y-82172100D02*
X125545564Y-82172100D01*
D10*
%TO.C,IC1*%
X131363500Y-88797100D02*
X132493500Y-88797100D01*
X131363500Y-89537100D02*
X131363500Y-88797100D01*
X131363500Y-97682100D02*
X131363500Y-96552100D01*
X132103500Y-97682100D02*
X131363500Y-97682100D01*
X132273500Y-95857100D02*
X133183500Y-95857100D01*
X132703500Y-90057100D02*
X132703500Y-90967100D01*
X132703500Y-90967100D02*
X132323500Y-90587100D01*
X132703500Y-90967100D02*
X133043500Y-90627100D01*
X133183500Y-95857100D02*
X132803500Y-96237100D01*
X133183500Y-95857100D02*
X132843500Y-95517100D01*
X137823500Y-90417100D02*
X138163500Y-90757100D01*
X137823500Y-90417100D02*
X138203500Y-90037100D01*
X138343500Y-95277100D02*
X138003500Y-95617100D01*
X138343500Y-95277100D02*
X138723500Y-95657100D01*
X138343500Y-96187100D02*
X138343500Y-95277100D01*
X138733500Y-90417100D02*
X137823500Y-90417100D01*
X139233500Y-88807100D02*
X140343500Y-88807100D01*
X139453500Y-97547100D02*
X140343500Y-97547100D01*
X140343500Y-88807100D02*
X140343500Y-89707100D01*
X140343500Y-97547100D02*
X140343500Y-96767100D01*
D15*
X133203500Y-98927100D02*
G75*
G02*
X133043500Y-98927100I-80000J0D01*
G01*
X133043500Y-98927100D02*
G75*
G02*
X133203500Y-98927100I80000J0D01*
G01*
D12*
%TO.C,J2*%
X117913500Y-104247100D02*
X119293500Y-104247100D01*
X117913500Y-105627100D02*
X117913500Y-104247100D01*
X117913500Y-106897100D02*
X117913500Y-114627100D01*
X117913500Y-106897100D02*
X120673500Y-106897100D01*
X117913500Y-114627100D02*
X120673500Y-114627100D01*
X120673500Y-106897100D02*
X120673500Y-114627100D01*
%TD*%
M02*
