%TF.GenerationSoftware,KiCad,Pcbnew,9.0.1*%
%TF.CreationDate,2025-12-03T13:54:12+03:00*%
%TF.ProjectId,MCU Datalogger wirh 512KB EEPROM,4d435520-4461-4746-916c-6f6767657220,1*%
%TF.SameCoordinates,Original*%
%TF.FileFunction,Copper,L3,Inr*%
%TF.FilePolarity,Positive*%
%FSLAX46Y46*%
G04 Gerber Fmt 4.6, Leading zero omitted, Abs format (unit mm)*
G04 Created by KiCad (PCBNEW 9.0.1) date 2025-12-03 13:54:12*
%MOMM*%
%LPD*%
G01*
G04 APERTURE LIST*
%TA.AperFunction,ComponentPad*%
%ADD10R,1.700000X1.700000*%
%TD*%
%TA.AperFunction,ComponentPad*%
%ADD11C,1.700000*%
%TD*%
%TA.AperFunction,ViaPad*%
%ADD12C,0.700000*%
%TD*%
%TA.AperFunction,ViaPad*%
%ADD13C,0.600000*%
%TD*%
%TA.AperFunction,Conductor*%
%ADD14C,0.250000*%
%TD*%
%TA.AperFunction,Conductor*%
%ADD15C,0.200000*%
%TD*%
G04 APERTURE END LIST*
D10*
%TO.N,/D2*%
%TO.C,J3*%
X157268500Y-87182100D03*
D11*
%TO.N,/D3*%
X157268500Y-89722100D03*
%TO.N,/D4*%
X157268500Y-92262100D03*
%TO.N,/D5*%
X157268500Y-94802100D03*
%TO.N,/D6*%
X157268500Y-97342100D03*
%TO.N,/D7*%
X157268500Y-99882100D03*
%TO.N,/D8*%
X157268500Y-102422100D03*
%TO.N,GND*%
X157268500Y-104962100D03*
%TO.N,/Vcc*%
X157268500Y-107502100D03*
%TD*%
D10*
%TO.N,/Vcc*%
%TO.C,BT1*%
X134828500Y-80162100D03*
D11*
%TO.N,GND*%
X137368500Y-80162100D03*
%TD*%
D10*
%TO.N,GND*%
%TO.C,J1*%
X119293500Y-93492100D03*
D11*
%TO.N,/Vcc*%
X119293500Y-96032100D03*
%TO.N,/SDA*%
X119293500Y-98572100D03*
%TO.N,/SCL*%
X119293500Y-101112100D03*
%TD*%
D10*
%TO.N,/MISO*%
%TO.C,J4*%
X117593500Y-88287100D03*
D11*
%TO.N,/Vcc*%
X115053500Y-88287100D03*
%TO.N,/SCK*%
X117593500Y-85747100D03*
%TO.N,/MOSI*%
X115053500Y-85747100D03*
%TO.N,/RESET*%
X117593500Y-83207100D03*
%TO.N,GND*%
X115053500Y-83207100D03*
%TD*%
D10*
%TO.N,GND*%
%TO.C,J2*%
X119293500Y-105627100D03*
D11*
%TO.N,/Vcc*%
X119293500Y-108167100D03*
%TO.N,/RX*%
X119293500Y-110707100D03*
%TO.N,/TX*%
X119293500Y-113247100D03*
%TD*%
D12*
%TO.N,GND*%
X150250000Y-87570000D03*
X130350000Y-99690000D03*
X134389932Y-90331935D03*
X143790000Y-83630000D03*
X135300000Y-85670000D03*
X151010000Y-90140000D03*
X132650000Y-108080000D03*
X126310000Y-86070000D03*
X138930000Y-105070000D03*
X152720000Y-93250000D03*
X134700000Y-95540000D03*
%TO.N,/Vcc*%
X137420000Y-110420000D03*
X135550000Y-99170000D03*
X147300000Y-99860000D03*
X138990000Y-85840000D03*
X142390000Y-95410000D03*
X139443500Y-99170000D03*
X153530000Y-85090000D03*
X129800000Y-108250000D03*
X120330000Y-82420000D03*
X140630000Y-80490000D03*
D13*
%TO.N,Net-(IC1-PB6)*%
X136280000Y-101480000D03*
X137560000Y-103750000D03*
%TO.N,/SCK*%
X119930000Y-88360000D03*
X141500000Y-87750000D03*
%TO.N,/SDA*%
X128960000Y-111790000D03*
X136210000Y-82120000D03*
X132610000Y-92130000D03*
%TO.N,/D2*%
X129340000Y-98000000D03*
X123290000Y-116490000D03*
%TO.N,/D7*%
X150710000Y-103080000D03*
X137480000Y-94700000D03*
%TO.N,/RESET*%
X120390000Y-80460000D03*
X120060000Y-90330000D03*
%TO.N,/MOSI*%
X134140000Y-91750000D03*
X110960000Y-86400000D03*
%TO.N,/D5*%
X142200000Y-98460000D03*
%TO.N,/D6*%
X154170000Y-96670000D03*
X142890000Y-93180000D03*
%TO.N,/SCL*%
X130150000Y-113280000D03*
X129100000Y-90980000D03*
X109820000Y-100600000D03*
X127370000Y-80520000D03*
%TO.N,/D8*%
X159990000Y-92520000D03*
X136360000Y-93070000D03*
%TO.N,/MISO*%
X115530000Y-92220000D03*
X137440000Y-90430000D03*
X126330000Y-92150000D03*
%TD*%
D14*
%TO.N,GND*%
X140836400Y-83630000D02*
X143790000Y-83630000D01*
X119457900Y-93492100D02*
X124760000Y-88190000D01*
X124760000Y-88190000D02*
X124760000Y-87620000D01*
X137368500Y-80162100D02*
X140836400Y-83630000D01*
X124760000Y-87620000D02*
X126310000Y-86070000D01*
X119293500Y-93492100D02*
X119457900Y-93492100D01*
%TO.N,/Vcc*%
X160420000Y-82590000D02*
X154540000Y-82590000D01*
X129800000Y-108250000D02*
X131980000Y-110430000D01*
X137360000Y-110430000D02*
X137410000Y-110430000D01*
X153530000Y-83600000D02*
X153530000Y-85090000D01*
X113480600Y-89860000D02*
X110680000Y-89860000D01*
X109790000Y-85610000D02*
X114540000Y-80860000D01*
X147300000Y-99860000D02*
X149626400Y-99860000D01*
X110680000Y-89860000D02*
X109790000Y-88970000D01*
X162730000Y-84900000D02*
X160420000Y-82590000D01*
X109790000Y-88970000D02*
X109790000Y-85610000D01*
X139443500Y-99170000D02*
X139443500Y-98356500D01*
X114540000Y-80860000D02*
X118260000Y-80860000D01*
X119820000Y-82420000D02*
X120330000Y-82420000D01*
X162730000Y-102040600D02*
X162730000Y-84900000D01*
X137410000Y-110430000D02*
X137420000Y-110420000D01*
X154540000Y-82590000D02*
X153530000Y-83600000D01*
X118260000Y-80860000D02*
X119820000Y-82420000D01*
X131980000Y-110430000D02*
X137360000Y-110430000D01*
X139443500Y-98356500D02*
X142390000Y-95410000D01*
X157268500Y-107502100D02*
X162730000Y-102040600D01*
X149626400Y-99860000D02*
X157268500Y-107502100D01*
X115053500Y-88287100D02*
X113480600Y-89860000D01*
D15*
%TO.N,/SCK*%
X125020000Y-83270000D02*
X125490000Y-83270000D01*
X119930000Y-88360000D02*
X125020000Y-83270000D01*
X132300000Y-82440000D02*
X133935407Y-82440000D01*
X139245407Y-87750000D02*
X141500000Y-87750000D01*
X128350000Y-82570000D02*
X128480000Y-82440000D01*
X133935407Y-82440000D02*
X139245407Y-87750000D01*
X125490000Y-83270000D02*
X127650000Y-83270000D01*
X127650000Y-83270000D02*
X128350000Y-82570000D01*
X128480000Y-82440000D02*
X132300000Y-82440000D01*
%TO.N,/MISO*%
X137270000Y-90430000D02*
X133430000Y-94270000D01*
X128450000Y-94270000D02*
X126330000Y-92150000D01*
X133430000Y-94270000D02*
X128450000Y-94270000D01*
X137440000Y-90430000D02*
X137270000Y-90430000D01*
%TD*%
%TA.AperFunction,Conductor*%
%TO.N,GND*%
G36*
X120658317Y-92119984D02*
G01*
X120661152Y-92122071D01*
X120827289Y-92288208D01*
X120830716Y-92296481D01*
X120829740Y-92301159D01*
X120148226Y-93863658D01*
X120141778Y-93869871D01*
X120132824Y-93869704D01*
X120132713Y-93869655D01*
X119297227Y-93494796D01*
X119291082Y-93488284D01*
X118975394Y-92653713D01*
X118975672Y-92644764D01*
X118982198Y-92638632D01*
X118982822Y-92638416D01*
X120649401Y-92119174D01*
X120658317Y-92119984D01*
G37*
%TD.AperFunction*%
%TD*%
%TA.AperFunction,Conductor*%
%TO.N,GND*%
G36*
X138200998Y-79999996D02*
G01*
X138205527Y-80005842D01*
X138644982Y-81257299D01*
X138644490Y-81266240D01*
X138642216Y-81269448D01*
X138475848Y-81435816D01*
X138467575Y-81439243D01*
X138463699Y-81438582D01*
X137212242Y-80999127D01*
X137205571Y-80993153D01*
X137204641Y-80985820D01*
X137366272Y-80169077D01*
X137371239Y-80161627D01*
X137375477Y-80159872D01*
X138192219Y-79998241D01*
X138200998Y-79999996D01*
G37*
%TD.AperFunction*%
%TD*%
%TA.AperFunction,Conductor*%
%TO.N,/Vcc*%
G36*
X158372640Y-106226109D02*
G01*
X158375848Y-106228383D01*
X158542216Y-106394751D01*
X158545643Y-106403024D01*
X158544982Y-106406900D01*
X158105527Y-107658357D01*
X158099553Y-107665028D01*
X158092217Y-107665958D01*
X157275478Y-107504327D01*
X157268027Y-107499360D01*
X157266272Y-107495121D01*
X157260007Y-107463468D01*
X157104641Y-106678379D01*
X157106396Y-106669601D01*
X157112240Y-106665073D01*
X158363700Y-106225617D01*
X158372640Y-106226109D01*
G37*
%TD.AperFunction*%
%TD*%
%TA.AperFunction,Conductor*%
%TO.N,/Vcc*%
G36*
X156173297Y-106225616D02*
G01*
X157424757Y-106665072D01*
X157431428Y-106671046D01*
X157432358Y-106678382D01*
X157270727Y-107495121D01*
X157265760Y-107502572D01*
X157261521Y-107504327D01*
X156444782Y-107665958D01*
X156436001Y-107664203D01*
X156431472Y-107658357D01*
X156376767Y-107502572D01*
X155992017Y-106406898D01*
X155992509Y-106397959D01*
X155994780Y-106394754D01*
X156161152Y-106228382D01*
X156169424Y-106224956D01*
X156173297Y-106225616D01*
G37*
%TD.AperFunction*%
%TD*%
%TA.AperFunction,Conductor*%
%TO.N,/Vcc*%
G36*
X115014868Y-88278607D02*
G01*
X115046521Y-88284872D01*
X115053972Y-88289839D01*
X115055727Y-88294078D01*
X115217358Y-89110817D01*
X115215603Y-89119598D01*
X115209757Y-89124127D01*
X113958300Y-89563582D01*
X113949359Y-89563090D01*
X113946151Y-89560816D01*
X113779783Y-89394448D01*
X113776356Y-89386175D01*
X113777016Y-89382303D01*
X114216473Y-88130840D01*
X114222446Y-88124171D01*
X114229779Y-88123241D01*
X115014868Y-88278607D01*
G37*
%TD.AperFunction*%
%TD*%
M02*
