M48
; DRILL file {KiCad 9.0.1} date 2025-11-19T15:27:44+0300
; FORMAT={-:-/ absolute / metric / decimal}
; #@! TF.CreationDate,2025-11-19T15:27:44+03:00
; #@! TF.GenerationSoftware,Kicad,Pcbnew,9.0.1
; #@! TF.FileFunction,Plated,1,4,PTH
FMAT,2
METRIC
; #@! TA.AperFunction,Plated,PTH,ViaDrill
T1C0.300
; #@! TA.AperFunction,Plated,PTH,ViaDrill
T2C0.400
; #@! TA.AperFunction,Plated,PTH,ComponentDrill
T3C1.000
%
G90
G05
T1
X109.82Y-100.6
X110.96Y-86.4
X115.53Y-92.22
X120.06Y-90.33
X120.39Y-80.46
X123.29Y-116.49
X126.33Y-92.15
X127.37Y-80.52
X128.96Y-111.79
X129.1Y-90.98
X129.34Y-98.0
X130.15Y-113.28
X132.61Y-92.13
X134.14Y-91.75
X136.21Y-82.12
X136.28Y-101.48
X136.36Y-93.07
X137.44Y-90.43
X137.48Y-94.7
X137.56Y-103.75
X142.2Y-98.46
X142.89Y-93.18
X150.71Y-103.08
X154.17Y-96.67
X159.99Y-92.52
T2
X120.33Y-82.42
X126.31Y-86.07
X129.8Y-108.25
X130.35Y-99.69
X132.65Y-108.08
X134.39Y-90.332
X134.7Y-95.54
X135.3Y-85.67
X135.55Y-99.17
X137.42Y-110.42
X138.93Y-105.07
X138.99Y-85.84
X139.444Y-99.17
X140.63Y-80.49
X142.39Y-95.41
X143.79Y-83.63
X147.3Y-99.86
X150.25Y-87.57
X151.01Y-90.14
X152.72Y-93.25
X153.53Y-85.09
T3
X115.053Y-83.207
X115.053Y-85.747
X115.053Y-88.287
X117.593Y-83.207
X117.593Y-85.747
X117.593Y-88.287
X119.293Y-93.492
X119.293Y-96.032
X119.293Y-98.572
X119.293Y-101.112
X119.293Y-105.627
X119.293Y-108.167
X119.293Y-110.707
X119.293Y-113.247
X134.828Y-80.162
X137.368Y-80.162
X157.268Y-87.182
X157.268Y-89.722
X157.268Y-92.262
X157.268Y-94.802
X157.268Y-97.342
X157.268Y-99.882
X157.268Y-102.422
X157.268Y-104.962
X157.268Y-107.502
M30
